<svg width="239" height="228" viewBox="0 0 239 228" fill="none" xmlns="http://www.w3.org/2000/svg">
<circle cx="120.773" cy="113.718" r="113.218" fill="white" stroke="#C4C4C4"/>
<path d="M112.012 181.448V185.848H91.3725V182.368L102.492 171.808C103.746 170.608 104.586 169.568 105.012 168.688C105.466 167.781 105.692 166.888 105.692 166.008C105.692 164.701 105.252 163.701 104.372 163.008C103.492 162.314 102.199 161.968 100.492 161.968C97.6391 161.968 95.4525 162.941 93.9325 164.888L90.2925 162.088C91.3858 160.621 92.8525 159.488 94.6925 158.688C96.5591 157.861 98.6391 157.448 100.932 157.448C103.972 157.448 106.399 158.168 108.212 159.608C110.026 161.048 110.932 163.008 110.932 165.488C110.932 167.008 110.612 168.434 109.972 169.768C109.332 171.101 108.106 172.621 106.292 174.328L98.8125 181.448H112.012ZM121.614 170.928C120.36 170.928 119.214 170.634 118.174 170.048C117.134 169.434 116.307 168.621 115.694 167.608C115.107 166.594 114.814 165.474 114.814 164.248C114.814 163.021 115.107 161.901 115.694 160.888C116.307 159.848 117.134 159.034 118.174 158.448C119.214 157.834 120.36 157.528 121.614 157.528C122.867 157.528 124.014 157.834 125.054 158.448C126.094 159.034 126.907 159.848 127.494 160.888C128.107 161.901 128.414 163.021 128.414 164.248C128.414 165.474 128.107 166.594 127.494 167.608C126.907 168.621 126.094 169.434 125.054 170.048C124.014 170.634 122.867 170.928 121.614 170.928ZM121.614 168.288C122.76 168.288 123.707 167.901 124.454 167.128C125.227 166.354 125.614 165.394 125.614 164.248C125.614 163.074 125.227 162.101 124.454 161.328C123.707 160.554 122.76 160.168 121.614 160.168C120.467 160.168 119.507 160.554 118.734 161.328C117.96 162.101 117.574 163.074 117.574 164.248C117.574 165.394 117.96 166.354 118.734 167.128C119.507 167.901 120.467 168.288 121.614 168.288ZM147.122 186.248C144.295 186.248 141.735 185.634 139.442 184.408C137.175 183.154 135.389 181.434 134.082 179.248C132.802 177.061 132.162 174.594 132.162 171.848C132.162 169.101 132.815 166.634 134.122 164.448C135.429 162.261 137.215 160.554 139.482 159.328C141.775 158.074 144.335 157.448 147.162 157.448C149.455 157.448 151.549 157.848 153.442 158.648C155.335 159.448 156.935 160.608 158.242 162.128L154.882 165.288C152.855 163.101 150.362 162.008 147.402 162.008C145.482 162.008 143.762 162.434 142.242 163.288C140.722 164.114 139.535 165.274 138.682 166.768C137.829 168.261 137.402 169.954 137.402 171.848C137.402 173.741 137.829 175.434 138.682 176.928C139.535 178.421 140.722 179.594 142.242 180.448C143.762 181.274 145.482 181.688 147.402 181.688C150.362 181.688 152.855 180.581 154.882 178.368L158.242 181.568C156.935 183.088 155.322 184.248 153.402 185.048C151.509 185.848 149.415 186.248 147.122 186.248Z" fill="#77A945"/>
<path d="M92.881 62.9077C92.369 62.9077 91.877 62.8357 91.405 62.6917C90.941 62.5397 90.577 62.3517 90.313 62.1277L90.697 61.4557C90.961 61.6637 91.293 61.8357 91.693 61.9717C92.093 62.0997 92.509 62.1637 92.941 62.1637C93.517 62.1637 93.941 62.0757 94.213 61.8997C94.493 61.7157 94.633 61.4597 94.633 61.1317C94.633 60.8997 94.557 60.7197 94.405 60.5917C94.253 60.4557 94.061 60.3557 93.829 60.2917C93.597 60.2197 93.289 60.1517 92.905 60.0877C92.393 59.9917 91.981 59.8957 91.669 59.7997C91.357 59.6957 91.089 59.5237 90.865 59.2837C90.649 59.0437 90.541 58.7117 90.541 58.2877C90.541 57.7597 90.761 57.3277 91.201 56.9917C91.641 56.6557 92.253 56.4877 93.037 56.4877C93.445 56.4877 93.853 56.5437 94.261 56.6557C94.669 56.7597 95.005 56.8997 95.269 57.0757L94.897 57.7597C94.377 57.3997 93.757 57.2197 93.037 57.2197C92.493 57.2197 92.081 57.3157 91.801 57.5077C91.529 57.6997 91.393 57.9517 91.393 58.2637C91.393 58.5037 91.469 58.6957 91.621 58.8397C91.781 58.9837 91.977 59.0917 92.209 59.1637C92.441 59.2277 92.761 59.2957 93.169 59.3677C93.673 59.4637 94.077 59.5597 94.381 59.6557C94.685 59.7517 94.945 59.9157 95.161 60.1477C95.377 60.3797 95.485 60.6997 95.485 61.1077C95.485 61.6597 95.253 62.0997 94.789 62.4277C94.333 62.7477 93.697 62.9077 92.881 62.9077ZM99.6401 62.9077C99.0321 62.9077 98.4841 62.7717 97.9961 62.4997C97.5081 62.2197 97.1241 61.8357 96.8441 61.3477C96.5641 60.8597 96.4241 60.3077 96.4241 59.6917C96.4241 59.0757 96.5641 58.5237 96.8441 58.0357C97.1241 57.5477 97.5081 57.1677 97.9961 56.8957C98.4841 56.6237 99.0321 56.4877 99.6401 56.4877C100.248 56.4877 100.796 56.6237 101.284 56.8957C101.772 57.1677 102.152 57.5477 102.424 58.0357C102.704 58.5237 102.844 59.0757 102.844 59.6917C102.844 60.3077 102.704 60.8597 102.424 61.3477C102.152 61.8357 101.772 62.2197 101.284 62.4997C100.796 62.7717 100.248 62.9077 99.6401 62.9077ZM99.6401 62.1517C100.088 62.1517 100.488 62.0517 100.84 61.8517C101.2 61.6437 101.48 61.3517 101.68 60.9757C101.88 60.5997 101.98 60.1717 101.98 59.6917C101.98 59.2117 101.88 58.7837 101.68 58.4077C101.48 58.0317 101.2 57.7437 100.84 57.5437C100.488 57.3357 100.088 57.2317 99.6401 57.2317C99.1921 57.2317 98.7881 57.3357 98.4281 57.5437C98.0761 57.7437 97.7961 58.0317 97.5881 58.4077C97.3881 58.7837 97.2881 59.2117 97.2881 59.6917C97.2881 60.1717 97.3881 60.5997 97.5881 60.9757C97.7961 61.3517 98.0761 61.6437 98.4281 61.8517C98.7881 62.0517 99.1921 62.1517 99.6401 62.1517ZM110.272 56.5357V62.8477H109.456V61.6957C109.232 62.0797 108.924 62.3797 108.532 62.5957C108.14 62.8037 107.692 62.9077 107.188 62.9077C106.364 62.9077 105.712 62.6797 105.232 62.2237C104.76 61.7597 104.524 61.0837 104.524 60.1957V56.5357H105.376V60.1117C105.376 60.7757 105.54 61.2797 105.868 61.6237C106.196 61.9677 106.664 62.1397 107.272 62.1397C107.936 62.1397 108.46 61.9397 108.844 61.5397C109.228 61.1317 109.42 60.5677 109.42 59.8477V56.5357H110.272ZM115.874 56.4877C116.666 56.4877 117.294 56.7197 117.758 57.1837C118.23 57.6397 118.466 58.3077 118.466 59.1877V62.8477H117.614V59.2717C117.614 58.6157 117.45 58.1157 117.122 57.7717C116.794 57.4277 116.326 57.2557 115.718 57.2557C115.038 57.2557 114.498 57.4597 114.098 57.8677C113.706 58.2677 113.51 58.8237 113.51 59.5357V62.8477H112.658V53.9437H113.51V57.6397C113.742 57.2717 114.062 56.9877 114.47 56.7877C114.878 56.5877 115.346 56.4877 115.874 56.4877ZM122.987 56.4877C123.811 56.4877 124.443 56.6957 124.883 57.1117C125.323 57.5197 125.543 58.1277 125.543 58.9357V62.8477H124.727V61.8637C124.535 62.1917 124.251 62.4477 123.875 62.6317C123.507 62.8157 123.067 62.9077 122.555 62.9077C121.851 62.9077 121.291 62.7397 120.875 62.4037C120.459 62.0677 120.251 61.6237 120.251 61.0717C120.251 60.5357 120.443 60.1037 120.827 59.7757C121.219 59.4477 121.839 59.2837 122.687 59.2837H124.691V58.8997C124.691 58.3557 124.539 57.9437 124.235 57.6637C123.931 57.3757 123.487 57.2317 122.903 57.2317C122.503 57.2317 122.119 57.2997 121.751 57.4357C121.383 57.5637 121.067 57.7437 120.803 57.9757L120.419 57.3397C120.739 57.0677 121.123 56.8597 121.571 56.7157C122.019 56.5637 122.491 56.4877 122.987 56.4877ZM122.687 62.2357C123.167 62.2357 123.579 62.1277 123.923 61.9117C124.267 61.6877 124.523 61.3677 124.691 60.9517V59.9197H122.711C121.631 59.9197 121.091 60.2957 121.091 61.0477C121.091 61.4157 121.231 61.7077 121.511 61.9237C121.791 62.1317 122.183 62.2357 122.687 62.2357ZM127.857 56.5357H128.709V62.8477H127.857V56.5357ZM128.289 55.1557C128.113 55.1557 127.965 55.0957 127.845 54.9757C127.725 54.8557 127.665 54.7117 127.665 54.5437C127.665 54.3837 127.725 54.2437 127.845 54.1237C127.965 54.0037 128.113 53.9437 128.289 53.9437C128.465 53.9437 128.613 54.0037 128.733 54.1237C128.853 54.2357 128.913 54.3717 128.913 54.5317C128.913 54.7077 128.853 54.8557 128.733 54.9757C128.613 55.0957 128.465 55.1557 128.289 55.1557ZM134.404 62.4637C134.244 62.6077 134.044 62.7197 133.804 62.7997C133.572 62.8717 133.328 62.9077 133.072 62.9077C132.48 62.9077 132.024 62.7477 131.704 62.4277C131.384 62.1077 131.224 61.6557 131.224 61.0717V57.2557H130.096V56.5357H131.224V55.1557H132.076V56.5357H133.996V57.2557H132.076V61.0237C132.076 61.3997 132.168 61.6877 132.352 61.8877C132.544 62.0797 132.816 62.1757 133.168 62.1757C133.344 62.1757 133.512 62.1477 133.672 62.0917C133.84 62.0357 133.984 61.9557 134.104 61.8517L134.404 62.4637ZM144.855 56.5357V65.1757H144.003V61.6597C143.739 62.0677 143.399 62.3797 142.983 62.5957C142.575 62.8037 142.115 62.9077 141.603 62.9077C141.003 62.9077 140.463 62.7757 139.983 62.5117C139.511 62.2397 139.139 61.8597 138.867 61.3717C138.595 60.8837 138.459 60.3237 138.459 59.6917C138.459 59.0677 138.595 58.5117 138.867 58.0237C139.139 57.5357 139.515 57.1597 139.995 56.8957C140.475 56.6237 141.011 56.4877 141.603 56.4877C142.131 56.4877 142.603 56.5997 143.019 56.8237C143.443 57.0477 143.783 57.3677 144.039 57.7837V56.5357H144.855ZM141.675 62.1517C142.115 62.1517 142.511 62.0517 142.863 61.8517C143.223 61.6437 143.503 61.3517 143.703 60.9757C143.911 60.5997 144.015 60.1717 144.015 59.6917C144.015 59.2117 143.911 58.7877 143.703 58.4197C143.503 58.0437 143.223 57.7517 142.863 57.5437C142.511 57.3357 142.115 57.2317 141.675 57.2317C141.227 57.2317 140.823 57.3357 140.463 57.5437C140.111 57.7517 139.831 58.0437 139.623 58.4197C139.423 58.7877 139.323 59.2117 139.323 59.6917C139.323 60.1717 139.423 60.5997 139.623 60.9757C139.831 61.3517 140.111 61.6437 140.463 61.8517C140.823 62.0517 141.227 62.1517 141.675 62.1517ZM152.916 56.5357V62.8477H152.1V61.6957C151.876 62.0797 151.568 62.3797 151.176 62.5957C150.784 62.8037 150.336 62.9077 149.832 62.9077C149.008 62.9077 148.356 62.6797 147.876 62.2237C147.404 61.7597 147.168 61.0837 147.168 60.1957V56.5357H148.02V60.1117C148.02 60.7757 148.184 61.2797 148.512 61.6237C148.84 61.9677 149.308 62.1397 149.916 62.1397C150.58 62.1397 151.104 61.9397 151.488 61.5397C151.872 61.1317 152.064 60.5677 152.064 59.8477V56.5357H152.916ZM160.798 59.9557H155.518C155.566 60.6117 155.818 61.1437 156.274 61.5517C156.73 61.9517 157.306 62.1517 158.002 62.1517C158.394 62.1517 158.754 62.0837 159.082 61.9477C159.41 61.8037 159.694 61.5957 159.934 61.3237L160.414 61.8757C160.134 62.2117 159.782 62.4677 159.358 62.6437C158.942 62.8197 158.482 62.9077 157.978 62.9077C157.33 62.9077 156.754 62.7717 156.25 62.4997C155.754 62.2197 155.366 61.8357 155.086 61.3477C154.806 60.8597 154.666 60.3077 154.666 59.6917C154.666 59.0757 154.798 58.5237 155.062 58.0357C155.334 57.5477 155.702 57.1677 156.166 56.8957C156.638 56.6237 157.166 56.4877 157.75 56.4877C158.334 56.4877 158.858 56.6237 159.322 56.8957C159.786 57.1677 160.15 57.5477 160.414 58.0357C160.678 58.5157 160.81 59.0677 160.81 59.6917L160.798 59.9557ZM157.75 57.2197C157.142 57.2197 156.63 57.4157 156.214 57.8077C155.806 58.1917 155.574 58.6957 155.518 59.3197H159.994C159.938 58.6957 159.702 58.1917 159.286 57.8077C158.878 57.4157 158.366 57.2197 157.75 57.2197ZM168.301 62.9077C167.677 62.9077 167.117 62.7717 166.621 62.4997C166.133 62.2277 165.749 61.8477 165.469 61.3597C165.189 60.8637 165.049 60.3077 165.049 59.6917C165.049 59.0757 165.189 58.5237 165.469 58.0357C165.749 57.5477 166.133 57.1677 166.621 56.8957C167.117 56.6237 167.677 56.4877 168.301 56.4877C168.845 56.4877 169.329 56.5957 169.753 56.8117C170.185 57.0197 170.525 57.3277 170.773 57.7357L170.137 58.1677C169.929 57.8557 169.665 57.6237 169.345 57.4717C169.025 57.3117 168.677 57.2317 168.301 57.2317C167.845 57.2317 167.433 57.3357 167.065 57.5437C166.705 57.7437 166.421 58.0317 166.213 58.4077C166.013 58.7837 165.913 59.2117 165.913 59.6917C165.913 60.1797 166.013 60.6117 166.213 60.9877C166.421 61.3557 166.705 61.6437 167.065 61.8517C167.433 62.0517 167.845 62.1517 168.301 62.1517C168.677 62.1517 169.025 62.0757 169.345 61.9237C169.665 61.7717 169.929 61.5397 170.137 61.2277L170.773 61.6597C170.525 62.0677 170.185 62.3797 169.753 62.5957C169.321 62.8037 168.837 62.9077 168.301 62.9077ZM177.837 59.9557H172.557C172.605 60.6117 172.857 61.1437 173.313 61.5517C173.769 61.9517 174.345 62.1517 175.041 62.1517C175.433 62.1517 175.793 62.0837 176.121 61.9477C176.449 61.8037 176.733 61.5957 176.973 61.3237L177.453 61.8757C177.173 62.2117 176.821 62.4677 176.397 62.6437C175.981 62.8197 175.521 62.9077 175.017 62.9077C174.369 62.9077 173.793 62.7717 173.289 62.4997C172.793 62.2197 172.405 61.8357 172.125 61.3477C171.845 60.8597 171.705 60.3077 171.705 59.6917C171.705 59.0757 171.837 58.5237 172.101 58.0357C172.373 57.5477 172.741 57.1677 173.205 56.8957C173.677 56.6237 174.205 56.4877 174.789 56.4877C175.373 56.4877 175.897 56.6237 176.361 56.8957C176.825 57.1677 177.189 57.5477 177.453 58.0357C177.717 58.5157 177.849 59.0677 177.849 59.6917L177.837 59.9557ZM174.789 57.2197C174.181 57.2197 173.669 57.4157 173.253 57.8077C172.845 58.1917 172.613 58.6957 172.557 59.3197H177.033C176.977 58.6957 176.741 58.1917 176.325 57.8077C175.917 57.4157 175.405 57.2197 174.789 57.2197ZM181.276 62.9077C180.764 62.9077 180.272 62.8357 179.8 62.6917C179.336 62.5397 178.972 62.3517 178.708 62.1277L179.092 61.4557C179.356 61.6637 179.688 61.8357 180.088 61.9717C180.488 62.0997 180.904 62.1637 181.336 62.1637C181.912 62.1637 182.336 62.0757 182.608 61.8997C182.888 61.7157 183.028 61.4597 183.028 61.1317C183.028 60.8997 182.952 60.7197 182.8 60.5917C182.648 60.4557 182.456 60.3557 182.224 60.2917C181.992 60.2197 181.684 60.1517 181.3 60.0877C180.788 59.9917 180.376 59.8957 180.064 59.7997C179.752 59.6957 179.484 59.5237 179.26 59.2837C179.044 59.0437 178.936 58.7117 178.936 58.2877C178.936 57.7597 179.156 57.3277 179.596 56.9917C180.036 56.6557 180.648 56.4877 181.432 56.4877C181.84 56.4877 182.248 56.5437 182.656 56.6557C183.064 56.7597 183.4 56.8997 183.664 57.0757L183.292 57.7597C182.772 57.3997 182.152 57.2197 181.432 57.2197C180.888 57.2197 180.476 57.3157 180.196 57.5077C179.924 57.6997 179.788 57.9517 179.788 58.2637C179.788 58.5037 179.864 58.6957 180.016 58.8397C180.176 58.9837 180.372 59.0917 180.604 59.1637C180.836 59.2277 181.156 59.2957 181.564 59.3677C182.068 59.4637 182.472 59.5597 182.776 59.6557C183.08 59.7517 183.34 59.9157 183.556 60.1477C183.772 60.3797 183.88 60.6997 183.88 61.1077C183.88 61.6597 183.648 62.0997 183.184 62.4277C182.728 62.7477 182.092 62.9077 181.276 62.9077ZM93.397 71.4877C94.221 71.4877 94.853 71.6957 95.293 72.1117C95.733 72.5197 95.953 73.1277 95.953 73.9357V77.8477H95.137V76.8637C94.945 77.1917 94.661 77.4477 94.285 77.6317C93.917 77.8157 93.477 77.9077 92.965 77.9077C92.261 77.9077 91.701 77.7397 91.285 77.4037C90.869 77.0677 90.661 76.6237 90.661 76.0717C90.661 75.5357 90.853 75.1037 91.237 74.7757C91.629 74.4477 92.249 74.2837 93.097 74.2837H95.101V73.8997C95.101 73.3557 94.949 72.9437 94.645 72.6637C94.341 72.3757 93.897 72.2317 93.313 72.2317C92.913 72.2317 92.529 72.2997 92.161 72.4357C91.793 72.5637 91.477 72.7437 91.213 72.9757L90.829 72.3397C91.149 72.0677 91.533 71.8597 91.981 71.7157C92.429 71.5637 92.901 71.4877 93.397 71.4877ZM93.097 77.2357C93.577 77.2357 93.989 77.1277 94.333 76.9117C94.677 76.6877 94.933 76.3677 95.101 75.9517V74.9197H93.121C92.041 74.9197 91.501 75.2957 91.501 76.0477C91.501 76.4157 91.641 76.7077 91.921 76.9237C92.201 77.1317 92.593 77.2357 93.097 77.2357ZM100.907 77.9077C100.283 77.9077 99.7225 77.7717 99.2265 77.4997C98.7385 77.2277 98.3545 76.8477 98.0745 76.3597C97.7945 75.8637 97.6545 75.3077 97.6545 74.6917C97.6545 74.0757 97.7945 73.5237 98.0745 73.0357C98.3545 72.5477 98.7385 72.1677 99.2265 71.8957C99.7225 71.6237 100.283 71.4877 100.907 71.4877C101.451 71.4877 101.935 71.5957 102.359 71.8117C102.791 72.0197 103.131 72.3277 103.379 72.7357L102.743 73.1677C102.535 72.8557 102.271 72.6237 101.951 72.4717C101.631 72.3117 101.283 72.2317 100.907 72.2317C100.451 72.2317 100.039 72.3357 99.6705 72.5437C99.3105 72.7437 99.0265 73.0317 98.8185 73.4077C98.6185 73.7837 98.5185 74.2117 98.5185 74.6917C98.5185 75.1797 98.6185 75.6117 98.8185 75.9877C99.0265 76.3557 99.3105 76.6437 99.6705 76.8517C100.039 77.0517 100.451 77.1517 100.907 77.1517C101.283 77.1517 101.631 77.0757 101.951 76.9237C102.271 76.7717 102.535 76.5397 102.743 76.2277L103.379 76.6597C103.131 77.0677 102.791 77.3797 102.359 77.5957C101.927 77.8037 101.443 77.9077 100.907 77.9077ZM108.447 77.4637C108.287 77.6077 108.087 77.7197 107.847 77.7997C107.615 77.8717 107.371 77.9077 107.115 77.9077C106.523 77.9077 106.067 77.7477 105.747 77.4277C105.427 77.1077 105.267 76.6557 105.267 76.0717V72.2557H104.139V71.5357H105.267V70.1557H106.119V71.5357H108.039V72.2557H106.119V76.0237C106.119 76.3997 106.211 76.6877 106.395 76.8877C106.587 77.0797 106.859 77.1757 107.211 77.1757C107.387 77.1757 107.555 77.1477 107.715 77.0917C107.883 77.0357 108.027 76.9557 108.147 76.8517L108.447 77.4637ZM109.998 71.5357H110.85V77.8477H109.998V71.5357ZM110.43 70.1557C110.254 70.1557 110.106 70.0957 109.986 69.9757C109.866 69.8557 109.806 69.7117 109.806 69.5437C109.806 69.3837 109.866 69.2437 109.986 69.1237C110.106 69.0037 110.254 68.9437 110.43 68.9437C110.606 68.9437 110.754 69.0037 110.874 69.1237C110.994 69.2357 111.054 69.3717 111.054 69.5317C111.054 69.7077 110.994 69.8557 110.874 69.9757C110.754 70.0957 110.606 70.1557 110.43 70.1557ZM115.8 77.9077C115.192 77.9077 114.644 77.7717 114.156 77.4997C113.668 77.2197 113.284 76.8357 113.004 76.3477C112.724 75.8597 112.584 75.3077 112.584 74.6917C112.584 74.0757 112.724 73.5237 113.004 73.0357C113.284 72.5477 113.668 72.1677 114.156 71.8957C114.644 71.6237 115.192 71.4877 115.8 71.4877C116.408 71.4877 116.956 71.6237 117.444 71.8957C117.932 72.1677 118.312 72.5477 118.584 73.0357C118.864 73.5237 119.004 74.0757 119.004 74.6917C119.004 75.3077 118.864 75.8597 118.584 76.3477C118.312 76.8357 117.932 77.2197 117.444 77.4997C116.956 77.7717 116.408 77.9077 115.8 77.9077ZM115.8 77.1517C116.248 77.1517 116.648 77.0517 117 76.8517C117.36 76.6437 117.64 76.3517 117.84 75.9757C118.04 75.5997 118.14 75.1717 118.14 74.6917C118.14 74.2117 118.04 73.7837 117.84 73.4077C117.64 73.0317 117.36 72.7437 117 72.5437C116.648 72.3357 116.248 72.2317 115.8 72.2317C115.352 72.2317 114.948 72.3357 114.588 72.5437C114.236 72.7437 113.956 73.0317 113.748 73.4077C113.548 73.7837 113.448 74.2117 113.448 74.6917C113.448 75.1717 113.548 75.5997 113.748 75.9757C113.956 76.3517 114.236 76.6437 114.588 76.8517C114.948 77.0517 115.352 77.1517 115.8 77.1517ZM123.96 71.4877C124.752 71.4877 125.38 71.7197 125.844 72.1837C126.316 72.6397 126.552 73.3077 126.552 74.1877V77.8477H125.7V74.2717C125.7 73.6157 125.536 73.1157 125.208 72.7717C124.88 72.4277 124.412 72.2557 123.804 72.2557C123.124 72.2557 122.584 72.4597 122.184 72.8677C121.792 73.2677 121.596 73.8237 121.596 74.5357V77.8477H120.744V71.5357H121.56V72.6997C121.792 72.3157 122.112 72.0197 122.52 71.8117C122.936 71.5957 123.416 71.4877 123.96 71.4877ZM130.557 77.9077C130.045 77.9077 129.553 77.8357 129.081 77.6917C128.617 77.5397 128.253 77.3517 127.989 77.1277L128.373 76.4557C128.637 76.6637 128.969 76.8357 129.369 76.9717C129.769 77.0997 130.185 77.1637 130.617 77.1637C131.193 77.1637 131.617 77.0757 131.889 76.8997C132.169 76.7157 132.309 76.4597 132.309 76.1317C132.309 75.8997 132.233 75.7197 132.081 75.5917C131.929 75.4557 131.737 75.3557 131.505 75.2917C131.273 75.2197 130.965 75.1517 130.581 75.0877C130.069 74.9917 129.657 74.8957 129.345 74.7997C129.033 74.6957 128.765 74.5237 128.541 74.2837C128.325 74.0437 128.217 73.7117 128.217 73.2877C128.217 72.7597 128.437 72.3277 128.877 71.9917C129.317 71.6557 129.929 71.4877 130.713 71.4877C131.121 71.4877 131.529 71.5437 131.937 71.6557C132.345 71.7597 132.681 71.8997 132.945 72.0757L132.573 72.7597C132.053 72.3997 131.433 72.2197 130.713 72.2197C130.169 72.2197 129.757 72.3157 129.477 72.5077C129.205 72.6997 129.069 72.9517 129.069 73.2637C129.069 73.5037 129.145 73.6957 129.297 73.8397C129.457 73.9837 129.653 74.0917 129.885 74.1637C130.117 74.2277 130.437 74.2957 130.845 74.3677C131.349 74.4637 131.753 74.5597 132.057 74.6557C132.361 74.7517 132.621 74.9157 132.837 75.1477C133.053 75.3797 133.161 75.6997 133.161 76.1077C133.161 76.6597 132.929 77.0997 132.465 77.4277C132.009 77.7477 131.373 77.9077 130.557 77.9077ZM141.128 71.4877C141.72 71.4877 142.256 71.6237 142.736 71.8957C143.216 72.1597 143.592 72.5357 143.864 73.0237C144.136 73.5117 144.272 74.0677 144.272 74.6917C144.272 75.3237 144.136 75.8837 143.864 76.3717C143.592 76.8597 143.216 77.2397 142.736 77.5117C142.264 77.7757 141.728 77.9077 141.128 77.9077C140.616 77.9077 140.152 77.8037 139.736 77.5957C139.328 77.3797 138.992 77.0677 138.728 76.6597V80.1757H137.876V71.5357H138.692V72.7837C138.948 72.3677 139.284 72.0477 139.7 71.8237C140.124 71.5997 140.6 71.4877 141.128 71.4877ZM141.068 77.1517C141.508 77.1517 141.908 77.0517 142.268 76.8517C142.628 76.6437 142.908 76.3517 143.108 75.9757C143.316 75.5997 143.42 75.1717 143.42 74.6917C143.42 74.2117 143.316 73.7877 143.108 73.4197C142.908 73.0437 142.628 72.7517 142.268 72.5437C141.908 72.3357 141.508 72.2317 141.068 72.2317C140.62 72.2317 140.216 72.3357 139.856 72.5437C139.504 72.7517 139.224 73.0437 139.016 73.4197C138.816 73.7877 138.716 74.2117 138.716 74.6917C138.716 75.1717 138.816 75.5997 139.016 75.9757C139.224 76.3517 139.504 76.6437 139.856 76.8517C140.216 77.0517 140.62 77.1517 141.068 77.1517ZM151.697 71.5357V77.8477H150.881V76.6957C150.657 77.0797 150.349 77.3797 149.957 77.5957C149.565 77.8037 149.117 77.9077 148.613 77.9077C147.789 77.9077 147.137 77.6797 146.657 77.2237C146.185 76.7597 145.949 76.0837 145.949 75.1957V71.5357H146.801V75.1117C146.801 75.7757 146.965 76.2797 147.293 76.6237C147.621 76.9677 148.089 77.1397 148.697 77.1397C149.361 77.1397 149.885 76.9397 150.269 76.5397C150.653 76.1317 150.845 75.5677 150.845 74.8477V71.5357H151.697ZM154.084 71.5357H154.936V77.8477H154.084V71.5357ZM154.516 70.1557C154.34 70.1557 154.192 70.0957 154.072 69.9757C153.952 69.8557 153.892 69.7117 153.892 69.5437C153.892 69.3837 153.952 69.2437 154.072 69.1237C154.192 69.0037 154.34 68.9437 154.516 68.9437C154.692 68.9437 154.84 69.0037 154.96 69.1237C155.08 69.2357 155.14 69.3717 155.14 69.5317C155.14 69.7077 155.08 69.8557 154.96 69.9757C154.84 70.0957 154.692 70.1557 154.516 70.1557ZM158.998 77.9077C158.486 77.9077 157.994 77.8357 157.522 77.6917C157.058 77.5397 156.694 77.3517 156.43 77.1277L156.814 76.4557C157.078 76.6637 157.41 76.8357 157.81 76.9717C158.21 77.0997 158.626 77.1637 159.058 77.1637C159.634 77.1637 160.058 77.0757 160.33 76.8997C160.61 76.7157 160.75 76.4597 160.75 76.1317C160.75 75.8997 160.674 75.7197 160.522 75.5917C160.37 75.4557 160.178 75.3557 159.946 75.2917C159.714 75.2197 159.406 75.1517 159.022 75.0877C158.51 74.9917 158.098 74.8957 157.786 74.7997C157.474 74.6957 157.206 74.5237 156.982 74.2837C156.766 74.0437 156.658 73.7117 156.658 73.2877C156.658 72.7597 156.878 72.3277 157.318 71.9917C157.758 71.6557 158.37 71.4877 159.154 71.4877C159.562 71.4877 159.97 71.5437 160.378 71.6557C160.786 71.7597 161.122 71.8997 161.386 72.0757L161.014 72.7597C160.494 72.3997 159.874 72.2197 159.154 72.2197C158.61 72.2197 158.198 72.3157 157.918 72.5077C157.646 72.6997 157.51 72.9517 157.51 73.2637C157.51 73.5037 157.586 73.6957 157.738 73.8397C157.898 73.9837 158.094 74.0917 158.326 74.1637C158.558 74.2277 158.878 74.2957 159.286 74.3677C159.79 74.4637 160.194 74.5597 160.498 74.6557C160.802 74.7517 161.062 74.9157 161.278 75.1477C161.494 75.3797 161.602 75.6997 161.602 76.1077C161.602 76.6597 161.37 77.0997 160.906 77.4277C160.45 77.7477 159.814 77.9077 158.998 77.9077ZM164.869 77.9077C164.357 77.9077 163.865 77.8357 163.393 77.6917C162.929 77.5397 162.565 77.3517 162.301 77.1277L162.685 76.4557C162.949 76.6637 163.281 76.8357 163.681 76.9717C164.081 77.0997 164.497 77.1637 164.929 77.1637C165.505 77.1637 165.929 77.0757 166.201 76.8997C166.481 76.7157 166.621 76.4597 166.621 76.1317C166.621 75.8997 166.545 75.7197 166.393 75.5917C166.241 75.4557 166.049 75.3557 165.817 75.2917C165.585 75.2197 165.277 75.1517 164.893 75.0877C164.381 74.9917 163.969 74.8957 163.657 74.7997C163.345 74.6957 163.077 74.5237 162.853 74.2837C162.637 74.0437 162.529 73.7117 162.529 73.2877C162.529 72.7597 162.749 72.3277 163.189 71.9917C163.629 71.6557 164.241 71.4877 165.025 71.4877C165.433 71.4877 165.841 71.5437 166.249 71.6557C166.657 71.7597 166.993 71.8997 167.257 72.0757L166.885 72.7597C166.365 72.3997 165.745 72.2197 165.025 72.2197C164.481 72.2197 164.069 72.3157 163.789 72.5077C163.517 72.6997 163.381 72.9517 163.381 73.2637C163.381 73.5037 163.457 73.6957 163.609 73.8397C163.769 73.9837 163.965 74.0917 164.197 74.1637C164.429 74.2277 164.749 74.2957 165.157 74.3677C165.661 74.4637 166.065 74.5597 166.369 74.6557C166.673 74.7517 166.933 74.9157 167.149 75.1477C167.365 75.3797 167.473 75.6997 167.473 76.1077C167.473 76.6597 167.241 77.0997 166.777 77.4277C166.321 77.7477 165.685 77.9077 164.869 77.9077ZM174.544 74.9557H169.264C169.312 75.6117 169.564 76.1437 170.02 76.5517C170.476 76.9517 171.052 77.1517 171.748 77.1517C172.14 77.1517 172.5 77.0837 172.828 76.9477C173.156 76.8037 173.44 76.5957 173.68 76.3237L174.16 76.8757C173.88 77.2117 173.528 77.4677 173.104 77.6437C172.688 77.8197 172.228 77.9077 171.724 77.9077C171.076 77.9077 170.5 77.7717 169.996 77.4997C169.5 77.2197 169.112 76.8357 168.832 76.3477C168.552 75.8597 168.412 75.3077 168.412 74.6917C168.412 74.0757 168.544 73.5237 168.808 73.0357C169.08 72.5477 169.448 72.1677 169.912 71.8957C170.384 71.6237 170.912 71.4877 171.496 71.4877C172.08 71.4877 172.604 71.6237 173.068 71.8957C173.532 72.1677 173.896 72.5477 174.16 73.0357C174.424 73.5157 174.556 74.0677 174.556 74.6917L174.544 74.9557ZM171.496 72.2197C170.888 72.2197 170.376 72.4157 169.96 72.8077C169.552 73.1917 169.32 73.6957 169.264 74.3197H173.74C173.684 73.6957 173.448 73.1917 173.032 72.8077C172.624 72.4157 172.112 72.2197 171.496 72.2197ZM179.507 71.4877C180.299 71.4877 180.927 71.7197 181.391 72.1837C181.863 72.6397 182.099 73.3077 182.099 74.1877V77.8477H181.247V74.2717C181.247 73.6157 181.083 73.1157 180.755 72.7717C180.427 72.4277 179.959 72.2557 179.351 72.2557C178.671 72.2557 178.131 72.4597 177.731 72.8677C177.339 73.2677 177.143 73.8237 177.143 74.5357V77.8477H176.291V71.5357H177.107V72.6997C177.339 72.3157 177.659 72.0197 178.067 71.8117C178.483 71.5957 178.963 71.4877 179.507 71.4877ZM187.736 77.4637C187.576 77.6077 187.376 77.7197 187.136 77.7997C186.904 77.8717 186.66 77.9077 186.404 77.9077C185.812 77.9077 185.356 77.7477 185.036 77.4277C184.716 77.1077 184.556 76.6557 184.556 76.0717V72.2557H183.428V71.5357H184.556V70.1557H185.408V71.5357H187.328V72.2557H185.408V76.0237C185.408 76.3997 185.5 76.6877 185.684 76.8877C185.876 77.0797 186.148 77.1757 186.5 77.1757C186.676 77.1757 186.844 77.1477 187.004 77.0917C187.172 77.0357 187.316 76.9557 187.436 76.8517L187.736 77.4637ZM94.441 86.4877C95.033 86.4877 95.569 86.6237 96.049 86.8957C96.529 87.1597 96.905 87.5357 97.177 88.0237C97.449 88.5117 97.585 89.0677 97.585 89.6917C97.585 90.3237 97.449 90.8837 97.177 91.3717C96.905 91.8597 96.529 92.2397 96.049 92.5117C95.577 92.7757 95.041 92.9077 94.441 92.9077C93.929 92.9077 93.465 92.8037 93.049 92.5957C92.641 92.3797 92.305 92.0677 92.041 91.6597V95.1757H91.189V86.5357H92.005V87.7837C92.261 87.3677 92.597 87.0477 93.013 86.8237C93.437 86.5997 93.913 86.4877 94.441 86.4877ZM94.381 92.1517C94.821 92.1517 95.221 92.0517 95.581 91.8517C95.941 91.6437 96.221 91.3517 96.421 90.9757C96.629 90.5997 96.733 90.1717 96.733 89.6917C96.733 89.2117 96.629 88.7877 96.421 88.4197C96.221 88.0437 95.941 87.7517 95.581 87.5437C95.221 87.3357 94.821 87.2317 94.381 87.2317C93.933 87.2317 93.529 87.3357 93.169 87.5437C92.817 87.7517 92.537 88.0437 92.329 88.4197C92.129 88.7877 92.029 89.2117 92.029 89.6917C92.029 90.1717 92.129 90.5997 92.329 90.9757C92.537 91.3517 92.817 91.6437 93.169 91.8517C93.529 92.0517 93.933 92.1517 94.381 92.1517ZM104.818 89.9557H99.5378C99.5858 90.6117 99.8378 91.1437 100.294 91.5517C100.75 91.9517 101.326 92.1517 102.022 92.1517C102.414 92.1517 102.774 92.0837 103.102 91.9477C103.43 91.8037 103.714 91.5957 103.954 91.3237L104.434 91.8757C104.154 92.2117 103.802 92.4677 103.378 92.6437C102.962 92.8197 102.502 92.9077 101.998 92.9077C101.35 92.9077 100.774 92.7717 100.27 92.4997C99.7738 92.2197 99.3858 91.8357 99.1058 91.3477C98.8258 90.8597 98.6858 90.3077 98.6858 89.6917C98.6858 89.0757 98.8178 88.5237 99.0818 88.0357C99.3538 87.5477 99.7218 87.1677 100.186 86.8957C100.658 86.6237 101.186 86.4877 101.77 86.4877C102.354 86.4877 102.878 86.6237 103.342 86.8957C103.806 87.1677 104.17 87.5477 104.434 88.0357C104.698 88.5157 104.83 89.0677 104.83 89.6917L104.818 89.9557ZM101.77 87.2197C101.162 87.2197 100.65 87.4157 100.234 87.8077C99.8258 88.1917 99.5938 88.6957 99.5378 89.3197H104.014C103.958 88.6957 103.722 88.1917 103.306 87.8077C102.898 87.4157 102.386 87.2197 101.77 87.2197ZM107.38 87.7717C107.58 87.3477 107.876 87.0277 108.268 86.8117C108.668 86.5957 109.16 86.4877 109.744 86.4877V87.3157L109.54 87.3037C108.876 87.3037 108.356 87.5077 107.98 87.9157C107.604 88.3237 107.416 88.8957 107.416 89.6317V92.8477H106.564V86.5357H107.38V87.7717ZM119.159 86.4877C119.951 86.4877 120.571 86.7157 121.019 87.1717C121.475 87.6277 121.703 88.2997 121.703 89.1877V92.8477H120.851V89.2717C120.851 88.6157 120.691 88.1157 120.371 87.7717C120.059 87.4277 119.615 87.2557 119.039 87.2557C118.383 87.2557 117.867 87.4597 117.491 87.8677C117.115 88.2677 116.927 88.8237 116.927 89.5357V92.8477H116.075V89.2717C116.075 88.6157 115.915 88.1157 115.595 87.7717C115.283 87.4277 114.835 87.2557 114.251 87.2557C113.603 87.2557 113.087 87.4597 112.703 87.8677C112.327 88.2677 112.139 88.8237 112.139 89.5357V92.8477H111.287V86.5357H112.103V87.6877C112.327 87.3037 112.639 87.0077 113.039 86.7997C113.439 86.5917 113.899 86.4877 114.419 86.4877C114.947 86.4877 115.403 86.5997 115.787 86.8237C116.179 87.0477 116.471 87.3797 116.663 87.8197C116.895 87.4037 117.227 87.0797 117.659 86.8477C118.099 86.6077 118.599 86.4877 119.159 86.4877ZM129.533 89.9557H124.253C124.301 90.6117 124.553 91.1437 125.009 91.5517C125.465 91.9517 126.041 92.1517 126.737 92.1517C127.129 92.1517 127.489 92.0837 127.817 91.9477C128.145 91.8037 128.429 91.5957 128.669 91.3237L129.149 91.8757C128.869 92.2117 128.517 92.4677 128.093 92.6437C127.677 92.8197 127.217 92.9077 126.713 92.9077C126.065 92.9077 125.489 92.7717 124.985 92.4997C124.489 92.2197 124.101 91.8357 123.821 91.3477C123.541 90.8597 123.401 90.3077 123.401 89.6917C123.401 89.0757 123.533 88.5237 123.797 88.0357C124.069 87.5477 124.437 87.1677 124.901 86.8957C125.373 86.6237 125.901 86.4877 126.485 86.4877C127.069 86.4877 127.593 86.6237 128.057 86.8957C128.521 87.1677 128.885 87.5477 129.149 88.0357C129.413 88.5157 129.545 89.0677 129.545 89.6917L129.533 89.9557ZM126.485 87.2197C125.877 87.2197 125.365 87.4157 124.949 87.8077C124.541 88.1917 124.309 88.6957 124.253 89.3197H128.729C128.673 88.6957 128.437 88.1917 128.021 87.8077C127.613 87.4157 127.101 87.2197 126.485 87.2197ZM134.603 92.4637C134.443 92.6077 134.243 92.7197 134.003 92.7997C133.771 92.8717 133.527 92.9077 133.271 92.9077C132.679 92.9077 132.223 92.7477 131.903 92.4277C131.583 92.1077 131.423 91.6557 131.423 91.0717V87.2557H130.295V86.5357H131.423V85.1557H132.275V86.5357H134.195V87.2557H132.275V91.0237C132.275 91.3997 132.367 91.6877 132.551 91.8877C132.743 92.0797 133.015 92.1757 133.367 92.1757C133.543 92.1757 133.711 92.1477 133.871 92.0917C134.039 92.0357 134.183 91.9557 134.303 91.8517L134.603 92.4637ZM139.314 92.4637C139.154 92.6077 138.954 92.7197 138.714 92.7997C138.482 92.8717 138.238 92.9077 137.982 92.9077C137.39 92.9077 136.934 92.7477 136.614 92.4277C136.294 92.1077 136.134 91.6557 136.134 91.0717V87.2557H135.006V86.5357H136.134V85.1557H136.986V86.5357H138.906V87.2557H136.986V91.0237C136.986 91.3997 137.078 91.6877 137.262 91.8877C137.454 92.0797 137.726 92.1757 138.078 92.1757C138.254 92.1757 138.422 92.1477 138.582 92.0917C138.75 92.0357 138.894 91.9557 139.014 91.8517L139.314 92.4637ZM141.681 87.7717C141.881 87.3477 142.177 87.0277 142.569 86.8117C142.969 86.5957 143.461 86.4877 144.045 86.4877V87.3157L143.841 87.3037C143.177 87.3037 142.657 87.5077 142.281 87.9157C141.905 88.3237 141.717 88.8957 141.717 89.6317V92.8477H140.865V86.5357H141.681V87.7717ZM151.025 89.9557H145.745C145.793 90.6117 146.045 91.1437 146.501 91.5517C146.957 91.9517 147.533 92.1517 148.229 92.1517C148.621 92.1517 148.981 92.0837 149.309 91.9477C149.637 91.8037 149.921 91.5957 150.161 91.3237L150.641 91.8757C150.361 92.2117 150.009 92.4677 149.585 92.6437C149.169 92.8197 148.709 92.9077 148.205 92.9077C147.557 92.9077 146.981 92.7717 146.477 92.4997C145.981 92.2197 145.593 91.8357 145.313 91.3477C145.033 90.8597 144.893 90.3077 144.893 89.6917C144.893 89.0757 145.025 88.5237 145.289 88.0357C145.561 87.5477 145.929 87.1677 146.393 86.8957C146.865 86.6237 147.393 86.4877 147.977 86.4877C148.561 86.4877 149.085 86.6237 149.549 86.8957C150.013 87.1677 150.377 87.5477 150.641 88.0357C150.905 88.5157 151.037 89.0677 151.037 89.6917L151.025 89.9557ZM147.977 87.2197C147.369 87.2197 146.857 87.4157 146.441 87.8077C146.033 88.1917 145.801 88.6957 145.745 89.3197H150.221C150.165 88.6957 149.929 88.1917 149.513 87.8077C149.105 87.4157 148.593 87.2197 147.977 87.2197ZM161.672 83.9437V92.8477H160.856V91.5997C160.6 92.0237 160.26 92.3477 159.836 92.5717C159.42 92.7957 158.948 92.9077 158.42 92.9077C157.828 92.9077 157.292 92.7717 156.812 92.4997C156.332 92.2277 155.956 91.8477 155.684 91.3597C155.412 90.8717 155.276 90.3157 155.276 89.6917C155.276 89.0677 155.412 88.5117 155.684 88.0237C155.956 87.5357 156.332 87.1597 156.812 86.8957C157.292 86.6237 157.828 86.4877 158.42 86.4877C158.932 86.4877 159.392 86.5957 159.8 86.8117C160.216 87.0197 160.556 87.3277 160.82 87.7357V83.9437H161.672ZM158.492 92.1517C158.932 92.1517 159.328 92.0517 159.68 91.8517C160.04 91.6437 160.32 91.3517 160.52 90.9757C160.728 90.5997 160.832 90.1717 160.832 89.6917C160.832 89.2117 160.728 88.7837 160.52 88.4077C160.32 88.0317 160.04 87.7437 159.68 87.5437C159.328 87.3357 158.932 87.2317 158.492 87.2317C158.044 87.2317 157.64 87.3357 157.28 87.5437C156.928 87.7437 156.648 88.0317 156.44 88.4077C156.24 88.7837 156.14 89.2117 156.14 89.6917C156.14 90.1717 156.24 90.5997 156.44 90.9757C156.648 91.3517 156.928 91.6437 157.28 91.8517C157.64 92.0517 158.044 92.1517 158.492 92.1517ZM164.14 83.8837C164.324 83.8837 164.476 83.9477 164.596 84.0757C164.716 84.1957 164.776 84.3477 164.776 84.5317C164.776 84.6277 164.76 84.7317 164.728 84.8437C164.704 84.9477 164.668 85.0717 164.62 85.2157L164.104 86.8717H163.528L163.948 85.1437C163.812 85.1037 163.704 85.0317 163.624 84.9277C163.544 84.8157 163.504 84.6837 163.504 84.5317C163.504 84.3397 163.564 84.1837 163.684 84.0637C163.804 83.9437 163.956 83.8837 164.14 83.8837ZM166.587 86.5357H167.439V92.8477H166.587V86.5357ZM167.019 85.1557C166.843 85.1557 166.695 85.0957 166.575 84.9757C166.455 84.8557 166.395 84.7117 166.395 84.5437C166.395 84.3837 166.455 84.2437 166.575 84.1237C166.695 84.0037 166.843 83.9437 167.019 83.9437C167.195 83.9437 167.343 84.0037 167.463 84.1237C167.583 84.2357 167.643 84.3717 167.643 84.5317C167.643 84.7077 167.583 84.8557 167.463 84.9757C167.343 85.0957 167.195 85.1557 167.019 85.1557ZM172.426 92.9077C171.802 92.9077 171.242 92.7717 170.746 92.4997C170.258 92.2277 169.874 91.8477 169.594 91.3597C169.314 90.8637 169.174 90.3077 169.174 89.6917C169.174 89.0757 169.314 88.5237 169.594 88.0357C169.874 87.5477 170.258 87.1677 170.746 86.8957C171.242 86.6237 171.802 86.4877 172.426 86.4877C172.97 86.4877 173.454 86.5957 173.878 86.8117C174.31 87.0197 174.65 87.3277 174.898 87.7357L174.262 88.1677C174.054 87.8557 173.79 87.6237 173.47 87.4717C173.15 87.3117 172.802 87.2317 172.426 87.2317C171.97 87.2317 171.558 87.3357 171.19 87.5437C170.83 87.7437 170.546 88.0317 170.338 88.4077C170.138 88.7837 170.038 89.2117 170.038 89.6917C170.038 90.1797 170.138 90.6117 170.338 90.9877C170.546 91.3557 170.83 91.6437 171.19 91.8517C171.558 92.0517 171.97 92.1517 172.426 92.1517C172.802 92.1517 173.15 92.0757 173.47 91.9237C173.79 91.7717 174.054 91.5397 174.262 91.2277L174.898 91.6597C174.65 92.0677 174.31 92.3797 173.878 92.5957C173.446 92.8037 172.962 92.9077 172.426 92.9077ZM176.572 86.5357H177.424V92.8477H176.572V86.5357ZM177.004 85.1557C176.828 85.1557 176.68 85.0957 176.56 84.9757C176.44 84.8557 176.38 84.7117 176.38 84.5437C176.38 84.3837 176.44 84.2437 176.56 84.1237C176.68 84.0037 176.828 83.9437 177.004 83.9437C177.18 83.9437 177.328 84.0037 177.448 84.1237C177.568 84.2357 177.628 84.3717 177.628 84.5317C177.628 84.7077 177.568 84.8557 177.448 84.9757C177.328 85.0957 177.18 85.1557 177.004 85.1557ZM96.613 106.528V107.848H90.421V106.804L93.757 103.636C94.133 103.276 94.385 102.964 94.513 102.7C94.649 102.428 94.717 102.16 94.717 101.896C94.717 101.504 94.585 101.204 94.321 100.996C94.057 100.788 93.669 100.684 93.157 100.684C92.301 100.684 91.645 100.976 91.189 101.56L90.097 100.72C90.425 100.28 90.865 99.9397 91.417 99.6997C91.977 99.4517 92.601 99.3277 93.289 99.3277C94.201 99.3277 94.929 99.5437 95.473 99.9757C96.017 100.408 96.289 100.996 96.289 101.74C96.289 102.196 96.193 102.624 96.001 103.024C95.809 103.424 95.441 103.88 94.897 104.392L92.653 106.528H96.613ZM100.982 107.968C100.31 107.968 99.7102 107.8 99.1822 107.464C98.6542 107.12 98.2382 106.624 97.9342 105.976C97.6302 105.32 97.4782 104.544 97.4782 103.648C97.4782 102.752 97.6302 101.98 97.9342 101.332C98.2382 100.676 98.6542 100.18 99.1822 99.8437C99.7102 99.4997 100.31 99.3277 100.982 99.3277C101.654 99.3277 102.254 99.4997 102.782 99.8437C103.318 100.18 103.738 100.676 104.042 101.332C104.346 101.98 104.498 102.752 104.498 103.648C104.498 104.544 104.346 105.32 104.042 105.976C103.738 106.624 103.318 107.12 102.782 107.464C102.254 107.8 101.654 107.968 100.982 107.968ZM100.982 106.612C101.582 106.612 102.054 106.364 102.398 105.868C102.75 105.372 102.926 104.632 102.926 103.648C102.926 102.664 102.75 101.924 102.398 101.428C102.054 100.932 101.582 100.684 100.982 100.684C100.39 100.684 99.9182 100.932 99.5662 101.428C99.2222 101.924 99.0502 102.664 99.0502 103.648C99.0502 104.632 99.2222 105.372 99.5662 105.868C99.9182 106.364 100.39 106.612 100.982 106.612ZM109.011 102.916C109.787 103.012 110.379 103.276 110.787 103.708C111.195 104.14 111.399 104.68 111.399 105.328C111.399 105.816 111.275 106.26 111.027 106.66C110.779 107.06 110.403 107.38 109.899 107.62C109.403 107.852 108.795 107.968 108.075 107.968C107.475 107.968 106.895 107.884 106.335 107.716C105.783 107.54 105.311 107.3 104.919 106.996L105.591 105.784C105.895 106.04 106.263 106.244 106.695 106.396C107.135 106.54 107.587 106.612 108.051 106.612C108.603 106.612 109.035 106.5 109.347 106.276C109.667 106.044 109.827 105.732 109.827 105.34C109.827 104.948 109.675 104.644 109.371 104.428C109.075 104.204 108.619 104.092 108.003 104.092H107.235V103.024L109.143 100.756H105.327V99.4477H111.051V100.492L109.011 102.916ZM115.924 107.968C115.252 107.968 114.652 107.8 114.124 107.464C113.596 107.12 113.18 106.624 112.876 105.976C112.572 105.32 112.42 104.544 112.42 103.648C112.42 102.752 112.572 101.98 112.876 101.332C113.18 100.676 113.596 100.18 114.124 99.8437C114.652 99.4997 115.252 99.3277 115.924 99.3277C116.596 99.3277 117.196 99.4997 117.724 99.8437C118.26 100.18 118.68 100.676 118.984 101.332C119.288 101.98 119.44 102.752 119.44 103.648C119.44 104.544 119.288 105.32 118.984 105.976C118.68 106.624 118.26 107.12 117.724 107.464C117.196 107.8 116.596 107.968 115.924 107.968ZM115.924 106.612C116.524 106.612 116.996 106.364 117.34 105.868C117.692 105.372 117.868 104.632 117.868 103.648C117.868 102.664 117.692 101.924 117.34 101.428C116.996 100.932 116.524 100.684 115.924 100.684C115.332 100.684 114.86 100.932 114.508 101.428C114.164 101.924 113.992 102.664 113.992 103.648C113.992 104.632 114.164 105.372 114.508 105.868C114.86 106.364 115.332 106.612 115.924 106.612ZM130.054 98.9437V107.848H129.238V106.6C128.982 107.024 128.642 107.348 128.218 107.572C127.802 107.796 127.33 107.908 126.802 107.908C126.21 107.908 125.674 107.772 125.194 107.5C124.714 107.228 124.338 106.848 124.066 106.36C123.794 105.872 123.658 105.316 123.658 104.692C123.658 104.068 123.794 103.512 124.066 103.024C124.338 102.536 124.714 102.16 125.194 101.896C125.674 101.624 126.21 101.488 126.802 101.488C127.314 101.488 127.774 101.596 128.182 101.812C128.598 102.02 128.938 102.328 129.202 102.736V98.9437H130.054ZM126.874 107.152C127.314 107.152 127.71 107.052 128.062 106.852C128.422 106.644 128.702 106.352 128.902 105.976C129.11 105.6 129.214 105.172 129.214 104.692C129.214 104.212 129.11 103.784 128.902 103.408C128.702 103.032 128.422 102.744 128.062 102.544C127.71 102.336 127.314 102.232 126.874 102.232C126.426 102.232 126.022 102.336 125.662 102.544C125.31 102.744 125.03 103.032 124.822 103.408C124.622 103.784 124.522 104.212 124.522 104.692C124.522 105.172 124.622 105.6 124.822 105.976C125.03 106.352 125.31 106.644 125.662 106.852C126.022 107.052 126.426 107.152 126.874 107.152ZM137.923 104.956H132.643C132.691 105.612 132.943 106.144 133.399 106.552C133.855 106.952 134.431 107.152 135.127 107.152C135.519 107.152 135.879 107.084 136.207 106.948C136.535 106.804 136.819 106.596 137.059 106.324L137.539 106.876C137.259 107.212 136.907 107.468 136.483 107.644C136.067 107.82 135.607 107.908 135.103 107.908C134.455 107.908 133.879 107.772 133.375 107.5C132.879 107.22 132.491 106.836 132.211 106.348C131.931 105.86 131.791 105.308 131.791 104.692C131.791 104.076 131.923 103.524 132.187 103.036C132.459 102.548 132.827 102.168 133.291 101.896C133.763 101.624 134.291 101.488 134.875 101.488C135.459 101.488 135.983 101.624 136.447 101.896C136.911 102.168 137.275 102.548 137.539 103.036C137.803 103.516 137.935 104.068 137.935 104.692L137.923 104.956ZM134.875 102.22C134.267 102.22 133.755 102.416 133.339 102.808C132.931 103.192 132.699 103.696 132.643 104.32H137.119C137.063 103.696 136.827 103.192 136.411 102.808C136.003 102.416 135.491 102.22 134.875 102.22ZM143.626 102.772C143.826 102.348 144.122 102.028 144.514 101.812C144.914 101.596 145.406 101.488 145.99 101.488V102.316L145.786 102.304C145.122 102.304 144.602 102.508 144.226 102.916C143.85 103.324 143.662 103.896 143.662 104.632V107.848H142.81V101.536H143.626V102.772ZM152.97 104.956H147.69C147.738 105.612 147.99 106.144 148.446 106.552C148.902 106.952 149.478 107.152 150.174 107.152C150.566 107.152 150.926 107.084 151.254 106.948C151.582 106.804 151.866 106.596 152.106 106.324L152.586 106.876C152.306 107.212 151.954 107.468 151.53 107.644C151.114 107.82 150.654 107.908 150.15 107.908C149.502 107.908 148.926 107.772 148.422 107.5C147.926 107.22 147.538 106.836 147.258 106.348C146.978 105.86 146.838 105.308 146.838 104.692C146.838 104.076 146.97 103.524 147.234 103.036C147.506 102.548 147.874 102.168 148.338 101.896C148.81 101.624 149.338 101.488 149.922 101.488C150.506 101.488 151.03 101.624 151.494 101.896C151.958 102.168 152.322 102.548 152.586 103.036C152.85 103.516 152.982 104.068 152.982 104.692L152.97 104.956ZM149.922 102.22C149.314 102.22 148.802 102.416 148.386 102.808C147.978 103.192 147.746 103.696 147.69 104.32H152.166C152.11 103.696 151.874 103.192 151.458 102.808C151.05 102.416 150.538 102.22 149.922 102.22ZM150.786 99.0637H151.926L149.982 100.552H149.142L150.786 99.0637ZM160.476 98.9437V107.848H159.66V106.6C159.404 107.024 159.064 107.348 158.64 107.572C158.224 107.796 157.752 107.908 157.224 107.908C156.632 107.908 156.096 107.772 155.616 107.5C155.136 107.228 154.76 106.848 154.488 106.36C154.216 105.872 154.08 105.316 154.08 104.692C154.08 104.068 154.216 103.512 154.488 103.024C154.76 102.536 155.136 102.16 155.616 101.896C156.096 101.624 156.632 101.488 157.224 101.488C157.736 101.488 158.196 101.596 158.604 101.812C159.02 102.02 159.36 102.328 159.624 102.736V98.9437H160.476ZM157.296 107.152C157.736 107.152 158.132 107.052 158.484 106.852C158.844 106.644 159.124 106.352 159.324 105.976C159.532 105.6 159.636 105.172 159.636 104.692C159.636 104.212 159.532 103.784 159.324 103.408C159.124 103.032 158.844 102.744 158.484 102.544C158.132 102.336 157.736 102.232 157.296 102.232C156.848 102.232 156.444 102.336 156.084 102.544C155.732 102.744 155.452 103.032 155.244 103.408C155.044 103.784 154.944 104.212 154.944 104.692C154.944 105.172 155.044 105.6 155.244 105.976C155.452 106.352 155.732 106.644 156.084 106.852C156.444 107.052 156.848 107.152 157.296 107.152ZM168.537 101.536V107.848H167.721V106.696C167.497 107.08 167.189 107.38 166.797 107.596C166.405 107.804 165.957 107.908 165.453 107.908C164.629 107.908 163.977 107.68 163.497 107.224C163.025 106.76 162.789 106.084 162.789 105.196V101.536H163.641V105.112C163.641 105.776 163.805 106.28 164.133 106.624C164.461 106.968 164.929 107.14 165.537 107.14C166.201 107.14 166.725 106.94 167.109 106.54C167.493 106.132 167.685 105.568 167.685 104.848V101.536H168.537ZM170.923 101.536H171.775V107.848H170.923V101.536ZM171.355 100.156C171.179 100.156 171.031 100.096 170.911 99.9757C170.791 99.8557 170.731 99.7117 170.731 99.5437C170.731 99.3837 170.791 99.2437 170.911 99.1237C171.031 99.0037 171.179 98.9437 171.355 98.9437C171.531 98.9437 171.679 99.0037 171.799 99.1237C171.919 99.2357 171.979 99.3717 171.979 99.5317C171.979 99.7077 171.919 99.8557 171.799 99.9757C171.679 100.096 171.531 100.156 171.355 100.156ZM174.962 102.772C175.162 102.348 175.458 102.028 175.85 101.812C176.25 101.596 176.742 101.488 177.326 101.488V102.316L177.122 102.304C176.458 102.304 175.938 102.508 175.562 102.916C175.186 103.324 174.998 103.896 174.998 104.632V107.848H174.146V101.536H174.962V102.772ZM184.306 104.956H179.026C179.074 105.612 179.326 106.144 179.782 106.552C180.238 106.952 180.814 107.152 181.51 107.152C181.902 107.152 182.262 107.084 182.59 106.948C182.918 106.804 183.202 106.596 183.442 106.324L183.922 106.876C183.642 107.212 183.29 107.468 182.866 107.644C182.45 107.82 181.99 107.908 181.486 107.908C180.838 107.908 180.262 107.772 179.758 107.5C179.262 107.22 178.874 106.836 178.594 106.348C178.314 105.86 178.174 105.308 178.174 104.692C178.174 104.076 178.306 103.524 178.57 103.036C178.842 102.548 179.21 102.168 179.674 101.896C180.146 101.624 180.674 101.488 181.258 101.488C181.842 101.488 182.366 101.624 182.83 101.896C183.294 102.168 183.658 102.548 183.922 103.036C184.186 103.516 184.318 104.068 184.318 104.692L184.306 104.956ZM181.258 102.22C180.65 102.22 180.138 102.416 179.722 102.808C179.314 103.192 179.082 103.696 179.026 104.32H183.502C183.446 103.696 183.21 103.192 182.794 102.808C182.386 102.416 181.874 102.22 181.258 102.22ZM91.189 113.944H92.041V122.848H91.189V113.944ZM96.6196 116.488C97.4436 116.488 98.0756 116.696 98.5156 117.112C98.9556 117.52 99.1756 118.128 99.1756 118.936V122.848H98.3596V121.864C98.1676 122.192 97.8836 122.448 97.5076 122.632C97.1396 122.816 96.6996 122.908 96.1876 122.908C95.4836 122.908 94.9236 122.74 94.5076 122.404C94.0916 122.068 93.8836 121.624 93.8836 121.072C93.8836 120.536 94.0756 120.104 94.4596 119.776C94.8516 119.448 95.4716 119.284 96.3196 119.284H98.3236V118.9C98.3236 118.356 98.1716 117.944 97.8676 117.664C97.5636 117.376 97.1196 117.232 96.5356 117.232C96.1356 117.232 95.7516 117.3 95.3836 117.436C95.0156 117.564 94.6996 117.744 94.4356 117.976L94.0516 117.34C94.3716 117.068 94.7556 116.86 95.2036 116.716C95.6516 116.564 96.1236 116.488 96.6196 116.488ZM96.3196 122.236C96.7996 122.236 97.2116 122.128 97.5556 121.912C97.8996 121.688 98.1556 121.368 98.3236 120.952V119.92H96.3436C95.2636 119.92 94.7236 120.296 94.7236 121.048C94.7236 121.416 94.8636 121.708 95.1436 121.924C95.4236 122.132 95.8156 122.236 96.3196 122.236ZM107.954 122.464C107.794 122.608 107.594 122.72 107.354 122.8C107.122 122.872 106.878 122.908 106.622 122.908C106.03 122.908 105.574 122.748 105.254 122.428C104.934 122.108 104.774 121.656 104.774 121.072V117.256H103.646V116.536H104.774V115.156H105.626V116.536H107.546V117.256H105.626V121.024C105.626 121.4 105.718 121.688 105.902 121.888C106.094 122.08 106.366 122.176 106.718 122.176C106.894 122.176 107.062 122.148 107.222 122.092C107.39 122.036 107.534 121.956 107.654 121.852L107.954 122.464ZM114.779 119.956H109.499C109.547 120.612 109.799 121.144 110.255 121.552C110.711 121.952 111.287 122.152 111.983 122.152C112.375 122.152 112.735 122.084 113.063 121.948C113.391 121.804 113.675 121.596 113.915 121.324L114.395 121.876C114.115 122.212 113.763 122.468 113.339 122.644C112.923 122.82 112.463 122.908 111.959 122.908C111.311 122.908 110.735 122.772 110.231 122.5C109.735 122.22 109.347 121.836 109.067 121.348C108.787 120.86 108.647 120.308 108.647 119.692C108.647 119.076 108.779 118.524 109.043 118.036C109.315 117.548 109.683 117.168 110.147 116.896C110.619 116.624 111.147 116.488 111.731 116.488C112.315 116.488 112.839 116.624 113.303 116.896C113.767 117.168 114.131 117.548 114.395 118.036C114.659 118.516 114.791 119.068 114.791 119.692L114.779 119.956ZM111.731 117.22C111.123 117.22 110.611 117.416 110.195 117.808C109.787 118.192 109.555 118.696 109.499 119.32H113.975C113.919 118.696 113.683 118.192 113.267 117.808C112.859 117.416 112.347 117.22 111.731 117.22ZM124.397 116.488C125.189 116.488 125.809 116.716 126.257 117.172C126.713 117.628 126.941 118.3 126.941 119.188V122.848H126.089V119.272C126.089 118.616 125.929 118.116 125.609 117.772C125.297 117.428 124.853 117.256 124.277 117.256C123.621 117.256 123.105 117.46 122.729 117.868C122.353 118.268 122.165 118.824 122.165 119.536V122.848H121.313V119.272C121.313 118.616 121.153 118.116 120.833 117.772C120.521 117.428 120.073 117.256 119.489 117.256C118.841 117.256 118.325 117.46 117.941 117.868C117.565 118.268 117.377 118.824 117.377 119.536V122.848H116.525V116.536H117.341V117.688C117.565 117.304 117.877 117.008 118.277 116.8C118.677 116.592 119.137 116.488 119.657 116.488C120.185 116.488 120.641 116.6 121.025 116.824C121.417 117.048 121.709 117.38 121.901 117.82C122.133 117.404 122.465 117.08 122.897 116.848C123.337 116.608 123.837 116.488 124.397 116.488ZM132.503 116.488C133.095 116.488 133.631 116.624 134.111 116.896C134.591 117.16 134.967 117.536 135.239 118.024C135.511 118.512 135.647 119.068 135.647 119.692C135.647 120.324 135.511 120.884 135.239 121.372C134.967 121.86 134.591 122.24 134.111 122.512C133.639 122.776 133.103 122.908 132.503 122.908C131.991 122.908 131.527 122.804 131.111 122.596C130.703 122.38 130.367 122.068 130.103 121.66V125.176H129.251V116.536H130.067V117.784C130.323 117.368 130.659 117.048 131.075 116.824C131.499 116.6 131.975 116.488 132.503 116.488ZM132.443 122.152C132.883 122.152 133.283 122.052 133.643 121.852C134.003 121.644 134.283 121.352 134.483 120.976C134.691 120.6 134.795 120.172 134.795 119.692C134.795 119.212 134.691 118.788 134.483 118.42C134.283 118.044 134.003 117.752 133.643 117.544C133.283 117.336 132.883 117.232 132.443 117.232C131.995 117.232 131.591 117.336 131.231 117.544C130.879 117.752 130.599 118.044 130.391 118.42C130.191 118.788 130.091 119.212 130.091 119.692C130.091 120.172 130.191 120.6 130.391 120.976C130.599 121.352 130.879 121.644 131.231 121.852C131.591 122.052 131.995 122.152 132.443 122.152ZM142.88 119.956H137.6C137.648 120.612 137.9 121.144 138.356 121.552C138.812 121.952 139.388 122.152 140.084 122.152C140.476 122.152 140.836 122.084 141.164 121.948C141.492 121.804 141.776 121.596 142.016 121.324L142.496 121.876C142.216 122.212 141.864 122.468 141.44 122.644C141.024 122.82 140.564 122.908 140.06 122.908C139.412 122.908 138.836 122.772 138.332 122.5C137.836 122.22 137.448 121.836 137.168 121.348C136.888 120.86 136.748 120.308 136.748 119.692C136.748 119.076 136.88 118.524 137.144 118.036C137.416 117.548 137.784 117.168 138.248 116.896C138.72 116.624 139.248 116.488 139.832 116.488C140.416 116.488 140.94 116.624 141.404 116.896C141.868 117.168 142.232 117.548 142.496 118.036C142.76 118.516 142.892 119.068 142.892 119.692L142.88 119.956ZM139.832 117.22C139.224 117.22 138.712 117.416 138.296 117.808C137.888 118.192 137.656 118.696 137.6 119.32H142.076C142.02 118.696 141.784 118.192 141.368 117.808C140.96 117.416 140.448 117.22 139.832 117.22ZM140.696 114.064H141.836L139.892 115.552H139.052L140.696 114.064ZM145.442 117.772C145.642 117.348 145.938 117.028 146.33 116.812C146.73 116.596 147.222 116.488 147.806 116.488V117.316L147.602 117.304C146.938 117.304 146.418 117.508 146.042 117.916C145.666 118.324 145.478 118.896 145.478 119.632V122.848H144.626V116.536H145.442V117.772ZM151.545 116.488C152.369 116.488 153.001 116.696 153.441 117.112C153.881 117.52 154.101 118.128 154.101 118.936V122.848H153.285V121.864C153.093 122.192 152.809 122.448 152.433 122.632C152.065 122.816 151.625 122.908 151.113 122.908C150.409 122.908 149.849 122.74 149.433 122.404C149.017 122.068 148.809 121.624 148.809 121.072C148.809 120.536 149.001 120.104 149.385 119.776C149.777 119.448 150.397 119.284 151.245 119.284H153.249V118.9C153.249 118.356 153.097 117.944 152.793 117.664C152.489 117.376 152.045 117.232 151.461 117.232C151.061 117.232 150.677 117.3 150.309 117.436C149.941 117.564 149.625 117.744 149.361 117.976L148.977 117.34C149.297 117.068 149.681 116.86 150.129 116.716C150.577 116.564 151.049 116.488 151.545 116.488ZM151.245 122.236C151.725 122.236 152.137 122.128 152.481 121.912C152.825 121.688 153.081 121.368 153.249 120.952V119.92H151.269C150.189 119.92 149.649 120.296 149.649 121.048C149.649 121.416 149.789 121.708 150.069 121.924C150.349 122.132 150.741 122.236 151.245 122.236ZM159.74 122.464C159.58 122.608 159.38 122.72 159.14 122.8C158.908 122.872 158.664 122.908 158.408 122.908C157.816 122.908 157.36 122.748 157.04 122.428C156.72 122.108 156.56 121.656 156.56 121.072V117.256H155.432V116.536H156.56V115.156H157.412V116.536H159.332V117.256H157.412V121.024C157.412 121.4 157.504 121.688 157.688 121.888C157.88 122.08 158.152 122.176 158.504 122.176C158.68 122.176 158.848 122.148 159.008 122.092C159.176 122.036 159.32 121.956 159.44 121.852L159.74 122.464ZM166.979 116.536V122.848H166.163V121.696C165.939 122.08 165.631 122.38 165.239 122.596C164.847 122.804 164.399 122.908 163.895 122.908C163.071 122.908 162.419 122.68 161.939 122.224C161.467 121.76 161.231 121.084 161.231 120.196V116.536H162.083V120.112C162.083 120.776 162.247 121.28 162.575 121.624C162.903 121.968 163.371 122.14 163.979 122.14C164.643 122.14 165.167 121.94 165.551 121.54C165.935 121.132 166.127 120.568 166.127 119.848V116.536H166.979ZM170.181 117.772C170.381 117.348 170.677 117.028 171.069 116.812C171.469 116.596 171.961 116.488 172.545 116.488V117.316L172.341 117.304C171.677 117.304 171.157 117.508 170.781 117.916C170.405 118.324 170.217 118.896 170.217 119.632V122.848H169.365V116.536H170.181V117.772ZM179.525 119.956H174.245C174.293 120.612 174.545 121.144 175.001 121.552C175.457 121.952 176.033 122.152 176.729 122.152C177.121 122.152 177.481 122.084 177.809 121.948C178.137 121.804 178.421 121.596 178.661 121.324L179.141 121.876C178.861 122.212 178.509 122.468 178.085 122.644C177.669 122.82 177.209 122.908 176.705 122.908C176.057 122.908 175.481 122.772 174.977 122.5C174.481 122.22 174.093 121.836 173.813 121.348C173.533 120.86 173.393 120.308 173.393 119.692C173.393 119.076 173.525 118.524 173.789 118.036C174.061 117.548 174.429 117.168 174.893 116.896C175.365 116.624 175.893 116.488 176.477 116.488C177.061 116.488 177.585 116.624 178.049 116.896C178.513 117.168 178.877 117.548 179.141 118.036C179.405 118.516 179.537 119.068 179.537 119.692L179.525 119.956ZM176.477 117.22C175.869 117.22 175.357 117.416 174.941 117.808C174.533 118.192 174.301 118.696 174.245 119.32H178.721C178.665 118.696 178.429 118.192 178.013 117.808C177.605 117.416 177.093 117.22 176.477 117.22ZM94.513 137.464C94.353 137.608 94.153 137.72 93.913 137.8C93.681 137.872 93.437 137.908 93.181 137.908C92.589 137.908 92.133 137.748 91.813 137.428C91.493 137.108 91.333 136.656 91.333 136.072V132.256H90.205V131.536H91.333V130.156H92.185V131.536H94.105V132.256H92.185V136.024C92.185 136.4 92.277 136.688 92.461 136.888C92.653 137.08 92.925 137.176 93.277 137.176C93.453 137.176 93.621 137.148 93.781 137.092C93.949 137.036 94.093 136.956 94.213 136.852L94.513 137.464ZM101.337 134.956H96.0573C96.1053 135.612 96.3573 136.144 96.8133 136.552C97.2693 136.952 97.8453 137.152 98.5413 137.152C98.9333 137.152 99.2933 137.084 99.6213 136.948C99.9493 136.804 100.233 136.596 100.473 136.324L100.953 136.876C100.673 137.212 100.321 137.468 99.8973 137.644C99.4813 137.82 99.0213 137.908 98.5173 137.908C97.8693 137.908 97.2933 137.772 96.7893 137.5C96.2933 137.22 95.9053 136.836 95.6253 136.348C95.3453 135.86 95.2053 135.308 95.2053 134.692C95.2053 134.076 95.3373 133.524 95.6013 133.036C95.8733 132.548 96.2413 132.168 96.7053 131.896C97.1773 131.624 97.7053 131.488 98.2893 131.488C98.8733 131.488 99.3973 131.624 99.8613 131.896C100.325 132.168 100.689 132.548 100.953 133.036C101.217 133.516 101.349 134.068 101.349 134.692L101.337 134.956ZM98.2893 132.22C97.6813 132.22 97.1693 132.416 96.7533 132.808C96.3453 133.192 96.1133 133.696 96.0573 134.32H100.533C100.477 133.696 100.241 133.192 99.8253 132.808C99.4173 132.416 98.9053 132.22 98.2893 132.22ZM103.9 132.772C104.1 132.348 104.396 132.028 104.788 131.812C105.188 131.596 105.68 131.488 106.264 131.488V132.316L106.06 132.304C105.396 132.304 104.876 132.508 104.5 132.916C104.124 133.324 103.936 133.896 103.936 134.632V137.848H103.084V131.536H103.9V132.772ZM108.622 132.772C108.822 132.348 109.118 132.028 109.51 131.812C109.91 131.596 110.402 131.488 110.986 131.488V132.316L110.782 132.304C110.118 132.304 109.598 132.508 109.222 132.916C108.846 133.324 108.658 133.896 108.658 134.632V137.848H107.806V131.536H108.622V132.772ZM117.966 134.956H112.686C112.734 135.612 112.986 136.144 113.442 136.552C113.898 136.952 114.474 137.152 115.17 137.152C115.562 137.152 115.922 137.084 116.25 136.948C116.578 136.804 116.862 136.596 117.102 136.324L117.582 136.876C117.302 137.212 116.95 137.468 116.526 137.644C116.11 137.82 115.65 137.908 115.146 137.908C114.498 137.908 113.922 137.772 113.418 137.5C112.922 137.22 112.534 136.836 112.254 136.348C111.974 135.86 111.834 135.308 111.834 134.692C111.834 134.076 111.966 133.524 112.23 133.036C112.502 132.548 112.87 132.168 113.334 131.896C113.806 131.624 114.334 131.488 114.918 131.488C115.502 131.488 116.026 131.624 116.49 131.896C116.954 132.168 117.318 132.548 117.582 133.036C117.846 133.516 117.978 134.068 117.978 134.692L117.966 134.956ZM114.918 132.22C114.31 132.22 113.798 132.416 113.382 132.808C112.974 133.192 112.742 133.696 112.686 134.32H117.162C117.106 133.696 116.87 133.192 116.454 132.808C116.046 132.416 115.534 132.22 114.918 132.22ZM121.404 137.908C120.892 137.908 120.4 137.836 119.928 137.692C119.464 137.54 119.1 137.352 118.836 137.128L119.22 136.456C119.484 136.664 119.816 136.836 120.216 136.972C120.616 137.1 121.032 137.164 121.464 137.164C122.04 137.164 122.464 137.076 122.736 136.9C123.016 136.716 123.156 136.46 123.156 136.132C123.156 135.9 123.08 135.72 122.928 135.592C122.776 135.456 122.584 135.356 122.352 135.292C122.12 135.22 121.812 135.152 121.428 135.088C120.916 134.992 120.504 134.896 120.192 134.8C119.88 134.696 119.612 134.524 119.388 134.284C119.172 134.044 119.064 133.712 119.064 133.288C119.064 132.76 119.284 132.328 119.724 131.992C120.164 131.656 120.776 131.488 121.56 131.488C121.968 131.488 122.376 131.544 122.784 131.656C123.192 131.76 123.528 131.9 123.792 132.076L123.42 132.76C122.9 132.4 122.28 132.22 121.56 132.22C121.016 132.22 120.604 132.316 120.324 132.508C120.052 132.7 119.916 132.952 119.916 133.264C119.916 133.504 119.992 133.696 120.144 133.84C120.304 133.984 120.5 134.092 120.732 134.164C120.964 134.228 121.284 134.296 121.692 134.368C122.196 134.464 122.6 134.56 122.904 134.656C123.208 134.752 123.468 134.916 123.684 135.148C123.9 135.38 124.008 135.7 124.008 136.108C124.008 136.66 123.776 137.1 123.312 137.428C122.856 137.748 122.22 137.908 121.404 137.908ZM128.908 137.464C128.748 137.608 128.548 137.72 128.308 137.8C128.076 137.872 127.832 137.908 127.576 137.908C126.984 137.908 126.528 137.748 126.208 137.428C125.888 137.108 125.728 136.656 125.728 136.072V132.256H124.6V131.536H125.728V130.156H126.58V131.536H128.5V132.256H126.58V136.024C126.58 136.4 126.672 136.688 126.856 136.888C127.048 137.08 127.32 137.176 127.672 137.176C127.848 137.176 128.016 137.148 128.176 137.092C128.344 137.036 128.488 136.956 128.608 136.852L128.908 137.464ZM131.275 132.772C131.475 132.348 131.771 132.028 132.163 131.812C132.563 131.596 133.055 131.488 133.639 131.488V132.316L133.435 132.304C132.771 132.304 132.251 132.508 131.875 132.916C131.499 133.324 131.311 133.896 131.311 134.632V137.848H130.459V131.536H131.275V132.772ZM140.619 134.956H135.339C135.387 135.612 135.639 136.144 136.095 136.552C136.551 136.952 137.127 137.152 137.823 137.152C138.215 137.152 138.575 137.084 138.903 136.948C139.231 136.804 139.515 136.596 139.755 136.324L140.235 136.876C139.955 137.212 139.603 137.468 139.179 137.644C138.763 137.82 138.303 137.908 137.799 137.908C137.151 137.908 136.575 137.772 136.071 137.5C135.575 137.22 135.187 136.836 134.907 136.348C134.627 135.86 134.487 135.308 134.487 134.692C134.487 134.076 134.619 133.524 134.883 133.036C135.155 132.548 135.523 132.168 135.987 131.896C136.459 131.624 136.987 131.488 137.571 131.488C138.155 131.488 138.679 131.624 139.143 131.896C139.607 132.168 139.971 132.548 140.235 133.036C140.499 133.516 140.631 134.068 140.631 134.692L140.619 134.956ZM137.571 132.22C136.963 132.22 136.451 132.416 136.035 132.808C135.627 133.192 135.395 133.696 135.339 134.32H139.815C139.759 133.696 139.523 133.192 139.107 132.808C138.699 132.416 138.187 132.22 137.571 132.22ZM147.713 131.488C148.537 131.488 149.169 131.696 149.609 132.112C150.049 132.52 150.269 133.128 150.269 133.936V137.848H149.453V136.864C149.261 137.192 148.977 137.448 148.601 137.632C148.233 137.816 147.793 137.908 147.281 137.908C146.577 137.908 146.017 137.74 145.601 137.404C145.185 137.068 144.977 136.624 144.977 136.072C144.977 135.536 145.169 135.104 145.553 134.776C145.945 134.448 146.565 134.284 147.413 134.284H149.417V133.9C149.417 133.356 149.265 132.944 148.961 132.664C148.657 132.376 148.213 132.232 147.629 132.232C147.229 132.232 146.845 132.3 146.477 132.436C146.109 132.564 145.793 132.744 145.529 132.976L145.145 132.34C145.465 132.068 145.849 131.86 146.297 131.716C146.745 131.564 147.217 131.488 147.713 131.488ZM147.413 137.236C147.893 137.236 148.305 137.128 148.649 136.912C148.993 136.688 149.249 136.368 149.417 135.952V134.92H147.437C146.357 134.92 145.817 135.296 145.817 136.048C145.817 136.416 145.957 136.708 146.237 136.924C146.517 137.132 146.909 137.236 147.413 137.236ZM145.733 129.064H146.873L148.517 130.552H147.677L145.733 129.064Z" fill="#0C0B3C"/>
<path d="M73.1088 96.8477H55.4088V114.348H44.7088V96.8477H27.0088V86.8477H44.7088V69.3477H55.4088V86.8477H73.1088V96.8477Z" fill="#691F79"/>
</svg>
