<svg width="480" height="817" viewBox="0 0 480 817" fill="none" xmlns="http://www.w3.org/2000/svg">
<rect x="185.795" y="45.6052" width="367.308" height="94.9085" rx="47.4542" transform="rotate(79.4871 185.795 45.6052)" fill="#F2CC44"/>
<rect x="253.294" y="390.373" width="367.308" height="94.9085" rx="47.4542" transform="rotate(79.4871 253.294 390.373)" fill="#A02A79"/>
<rect x="93.3955" y="120.176" width="367.308" height="94.9085" rx="47.4542" transform="rotate(79.6332 93.3955 120.176)" fill="#F2CC44" fill-opacity="0.7"/>
<rect x="134.396" y="346" width="367.308" height="94.9085" rx="47.4542" transform="rotate(79.6332 134.396 346)" fill="#A02A79" fill-opacity="0.7"/>
<ellipse cx="239.518" cy="455.193" rx="239.518" ry="237.41" fill="#0C0B3C"/>
<path d="M382.228 269.249L325.642 409.963C320.402 422.992 309.925 433.217 296.772 438.138L164.627 487.574C152.718 492.029 142.954 500.853 137.321 512.251L78.2257 631.829" stroke="white" stroke-width="5"/>
<path d="M142.714 383.903C141.43 383.903 140.272 383.627 139.24 383.075C138.208 382.511 137.398 381.737 136.81 380.753C136.222 379.757 135.928 378.647 135.928 377.423C135.928 376.199 136.222 375.095 136.81 374.111C137.398 373.115 138.208 372.341 139.24 371.789C140.272 371.225 141.43 370.943 142.714 370.943C143.998 370.943 145.156 371.225 146.188 371.789C147.22 372.341 148.03 373.109 148.618 374.093C149.206 375.077 149.5 376.187 149.5 377.423C149.5 378.659 149.206 379.769 148.618 380.753C148.03 381.737 147.22 382.511 146.188 383.075C145.156 383.627 143.998 383.903 142.714 383.903ZM142.714 381.851C143.554 381.851 144.31 381.665 144.982 381.293C145.654 380.909 146.182 380.381 146.566 379.709C146.95 379.025 147.142 378.263 147.142 377.423C147.142 376.583 146.95 375.827 146.566 375.155C146.182 374.471 145.654 373.943 144.982 373.571C144.31 373.187 143.554 372.995 142.714 372.995C141.874 372.995 141.118 373.187 140.446 373.571C139.774 373.943 139.246 374.471 138.862 375.155C138.478 375.827 138.286 376.583 138.286 377.423C138.286 378.263 138.478 379.025 138.862 379.709C139.246 380.381 139.774 380.909 140.446 381.293C141.118 381.665 141.874 381.851 142.714 381.851ZM157.092 374.003C158.028 374.003 158.862 374.207 159.594 374.615C160.338 375.023 160.92 375.599 161.34 376.343C161.76 377.087 161.97 377.945 161.97 378.917C161.97 379.889 161.76 380.753 161.34 381.509C160.92 382.253 160.338 382.829 159.594 383.237C158.862 383.645 158.028 383.849 157.092 383.849C156.432 383.849 155.826 383.735 155.274 383.507C154.734 383.279 154.278 382.937 153.906 382.481V383.723H151.764V370.367H154.014V375.281C154.398 374.861 154.848 374.543 155.364 374.327C155.892 374.111 156.468 374.003 157.092 374.003ZM156.84 381.923C157.668 381.923 158.346 381.647 158.874 381.095C159.414 380.543 159.684 379.817 159.684 378.917C159.684 378.017 159.414 377.291 158.874 376.739C158.346 376.187 157.668 375.911 156.84 375.911C156.3 375.911 155.814 376.037 155.382 376.289C154.95 376.529 154.608 376.877 154.356 377.333C154.104 377.789 153.978 378.317 153.978 378.917C153.978 379.517 154.104 380.045 154.356 380.501C154.608 380.957 154.95 381.311 155.382 381.563C155.814 381.803 156.3 381.923 156.84 381.923ZM163.114 387.341C162.166 387.341 161.446 387.155 160.954 386.783L161.602 385.109C161.938 385.361 162.376 385.487 162.916 385.487C163.336 385.487 163.654 385.355 163.87 385.091C164.098 384.839 164.212 384.461 164.212 383.957V374.111H166.462V383.903C166.462 384.971 166.168 385.811 165.58 386.423C164.992 387.035 164.17 387.341 163.114 387.341ZM165.328 372.527C164.92 372.527 164.578 372.401 164.302 372.149C164.026 371.885 163.888 371.561 163.888 371.177C163.888 370.793 164.026 370.475 164.302 370.223C164.578 369.959 164.92 369.827 165.328 369.827C165.736 369.827 166.078 369.953 166.354 370.205C166.63 370.445 166.768 370.751 166.768 371.123C166.768 371.519 166.63 371.855 166.354 372.131C166.09 372.395 165.748 372.527 165.328 372.527ZM178.449 378.971C178.449 379.127 178.437 379.349 178.413 379.637H170.871C171.003 380.345 171.345 380.909 171.897 381.329C172.461 381.737 173.157 381.941 173.985 381.941C175.041 381.941 175.911 381.593 176.595 380.897L177.801 382.283C177.369 382.799 176.823 383.189 176.163 383.453C175.503 383.717 174.759 383.849 173.931 383.849C172.875 383.849 171.945 383.639 171.141 383.219C170.337 382.799 169.713 382.217 169.269 381.473C168.837 380.717 168.621 379.865 168.621 378.917C168.621 377.981 168.831 377.141 169.251 376.397C169.683 375.641 170.277 375.053 171.033 374.633C171.789 374.213 172.641 374.003 173.589 374.003C174.525 374.003 175.359 374.213 176.091 374.633C176.835 375.041 177.411 375.623 177.819 376.379C178.239 377.123 178.449 377.987 178.449 378.971ZM173.589 375.803C172.869 375.803 172.257 376.019 171.753 376.451C171.261 376.871 170.961 377.435 170.853 378.143H176.307C176.211 377.447 175.917 376.883 175.425 376.451C174.933 376.019 174.321 375.803 173.589 375.803ZM185.02 383.849C184.024 383.849 183.13 383.639 182.338 383.219C181.546 382.799 180.928 382.217 180.484 381.473C180.04 380.717 179.818 379.865 179.818 378.917C179.818 377.969 180.04 377.123 180.484 376.379C180.928 375.635 181.54 375.053 182.32 374.633C183.112 374.213 184.012 374.003 185.02 374.003C185.968 374.003 186.796 374.195 187.504 374.579C188.224 374.963 188.764 375.515 189.124 376.235L187.396 377.243C187.12 376.799 186.772 376.469 186.352 376.253C185.944 376.025 185.494 375.911 185.002 375.911C184.162 375.911 183.466 376.187 182.914 376.739C182.362 377.279 182.086 378.005 182.086 378.917C182.086 379.829 182.356 380.561 182.896 381.113C183.448 381.653 184.15 381.923 185.002 381.923C185.494 381.923 185.944 381.815 186.352 381.599C186.772 381.371 187.12 381.035 187.396 380.591L189.124 381.599C188.752 382.319 188.206 382.877 187.486 383.273C186.778 383.657 185.956 383.849 185.02 383.849ZM196.97 383.201C196.706 383.417 196.382 383.579 195.998 383.687C195.626 383.795 195.23 383.849 194.81 383.849C193.754 383.849 192.938 383.573 192.362 383.021C191.786 382.469 191.498 381.665 191.498 380.609V375.983H189.914V374.183H191.498V371.987H193.748V374.183H196.322V375.983H193.748V380.555C193.748 381.023 193.862 381.383 194.09 381.635C194.318 381.875 194.648 381.995 195.08 381.995C195.584 381.995 196.004 381.863 196.34 381.599L196.97 383.201ZM198.821 374.111H201.071V383.723H198.821V374.111ZM199.955 372.527C199.547 372.527 199.205 372.401 198.929 372.149C198.653 371.885 198.515 371.561 198.515 371.177C198.515 370.793 198.653 370.475 198.929 370.223C199.205 369.959 199.547 369.827 199.955 369.827C200.363 369.827 200.705 369.953 200.981 370.205C201.257 370.445 201.395 370.751 201.395 371.123C201.395 371.519 201.257 371.855 200.981 372.131C200.717 372.395 200.375 372.527 199.955 372.527ZM207.93 372.059C206.982 372.059 206.508 372.575 206.508 373.607V374.183H209.154V375.983H206.58V383.723H204.33V375.983H202.746V374.183H204.33V373.571C204.33 372.539 204.63 371.729 205.23 371.141C205.83 370.541 206.676 370.241 207.768 370.241C208.632 370.241 209.31 370.415 209.802 370.763L209.172 372.455C208.788 372.191 208.374 372.059 207.93 372.059ZM225.057 370.367V383.723H222.897V382.481C222.525 382.937 222.063 383.279 221.511 383.507C220.971 383.735 220.371 383.849 219.711 383.849C218.787 383.849 217.953 383.645 217.209 383.237C216.477 382.829 215.901 382.253 215.481 381.509C215.061 380.753 214.851 379.889 214.851 378.917C214.851 377.945 215.061 377.087 215.481 376.343C215.901 375.599 216.477 375.023 217.209 374.615C217.953 374.207 218.787 374.003 219.711 374.003C220.347 374.003 220.929 374.111 221.457 374.327C221.985 374.543 222.435 374.867 222.807 375.299V370.367H225.057ZM219.981 381.923C220.521 381.923 221.007 381.803 221.439 381.563C221.871 381.311 222.213 380.957 222.465 380.501C222.717 380.045 222.843 379.517 222.843 378.917C222.843 378.317 222.717 377.789 222.465 377.333C222.213 376.877 221.871 376.529 221.439 376.289C221.007 376.037 220.521 375.911 219.981 375.911C219.441 375.911 218.955 376.037 218.523 376.289C218.091 376.529 217.749 376.877 217.497 377.333C217.245 377.789 217.119 378.317 217.119 378.917C217.119 379.517 217.245 380.045 217.497 380.501C217.749 380.957 218.091 381.311 218.523 381.563C218.955 381.803 219.441 381.923 219.981 381.923ZM237.036 378.971C237.036 379.127 237.024 379.349 237 379.637H229.458C229.59 380.345 229.932 380.909 230.484 381.329C231.048 381.737 231.744 381.941 232.572 381.941C233.628 381.941 234.498 381.593 235.182 380.897L236.388 382.283C235.956 382.799 235.41 383.189 234.75 383.453C234.09 383.717 233.346 383.849 232.518 383.849C231.462 383.849 230.532 383.639 229.728 383.219C228.924 382.799 228.3 382.217 227.856 381.473C227.424 380.717 227.208 379.865 227.208 378.917C227.208 377.981 227.418 377.141 227.838 376.397C228.27 375.641 228.864 375.053 229.62 374.633C230.376 374.213 231.228 374.003 232.176 374.003C233.112 374.003 233.946 374.213 234.678 374.633C235.422 375.041 235.998 375.623 236.406 376.379C236.826 377.123 237.036 377.987 237.036 378.971ZM232.176 375.803C231.456 375.803 230.844 376.019 230.34 376.451C229.848 376.871 229.548 377.435 229.44 378.143H234.894C234.798 377.447 234.504 376.883 234.012 376.451C233.52 376.019 232.908 375.803 232.176 375.803ZM133.762 395.515C134.41 394.507 135.55 394.003 137.182 394.003V396.145C136.99 396.109 136.816 396.091 136.66 396.091C135.784 396.091 135.1 396.349 134.608 396.865C134.116 397.369 133.87 398.101 133.87 399.061V403.723H131.62V394.111H133.762V395.515ZM148.038 398.971C148.038 399.127 148.026 399.349 148.002 399.637H140.46C140.592 400.345 140.934 400.909 141.486 401.329C142.05 401.737 142.746 401.941 143.574 401.941C144.63 401.941 145.5 401.593 146.184 400.897L147.39 402.283C146.958 402.799 146.412 403.189 145.752 403.453C145.092 403.717 144.348 403.849 143.52 403.849C142.464 403.849 141.534 403.639 140.73 403.219C139.926 402.799 139.302 402.217 138.858 401.473C138.426 400.717 138.21 399.865 138.21 398.917C138.21 397.981 138.42 397.141 138.84 396.397C139.272 395.641 139.866 395.053 140.622 394.633C141.378 394.213 142.23 394.003 143.178 394.003C144.114 394.003 144.948 394.213 145.68 394.633C146.424 395.041 147 395.623 147.408 396.379C147.828 397.123 148.038 397.987 148.038 398.971ZM143.178 395.803C142.458 395.803 141.846 396.019 141.342 396.451C140.85 396.871 140.55 397.435 140.442 398.143H145.896C145.8 397.447 145.506 396.883 145.014 396.451C144.522 396.019 143.91 395.803 143.178 395.803ZM154.61 403.849C153.614 403.849 152.72 403.639 151.928 403.219C151.136 402.799 150.518 402.217 150.074 401.473C149.63 400.717 149.408 399.865 149.408 398.917C149.408 397.969 149.63 397.123 150.074 396.379C150.518 395.635 151.13 395.053 151.91 394.633C152.702 394.213 153.602 394.003 154.61 394.003C155.558 394.003 156.386 394.195 157.094 394.579C157.814 394.963 158.354 395.515 158.714 396.235L156.986 397.243C156.71 396.799 156.362 396.469 155.942 396.253C155.534 396.025 155.084 395.911 154.592 395.911C153.752 395.911 153.056 396.187 152.504 396.739C151.952 397.279 151.676 398.005 151.676 398.917C151.676 399.829 151.946 400.561 152.486 401.113C153.038 401.653 153.74 401.923 154.592 401.923C155.084 401.923 155.534 401.815 155.942 401.599C156.362 401.371 156.71 401.035 156.986 400.591L158.714 401.599C158.342 402.319 157.796 402.877 157.076 403.273C156.368 403.657 155.546 403.849 154.61 403.849ZM162.801 395.515C163.449 394.507 164.589 394.003 166.221 394.003V396.145C166.029 396.109 165.855 396.091 165.699 396.091C164.823 396.091 164.139 396.349 163.647 396.865C163.155 397.369 162.909 398.101 162.909 399.061V403.723H160.659V394.111H162.801V395.515ZM177.523 394.111V403.723H175.381V402.499C175.021 402.931 174.571 403.267 174.031 403.507C173.491 403.735 172.909 403.849 172.285 403.849C171.001 403.849 169.987 403.495 169.243 402.787C168.511 402.067 168.145 401.005 168.145 399.601V394.111H170.395V399.295C170.395 400.159 170.587 400.807 170.971 401.239C171.367 401.659 171.925 401.869 172.645 401.869C173.449 401.869 174.085 401.623 174.553 401.131C175.033 400.627 175.273 399.907 175.273 398.971V394.111H177.523ZM186.247 403.201C185.983 403.417 185.659 403.579 185.275 403.687C184.903 403.795 184.507 403.849 184.087 403.849C183.031 403.849 182.215 403.573 181.639 403.021C181.063 402.469 180.775 401.665 180.775 400.609V395.983H179.191V394.183H180.775V391.987H183.025V394.183H185.599V395.983H183.025V400.555C183.025 401.023 183.139 401.383 183.367 401.635C183.595 401.875 183.925 401.995 184.357 401.995C184.861 401.995 185.281 401.863 185.617 401.599L186.247 403.201ZM196.818 398.971C196.818 399.127 196.806 399.349 196.782 399.637H189.24C189.372 400.345 189.714 400.909 190.266 401.329C190.83 401.737 191.526 401.941 192.354 401.941C193.41 401.941 194.28 401.593 194.964 400.897L196.17 402.283C195.738 402.799 195.192 403.189 194.532 403.453C193.872 403.717 193.128 403.849 192.3 403.849C191.244 403.849 190.314 403.639 189.51 403.219C188.706 402.799 188.082 402.217 187.638 401.473C187.206 400.717 186.99 399.865 186.99 398.917C186.99 397.981 187.2 397.141 187.62 396.397C188.052 395.641 188.646 395.053 189.402 394.633C190.158 394.213 191.01 394.003 191.958 394.003C192.894 394.003 193.728 394.213 194.46 394.633C195.204 395.041 195.78 395.623 196.188 396.379C196.608 397.123 196.818 397.987 196.818 398.971ZM191.958 395.803C191.238 395.803 190.626 396.019 190.122 396.451C189.63 396.871 189.33 397.435 189.222 398.143H194.676C194.58 397.447 194.286 396.883 193.794 396.451C193.302 396.019 192.69 395.803 191.958 395.803ZM211.111 394.003C212.323 394.003 213.283 394.357 213.991 395.065C214.699 395.761 215.053 396.811 215.053 398.215V403.723H212.803V398.503C212.803 397.663 212.617 397.033 212.245 396.613C211.873 396.181 211.339 395.965 210.643 395.965C209.887 395.965 209.281 396.217 208.825 396.721C208.369 397.213 208.141 397.921 208.141 398.845V403.723H205.891V398.503C205.891 397.663 205.705 397.033 205.333 396.613C204.961 396.181 204.427 395.965 203.731 395.965C202.963 395.965 202.351 396.211 201.895 396.703C201.451 397.195 201.229 397.909 201.229 398.845V403.723H198.979V394.111H201.121V395.335C201.481 394.903 201.931 394.573 202.471 394.345C203.011 394.117 203.611 394.003 204.271 394.003C204.991 394.003 205.627 394.141 206.179 394.417C206.743 394.681 207.187 395.077 207.511 395.605C207.907 395.101 208.417 394.711 209.041 394.435C209.665 394.147 210.355 394.003 211.111 394.003ZM227.052 398.971C227.052 399.127 227.04 399.349 227.016 399.637H219.474C219.606 400.345 219.948 400.909 220.5 401.329C221.064 401.737 221.76 401.941 222.588 401.941C223.644 401.941 224.514 401.593 225.198 400.897L226.404 402.283C225.972 402.799 225.426 403.189 224.766 403.453C224.106 403.717 223.362 403.849 222.534 403.849C221.478 403.849 220.548 403.639 219.744 403.219C218.94 402.799 218.316 402.217 217.872 401.473C217.44 400.717 217.224 399.865 217.224 398.917C217.224 397.981 217.434 397.141 217.854 396.397C218.286 395.641 218.88 395.053 219.636 394.633C220.392 394.213 221.244 394.003 222.192 394.003C223.128 394.003 223.962 394.213 224.694 394.633C225.438 395.041 226.014 395.623 226.422 396.379C226.842 397.123 227.052 397.987 227.052 398.971ZM222.192 395.803C221.472 395.803 220.86 396.019 220.356 396.451C219.864 396.871 219.564 397.435 219.456 398.143H224.91C224.814 397.447 224.52 396.883 224.028 396.451C223.536 396.019 222.924 395.803 222.192 395.803ZM234.667 394.003C235.879 394.003 236.851 394.357 237.583 395.065C238.315 395.773 238.681 396.823 238.681 398.215V403.723H236.431V398.503C236.431 397.663 236.233 397.033 235.837 396.613C235.441 396.181 234.877 395.965 234.145 395.965C233.317 395.965 232.663 396.217 232.183 396.721C231.703 397.213 231.463 397.927 231.463 398.863V403.723H229.213V394.111H231.355V395.353C231.727 394.909 232.195 394.573 232.759 394.345C233.323 394.117 233.959 394.003 234.667 394.003ZM247.314 403.201C247.05 403.417 246.726 403.579 246.342 403.687C245.97 403.795 245.574 403.849 245.154 403.849C244.098 403.849 243.282 403.573 242.706 403.021C242.13 402.469 241.842 401.665 241.842 400.609V395.983H240.258V394.183H241.842V391.987H244.092V394.183H246.666V395.983H244.092V400.555C244.092 401.023 244.206 401.383 244.434 401.635C244.662 401.875 244.992 401.995 245.424 401.995C245.928 401.995 246.348 401.863 246.684 401.599L247.314 403.201Z" fill="#F2CC44"/>
<path d="M28.4762 101.555H25.3762V105.53H22.2262V101.555H12.6262V99.305L21.2512 88.03H24.7262L16.6012 98.805H22.3262V95.28H25.3762V98.805H28.4762V101.555ZM35.2592 88.03V105.53H32.0092V90.755H28.3092V88.03H35.2592ZM42.6307 97.455C41.3807 97.455 40.3723 97.0134 39.6057 96.13C38.839 95.2467 38.4557 94.0884 38.4557 92.655C38.4557 91.2217 38.839 90.0634 39.6057 89.18C40.3723 88.2967 41.3807 87.855 42.6307 87.855C43.8807 87.855 44.889 88.2967 45.6557 89.18C46.439 90.0467 46.8307 91.205 46.8307 92.655C46.8307 94.105 46.439 95.2717 45.6557 96.155C44.889 97.0217 43.8807 97.455 42.6307 97.455ZM53.1307 88.03H55.5807L43.6307 105.53H41.1807L53.1307 88.03ZM42.6307 95.705C43.314 95.705 43.839 95.4384 44.2057 94.905C44.589 94.3717 44.7807 93.6217 44.7807 92.655C44.7807 91.6884 44.589 90.9384 44.2057 90.405C43.839 89.8717 43.314 89.605 42.6307 89.605C41.9807 89.605 41.4557 89.88 41.0557 90.43C40.6723 90.9634 40.4807 91.705 40.4807 92.655C40.4807 93.605 40.6723 94.355 41.0557 94.905C41.4557 95.4384 41.9807 95.705 42.6307 95.705ZM54.1057 105.705C52.8557 105.705 51.8473 105.263 51.0807 104.38C50.314 103.497 49.9307 102.338 49.9307 100.905C49.9307 99.4717 50.314 98.3134 51.0807 97.43C51.8473 96.5467 52.8557 96.105 54.1057 96.105C55.3557 96.105 56.364 96.5467 57.1307 97.43C57.914 98.3134 58.3057 99.4717 58.3057 100.905C58.3057 102.338 57.914 103.497 57.1307 104.38C56.364 105.263 55.3557 105.705 54.1057 105.705ZM54.1057 103.955C54.7723 103.955 55.2973 103.688 55.6807 103.155C56.064 102.605 56.2557 101.855 56.2557 100.905C56.2557 99.955 56.064 99.2134 55.6807 98.68C55.2973 98.13 54.7723 97.855 54.1057 97.855C53.439 97.855 52.914 98.1217 52.5307 98.655C52.1473 99.1884 51.9557 99.9384 51.9557 100.905C51.9557 101.872 52.1473 102.622 52.5307 103.155C52.914 103.688 53.439 103.955 54.1057 103.955Z" fill="#F2CC44" fill-opacity="0.7"/>
<path d="M168.053 266.044V268.024H158.765V266.458L163.769 261.706C164.333 261.166 164.711 260.698 164.903 260.302C165.107 259.894 165.209 259.492 165.209 259.096C165.209 258.508 165.011 258.058 164.615 257.746C164.219 257.434 163.637 257.278 162.869 257.278C161.585 257.278 160.601 257.716 159.917 258.592L158.279 257.332C158.771 256.672 159.431 256.162 160.259 255.802C161.099 255.43 162.035 255.244 163.067 255.244C164.435 255.244 165.527 255.568 166.343 256.216C167.159 256.864 167.567 257.746 167.567 258.862C167.567 259.546 167.423 260.188 167.135 260.788C166.847 261.388 166.295 262.072 165.479 262.84L162.113 266.044H168.053ZM174.607 268.204C173.599 268.204 172.699 267.952 171.907 267.448C171.115 266.932 170.491 266.188 170.035 265.216C169.579 264.232 169.351 263.068 169.351 261.724C169.351 260.38 169.579 259.222 170.035 258.25C170.491 257.266 171.115 256.522 171.907 256.018C172.699 255.502 173.599 255.244 174.607 255.244C175.615 255.244 176.515 255.502 177.307 256.018C178.111 256.522 178.741 257.266 179.197 258.25C179.653 259.222 179.881 260.38 179.881 261.724C179.881 263.068 179.653 264.232 179.197 265.216C178.741 266.188 178.111 266.932 177.307 267.448C176.515 267.952 175.615 268.204 174.607 268.204ZM174.607 266.17C175.507 266.17 176.215 265.798 176.731 265.054C177.259 264.31 177.523 263.2 177.523 261.724C177.523 260.248 177.259 259.138 176.731 258.394C176.215 257.65 175.507 257.278 174.607 257.278C173.719 257.278 173.011 257.65 172.483 258.394C171.967 259.138 171.709 260.248 171.709 261.724C171.709 263.2 171.967 264.31 172.483 265.054C173.011 265.798 173.719 266.17 174.607 266.17ZM190.501 266.044V268.024H181.213V266.458L186.217 261.706C186.781 261.166 187.159 260.698 187.351 260.302C187.555 259.894 187.657 259.492 187.657 259.096C187.657 258.508 187.459 258.058 187.063 257.746C186.667 257.434 186.085 257.278 185.317 257.278C184.033 257.278 183.049 257.716 182.365 258.592L180.727 257.332C181.219 256.672 181.879 256.162 182.707 255.802C183.547 255.43 184.483 255.244 185.515 255.244C186.883 255.244 187.975 255.568 188.791 256.216C189.607 256.864 190.015 257.746 190.015 258.862C190.015 259.546 189.871 260.188 189.583 260.788C189.295 261.388 188.743 262.072 187.927 262.84L184.561 266.044H190.501ZM197.054 268.204C196.046 268.204 195.146 267.952 194.354 267.448C193.562 266.932 192.938 266.188 192.482 265.216C192.026 264.232 191.798 263.068 191.798 261.724C191.798 260.38 192.026 259.222 192.482 258.25C192.938 257.266 193.562 256.522 194.354 256.018C195.146 255.502 196.046 255.244 197.054 255.244C198.062 255.244 198.962 255.502 199.754 256.018C200.558 256.522 201.188 257.266 201.644 258.25C202.1 259.222 202.328 260.38 202.328 261.724C202.328 263.068 202.1 264.232 201.644 265.216C201.188 266.188 200.558 266.932 199.754 267.448C198.962 267.952 198.062 268.204 197.054 268.204ZM197.054 266.17C197.954 266.17 198.662 265.798 199.178 265.054C199.706 264.31 199.97 263.2 199.97 261.724C199.97 260.248 199.706 259.138 199.178 258.394C198.662 257.65 197.954 257.278 197.054 257.278C196.166 257.278 195.458 257.65 194.93 258.394C194.414 259.138 194.156 260.248 194.156 261.724C194.156 263.2 194.414 264.31 194.93 265.054C195.458 265.798 196.166 266.17 197.054 266.17Z" fill="white"/>
<path d="M245.643 662.43V664.41H236.355V662.844L241.359 658.092C241.923 657.552 242.301 657.084 242.493 656.688C242.697 656.28 242.799 655.878 242.799 655.482C242.799 654.894 242.601 654.444 242.205 654.132C241.809 653.82 241.227 653.664 240.459 653.664C239.175 653.664 238.191 654.102 237.507 654.978L235.869 653.718C236.361 653.058 237.021 652.548 237.849 652.188C238.689 651.816 239.625 651.63 240.657 651.63C242.025 651.63 243.117 651.954 243.933 652.602C244.749 653.25 245.157 654.132 245.157 655.248C245.157 655.932 245.013 656.574 244.725 657.174C244.437 657.774 243.885 658.458 243.069 659.226L239.703 662.43H245.643ZM252.197 664.59C251.189 664.59 250.289 664.338 249.497 663.834C248.705 663.318 248.081 662.574 247.625 661.602C247.169 660.618 246.941 659.454 246.941 658.11C246.941 656.766 247.169 655.608 247.625 654.636C248.081 653.652 248.705 652.908 249.497 652.404C250.289 651.888 251.189 651.63 252.197 651.63C253.205 651.63 254.105 651.888 254.897 652.404C255.701 652.908 256.331 653.652 256.787 654.636C257.243 655.608 257.471 656.766 257.471 658.11C257.471 659.454 257.243 660.618 256.787 661.602C256.331 662.574 255.701 663.318 254.897 663.834C254.105 664.338 253.205 664.59 252.197 664.59ZM252.197 662.556C253.097 662.556 253.805 662.184 254.321 661.44C254.849 660.696 255.113 659.586 255.113 658.11C255.113 656.634 254.849 655.524 254.321 654.78C253.805 654.036 253.097 653.664 252.197 653.664C251.309 653.664 250.601 654.036 250.073 654.78C249.557 655.524 249.299 656.634 249.299 658.11C249.299 659.586 249.557 660.696 250.073 661.44C250.601 662.184 251.309 662.556 252.197 662.556ZM268.09 662.43V664.41H258.802V662.844L263.806 658.092C264.37 657.552 264.748 657.084 264.94 656.688C265.144 656.28 265.246 655.878 265.246 655.482C265.246 654.894 265.048 654.444 264.652 654.132C264.256 653.82 263.674 653.664 262.906 653.664C261.622 653.664 260.638 654.102 259.954 654.978L258.316 653.718C258.808 653.058 259.468 652.548 260.296 652.188C261.136 651.816 262.072 651.63 263.104 651.63C264.472 651.63 265.564 651.954 266.38 652.602C267.196 653.25 267.604 654.132 267.604 655.248C267.604 655.932 267.46 656.574 267.172 657.174C266.884 657.774 266.332 658.458 265.516 659.226L262.15 662.43H268.09ZM274.644 664.59C273.636 664.59 272.736 664.338 271.944 663.834C271.152 663.318 270.528 662.574 270.072 661.602C269.616 660.618 269.388 659.454 269.388 658.11C269.388 656.766 269.616 655.608 270.072 654.636C270.528 653.652 271.152 652.908 271.944 652.404C272.736 651.888 273.636 651.63 274.644 651.63C275.652 651.63 276.552 651.888 277.344 652.404C278.148 652.908 278.778 653.652 279.234 654.636C279.69 655.608 279.918 656.766 279.918 658.11C279.918 659.454 279.69 660.618 279.234 661.602C278.778 662.574 278.148 663.318 277.344 663.834C276.552 664.338 275.652 664.59 274.644 664.59ZM274.644 662.556C275.544 662.556 276.252 662.184 276.768 661.44C277.296 660.696 277.56 659.586 277.56 658.11C277.56 656.634 277.296 655.524 276.768 654.78C276.252 654.036 275.544 653.664 274.644 653.664C273.756 653.664 273.048 654.036 272.52 654.78C272.004 655.524 271.746 656.634 271.746 658.11C271.746 659.586 272.004 660.696 272.52 661.44C273.048 662.184 273.756 662.556 274.644 662.556Z" fill="white"/>
<path d="M90.1294 321.707V323.687H80.8414V322.121L85.8454 317.369C86.4094 316.829 86.7874 316.361 86.9794 315.965C87.1834 315.557 87.2854 315.155 87.2854 314.759C87.2854 314.171 87.0874 313.721 86.6914 313.409C86.2954 313.097 85.7134 312.941 84.9454 312.941C83.6614 312.941 82.6774 313.379 81.9934 314.255L80.3554 312.995C80.8474 312.335 81.5074 311.825 82.3354 311.465C83.1754 311.093 84.1114 310.907 85.1434 310.907C86.5114 310.907 87.6034 311.231 88.4194 311.879C89.2354 312.527 89.6434 313.409 89.6434 314.525C89.6434 315.209 89.4994 315.851 89.2114 316.451C88.9234 317.051 88.3714 317.735 87.5554 318.503L84.1894 321.707H90.1294ZM96.6833 323.867C95.6753 323.867 94.7753 323.615 93.9833 323.111C93.1913 322.595 92.5673 321.851 92.1113 320.879C91.6553 319.895 91.4273 318.731 91.4273 317.387C91.4273 316.043 91.6553 314.885 92.1113 313.913C92.5673 312.929 93.1913 312.185 93.9833 311.681C94.7753 311.165 95.6753 310.907 96.6833 310.907C97.6913 310.907 98.5913 311.165 99.3833 311.681C100.187 312.185 100.817 312.929 101.273 313.913C101.729 314.885 101.957 316.043 101.957 317.387C101.957 318.731 101.729 319.895 101.273 320.879C100.817 321.851 100.187 322.595 99.3833 323.111C98.5913 323.615 97.6913 323.867 96.6833 323.867ZM96.6833 321.833C97.5833 321.833 98.2913 321.461 98.8073 320.717C99.3353 319.973 99.5993 318.863 99.5993 317.387C99.5993 315.911 99.3353 314.801 98.8073 314.057C98.2913 313.313 97.5833 312.941 96.6833 312.941C95.7953 312.941 95.0873 313.313 94.5593 314.057C94.0433 314.801 93.7853 315.911 93.7853 317.387C93.7853 318.863 94.0433 319.973 94.5593 320.717C95.0873 321.461 95.7953 321.833 96.6833 321.833ZM107.807 311.087V323.687H105.467V313.049H102.803V311.087H107.807ZM114.554 310.907C116.282 310.907 117.62 311.447 118.568 312.527C119.528 313.607 120.008 315.155 120.008 317.171C120.008 318.587 119.75 319.799 119.234 320.807C118.718 321.803 117.992 322.565 117.056 323.093C116.132 323.609 115.058 323.867 113.834 323.867C113.186 323.867 112.574 323.801 111.998 323.669C111.434 323.525 110.942 323.321 110.522 323.057L111.386 321.293C112.01 321.701 112.808 321.905 113.78 321.905C114.992 321.905 115.94 321.533 116.624 320.789C117.308 320.045 117.65 318.971 117.65 317.567V317.549C117.278 317.981 116.804 318.311 116.228 318.539C115.652 318.755 115.004 318.863 114.284 318.863C113.456 318.863 112.712 318.707 112.052 318.395C111.392 318.071 110.876 317.615 110.504 317.027C110.132 316.439 109.946 315.761 109.946 314.993C109.946 314.177 110.15 313.463 110.558 312.851C110.966 312.227 111.518 311.747 112.214 311.411C112.91 311.075 113.69 310.907 114.554 310.907ZM114.734 317.027C115.49 317.027 116.102 316.823 116.57 316.415C117.05 316.007 117.29 315.491 117.29 314.867C117.29 314.255 117.056 313.751 116.588 313.355C116.132 312.947 115.496 312.743 114.68 312.743C113.948 312.743 113.354 312.941 112.898 313.337C112.442 313.721 112.214 314.237 112.214 314.885C112.214 315.545 112.442 316.067 112.898 316.451C113.354 316.835 113.966 317.027 114.734 317.027Z" fill="white"/>
<path d="M143.262 638.815V640.795H133.974V639.229L138.978 634.477C139.542 633.937 139.92 633.469 140.112 633.073C140.316 632.665 140.418 632.263 140.418 631.867C140.418 631.279 140.22 630.829 139.824 630.517C139.428 630.205 138.846 630.049 138.078 630.049C136.794 630.049 135.81 630.487 135.126 631.363L133.488 630.103C133.98 629.443 134.64 628.933 135.468 628.573C136.308 628.201 137.244 628.015 138.276 628.015C139.644 628.015 140.736 628.339 141.552 628.987C142.368 629.635 142.776 630.517 142.776 631.633C142.776 632.317 142.632 632.959 142.344 633.559C142.056 634.159 141.504 634.843 140.688 635.611L137.322 638.815H143.262ZM149.816 640.975C148.808 640.975 147.908 640.723 147.116 640.219C146.324 639.703 145.7 638.959 145.244 637.987C144.788 637.003 144.56 635.839 144.56 634.495C144.56 633.151 144.788 631.993 145.244 631.021C145.7 630.037 146.324 629.293 147.116 628.789C147.908 628.273 148.808 628.015 149.816 628.015C150.824 628.015 151.724 628.273 152.516 628.789C153.32 629.293 153.95 630.037 154.406 631.021C154.862 631.993 155.09 633.151 155.09 634.495C155.09 635.839 154.862 637.003 154.406 637.987C153.95 638.959 153.32 639.703 152.516 640.219C151.724 640.723 150.824 640.975 149.816 640.975ZM149.816 638.941C150.716 638.941 151.424 638.569 151.94 637.825C152.468 637.081 152.732 635.971 152.732 634.495C152.732 633.019 152.468 631.909 151.94 631.165C151.424 630.421 150.716 630.049 149.816 630.049C148.928 630.049 148.22 630.421 147.692 631.165C147.176 631.909 146.918 633.019 146.918 634.495C146.918 635.971 147.176 637.081 147.692 637.825C148.22 638.569 148.928 638.941 149.816 638.941ZM160.94 628.195V640.795H158.6V630.157H155.936V628.195H160.94ZM167.687 628.015C169.415 628.015 170.753 628.555 171.701 629.635C172.661 630.715 173.141 632.263 173.141 634.279C173.141 635.695 172.883 636.907 172.367 637.915C171.851 638.911 171.125 639.673 170.189 640.201C169.265 640.717 168.191 640.975 166.967 640.975C166.319 640.975 165.707 640.909 165.131 640.777C164.567 640.633 164.075 640.429 163.655 640.165L164.519 638.401C165.143 638.809 165.941 639.013 166.913 639.013C168.125 639.013 169.073 638.641 169.757 637.897C170.441 637.153 170.783 636.079 170.783 634.675V634.657C170.411 635.089 169.937 635.419 169.361 635.647C168.785 635.863 168.137 635.971 167.417 635.971C166.589 635.971 165.845 635.815 165.185 635.503C164.525 635.179 164.009 634.723 163.637 634.135C163.265 633.547 163.079 632.869 163.079 632.101C163.079 631.285 163.283 630.571 163.691 629.959C164.099 629.335 164.651 628.855 165.347 628.519C166.043 628.183 166.823 628.015 167.687 628.015ZM167.867 634.135C168.623 634.135 169.235 633.931 169.703 633.523C170.183 633.115 170.423 632.599 170.423 631.975C170.423 631.363 170.189 630.859 169.721 630.463C169.265 630.055 168.629 629.851 167.813 629.851C167.081 629.851 166.487 630.049 166.031 630.445C165.575 630.829 165.347 631.345 165.347 631.993C165.347 632.653 165.575 633.175 166.031 633.559C166.487 633.943 167.099 634.135 167.867 634.135Z" fill="white"/>
<path d="M131.659 28.025H128.559V32H125.409V28.025H115.809V25.775L124.434 14.5H127.909L119.784 25.275H125.509V21.75H128.559V25.275H131.659V28.025ZM145.103 14.5V16.675L138.303 32H134.828L141.403 17.25H134.528V20.225H131.503V14.5H145.103ZM151.135 23.925C149.885 23.925 148.877 23.4833 148.11 22.6C147.344 21.7167 146.96 20.5583 146.96 19.125C146.96 17.6917 147.344 16.5333 148.11 15.65C148.877 14.7667 149.885 14.325 151.135 14.325C152.385 14.325 153.394 14.7667 154.16 15.65C154.944 16.5167 155.335 17.675 155.335 19.125C155.335 20.575 154.944 21.7417 154.16 22.625C153.394 23.4917 152.385 23.925 151.135 23.925ZM161.635 14.5H164.085L152.135 32H149.685L161.635 14.5ZM151.135 22.175C151.819 22.175 152.344 21.9083 152.71 21.375C153.094 20.8417 153.285 20.0917 153.285 19.125C153.285 18.1583 153.094 17.4083 152.71 16.875C152.344 16.3417 151.819 16.075 151.135 16.075C150.485 16.075 149.96 16.35 149.56 16.9C149.177 17.4333 148.985 18.175 148.985 19.125C148.985 20.075 149.177 20.825 149.56 21.375C149.96 21.9083 150.485 22.175 151.135 22.175ZM162.61 32.175C161.36 32.175 160.352 31.7333 159.585 30.85C158.819 29.9667 158.435 28.8083 158.435 27.375C158.435 25.9417 158.819 24.7833 159.585 23.9C160.352 23.0167 161.36 22.575 162.61 22.575C163.86 22.575 164.869 23.0167 165.635 23.9C166.419 24.7833 166.81 25.9417 166.81 27.375C166.81 28.8083 166.419 29.9667 165.635 30.85C164.869 31.7333 163.86 32.175 162.61 32.175ZM162.61 30.425C163.277 30.425 163.802 30.1583 164.185 29.625C164.569 29.075 164.76 28.325 164.76 27.375C164.76 26.425 164.569 25.6833 164.185 25.15C163.802 24.6 163.277 24.325 162.61 24.325C161.944 24.325 161.419 24.5917 161.035 25.125C160.652 25.6583 160.46 26.4083 160.46 27.375C160.46 28.3417 160.652 29.0917 161.035 29.625C161.419 30.1583 161.944 30.425 162.61 30.425Z" fill="#B8A500"/>
<path d="M260.951 784.572V802.072H257.701V787.297H254.001V784.572H260.951ZM269.898 791.347C272.364 791.347 274.189 791.831 275.373 792.797C276.556 793.747 277.148 795.047 277.148 796.697C277.148 797.747 276.889 798.697 276.373 799.547C275.856 800.397 275.081 801.072 274.048 801.572C273.014 802.072 271.739 802.322 270.223 802.322C268.973 802.322 267.764 802.147 266.598 801.797C265.431 801.431 264.448 800.931 263.648 800.297L265.023 797.772C265.673 798.306 266.448 798.731 267.348 799.047C268.264 799.347 269.206 799.497 270.173 799.497C271.323 799.497 272.223 799.264 272.873 798.797C273.539 798.314 273.873 797.656 273.873 796.822C273.873 795.922 273.514 795.247 272.798 794.797C272.098 794.331 270.889 794.097 269.173 794.097H264.948L265.848 784.572H276.123V787.297H268.598L268.223 791.347H269.898ZM282.678 793.997C281.428 793.997 280.42 793.556 279.653 792.672C278.886 791.789 278.503 790.631 278.503 789.197C278.503 787.764 278.886 786.606 279.653 785.722C280.42 784.839 281.428 784.397 282.678 784.397C283.928 784.397 284.936 784.839 285.703 785.722C286.486 786.589 286.878 787.747 286.878 789.197C286.878 790.647 286.486 791.814 285.703 792.697C284.936 793.564 283.928 793.997 282.678 793.997ZM293.178 784.572H295.628L283.678 802.072H281.228L293.178 784.572ZM282.678 792.247C283.361 792.247 283.886 791.981 284.253 791.447C284.636 790.914 284.828 790.164 284.828 789.197C284.828 788.231 284.636 787.481 284.253 786.947C283.886 786.414 283.361 786.147 282.678 786.147C282.028 786.147 281.503 786.422 281.103 786.972C280.72 787.506 280.528 788.247 280.528 789.197C280.528 790.147 280.72 790.897 281.103 791.447C281.503 791.981 282.028 792.247 282.678 792.247ZM294.153 802.247C292.903 802.247 291.895 801.806 291.128 800.922C290.361 800.039 289.978 798.881 289.978 797.447C289.978 796.014 290.361 794.856 291.128 793.972C291.895 793.089 292.903 792.647 294.153 792.647C295.403 792.647 296.411 793.089 297.178 793.972C297.961 794.856 298.353 796.014 298.353 797.447C298.353 798.881 297.961 800.039 297.178 800.922C296.411 801.806 295.403 802.247 294.153 802.247ZM294.153 800.497C294.82 800.497 295.345 800.231 295.728 799.697C296.111 799.147 296.303 798.397 296.303 797.447C296.303 796.497 296.111 795.756 295.728 795.222C295.345 794.672 294.82 794.397 294.153 794.397C293.486 794.397 292.961 794.664 292.578 795.197C292.195 795.731 292.003 796.481 292.003 797.447C292.003 798.414 292.195 799.164 292.578 799.697C292.961 800.231 293.486 800.497 294.153 800.497Z" fill="#A02A79"/>
<path d="M132.117 737.5V755H128.867V740.225H125.167V737.5H132.117ZM148.263 752.25V755H135.363V752.825L142.313 746.225C143.097 745.475 143.622 744.825 143.888 744.275C144.172 743.708 144.313 743.15 144.313 742.6C144.313 741.783 144.038 741.158 143.488 740.725C142.938 740.292 142.13 740.075 141.063 740.075C139.28 740.075 137.913 740.683 136.963 741.9L134.688 740.15C135.372 739.233 136.288 738.525 137.438 738.025C138.605 737.508 139.905 737.25 141.338 737.25C143.238 737.25 144.755 737.7 145.888 738.6C147.022 739.5 147.588 740.725 147.588 742.275C147.588 743.225 147.388 744.117 146.988 744.95C146.588 745.783 145.822 746.733 144.688 747.8L140.013 752.25H148.263ZM154.283 746.925C153.033 746.925 152.025 746.483 151.258 745.6C150.492 744.717 150.108 743.558 150.108 742.125C150.108 740.692 150.492 739.533 151.258 738.65C152.025 737.767 153.033 737.325 154.283 737.325C155.533 737.325 156.542 737.767 157.308 738.65C158.092 739.517 158.483 740.675 158.483 742.125C158.483 743.575 158.092 744.742 157.308 745.625C156.542 746.492 155.533 746.925 154.283 746.925ZM164.783 737.5H167.233L155.283 755H152.833L164.783 737.5ZM154.283 745.175C154.967 745.175 155.492 744.908 155.858 744.375C156.242 743.842 156.433 743.092 156.433 742.125C156.433 741.158 156.242 740.408 155.858 739.875C155.492 739.342 154.967 739.075 154.283 739.075C153.633 739.075 153.108 739.35 152.708 739.9C152.325 740.433 152.133 741.175 152.133 742.125C152.133 743.075 152.325 743.825 152.708 744.375C153.108 744.908 153.633 745.175 154.283 745.175ZM165.758 755.175C164.508 755.175 163.5 754.733 162.733 753.85C161.967 752.967 161.583 751.808 161.583 750.375C161.583 748.942 161.967 747.783 162.733 746.9C163.5 746.017 164.508 745.575 165.758 745.575C167.008 745.575 168.017 746.017 168.783 746.9C169.567 747.783 169.958 748.942 169.958 750.375C169.958 751.808 169.567 752.967 168.783 753.85C168.017 754.733 167.008 755.175 165.758 755.175ZM165.758 753.425C166.425 753.425 166.95 753.158 167.333 752.625C167.717 752.075 167.908 751.325 167.908 750.375C167.908 749.425 167.717 748.683 167.333 748.15C166.95 747.6 166.425 747.325 165.758 747.325C165.092 747.325 164.567 747.592 164.183 748.125C163.8 748.658 163.608 749.408 163.608 750.375C163.608 751.342 163.8 752.092 164.183 752.625C164.567 753.158 165.092 753.425 165.758 753.425Z" fill="#A02A79" fill-opacity="0.7"/>
<path d="M212.882 517.87C213.974 517.87 214.922 518.05 215.726 518.41C216.542 518.77 217.166 519.286 217.598 519.958C218.03 520.63 218.246 521.428 218.246 522.352C218.246 523.264 218.03 524.062 217.598 524.746C217.166 525.418 216.542 525.934 215.726 526.294C214.922 526.654 213.974 526.834 212.882 526.834H210.038V530.47H207.698V517.87H212.882ZM212.774 524.854C213.794 524.854 214.568 524.638 215.096 524.206C215.624 523.774 215.888 523.156 215.888 522.352C215.888 521.548 215.624 520.93 215.096 520.498C214.568 520.066 213.794 519.85 212.774 519.85H210.038V524.854H212.774ZM222.421 522.262C223.069 521.254 224.209 520.75 225.841 520.75V522.892C225.649 522.856 225.475 522.838 225.319 522.838C224.443 522.838 223.759 523.096 223.267 523.612C222.775 524.116 222.529 524.848 222.529 525.808V530.47H220.279V520.858H222.421V522.262ZM231.982 530.596C231.01 530.596 230.134 530.386 229.354 529.966C228.574 529.546 227.962 528.964 227.518 528.22C227.086 527.464 226.87 526.612 226.87 525.664C226.87 524.716 227.086 523.87 227.518 523.126C227.962 522.382 228.574 521.8 229.354 521.38C230.134 520.96 231.01 520.75 231.982 520.75C232.966 520.75 233.848 520.96 234.628 521.38C235.408 521.8 236.014 522.382 236.446 523.126C236.89 523.87 237.112 524.716 237.112 525.664C237.112 526.612 236.89 527.464 236.446 528.22C236.014 528.964 235.408 529.546 234.628 529.966C233.848 530.386 232.966 530.596 231.982 530.596ZM231.982 528.67C232.81 528.67 233.494 528.394 234.034 527.842C234.574 527.29 234.844 526.564 234.844 525.664C234.844 524.764 234.574 524.038 234.034 523.486C233.494 522.934 232.81 522.658 231.982 522.658C231.154 522.658 230.47 522.934 229.93 523.486C229.402 524.038 229.138 524.764 229.138 525.664C229.138 526.564 229.402 527.29 229.93 527.842C230.47 528.394 231.154 528.67 231.982 528.67ZM244.591 520.75C245.527 520.75 246.361 520.954 247.093 521.362C247.837 521.77 248.419 522.346 248.839 523.09C249.259 523.834 249.469 524.692 249.469 525.664C249.469 526.636 249.259 527.5 248.839 528.256C248.419 529 247.837 529.576 247.093 529.984C246.361 530.392 245.527 530.596 244.591 530.596C243.295 530.596 242.269 530.164 241.513 529.3V533.962H239.263V520.858H241.405V522.118C241.777 521.662 242.233 521.32 242.773 521.092C243.325 520.864 243.931 520.75 244.591 520.75ZM244.339 528.67C245.167 528.67 245.845 528.394 246.373 527.842C246.913 527.29 247.183 526.564 247.183 525.664C247.183 524.764 246.913 524.038 246.373 523.486C245.845 522.934 245.167 522.658 244.339 522.658C243.799 522.658 243.313 522.784 242.881 523.036C242.449 523.276 242.107 523.624 241.855 524.08C241.603 524.536 241.477 525.064 241.477 525.664C241.477 526.264 241.603 526.792 241.855 527.248C242.107 527.704 242.449 528.058 242.881 528.31C243.313 528.55 243.799 528.67 244.339 528.67ZM255.923 530.596C254.951 530.596 254.075 530.386 253.295 529.966C252.515 529.546 251.903 528.964 251.459 528.22C251.027 527.464 250.811 526.612 250.811 525.664C250.811 524.716 251.027 523.87 251.459 523.126C251.903 522.382 252.515 521.8 253.295 521.38C254.075 520.96 254.951 520.75 255.923 520.75C256.907 520.75 257.789 520.96 258.569 521.38C259.349 521.8 259.955 522.382 260.387 523.126C260.831 523.87 261.053 524.716 261.053 525.664C261.053 526.612 260.831 527.464 260.387 528.22C259.955 528.964 259.349 529.546 258.569 529.966C257.789 530.386 256.907 530.596 255.923 530.596ZM255.923 528.67C256.751 528.67 257.435 528.394 257.975 527.842C258.515 527.29 258.785 526.564 258.785 525.664C258.785 524.764 258.515 524.038 257.975 523.486C257.435 522.934 256.751 522.658 255.923 522.658C255.095 522.658 254.411 522.934 253.871 523.486C253.343 524.038 253.079 524.764 253.079 525.664C253.079 526.564 253.343 527.29 253.871 527.842C254.411 528.394 255.095 528.67 255.923 528.67ZM266.175 530.596C265.395 530.596 264.633 530.494 263.889 530.29C263.145 530.086 262.551 529.828 262.107 529.516L262.971 527.806C263.403 528.094 263.919 528.328 264.519 528.508C265.131 528.676 265.731 528.76 266.319 528.76C267.663 528.76 268.335 528.406 268.335 527.698C268.335 527.362 268.161 527.128 267.813 526.996C267.477 526.864 266.931 526.738 266.175 526.618C265.383 526.498 264.735 526.36 264.231 526.204C263.739 526.048 263.307 525.778 262.935 525.394C262.575 524.998 262.395 524.452 262.395 523.756C262.395 522.844 262.773 522.118 263.529 521.578C264.297 521.026 265.329 520.75 266.625 520.75C267.285 520.75 267.945 520.828 268.605 520.984C269.265 521.128 269.805 521.326 270.225 521.578L269.361 523.288C268.545 522.808 267.627 522.568 266.607 522.568C265.947 522.568 265.443 522.67 265.095 522.874C264.759 523.066 264.591 523.324 264.591 523.648C264.591 524.008 264.771 524.266 265.131 524.422C265.503 524.566 266.073 524.704 266.841 524.836C267.609 524.956 268.239 525.094 268.731 525.25C269.223 525.406 269.643 525.67 269.991 526.042C270.351 526.414 270.531 526.942 270.531 527.626C270.531 528.526 270.141 529.246 269.361 529.786C268.581 530.326 267.519 530.596 266.175 530.596ZM272.468 520.858H274.718V530.47H272.468V520.858ZM273.602 519.274C273.194 519.274 272.852 519.148 272.576 518.896C272.3 518.632 272.162 518.308 272.162 517.924C272.162 517.54 272.3 517.222 272.576 516.97C272.852 516.706 273.194 516.574 273.602 516.574C274.01 516.574 274.352 516.7 274.628 516.952C274.904 517.192 275.042 517.498 275.042 517.87C275.042 518.266 274.904 518.602 274.628 518.878C274.364 519.142 274.022 519.274 273.602 519.274ZM283.449 529.948C283.185 530.164 282.861 530.326 282.477 530.434C282.105 530.542 281.709 530.596 281.289 530.596C280.233 530.596 279.417 530.32 278.841 529.768C278.265 529.216 277.977 528.412 277.977 527.356V522.73H276.393V520.93H277.977V518.734H280.227V520.93H282.801V522.73H280.227V527.302C280.227 527.77 280.341 528.13 280.569 528.382C280.797 528.622 281.127 528.742 281.559 528.742C282.063 528.742 282.483 528.61 282.819 528.346L283.449 529.948ZM285.3 520.858H287.55V530.47H285.3V520.858ZM286.434 519.274C286.026 519.274 285.684 519.148 285.408 518.896C285.132 518.632 284.994 518.308 284.994 517.924C284.994 517.54 285.132 517.222 285.408 516.97C285.684 516.706 286.026 516.574 286.434 516.574C286.842 516.574 287.184 516.7 287.46 516.952C287.736 517.192 287.874 517.498 287.874 517.87C287.874 518.266 287.736 518.602 287.46 518.878C287.196 519.142 286.854 519.274 286.434 519.274ZM294.823 530.596C293.851 530.596 292.975 530.386 292.195 529.966C291.415 529.546 290.803 528.964 290.359 528.22C289.927 527.464 289.711 526.612 289.711 525.664C289.711 524.716 289.927 523.87 290.359 523.126C290.803 522.382 291.415 521.8 292.195 521.38C292.975 520.96 293.851 520.75 294.823 520.75C295.807 520.75 296.689 520.96 297.469 521.38C298.249 521.8 298.855 522.382 299.287 523.126C299.731 523.87 299.953 524.716 299.953 525.664C299.953 526.612 299.731 527.464 299.287 528.22C298.855 528.964 298.249 529.546 297.469 529.966C296.689 530.386 295.807 530.596 294.823 530.596ZM294.823 528.67C295.651 528.67 296.335 528.394 296.875 527.842C297.415 527.29 297.685 526.564 297.685 525.664C297.685 524.764 297.415 524.038 296.875 523.486C296.335 522.934 295.651 522.658 294.823 522.658C293.995 522.658 293.311 522.934 292.771 523.486C292.243 524.038 291.979 524.764 291.979 525.664C291.979 526.564 292.243 527.29 292.771 527.842C293.311 528.394 293.995 528.67 294.823 528.67ZM307.559 520.75C308.771 520.75 309.743 521.104 310.475 521.812C311.207 522.52 311.573 523.57 311.573 524.962V530.47H309.323V525.25C309.323 524.41 309.125 523.78 308.729 523.36C308.333 522.928 307.769 522.712 307.037 522.712C306.209 522.712 305.555 522.964 305.075 523.468C304.595 523.96 304.355 524.674 304.355 525.61V530.47H302.105V520.858H304.247V522.1C304.619 521.656 305.087 521.32 305.651 521.092C306.215 520.864 306.851 520.75 307.559 520.75ZM317.397 530.596C316.617 530.596 315.855 530.494 315.111 530.29C314.367 530.086 313.773 529.828 313.329 529.516L314.193 527.806C314.625 528.094 315.141 528.328 315.741 528.508C316.353 528.676 316.953 528.76 317.541 528.76C318.885 528.76 319.557 528.406 319.557 527.698C319.557 527.362 319.383 527.128 319.035 526.996C318.699 526.864 318.153 526.738 317.397 526.618C316.605 526.498 315.957 526.36 315.453 526.204C314.961 526.048 314.529 525.778 314.157 525.394C313.797 524.998 313.617 524.452 313.617 523.756C313.617 522.844 313.995 522.118 314.751 521.578C315.519 521.026 316.551 520.75 317.847 520.75C318.507 520.75 319.167 520.828 319.827 520.984C320.487 521.128 321.027 521.326 321.447 521.578L320.583 523.288C319.767 522.808 318.849 522.568 317.829 522.568C317.169 522.568 316.665 522.67 316.317 522.874C315.981 523.066 315.813 523.324 315.813 523.648C315.813 524.008 315.993 524.266 316.353 524.422C316.725 524.566 317.295 524.704 318.063 524.836C318.831 524.956 319.461 525.094 319.953 525.25C320.445 525.406 320.865 525.67 321.213 526.042C321.573 526.414 321.753 526.942 321.753 527.626C321.753 528.526 321.363 529.246 320.583 529.786C319.803 530.326 318.741 530.596 317.397 530.596ZM338.079 517.114V530.47H335.919V529.228C335.547 529.684 335.085 530.026 334.533 530.254C333.993 530.482 333.393 530.596 332.733 530.596C331.809 530.596 330.975 530.392 330.231 529.984C329.499 529.576 328.923 529 328.503 528.256C328.083 527.5 327.873 526.636 327.873 525.664C327.873 524.692 328.083 523.834 328.503 523.09C328.923 522.346 329.499 521.77 330.231 521.362C330.975 520.954 331.809 520.75 332.733 520.75C333.369 520.75 333.951 520.858 334.479 521.074C335.007 521.29 335.457 521.614 335.829 522.046V517.114H338.079ZM333.003 528.67C333.543 528.67 334.029 528.55 334.461 528.31C334.893 528.058 335.235 527.704 335.487 527.248C335.739 526.792 335.865 526.264 335.865 525.664C335.865 525.064 335.739 524.536 335.487 524.08C335.235 523.624 334.893 523.276 334.461 523.036C334.029 522.784 333.543 522.658 333.003 522.658C332.463 522.658 331.977 522.784 331.545 523.036C331.113 523.276 330.771 523.624 330.519 524.08C330.267 524.536 330.141 525.064 330.141 525.664C330.141 526.264 330.267 526.792 330.519 527.248C330.771 527.704 331.113 528.058 331.545 528.31C331.977 528.55 332.463 528.67 333.003 528.67ZM350.059 525.718C350.059 525.874 350.047 526.096 350.023 526.384H342.481C342.613 527.092 342.955 527.656 343.507 528.076C344.071 528.484 344.767 528.688 345.595 528.688C346.651 528.688 347.521 528.34 348.205 527.644L349.411 529.03C348.979 529.546 348.433 529.936 347.773 530.2C347.113 530.464 346.369 530.596 345.541 530.596C344.485 530.596 343.555 530.386 342.751 529.966C341.947 529.546 341.323 528.964 340.879 528.22C340.447 527.464 340.231 526.612 340.231 525.664C340.231 524.728 340.441 523.888 340.861 523.144C341.293 522.388 341.887 521.8 342.643 521.38C343.399 520.96 344.251 520.75 345.199 520.75C346.135 520.75 346.969 520.96 347.701 521.38C348.445 521.788 349.021 522.37 349.429 523.126C349.849 523.87 350.059 524.734 350.059 525.718ZM345.199 522.55C344.479 522.55 343.867 522.766 343.363 523.198C342.871 523.618 342.571 524.182 342.463 524.89H347.917C347.821 524.194 347.527 523.63 347.035 523.198C346.543 522.766 345.931 522.55 345.199 522.55ZM363.243 530.65C361.971 530.65 360.819 530.374 359.787 529.822C358.767 529.258 357.963 528.484 357.375 527.5C356.799 526.516 356.511 525.406 356.511 524.17C356.511 522.934 356.805 521.824 357.393 520.84C357.981 519.856 358.785 519.088 359.805 518.536C360.837 517.972 361.989 517.69 363.261 517.69C364.293 517.69 365.235 517.87 366.087 518.23C366.939 518.59 367.659 519.112 368.247 519.796L366.735 521.218C365.823 520.234 364.701 519.742 363.369 519.742C362.505 519.742 361.731 519.934 361.047 520.318C360.363 520.69 359.829 521.212 359.445 521.884C359.061 522.556 358.869 523.318 358.869 524.17C358.869 525.022 359.061 525.784 359.445 526.456C359.829 527.128 360.363 527.656 361.047 528.04C361.731 528.412 362.505 528.598 363.369 528.598C364.701 528.598 365.823 528.1 366.735 527.104L368.247 528.544C367.659 529.228 366.933 529.75 366.069 530.11C365.217 530.47 364.275 530.65 363.243 530.65ZM370.489 517.87H375.997C377.341 517.87 378.535 518.134 379.579 518.662C380.623 519.178 381.433 519.916 382.009 520.876C382.585 521.824 382.873 522.922 382.873 524.17C382.873 525.418 382.585 526.522 382.009 527.482C381.433 528.43 380.623 529.168 379.579 529.696C378.535 530.212 377.341 530.47 375.997 530.47H370.489V517.87ZM375.889 528.49C376.813 528.49 377.623 528.316 378.319 527.968C379.027 527.608 379.567 527.104 379.939 526.456C380.323 525.796 380.515 525.034 380.515 524.17C380.515 523.306 380.323 522.55 379.939 521.902C379.567 521.242 379.027 520.738 378.319 520.39C377.623 520.03 376.813 519.85 375.889 519.85H372.829V528.49H375.889ZM385.36 517.87H387.7V530.47H385.36V517.87ZM236.088 540.75C237.504 540.75 238.584 541.092 239.328 541.776C240.084 542.448 240.462 543.468 240.462 544.836V550.47H238.338V549.3C238.062 549.72 237.666 550.044 237.15 550.272C236.646 550.488 236.034 550.596 235.314 550.596C234.594 550.596 233.964 550.476 233.424 550.236C232.884 549.984 232.464 549.642 232.164 549.21C231.876 548.766 231.732 548.268 231.732 547.716C231.732 546.852 232.05 546.162 232.686 545.646C233.334 545.118 234.348 544.854 235.728 544.854H238.212V544.71C238.212 544.038 238.008 543.522 237.6 543.162C237.204 542.802 236.61 542.622 235.818 542.622C235.278 542.622 234.744 542.706 234.216 542.874C233.7 543.042 233.262 543.276 232.902 543.576L232.02 541.938C232.524 541.554 233.13 541.26 233.838 541.056C234.546 540.852 235.296 540.75 236.088 540.75ZM235.782 548.958C236.346 548.958 236.844 548.832 237.276 548.58C237.72 548.316 238.032 547.944 238.212 547.464V546.348H235.89C234.594 546.348 233.946 546.774 233.946 547.626C233.946 548.034 234.108 548.358 234.432 548.598C234.756 548.838 235.206 548.958 235.782 548.958ZM252.656 540.858V550.47H250.514V549.246C250.154 549.678 249.704 550.014 249.164 550.254C248.624 550.482 248.042 550.596 247.418 550.596C246.134 550.596 245.12 550.242 244.376 549.534C243.644 548.814 243.278 547.752 243.278 546.348V540.858H245.528V546.042C245.528 546.906 245.72 547.554 246.104 547.986C246.5 548.406 247.058 548.616 247.778 548.616C248.582 548.616 249.218 548.37 249.686 547.878C250.166 547.374 250.406 546.654 250.406 545.718V540.858H252.656ZM261.722 550.47L259.256 547.14L256.772 550.47H254.288L258.032 545.592L254.45 540.858H256.952L259.31 544.008L261.668 540.858H264.098L260.498 545.556L264.26 550.47H261.722ZM274.567 540.75C275.983 540.75 277.063 541.092 277.807 541.776C278.563 542.448 278.941 543.468 278.941 544.836V550.47H276.817V549.3C276.541 549.72 276.145 550.044 275.629 550.272C275.125 550.488 274.513 550.596 273.793 550.596C273.073 550.596 272.443 550.476 271.903 550.236C271.363 549.984 270.943 549.642 270.643 549.21C270.355 548.766 270.211 548.268 270.211 547.716C270.211 546.852 270.529 546.162 271.165 545.646C271.813 545.118 272.827 544.854 274.207 544.854H276.691V544.71C276.691 544.038 276.487 543.522 276.079 543.162C275.683 542.802 275.089 542.622 274.297 542.622C273.757 542.622 273.223 542.706 272.695 542.874C272.179 543.042 271.741 543.276 271.381 543.576L270.499 541.938C271.003 541.554 271.609 541.26 272.317 541.056C273.025 540.852 273.775 540.75 274.567 540.75ZM274.261 548.958C274.825 548.958 275.323 548.832 275.755 548.58C276.199 548.316 276.511 547.944 276.691 547.464V546.348H274.369C273.073 546.348 272.425 546.774 272.425 547.626C272.425 548.034 272.587 548.358 272.911 548.598C273.235 548.838 273.685 548.958 274.261 548.958ZM281.829 537.114H284.079V550.47H281.829V537.114ZM293.284 549.948C293.02 550.164 292.696 550.326 292.312 550.434C291.94 550.542 291.544 550.596 291.124 550.596C290.068 550.596 289.252 550.32 288.676 549.768C288.1 549.216 287.812 548.412 287.812 547.356V542.73H286.228V540.93H287.812V538.734H290.062V540.93H292.636V542.73H290.062V547.302C290.062 547.77 290.176 548.13 290.404 548.382C290.632 548.622 290.962 548.742 291.394 548.742C291.898 548.742 292.318 548.61 292.654 548.346L293.284 549.948ZM303.855 545.718C303.855 545.874 303.843 546.096 303.819 546.384H296.277C296.409 547.092 296.751 547.656 297.303 548.076C297.867 548.484 298.563 548.688 299.391 548.688C300.447 548.688 301.317 548.34 302.001 547.644L303.207 549.03C302.775 549.546 302.229 549.936 301.569 550.2C300.909 550.464 300.165 550.596 299.337 550.596C298.281 550.596 297.351 550.386 296.547 549.966C295.743 549.546 295.119 548.964 294.675 548.22C294.243 547.464 294.027 546.612 294.027 545.664C294.027 544.728 294.237 543.888 294.657 543.144C295.089 542.388 295.683 541.8 296.439 541.38C297.195 540.96 298.047 540.75 298.995 540.75C299.931 540.75 300.765 540.96 301.497 541.38C302.241 541.788 302.817 542.37 303.225 543.126C303.645 543.87 303.855 544.734 303.855 545.718ZM298.995 542.55C298.275 542.55 297.663 542.766 297.159 543.198C296.667 543.618 296.367 544.182 296.259 544.89H301.713C301.617 544.194 301.323 543.63 300.831 543.198C300.339 542.766 299.727 542.55 298.995 542.55ZM308.158 542.262C308.806 541.254 309.946 540.75 311.578 540.75V542.892C311.386 542.856 311.212 542.838 311.056 542.838C310.18 542.838 309.496 543.096 309.004 543.612C308.512 544.116 308.266 544.848 308.266 545.808V550.47H306.016V540.858H308.158V542.262ZM318.941 540.75C320.153 540.75 321.125 541.104 321.857 541.812C322.589 542.52 322.955 543.57 322.955 544.962V550.47H320.705V545.25C320.705 544.41 320.507 543.78 320.111 543.36C319.715 542.928 319.151 542.712 318.419 542.712C317.591 542.712 316.937 542.964 316.457 543.468C315.977 543.96 315.737 544.674 315.737 545.61V550.47H313.487V540.858H315.629V542.1C316.001 541.656 316.469 541.32 317.033 541.092C317.597 540.864 318.233 540.75 318.941 540.75ZM329.481 540.75C330.897 540.75 331.977 541.092 332.721 541.776C333.477 542.448 333.855 543.468 333.855 544.836V550.47H331.731V549.3C331.455 549.72 331.059 550.044 330.543 550.272C330.039 550.488 329.427 550.596 328.707 550.596C327.987 550.596 327.357 550.476 326.817 550.236C326.277 549.984 325.857 549.642 325.557 549.21C325.269 548.766 325.125 548.268 325.125 547.716C325.125 546.852 325.443 546.162 326.079 545.646C326.727 545.118 327.741 544.854 329.121 544.854H331.605V544.71C331.605 544.038 331.401 543.522 330.993 543.162C330.597 542.802 330.003 542.622 329.211 542.622C328.671 542.622 328.137 542.706 327.609 542.874C327.093 543.042 326.655 543.276 326.295 543.576L325.413 541.938C325.917 541.554 326.523 541.26 327.231 541.056C327.939 540.852 328.689 540.75 329.481 540.75ZM329.175 548.958C329.739 548.958 330.237 548.832 330.669 548.58C331.113 548.316 331.425 547.944 331.605 547.464V546.348H329.283C327.987 546.348 327.339 546.774 327.339 547.626C327.339 548.034 327.501 548.358 327.825 548.598C328.149 548.838 328.599 548.958 329.175 548.958ZM342.197 540.75C343.409 540.75 344.381 541.104 345.113 541.812C345.845 542.52 346.211 543.57 346.211 544.962V550.47H343.961V545.25C343.961 544.41 343.763 543.78 343.367 543.36C342.971 542.928 342.407 542.712 341.675 542.712C340.847 542.712 340.193 542.964 339.713 543.468C339.233 543.96 338.993 544.674 338.993 545.61V550.47H336.743V540.858H338.885V542.1C339.257 541.656 339.725 541.32 340.289 541.092C340.853 540.864 341.489 540.75 342.197 540.75ZM354.843 549.948C354.579 550.164 354.255 550.326 353.871 550.434C353.499 550.542 353.103 550.596 352.683 550.596C351.627 550.596 350.811 550.32 350.235 549.768C349.659 549.216 349.371 548.412 349.371 547.356V542.73H347.787V540.93H349.371V538.734H351.621V540.93H354.195V542.73H351.621V547.302C351.621 547.77 351.735 548.13 351.963 548.382C352.191 548.622 352.521 548.742 352.953 548.742C353.457 548.742 353.877 548.61 354.213 548.346L354.843 549.948ZM359.664 550.596C358.884 550.596 358.122 550.494 357.378 550.29C356.634 550.086 356.04 549.828 355.596 549.516L356.46 547.806C356.892 548.094 357.408 548.328 358.008 548.508C358.62 548.676 359.22 548.76 359.808 548.76C361.152 548.76 361.824 548.406 361.824 547.698C361.824 547.362 361.65 547.128 361.302 546.996C360.966 546.864 360.42 546.738 359.664 546.618C358.872 546.498 358.224 546.36 357.72 546.204C357.228 546.048 356.796 545.778 356.424 545.394C356.064 544.998 355.884 544.452 355.884 543.756C355.884 542.844 356.262 542.118 357.018 541.578C357.786 541.026 358.818 540.75 360.114 540.75C360.774 540.75 361.434 540.828 362.094 540.984C362.754 541.128 363.294 541.326 363.714 541.578L362.85 543.288C362.034 542.808 361.116 542.568 360.096 542.568C359.436 542.568 358.932 542.67 358.584 542.874C358.248 543.066 358.08 543.324 358.08 543.648C358.08 544.008 358.26 544.266 358.62 544.422C358.992 544.566 359.562 544.704 360.33 544.836C361.098 544.956 361.728 545.094 362.22 545.25C362.712 545.406 363.132 545.67 363.48 546.042C363.84 546.414 364.02 546.942 364.02 547.626C364.02 548.526 363.63 549.246 362.85 549.786C362.07 550.326 361.008 550.596 359.664 550.596Z" fill="#A02A79"/>
<line x1="384.466" y1="268.457" x2="359.198" y2="279.55" stroke="white" stroke-width="5"/>
<line x1="383.309" y1="266.454" x2="393.668" y2="291.77" stroke="white" stroke-width="5"/>
</svg>
