<svg width="608" height="609" viewBox="0 0 608 609" fill="none" xmlns="http://www.w3.org/2000/svg">
<circle cx="304" cy="304.202" r="303.5" fill="white" stroke="#7A7A7A"/>
<path d="M414.247 370.636C414.487 370.5 414.571 370.195 414.435 369.955L412.212 366.042C412.075 365.802 411.77 365.718 411.53 365.854C411.29 365.991 411.206 366.296 411.342 366.536L413.318 370.014L409.84 371.99C409.6 372.126 409.516 372.432 409.653 372.672C409.789 372.912 410.094 372.996 410.334 372.859L414.247 370.636ZM206.867 313.684L413.867 370.684L414.133 369.72L207.133 312.72L206.867 313.684Z" fill="#7FB239"/>
<path d="M287.309 306.732C287.845 306.732 288.333 306.84 288.773 307.056C289.213 307.272 289.561 307.58 289.817 307.98C290.073 308.372 290.201 308.828 290.201 309.348C290.201 309.908 290.061 310.4 289.781 310.824C289.501 311.248 289.117 311.576 288.629 311.808C288.149 312.032 287.613 312.144 287.021 312.144C285.845 312.144 284.925 311.784 284.261 311.064C283.597 310.344 283.265 309.316 283.265 307.98C283.265 307.028 283.445 306.212 283.805 305.532C284.165 304.852 284.665 304.336 285.305 303.984C285.953 303.632 286.701 303.456 287.549 303.456C287.997 303.456 288.425 303.508 288.833 303.612C289.249 303.708 289.601 303.848 289.889 304.032L289.169 305.46C288.753 305.18 288.229 305.04 287.597 305.04C286.885 305.04 286.321 305.248 285.905 305.664C285.489 306.08 285.265 306.684 285.233 307.476C285.729 306.98 286.421 306.732 287.309 306.732ZM286.913 310.692C287.329 310.692 287.665 310.58 287.921 310.356C288.185 310.132 288.317 309.828 288.317 309.444C288.317 309.06 288.185 308.756 287.921 308.532C287.665 308.3 287.321 308.184 286.889 308.184C286.465 308.184 286.117 308.304 285.845 308.544C285.573 308.776 285.437 309.076 285.437 309.444C285.437 309.812 285.569 310.112 285.833 310.344C286.097 310.576 286.457 310.692 286.913 310.692ZM293.858 303.456C295.034 303.456 295.954 303.816 296.618 304.536C297.282 305.248 297.614 306.276 297.614 307.62C297.614 308.572 297.434 309.388 297.074 310.068C296.722 310.748 296.222 311.264 295.574 311.616C294.926 311.968 294.178 312.144 293.33 312.144C292.882 312.144 292.454 312.096 292.046 312C291.638 311.896 291.29 311.752 291.002 311.568L291.722 310.14C292.13 310.42 292.654 310.56 293.294 310.56C294.006 310.56 294.57 310.352 294.986 309.936C295.402 309.512 295.626 308.904 295.658 308.112C295.154 308.616 294.458 308.868 293.57 308.868C293.034 308.868 292.546 308.76 292.106 308.544C291.666 308.328 291.318 308.024 291.062 307.632C290.806 307.232 290.678 306.772 290.678 306.252C290.678 305.692 290.818 305.2 291.098 304.776C291.378 304.352 291.758 304.028 292.238 303.804C292.726 303.572 293.266 303.456 293.858 303.456ZM294.002 307.416C294.426 307.416 294.77 307.3 295.034 307.068C295.306 306.828 295.442 306.524 295.442 306.156C295.442 305.788 295.31 305.488 295.046 305.256C294.79 305.024 294.434 304.908 293.978 304.908C293.562 304.908 293.222 305.02 292.958 305.244C292.702 305.468 292.574 305.772 292.574 306.156C292.574 306.54 292.702 306.848 292.958 307.08C293.222 307.304 293.57 307.416 294.002 307.416ZM300.49 308.136C299.874 308.136 299.37 307.928 298.978 307.512C298.594 307.088 298.402 306.524 298.402 305.82C298.402 305.116 298.594 304.556 298.978 304.14C299.37 303.716 299.874 303.504 300.49 303.504C301.106 303.504 301.606 303.716 301.99 304.14C302.374 304.556 302.566 305.116 302.566 305.82C302.566 306.524 302.374 307.088 301.99 307.512C301.606 307.928 301.106 308.136 300.49 308.136ZM305.494 303.6H306.922L301.186 312H299.758L305.494 303.6ZM300.49 307.152C300.762 307.152 300.974 307.04 301.126 306.816C301.286 306.592 301.366 306.26 301.366 305.82C301.366 305.38 301.286 305.048 301.126 304.824C300.974 304.6 300.762 304.488 300.49 304.488C300.226 304.488 300.014 304.604 299.854 304.836C299.694 305.06 299.614 305.388 299.614 305.82C299.614 306.252 299.694 306.584 299.854 306.816C300.014 307.04 300.226 307.152 300.49 307.152ZM306.19 312.096C305.79 312.096 305.43 312.004 305.11 311.82C304.798 311.628 304.554 311.356 304.378 311.004C304.202 310.652 304.114 310.244 304.114 309.78C304.114 309.316 304.202 308.908 304.378 308.556C304.554 308.204 304.798 307.936 305.11 307.752C305.43 307.56 305.79 307.464 306.19 307.464C306.806 307.464 307.306 307.676 307.69 308.1C308.082 308.516 308.278 309.076 308.278 309.78C308.278 310.484 308.082 311.048 307.69 311.472C307.306 311.888 306.806 312.096 306.19 312.096ZM306.19 311.112C306.462 311.112 306.674 311 306.826 310.776C306.986 310.544 307.066 310.212 307.066 309.78C307.066 309.348 306.986 309.02 306.826 308.796C306.674 308.564 306.462 308.448 306.19 308.448C305.926 308.448 305.714 308.56 305.554 308.784C305.394 309.008 305.314 309.34 305.314 309.78C305.314 310.22 305.394 310.552 305.554 310.776C305.714 311 305.926 311.112 306.19 311.112ZM318.948 303.096V312H318.132V310.752C317.876 311.176 317.536 311.5 317.112 311.724C316.696 311.948 316.224 312.06 315.696 312.06C315.104 312.06 314.568 311.924 314.088 311.652C313.608 311.38 313.232 311 312.96 310.512C312.688 310.024 312.552 309.468 312.552 308.844C312.552 308.22 312.688 307.664 312.96 307.176C313.232 306.688 313.608 306.312 314.088 306.048C314.568 305.776 315.104 305.64 315.696 305.64C316.208 305.64 316.668 305.748 317.076 305.964C317.492 306.172 317.832 306.48 318.096 306.888V303.096H318.948ZM315.768 311.304C316.208 311.304 316.604 311.204 316.956 311.004C317.316 310.796 317.596 310.504 317.796 310.128C318.004 309.752 318.108 309.324 318.108 308.844C318.108 308.364 318.004 307.936 317.796 307.56C317.596 307.184 317.316 306.896 316.956 306.696C316.604 306.488 316.208 306.384 315.768 306.384C315.32 306.384 314.916 306.488 314.556 306.696C314.204 306.896 313.924 307.184 313.716 307.56C313.516 307.936 313.416 308.364 313.416 308.844C313.416 309.324 313.516 309.752 313.716 310.128C313.924 310.504 314.204 310.796 314.556 311.004C314.916 311.204 315.32 311.304 315.768 311.304ZM326.817 309.108H321.537C321.585 309.764 321.837 310.296 322.293 310.704C322.749 311.104 323.325 311.304 324.021 311.304C324.413 311.304 324.773 311.236 325.101 311.1C325.429 310.956 325.713 310.748 325.953 310.476L326.433 311.028C326.153 311.364 325.801 311.62 325.377 311.796C324.961 311.972 324.501 312.06 323.997 312.06C323.349 312.06 322.773 311.924 322.269 311.652C321.773 311.372 321.385 310.988 321.105 310.5C320.825 310.012 320.685 309.46 320.685 308.844C320.685 308.228 320.817 307.676 321.081 307.188C321.353 306.7 321.721 306.32 322.185 306.048C322.657 305.776 323.185 305.64 323.769 305.64C324.353 305.64 324.877 305.776 325.341 306.048C325.805 306.32 326.169 306.7 326.433 307.188C326.697 307.668 326.829 308.22 326.829 308.844L326.817 309.108ZM323.769 306.372C323.161 306.372 322.649 306.568 322.233 306.96C321.825 307.344 321.593 307.848 321.537 308.472H326.013C325.957 307.848 325.721 307.344 325.305 306.96C324.897 306.568 324.385 306.372 323.769 306.372ZM332.52 306.924C332.72 306.5 333.016 306.18 333.408 305.964C333.808 305.748 334.3 305.64 334.884 305.64V306.468L334.68 306.456C334.016 306.456 333.496 306.66 333.12 307.068C332.744 307.476 332.556 308.048 332.556 308.784V312H331.704V305.688H332.52V306.924ZM341.864 309.108H336.584C336.632 309.764 336.884 310.296 337.34 310.704C337.796 311.104 338.372 311.304 339.068 311.304C339.46 311.304 339.82 311.236 340.148 311.1C340.476 310.956 340.76 310.748 341 310.476L341.48 311.028C341.2 311.364 340.848 311.62 340.424 311.796C340.008 311.972 339.548 312.06 339.044 312.06C338.396 312.06 337.82 311.924 337.316 311.652C336.82 311.372 336.432 310.988 336.152 310.5C335.872 310.012 335.732 309.46 335.732 308.844C335.732 308.228 335.864 307.676 336.128 307.188C336.4 306.7 336.768 306.32 337.232 306.048C337.704 305.776 338.232 305.64 338.816 305.64C339.4 305.64 339.924 305.776 340.388 306.048C340.852 306.32 341.216 306.7 341.48 307.188C341.744 307.668 341.876 308.22 341.876 308.844L341.864 309.108ZM338.816 306.372C338.208 306.372 337.696 306.568 337.28 306.96C336.872 307.344 336.64 307.848 336.584 308.472H341.06C341.004 307.848 340.768 307.344 340.352 306.96C339.944 306.568 339.432 306.372 338.816 306.372ZM339.68 303.216H340.82L338.876 304.704H338.036L339.68 303.216ZM349.37 303.096V312H348.554V310.752C348.298 311.176 347.958 311.5 347.534 311.724C347.118 311.948 346.646 312.06 346.118 312.06C345.526 312.06 344.99 311.924 344.51 311.652C344.03 311.38 343.654 311 343.382 310.512C343.11 310.024 342.974 309.468 342.974 308.844C342.974 308.22 343.11 307.664 343.382 307.176C343.654 306.688 344.03 306.312 344.51 306.048C344.99 305.776 345.526 305.64 346.118 305.64C346.63 305.64 347.09 305.748 347.498 305.964C347.914 306.172 348.254 306.48 348.518 306.888V303.096H349.37ZM346.19 311.304C346.63 311.304 347.026 311.204 347.378 311.004C347.738 310.796 348.018 310.504 348.218 310.128C348.426 309.752 348.53 309.324 348.53 308.844C348.53 308.364 348.426 307.936 348.218 307.56C348.018 307.184 347.738 306.896 347.378 306.696C347.026 306.488 346.63 306.384 346.19 306.384C345.742 306.384 345.338 306.488 344.978 306.696C344.626 306.896 344.346 307.184 344.138 307.56C343.938 307.936 343.838 308.364 343.838 308.844C343.838 309.324 343.938 309.752 344.138 310.128C344.346 310.504 344.626 310.796 344.978 311.004C345.338 311.204 345.742 311.304 346.19 311.304ZM357.431 305.688V312H356.615V310.848C356.391 311.232 356.083 311.532 355.691 311.748C355.299 311.956 354.851 312.06 354.347 312.06C353.523 312.06 352.871 311.832 352.391 311.376C351.919 310.912 351.683 310.236 351.683 309.348V305.688H352.535V309.264C352.535 309.928 352.699 310.432 353.027 310.776C353.355 311.12 353.823 311.292 354.431 311.292C355.095 311.292 355.619 311.092 356.003 310.692C356.387 310.284 356.579 309.72 356.579 309V305.688H357.431ZM362.433 312.06C361.809 312.06 361.249 311.924 360.753 311.652C360.265 311.38 359.881 311 359.601 310.512C359.321 310.016 359.181 309.46 359.181 308.844C359.181 308.228 359.321 307.676 359.601 307.188C359.881 306.7 360.265 306.32 360.753 306.048C361.249 305.776 361.809 305.64 362.433 305.64C362.977 305.64 363.461 305.748 363.885 305.964C364.317 306.172 364.657 306.48 364.905 306.888L364.269 307.32C364.061 307.008 363.797 306.776 363.477 306.624C363.157 306.464 362.809 306.384 362.433 306.384C361.977 306.384 361.565 306.488 361.197 306.696C360.837 306.896 360.553 307.184 360.345 307.56C360.145 307.936 360.045 308.364 360.045 308.844C360.045 309.332 360.145 309.764 360.345 310.14C360.553 310.508 360.837 310.796 361.197 311.004C361.565 311.204 361.977 311.304 362.433 311.304C362.809 311.304 363.157 311.228 363.477 311.076C363.797 310.924 364.061 310.692 364.269 310.38L364.905 310.812C364.657 311.22 364.317 311.532 363.885 311.748C363.453 311.956 362.969 312.06 362.433 312.06ZM369.973 311.616C369.813 311.76 369.613 311.872 369.373 311.952C369.141 312.024 368.897 312.06 368.641 312.06C368.049 312.06 367.593 311.9 367.273 311.58C366.953 311.26 366.793 310.808 366.793 310.224V306.408H365.665V305.688H366.793V304.308H367.645V305.688H369.565V306.408H367.645V310.176C367.645 310.552 367.737 310.84 367.921 311.04C368.113 311.232 368.385 311.328 368.737 311.328C368.913 311.328 369.081 311.3 369.241 311.244C369.409 311.188 369.553 311.108 369.673 311.004L369.973 311.616ZM371.524 305.688H372.376V312H371.524V305.688ZM371.956 304.308C371.78 304.308 371.632 304.248 371.512 304.128C371.392 304.008 371.332 303.864 371.332 303.696C371.332 303.536 371.392 303.396 371.512 303.276C371.632 303.156 371.78 303.096 371.956 303.096C372.132 303.096 372.28 303.156 372.4 303.276C372.52 303.388 372.58 303.524 372.58 303.684C372.58 303.86 372.52 304.008 372.4 304.128C372.28 304.248 372.132 304.308 371.956 304.308ZM377.327 312.06C376.719 312.06 376.171 311.924 375.683 311.652C375.195 311.372 374.811 310.988 374.531 310.5C374.251 310.012 374.111 309.46 374.111 308.844C374.111 308.228 374.251 307.676 374.531 307.188C374.811 306.7 375.195 306.32 375.683 306.048C376.171 305.776 376.719 305.64 377.327 305.64C377.935 305.64 378.483 305.776 378.971 306.048C379.459 306.32 379.839 306.7 380.111 307.188C380.391 307.676 380.531 308.228 380.531 308.844C380.531 309.46 380.391 310.012 380.111 310.5C379.839 310.988 379.459 311.372 378.971 311.652C378.483 311.924 377.935 312.06 377.327 312.06ZM377.327 311.304C377.775 311.304 378.175 311.204 378.527 311.004C378.887 310.796 379.167 310.504 379.367 310.128C379.567 309.752 379.667 309.324 379.667 308.844C379.667 308.364 379.567 307.936 379.367 307.56C379.167 307.184 378.887 306.896 378.527 306.696C378.175 306.488 377.775 306.384 377.327 306.384C376.879 306.384 376.475 306.488 376.115 306.696C375.763 306.896 375.483 307.184 375.275 307.56C375.075 307.936 374.975 308.364 374.975 308.844C374.975 309.324 375.075 309.752 375.275 310.128C375.483 310.504 375.763 310.796 376.115 311.004C376.475 311.204 376.879 311.304 377.327 311.304ZM385.486 305.64C386.278 305.64 386.906 305.872 387.37 306.336C387.842 306.792 388.078 307.46 388.078 308.34V312H387.226V308.424C387.226 307.768 387.062 307.268 386.734 306.924C386.406 306.58 385.938 306.408 385.33 306.408C384.65 306.408 384.11 306.612 383.71 307.02C383.318 307.42 383.122 307.976 383.122 308.688V312H382.27V305.688H383.086V306.852C383.318 306.468 383.638 306.172 384.046 305.964C384.462 305.748 384.942 305.64 385.486 305.64Z" fill="#7FB239"/>
<path d="M490.042 375.532H487.954V377.572H486.406V375.532H484.33V374.068H486.406V372.028H487.954V374.068H490.042V375.532ZM497.326 377.416V379H490.978V377.74L494.218 374.68C494.562 374.352 494.794 374.072 494.914 373.84C495.034 373.6 495.094 373.364 495.094 373.132C495.094 372.796 494.978 372.54 494.746 372.364C494.522 372.18 494.19 372.088 493.75 372.088C493.382 372.088 493.05 372.16 492.754 372.304C492.458 372.44 492.21 372.648 492.01 372.928L490.594 372.016C490.922 371.528 491.374 371.148 491.95 370.876C492.526 370.596 493.186 370.456 493.93 370.456C494.554 370.456 495.098 370.56 495.562 370.768C496.034 370.968 496.398 371.256 496.654 371.632C496.918 372 497.05 372.436 497.05 372.94C497.05 373.396 496.954 373.824 496.762 374.224C496.57 374.624 496.198 375.08 495.646 375.592L493.714 377.416H497.326ZM503.876 374.584C504.292 374.792 504.608 375.064 504.824 375.4C505.048 375.736 505.16 376.124 505.16 376.564C505.16 377.084 505.012 377.54 504.716 377.932C504.42 378.316 504.004 378.616 503.468 378.832C502.932 379.04 502.312 379.144 501.608 379.144C500.904 379.144 500.284 379.04 499.748 378.832C499.22 378.616 498.808 378.316 498.512 377.932C498.224 377.54 498.08 377.084 498.08 376.564C498.08 376.124 498.188 375.736 498.404 375.4C498.628 375.064 498.944 374.792 499.352 374.584C499.04 374.392 498.8 374.152 498.632 373.864C498.464 373.568 498.38 373.232 498.38 372.856C498.38 372.368 498.516 371.944 498.788 371.584C499.06 371.224 499.44 370.948 499.928 370.756C500.416 370.556 500.976 370.456 501.608 370.456C502.248 370.456 502.812 370.556 503.3 370.756C503.796 370.948 504.18 371.224 504.452 371.584C504.724 371.944 504.86 372.368 504.86 372.856C504.86 373.232 504.776 373.568 504.608 373.864C504.44 374.152 504.196 374.392 503.876 374.584ZM501.608 371.884C501.216 371.884 500.9 371.98 500.66 372.172C500.428 372.356 500.312 372.612 500.312 372.94C500.312 373.26 500.428 373.512 500.66 373.696C500.892 373.88 501.208 373.972 501.608 373.972C502.008 373.972 502.328 373.88 502.568 373.696C502.808 373.512 502.928 373.26 502.928 372.94C502.928 372.612 502.808 372.356 502.568 372.172C502.328 371.98 502.008 371.884 501.608 371.884ZM501.608 377.716C502.096 377.716 502.48 377.608 502.76 377.392C503.048 377.168 503.192 376.872 503.192 376.504C503.192 376.136 503.048 375.844 502.76 375.628C502.48 375.412 502.096 375.304 501.608 375.304C501.128 375.304 500.748 375.412 500.468 375.628C500.188 375.844 500.048 376.136 500.048 376.504C500.048 376.88 500.188 377.176 500.468 377.392C500.748 377.608 501.128 377.716 501.608 377.716ZM513.048 379.144C512.352 379.144 511.732 378.972 511.188 378.628C510.644 378.284 510.216 377.788 509.904 377.14C509.6 376.484 509.448 375.704 509.448 374.8C509.448 373.896 509.6 373.12 509.904 372.472C510.216 371.816 510.644 371.316 511.188 370.972C511.732 370.628 512.352 370.456 513.048 370.456C513.744 370.456 514.364 370.628 514.908 370.972C515.452 371.316 515.876 371.816 516.18 372.472C516.492 373.12 516.648 373.896 516.648 374.8C516.648 375.704 516.492 376.484 516.18 377.14C515.876 377.788 515.452 378.284 514.908 378.628C514.364 378.972 513.744 379.144 513.048 379.144ZM513.048 377.5C513.56 377.5 513.96 377.28 514.248 376.84C514.544 376.4 514.692 375.72 514.692 374.8C514.692 373.88 514.544 373.2 514.248 372.76C513.96 372.32 513.56 372.1 513.048 372.1C512.544 372.1 512.144 372.32 511.848 372.76C511.56 373.2 511.416 373.88 511.416 374.8C511.416 375.72 511.56 376.4 511.848 376.84C512.144 377.28 512.544 377.5 513.048 377.5ZM521.193 379.144C520.497 379.144 519.877 378.972 519.333 378.628C518.789 378.284 518.361 377.788 518.049 377.14C517.745 376.484 517.593 375.704 517.593 374.8C517.593 373.896 517.745 373.12 518.049 372.472C518.361 371.816 518.789 371.316 519.333 370.972C519.877 370.628 520.497 370.456 521.193 370.456C521.889 370.456 522.509 370.628 523.053 370.972C523.597 371.316 524.021 371.816 524.325 372.472C524.637 373.12 524.793 373.896 524.793 374.8C524.793 375.704 524.637 376.484 524.325 377.14C524.021 377.788 523.597 378.284 523.053 378.628C522.509 378.972 521.889 379.144 521.193 379.144ZM521.193 377.5C521.705 377.5 522.105 377.28 522.393 376.84C522.689 376.4 522.837 375.72 522.837 374.8C522.837 373.88 522.689 373.2 522.393 372.76C522.105 372.32 521.705 372.1 521.193 372.1C520.689 372.1 520.289 372.32 519.993 372.76C519.705 373.2 519.561 373.88 519.561 374.8C519.561 375.72 519.705 376.4 519.993 376.84C520.289 377.28 520.689 377.5 521.193 377.5ZM529.338 379.144C528.642 379.144 528.022 378.972 527.478 378.628C526.934 378.284 526.506 377.788 526.194 377.14C525.89 376.484 525.738 375.704 525.738 374.8C525.738 373.896 525.89 373.12 526.194 372.472C526.506 371.816 526.934 371.316 527.478 370.972C528.022 370.628 528.642 370.456 529.338 370.456C530.034 370.456 530.654 370.628 531.198 370.972C531.742 371.316 532.166 371.816 532.47 372.472C532.782 373.12 532.938 373.896 532.938 374.8C532.938 375.704 532.782 376.484 532.47 377.14C532.166 377.788 531.742 378.284 531.198 378.628C530.654 378.972 530.034 379.144 529.338 379.144ZM529.338 377.5C529.85 377.5 530.25 377.28 530.538 376.84C530.834 376.4 530.982 375.72 530.982 374.8C530.982 373.88 530.834 373.2 530.538 372.76C530.25 372.32 529.85 372.1 529.338 372.1C528.834 372.1 528.434 372.32 528.138 372.76C527.85 373.2 527.706 373.88 527.706 374.8C527.706 375.72 527.85 376.4 528.138 376.84C528.434 377.28 528.834 377.5 529.338 377.5ZM468.462 383.096V392H467.646V390.752C467.39 391.176 467.05 391.5 466.626 391.724C466.21 391.948 465.738 392.06 465.21 392.06C464.618 392.06 464.082 391.924 463.602 391.652C463.122 391.38 462.746 391 462.474 390.512C462.202 390.024 462.066 389.468 462.066 388.844C462.066 388.22 462.202 387.664 462.474 387.176C462.746 386.688 463.122 386.312 463.602 386.048C464.082 385.776 464.618 385.64 465.21 385.64C465.722 385.64 466.182 385.748 466.59 385.964C467.006 386.172 467.346 386.48 467.61 386.888V383.096H468.462ZM465.282 391.304C465.722 391.304 466.118 391.204 466.47 391.004C466.83 390.796 467.11 390.504 467.31 390.128C467.518 389.752 467.622 389.324 467.622 388.844C467.622 388.364 467.518 387.936 467.31 387.56C467.11 387.184 466.83 386.896 466.47 386.696C466.118 386.488 465.722 386.384 465.282 386.384C464.834 386.384 464.43 386.488 464.07 386.696C463.718 386.896 463.438 387.184 463.23 387.56C463.03 387.936 462.93 388.364 462.93 388.844C462.93 389.324 463.03 389.752 463.23 390.128C463.438 390.504 463.718 390.796 464.07 391.004C464.43 391.204 464.834 391.304 465.282 391.304ZM476.33 389.108H471.05C471.098 389.764 471.35 390.296 471.806 390.704C472.262 391.104 472.838 391.304 473.534 391.304C473.926 391.304 474.286 391.236 474.614 391.1C474.942 390.956 475.226 390.748 475.466 390.476L475.946 391.028C475.666 391.364 475.314 391.62 474.89 391.796C474.474 391.972 474.014 392.06 473.51 392.06C472.862 392.06 472.286 391.924 471.782 391.652C471.286 391.372 470.898 390.988 470.618 390.5C470.338 390.012 470.198 389.46 470.198 388.844C470.198 388.228 470.33 387.676 470.594 387.188C470.866 386.7 471.234 386.32 471.698 386.048C472.17 385.776 472.698 385.64 473.282 385.64C473.866 385.64 474.39 385.776 474.854 386.048C475.318 386.32 475.682 386.7 475.946 387.188C476.21 387.668 476.342 388.22 476.342 388.844L476.33 389.108ZM473.282 386.372C472.674 386.372 472.162 386.568 471.746 386.96C471.338 387.344 471.106 387.848 471.05 388.472H475.526C475.47 387.848 475.234 387.344 474.818 386.96C474.41 386.568 473.898 386.372 473.282 386.372ZM479.769 392.06C479.257 392.06 478.765 391.988 478.293 391.844C477.829 391.692 477.465 391.504 477.201 391.28L477.585 390.608C477.849 390.816 478.181 390.988 478.581 391.124C478.981 391.252 479.397 391.316 479.829 391.316C480.405 391.316 480.829 391.228 481.101 391.052C481.381 390.868 481.521 390.612 481.521 390.284C481.521 390.052 481.445 389.872 481.293 389.744C481.141 389.608 480.949 389.508 480.717 389.444C480.485 389.372 480.177 389.304 479.793 389.24C479.281 389.144 478.869 389.048 478.557 388.952C478.245 388.848 477.977 388.676 477.753 388.436C477.537 388.196 477.429 387.864 477.429 387.44C477.429 386.912 477.649 386.48 478.089 386.144C478.529 385.808 479.141 385.64 479.925 385.64C480.333 385.64 480.741 385.696 481.149 385.808C481.557 385.912 481.893 386.052 482.157 386.228L481.785 386.912C481.265 386.552 480.645 386.372 479.925 386.372C479.381 386.372 478.969 386.468 478.689 386.66C478.417 386.852 478.281 387.104 478.281 387.416C478.281 387.656 478.357 387.848 478.509 387.992C478.669 388.136 478.865 388.244 479.097 388.316C479.329 388.38 479.649 388.448 480.057 388.52C480.561 388.616 480.965 388.712 481.269 388.808C481.573 388.904 481.833 389.068 482.049 389.3C482.265 389.532 482.373 389.852 482.373 390.26C482.373 390.812 482.141 391.252 481.677 391.58C481.221 391.9 480.585 392.06 479.769 392.06ZM487.272 391.616C487.112 391.76 486.912 391.872 486.672 391.952C486.44 392.024 486.196 392.06 485.94 392.06C485.348 392.06 484.892 391.9 484.572 391.58C484.252 391.26 484.092 390.808 484.092 390.224V386.408H482.964V385.688H484.092V384.308H484.944V385.688H486.864V386.408H484.944V390.176C484.944 390.552 485.036 390.84 485.22 391.04C485.412 391.232 485.684 391.328 486.036 391.328C486.212 391.328 486.38 391.3 486.54 391.244C486.708 391.188 486.852 391.108 486.972 391.004L487.272 391.616ZM489.639 386.924C489.839 386.5 490.135 386.18 490.527 385.964C490.927 385.748 491.419 385.64 492.003 385.64V386.468L491.799 386.456C491.135 386.456 490.615 386.66 490.239 387.068C489.863 387.476 489.675 388.048 489.675 388.784V392H488.823V385.688H489.639V386.924ZM499.327 385.688V392H498.511V390.848C498.287 391.232 497.979 391.532 497.587 391.748C497.195 391.956 496.747 392.06 496.243 392.06C495.419 392.06 494.767 391.832 494.287 391.376C493.815 390.912 493.579 390.236 493.579 389.348V385.688H494.431V389.264C494.431 389.928 494.595 390.432 494.923 390.776C495.251 391.12 495.719 391.292 496.327 391.292C496.991 391.292 497.515 391.092 497.899 390.692C498.283 390.284 498.475 389.72 498.475 389V385.688H499.327ZM504.329 392.06C503.705 392.06 503.145 391.924 502.649 391.652C502.161 391.38 501.777 391 501.497 390.512C501.217 390.016 501.077 389.46 501.077 388.844C501.077 388.228 501.217 387.676 501.497 387.188C501.777 386.7 502.161 386.32 502.649 386.048C503.145 385.776 503.705 385.64 504.329 385.64C504.873 385.64 505.357 385.748 505.781 385.964C506.213 386.172 506.553 386.48 506.801 386.888L506.165 387.32C505.957 387.008 505.693 386.776 505.373 386.624C505.053 386.464 504.705 386.384 504.329 386.384C503.873 386.384 503.461 386.488 503.093 386.696C502.733 386.896 502.449 387.184 502.241 387.56C502.041 387.936 501.941 388.364 501.941 388.844C501.941 389.332 502.041 389.764 502.241 390.14C502.449 390.508 502.733 390.796 503.093 391.004C503.461 391.204 503.873 391.304 504.329 391.304C504.705 391.304 505.053 391.228 505.373 391.076C505.693 390.924 505.957 390.692 506.165 390.38L506.801 390.812C506.553 391.22 506.213 391.532 505.781 391.748C505.349 391.956 504.865 392.06 504.329 392.06ZM511.869 391.616C511.709 391.76 511.509 391.872 511.269 391.952C511.037 392.024 510.793 392.06 510.537 392.06C509.945 392.06 509.489 391.9 509.169 391.58C508.849 391.26 508.689 390.808 508.689 390.224V386.408H507.561V385.688H508.689V384.308H509.541V385.688H511.461V386.408H509.541V390.176C509.541 390.552 509.633 390.84 509.817 391.04C510.009 391.232 510.281 391.328 510.633 391.328C510.809 391.328 510.977 391.3 511.137 391.244C511.305 391.188 511.449 391.108 511.569 391.004L511.869 391.616ZM513.42 385.688H514.272V392H513.42V385.688ZM513.852 384.308C513.676 384.308 513.528 384.248 513.408 384.128C513.288 384.008 513.228 383.864 513.228 383.696C513.228 383.536 513.288 383.396 513.408 383.276C513.528 383.156 513.676 383.096 513.852 383.096C514.028 383.096 514.176 383.156 514.296 383.276C514.416 383.388 514.476 383.524 514.476 383.684C514.476 383.86 514.416 384.008 514.296 384.128C514.176 384.248 514.028 384.308 513.852 384.308ZM519.223 392.06C518.615 392.06 518.067 391.924 517.579 391.652C517.091 391.372 516.707 390.988 516.427 390.5C516.147 390.012 516.007 389.46 516.007 388.844C516.007 388.228 516.147 387.676 516.427 387.188C516.707 386.7 517.091 386.32 517.579 386.048C518.067 385.776 518.615 385.64 519.223 385.64C519.831 385.64 520.379 385.776 520.867 386.048C521.355 386.32 521.735 386.7 522.007 387.188C522.287 387.676 522.427 388.228 522.427 388.844C522.427 389.46 522.287 390.012 522.007 390.5C521.735 390.988 521.355 391.372 520.867 391.652C520.379 391.924 519.831 392.06 519.223 392.06ZM519.223 391.304C519.671 391.304 520.071 391.204 520.423 391.004C520.783 390.796 521.063 390.504 521.263 390.128C521.463 389.752 521.563 389.324 521.563 388.844C521.563 388.364 521.463 387.936 521.263 387.56C521.063 387.184 520.783 386.896 520.423 386.696C520.071 386.488 519.671 386.384 519.223 386.384C518.775 386.384 518.371 386.488 518.011 386.696C517.659 386.896 517.379 387.184 517.171 387.56C516.971 387.936 516.871 388.364 516.871 388.844C516.871 389.324 516.971 389.752 517.171 390.128C517.379 390.504 517.659 390.796 518.011 391.004C518.371 391.204 518.775 391.304 519.223 391.304ZM527.383 385.64C528.175 385.64 528.803 385.872 529.267 386.336C529.739 386.792 529.975 387.46 529.975 388.34V392H529.123V388.424C529.123 387.768 528.959 387.268 528.631 386.924C528.303 386.58 527.835 386.408 527.227 386.408C526.547 386.408 526.007 386.612 525.607 387.02C525.215 387.42 525.019 387.976 525.019 388.688V392H524.167V385.688H524.983V386.852C525.215 386.468 525.535 386.172 525.943 385.964C526.359 385.748 526.839 385.64 527.383 385.64ZM533.98 392.06C533.468 392.06 532.976 391.988 532.504 391.844C532.04 391.692 531.676 391.504 531.412 391.28L531.796 390.608C532.06 390.816 532.392 390.988 532.792 391.124C533.192 391.252 533.608 391.316 534.04 391.316C534.616 391.316 535.04 391.228 535.312 391.052C535.592 390.868 535.732 390.612 535.732 390.284C535.732 390.052 535.656 389.872 535.504 389.744C535.352 389.608 535.16 389.508 534.928 389.444C534.696 389.372 534.388 389.304 534.004 389.24C533.492 389.144 533.08 389.048 532.768 388.952C532.456 388.848 532.188 388.676 531.964 388.436C531.748 388.196 531.64 387.864 531.64 387.44C531.64 386.912 531.86 386.48 532.3 386.144C532.74 385.808 533.352 385.64 534.136 385.64C534.544 385.64 534.952 385.696 535.36 385.808C535.768 385.912 536.104 386.052 536.368 386.228L535.996 386.912C535.476 386.552 534.856 386.372 534.136 386.372C533.592 386.372 533.18 386.468 532.9 386.66C532.628 386.852 532.492 387.104 532.492 387.416C532.492 387.656 532.568 387.848 532.72 387.992C532.88 388.136 533.076 388.244 533.308 388.316C533.54 388.38 533.86 388.448 534.268 388.52C534.772 388.616 535.176 388.712 535.48 388.808C535.784 388.904 536.044 389.068 536.26 389.3C536.476 389.532 536.584 389.852 536.584 390.26C536.584 390.812 536.352 391.252 535.888 391.58C535.432 391.9 534.796 392.06 533.98 392.06ZM547.059 383.096V392H546.243V390.752C545.987 391.176 545.647 391.5 545.223 391.724C544.807 391.948 544.335 392.06 543.807 392.06C543.215 392.06 542.679 391.924 542.199 391.652C541.719 391.38 541.343 391 541.071 390.512C540.799 390.024 540.663 389.468 540.663 388.844C540.663 388.22 540.799 387.664 541.071 387.176C541.343 386.688 541.719 386.312 542.199 386.048C542.679 385.776 543.215 385.64 543.807 385.64C544.319 385.64 544.779 385.748 545.187 385.964C545.603 386.172 545.943 386.48 546.207 386.888V383.096H547.059ZM543.879 391.304C544.319 391.304 544.715 391.204 545.067 391.004C545.427 390.796 545.707 390.504 545.907 390.128C546.115 389.752 546.219 389.324 546.219 388.844C546.219 388.364 546.115 387.936 545.907 387.56C545.707 387.184 545.427 386.896 545.067 386.696C544.715 386.488 544.319 386.384 543.879 386.384C543.431 386.384 543.027 386.488 542.667 386.696C542.315 386.896 542.035 387.184 541.827 387.56C541.627 387.936 541.527 388.364 541.527 388.844C541.527 389.324 541.627 389.752 541.827 390.128C542.035 390.504 542.315 390.796 542.667 391.004C543.027 391.204 543.431 391.304 543.879 391.304ZM554.928 389.108H549.648C549.696 389.764 549.948 390.296 550.404 390.704C550.86 391.104 551.436 391.304 552.132 391.304C552.524 391.304 552.884 391.236 553.212 391.1C553.54 390.956 553.824 390.748 554.064 390.476L554.544 391.028C554.264 391.364 553.912 391.62 553.488 391.796C553.072 391.972 552.612 392.06 552.108 392.06C551.46 392.06 550.884 391.924 550.38 391.652C549.884 391.372 549.496 390.988 549.216 390.5C548.936 390.012 548.796 389.46 548.796 388.844C548.796 388.228 548.928 387.676 549.192 387.188C549.464 386.7 549.832 386.32 550.296 386.048C550.768 385.776 551.296 385.64 551.88 385.64C552.464 385.64 552.988 385.776 553.452 386.048C553.916 386.32 554.28 386.7 554.544 387.188C554.808 387.668 554.94 388.22 554.94 388.844L554.928 389.108ZM551.88 386.372C551.272 386.372 550.76 386.568 550.344 386.96C549.936 387.344 549.704 387.848 549.648 388.472H554.124C554.068 387.848 553.832 387.344 553.416 386.96C553.008 386.568 552.496 386.372 551.88 386.372ZM463.951 404.616C463.791 404.76 463.591 404.872 463.351 404.952C463.119 405.024 462.875 405.06 462.619 405.06C462.027 405.06 461.571 404.9 461.251 404.58C460.931 404.26 460.771 403.808 460.771 403.224V399.408H459.643V398.688H460.771V397.308H461.623V398.688H463.543V399.408H461.623V403.176C461.623 403.552 461.715 403.84 461.899 404.04C462.091 404.232 462.363 404.328 462.715 404.328C462.891 404.328 463.059 404.3 463.219 404.244C463.387 404.188 463.531 404.108 463.651 404.004L463.951 404.616ZM470.776 402.108H465.496C465.544 402.764 465.796 403.296 466.252 403.704C466.708 404.104 467.284 404.304 467.98 404.304C468.372 404.304 468.732 404.236 469.06 404.1C469.388 403.956 469.672 403.748 469.912 403.476L470.392 404.028C470.112 404.364 469.76 404.62 469.336 404.796C468.92 404.972 468.46 405.06 467.956 405.06C467.308 405.06 466.732 404.924 466.228 404.652C465.732 404.372 465.344 403.988 465.064 403.5C464.784 403.012 464.644 402.46 464.644 401.844C464.644 401.228 464.776 400.676 465.04 400.188C465.312 399.7 465.68 399.32 466.144 399.048C466.616 398.776 467.144 398.64 467.728 398.64C468.312 398.64 468.836 398.776 469.3 399.048C469.764 399.32 470.128 399.7 470.392 400.188C470.656 400.668 470.788 401.22 470.788 401.844L470.776 402.108ZM467.728 399.372C467.12 399.372 466.608 399.568 466.192 399.96C465.784 400.344 465.552 400.848 465.496 401.472H469.972C469.916 400.848 469.68 400.344 469.264 399.96C468.856 399.568 468.344 399.372 467.728 399.372ZM468.592 396.216H469.732L467.788 397.704H466.948L468.592 396.216ZM472.522 396.096H473.374V405H472.522V396.096ZM481.241 402.108H475.961C476.009 402.764 476.261 403.296 476.717 403.704C477.173 404.104 477.749 404.304 478.445 404.304C478.837 404.304 479.197 404.236 479.525 404.1C479.853 403.956 480.137 403.748 480.377 403.476L480.857 404.028C480.577 404.364 480.225 404.62 479.801 404.796C479.385 404.972 478.925 405.06 478.421 405.06C477.773 405.06 477.197 404.924 476.693 404.652C476.197 404.372 475.809 403.988 475.529 403.5C475.249 403.012 475.109 402.46 475.109 401.844C475.109 401.228 475.241 400.676 475.505 400.188C475.777 399.7 476.145 399.32 476.609 399.048C477.081 398.776 477.609 398.64 478.193 398.64C478.777 398.64 479.301 398.776 479.765 399.048C480.229 399.32 480.593 399.7 480.857 400.188C481.121 400.668 481.253 401.22 481.253 401.844L481.241 402.108ZM478.193 399.372C477.585 399.372 477.073 399.568 476.657 399.96C476.249 400.344 476.017 400.848 475.961 401.472H480.437C480.381 400.848 480.145 400.344 479.729 399.96C479.321 399.568 478.809 399.372 478.193 399.372ZM479.057 396.216H480.197L478.253 397.704H477.413L479.057 396.216ZM486.239 398.64C486.831 398.64 487.367 398.776 487.847 399.048C488.327 399.312 488.703 399.688 488.975 400.176C489.247 400.664 489.383 401.22 489.383 401.844C489.383 402.476 489.247 403.036 488.975 403.524C488.703 404.012 488.327 404.392 487.847 404.664C487.375 404.928 486.839 405.06 486.239 405.06C485.727 405.06 485.263 404.956 484.847 404.748C484.439 404.532 484.103 404.22 483.839 403.812V407.328H482.987V398.688H483.803V399.936C484.059 399.52 484.395 399.2 484.811 398.976C485.235 398.752 485.711 398.64 486.239 398.64ZM486.179 404.304C486.619 404.304 487.019 404.204 487.379 404.004C487.739 403.796 488.019 403.504 488.219 403.128C488.427 402.752 488.531 402.324 488.531 401.844C488.531 401.364 488.427 400.94 488.219 400.572C488.019 400.196 487.739 399.904 487.379 399.696C487.019 399.488 486.619 399.384 486.179 399.384C485.731 399.384 485.327 399.488 484.967 399.696C484.615 399.904 484.335 400.196 484.127 400.572C483.927 400.94 483.827 401.364 483.827 401.844C483.827 402.324 483.927 402.752 484.127 403.128C484.335 403.504 484.615 403.796 484.967 404.004C485.327 404.204 485.731 404.304 486.179 404.304ZM494.336 398.64C495.128 398.64 495.756 398.872 496.22 399.336C496.692 399.792 496.928 400.46 496.928 401.34V405H496.076V401.424C496.076 400.768 495.912 400.268 495.584 399.924C495.256 399.58 494.788 399.408 494.18 399.408C493.5 399.408 492.96 399.612 492.56 400.02C492.168 400.42 491.972 400.976 491.972 401.688V405H491.12V396.096H491.972V399.792C492.204 399.424 492.524 399.14 492.932 398.94C493.34 398.74 493.808 398.64 494.336 398.64ZM501.844 405.06C501.236 405.06 500.688 404.924 500.2 404.652C499.712 404.372 499.328 403.988 499.048 403.5C498.768 403.012 498.628 402.46 498.628 401.844C498.628 401.228 498.768 400.676 499.048 400.188C499.328 399.7 499.712 399.32 500.2 399.048C500.688 398.776 501.236 398.64 501.844 398.64C502.452 398.64 503 398.776 503.488 399.048C503.976 399.32 504.356 399.7 504.628 400.188C504.908 400.676 505.048 401.228 505.048 401.844C505.048 402.46 504.908 403.012 504.628 403.5C504.356 403.988 503.976 404.372 503.488 404.652C503 404.924 502.452 405.06 501.844 405.06ZM501.844 404.304C502.292 404.304 502.692 404.204 503.044 404.004C503.404 403.796 503.684 403.504 503.884 403.128C504.084 402.752 504.184 402.324 504.184 401.844C504.184 401.364 504.084 400.936 503.884 400.56C503.684 400.184 503.404 399.896 503.044 399.696C502.692 399.488 502.292 399.384 501.844 399.384C501.396 399.384 500.992 399.488 500.632 399.696C500.28 399.896 500 400.184 499.792 400.56C499.592 400.936 499.492 401.364 499.492 401.844C499.492 402.324 499.592 402.752 499.792 403.128C500 403.504 500.28 403.796 500.632 404.004C500.992 404.204 501.396 404.304 501.844 404.304ZM510.004 398.64C510.796 398.64 511.424 398.872 511.888 399.336C512.36 399.792 512.596 400.46 512.596 401.34V405H511.744V401.424C511.744 400.768 511.58 400.268 511.252 399.924C510.924 399.58 510.456 399.408 509.848 399.408C509.168 399.408 508.628 399.612 508.228 400.02C507.836 400.42 507.64 400.976 507.64 401.688V405H506.788V398.688H507.604V399.852C507.836 399.468 508.156 399.172 508.564 398.964C508.98 398.748 509.46 398.64 510.004 398.64ZM520.428 402.108H515.148C515.196 402.764 515.448 403.296 515.904 403.704C516.36 404.104 516.936 404.304 517.632 404.304C518.024 404.304 518.384 404.236 518.712 404.1C519.04 403.956 519.324 403.748 519.564 403.476L520.044 404.028C519.764 404.364 519.412 404.62 518.988 404.796C518.572 404.972 518.112 405.06 517.608 405.06C516.96 405.06 516.384 404.924 515.88 404.652C515.384 404.372 514.996 403.988 514.716 403.5C514.436 403.012 514.296 402.46 514.296 401.844C514.296 401.228 514.428 400.676 514.692 400.188C514.964 399.7 515.332 399.32 515.796 399.048C516.268 398.776 516.796 398.64 517.38 398.64C517.964 398.64 518.488 398.776 518.952 399.048C519.416 399.32 519.78 399.7 520.044 400.188C520.308 400.668 520.44 401.22 520.44 401.844L520.428 402.108ZM517.38 399.372C516.772 399.372 516.26 399.568 515.844 399.96C515.436 400.344 515.204 400.848 515.148 401.472H519.624C519.568 400.848 519.332 400.344 518.916 399.96C518.508 399.568 517.996 399.372 517.38 399.372ZM523.866 405.06C523.354 405.06 522.862 404.988 522.39 404.844C521.926 404.692 521.562 404.504 521.298 404.28L521.682 403.608C521.946 403.816 522.278 403.988 522.678 404.124C523.078 404.252 523.494 404.316 523.926 404.316C524.502 404.316 524.926 404.228 525.198 404.052C525.478 403.868 525.618 403.612 525.618 403.284C525.618 403.052 525.542 402.872 525.39 402.744C525.238 402.608 525.046 402.508 524.814 402.444C524.582 402.372 524.274 402.304 523.89 402.24C523.378 402.144 522.966 402.048 522.654 401.952C522.342 401.848 522.074 401.676 521.85 401.436C521.634 401.196 521.526 400.864 521.526 400.44C521.526 399.912 521.746 399.48 522.186 399.144C522.626 398.808 523.238 398.64 524.022 398.64C524.43 398.64 524.838 398.696 525.246 398.808C525.654 398.912 525.99 399.052 526.254 399.228L525.882 399.912C525.362 399.552 524.742 399.372 524.022 399.372C523.478 399.372 523.066 399.468 522.786 399.66C522.514 399.852 522.378 400.104 522.378 400.416C522.378 400.656 522.454 400.848 522.606 400.992C522.766 401.136 522.962 401.244 523.194 401.316C523.426 401.38 523.746 401.448 524.154 401.52C524.658 401.616 525.062 401.712 525.366 401.808C525.67 401.904 525.93 402.068 526.146 402.3C526.362 402.532 526.47 402.852 526.47 403.26C526.47 403.812 526.238 404.252 525.774 404.58C525.318 404.9 524.682 405.06 523.866 405.06ZM533.274 396.756C532.906 396.756 532.626 396.856 532.434 397.056C532.25 397.256 532.158 397.552 532.158 397.944V398.688H534.102V399.408H532.182V405H531.33V399.408H530.202V398.688H531.33V397.908C531.33 397.332 531.494 396.876 531.822 396.54C532.158 396.204 532.63 396.036 533.238 396.036C533.478 396.036 533.71 396.072 533.934 396.144C534.158 396.208 534.346 396.304 534.498 396.432L534.21 397.068C533.962 396.86 533.65 396.756 533.274 396.756ZM536.214 398.688H537.066V405H536.214V398.688ZM536.646 397.308C536.47 397.308 536.322 397.248 536.202 397.128C536.082 397.008 536.022 396.864 536.022 396.696C536.022 396.536 536.082 396.396 536.202 396.276C536.322 396.156 536.47 396.096 536.646 396.096C536.822 396.096 536.97 396.156 537.09 396.276C537.21 396.388 537.27 396.524 537.27 396.684C537.27 396.86 537.21 397.008 537.09 397.128C536.97 397.248 536.822 397.308 536.646 397.308ZM543.468 405L541.464 402.36L539.448 405H538.488L540.984 401.76L538.608 398.688H539.568L541.464 401.16L543.36 398.688H544.296L541.92 401.76L544.44 405H543.468ZM551.131 402.108H545.851C545.899 402.764 546.151 403.296 546.607 403.704C547.063 404.104 547.639 404.304 548.335 404.304C548.727 404.304 549.087 404.236 549.415 404.1C549.743 403.956 550.027 403.748 550.267 403.476L550.747 404.028C550.467 404.364 550.115 404.62 549.691 404.796C549.275 404.972 548.815 405.06 548.311 405.06C547.663 405.06 547.087 404.924 546.583 404.652C546.087 404.372 545.699 403.988 545.419 403.5C545.139 403.012 544.999 402.46 544.999 401.844C544.999 401.228 545.131 400.676 545.395 400.188C545.667 399.7 546.035 399.32 546.499 399.048C546.971 398.776 547.499 398.64 548.083 398.64C548.667 398.64 549.191 398.776 549.655 399.048C550.119 399.32 550.483 399.7 550.747 400.188C551.011 400.668 551.143 401.22 551.143 401.844L551.131 402.108ZM548.083 399.372C547.475 399.372 546.963 399.568 546.547 399.96C546.139 400.344 545.907 400.848 545.851 401.472H550.327C550.271 400.848 550.035 400.344 549.619 399.96C549.211 399.568 548.699 399.372 548.083 399.372ZM554.569 405.06C554.057 405.06 553.565 404.988 553.093 404.844C552.629 404.692 552.265 404.504 552.001 404.28L552.385 403.608C552.649 403.816 552.981 403.988 553.381 404.124C553.781 404.252 554.197 404.316 554.629 404.316C555.205 404.316 555.629 404.228 555.901 404.052C556.181 403.868 556.321 403.612 556.321 403.284C556.321 403.052 556.245 402.872 556.093 402.744C555.941 402.608 555.749 402.508 555.517 402.444C555.285 402.372 554.977 402.304 554.593 402.24C554.081 402.144 553.669 402.048 553.357 401.952C553.045 401.848 552.777 401.676 552.553 401.436C552.337 401.196 552.229 400.864 552.229 400.44C552.229 399.912 552.449 399.48 552.889 399.144C553.329 398.808 553.941 398.64 554.725 398.64C555.133 398.64 555.541 398.696 555.949 398.808C556.357 398.912 556.693 399.052 556.957 399.228L556.585 399.912C556.065 399.552 555.445 399.372 554.725 399.372C554.181 399.372 553.769 399.468 553.489 399.66C553.217 399.852 553.081 400.104 553.081 400.416C553.081 400.656 553.157 400.848 553.309 400.992C553.469 401.136 553.665 401.244 553.897 401.316C554.129 401.38 554.449 401.448 554.857 401.52C555.361 401.616 555.765 401.712 556.069 401.808C556.373 401.904 556.633 402.068 556.849 402.3C557.065 402.532 557.173 402.852 557.173 403.26C557.173 403.812 556.941 404.252 556.477 404.58C556.021 404.9 555.385 405.06 554.569 405.06Z" fill="#9B9B9B"/>
<path d="M203.201 385.726C199.55 389.284 195.145 391.906 190.111 393.518C185.388 395.03 180.249 395.561 175.246 395.051C170.264 394.544 165.455 393.007 161.338 390.612C160.048 389.861 158.833 389.036 157.7 388.14C154.973 385.986 152.709 383.421 150.943 380.479C143.159 367.513 138.639 352.842 137.871 338.052C137.103 323.262 140.079 308.203 146.477 294.501C148.533 290.1 151.658 286.347 155.766 283.347C159.613 280.539 164.237 278.513 169.14 277.493C174.063 276.468 179.229 276.464 184.084 277.479C189.257 278.562 193.91 280.714 197.91 283.875C199.156 284.859 199.438 286.482 198.587 287.771L185.084 308.24C184.474 309.166 183.372 309.765 182.162 309.826L168.623 310.53C163.183 327.614 164.128 345.815 171.309 362.245L184.849 361.544C186.059 361.48 187.216 361.961 187.919 362.819L203.47 381.781C204.45 382.975 204.337 384.618 203.201 385.726Z" fill="#ACEBE2"/>
<path d="M185.897 284.495C181.899 281.335 177.248 279.184 172.077 278.101C170.934 277.862 169.772 277.679 168.6 277.555C168.669 277.538 168.739 277.525 168.808 277.51C173.729 276.485 178.893 276.481 183.746 277.496C188.917 278.579 193.568 280.73 197.566 283.889C198.811 284.873 199.093 286.496 198.243 287.784L184.745 308.243C184.135 309.169 183.035 309.768 181.825 309.829L170.156 310.434C171.366 310.373 172.467 309.775 173.076 308.849L186.574 288.389C187.424 287.101 187.142 285.478 185.897 284.495Z" fill="#98D7CE"/>
<path d="M171.309 362.172L164.613 362.519C161.576 362.677 158.84 361.016 157.915 358.482C152.867 344.656 152.095 329.788 155.683 315.513C156.34 312.898 158.89 310.962 161.927 310.805L168.623 310.457C163.183 327.542 164.129 345.742 171.309 362.172Z" fill="#98D7CE"/>
<path d="M203.547 385.743C199.894 389.302 195.487 391.925 190.452 393.539C185.726 395.051 180.585 395.582 175.58 395.072C175.51 395.064 175.439 395.058 175.369 395.048C176.522 394.803 177.66 394.501 178.773 394.144C183.808 392.531 188.215 389.908 191.868 386.349C193.005 385.241 193.118 383.597 192.138 382.402L176.58 363.434C175.877 362.575 174.719 362.093 173.508 362.158L185.187 361.552C186.397 361.488 187.555 361.969 188.258 362.828L203.816 381.797C204.796 382.991 204.684 384.635 203.547 385.743Z" fill="#98D7CE"/>
<path d="M445.937 406.01C444.74 407.177 443.296 408.036 441.646 408.565C440.097 409.061 438.412 409.235 436.772 409.067C435.139 408.901 433.562 408.397 432.212 407.612C431.789 407.366 431.391 407.095 431.02 406.802C430.126 406.095 429.383 405.255 428.804 404.29C426.253 400.039 424.771 395.23 424.519 390.381C424.267 385.532 425.243 380.595 427.34 376.103C428.014 374.66 429.039 373.43 430.386 372.446C431.647 371.526 433.163 370.861 434.77 370.527C436.384 370.191 438.078 370.19 439.67 370.522C441.366 370.878 442.891 371.583 444.203 372.619C444.611 372.942 444.703 373.474 444.424 373.897L439.997 380.607C439.797 380.911 439.436 381.107 439.04 381.127L434.601 381.358C432.817 386.959 433.127 392.926 435.481 398.312L439.92 398.082C440.317 398.061 440.697 398.219 440.927 398.501L446.025 404.717C446.347 405.108 446.31 405.647 445.937 406.01Z" fill="#ACEBE2"/>
<path d="M440.264 372.822C438.953 371.787 437.428 371.081 435.733 370.726C435.358 370.648 434.977 370.588 434.593 370.547C434.616 370.542 434.639 370.537 434.661 370.533C436.275 370.197 437.968 370.195 439.559 370.528C441.254 370.883 442.779 371.588 444.09 372.624C444.498 372.947 444.59 373.478 444.311 373.901L439.886 380.608C439.686 380.912 439.325 381.108 438.929 381.128L435.103 381.327C435.5 381.306 435.861 381.11 436.061 380.807L440.486 374.099C440.765 373.677 440.672 373.145 440.264 372.822Z" fill="#98D7CE"/>
<path d="M435.482 398.288L433.286 398.402C432.291 398.453 431.393 397.909 431.09 397.078C429.435 392.545 429.182 387.671 430.358 382.991C430.574 382.134 431.41 381.499 432.405 381.448L434.601 381.334C432.817 386.935 433.127 392.902 435.482 398.288Z" fill="#98D7CE"/>
<path d="M446.05 406.016C444.853 407.183 443.408 408.043 441.757 408.572C440.208 409.068 438.522 409.242 436.882 409.074C436.859 409.072 436.835 409.07 436.812 409.067C437.19 408.986 437.563 408.887 437.928 408.77C439.579 408.241 441.024 407.382 442.221 406.215C442.594 405.851 442.631 405.312 442.31 404.921L437.209 398.702C436.979 398.42 436.599 398.262 436.202 398.283L440.031 398.085C440.428 398.064 440.808 398.222 441.038 398.503L446.139 404.722C446.46 405.114 446.423 405.653 446.05 406.016Z" fill="#98D7CE"/>
<path d="M172.05 444.896V446.201H164.505V445.181L168.78 441.056C169.3 440.556 169.65 440.126 169.83 439.766C170.01 439.396 170.1 439.026 170.1 438.656C170.1 438.106 169.905 437.681 169.515 437.381C169.135 437.071 168.585 436.916 167.865 436.916C166.705 436.916 165.81 437.296 165.18 438.056L164.16 437.171C164.57 436.671 165.105 436.281 165.765 436.001C166.435 435.721 167.18 435.581 168 435.581C169.1 435.581 169.975 435.846 170.625 436.376C171.275 436.896 171.6 437.606 171.6 438.506C171.6 439.066 171.48 439.596 171.24 440.096C171 440.596 170.545 441.166 169.875 441.806L166.665 444.896H172.05ZM177.529 446.321C176.699 446.321 175.959 446.111 175.309 445.691C174.669 445.261 174.164 444.641 173.794 443.831C173.424 443.021 173.239 442.061 173.239 440.951C173.239 439.841 173.424 438.881 173.794 438.071C174.164 437.261 174.669 436.646 175.309 436.226C175.959 435.796 176.699 435.581 177.529 435.581C178.349 435.581 179.079 435.796 179.719 436.226C180.369 436.646 180.879 437.261 181.249 438.071C181.619 438.881 181.804 439.841 181.804 440.951C181.804 442.061 181.619 443.021 181.249 443.831C180.879 444.641 180.369 445.261 179.719 445.691C179.079 446.111 178.349 446.321 177.529 446.321ZM177.529 444.986C178.369 444.986 179.039 444.641 179.539 443.951C180.049 443.261 180.304 442.261 180.304 440.951C180.304 439.641 180.049 438.641 179.539 437.951C179.039 437.261 178.369 436.916 177.529 436.916C176.679 436.916 175.999 437.261 175.489 437.951C174.989 438.641 174.739 439.641 174.739 440.951C174.739 442.261 174.989 443.261 175.489 443.951C175.999 444.641 176.679 444.986 177.529 444.986ZM186.455 435.701V446.201H184.97V437.006H182.6V435.701H186.455ZM191.752 439.886C193.252 439.886 194.352 440.171 195.052 440.741C195.762 441.301 196.117 442.071 196.117 443.051C196.117 443.671 195.967 444.231 195.667 444.731C195.377 445.221 194.932 445.611 194.332 445.901C193.742 446.181 193.012 446.321 192.142 446.321C191.402 446.321 190.687 446.211 189.997 445.991C189.307 445.761 188.737 445.446 188.287 445.046L188.977 443.861C189.337 444.201 189.797 444.476 190.357 444.686C190.917 444.886 191.507 444.986 192.127 444.986C192.917 444.986 193.527 444.821 193.957 444.491C194.397 444.151 194.617 443.691 194.617 443.111C194.617 442.481 194.377 442.006 193.897 441.686C193.417 441.356 192.597 441.191 191.437 441.191H189.052L189.607 435.701H195.532V437.006H190.867L190.582 439.886H191.752Z" fill="#A8A8A8"/>
<path d="M430.728 444.896V446.201H423.183V445.181L427.458 441.056C427.978 440.556 428.328 440.126 428.508 439.766C428.688 439.396 428.778 439.026 428.778 438.656C428.778 438.106 428.583 437.681 428.193 437.381C427.813 437.071 427.263 436.916 426.543 436.916C425.383 436.916 424.488 437.296 423.858 438.056L422.838 437.171C423.248 436.671 423.783 436.281 424.443 436.001C425.113 435.721 425.858 435.581 426.678 435.581C427.778 435.581 428.653 435.846 429.303 436.376C429.953 436.896 430.278 437.606 430.278 438.506C430.278 439.066 430.158 439.596 429.918 440.096C429.678 440.596 429.223 441.166 428.553 441.806L425.343 444.896H430.728ZM436.207 446.321C435.377 446.321 434.637 446.111 433.987 445.691C433.347 445.261 432.842 444.641 432.472 443.831C432.102 443.021 431.917 442.061 431.917 440.951C431.917 439.841 432.102 438.881 432.472 438.071C432.842 437.261 433.347 436.646 433.987 436.226C434.637 435.796 435.377 435.581 436.207 435.581C437.027 435.581 437.757 435.796 438.397 436.226C439.047 436.646 439.557 437.261 439.927 438.071C440.297 438.881 440.482 439.841 440.482 440.951C440.482 442.061 440.297 443.021 439.927 443.831C439.557 444.641 439.047 445.261 438.397 445.691C437.757 446.111 437.027 446.321 436.207 446.321ZM436.207 444.986C437.047 444.986 437.717 444.641 438.217 443.951C438.727 443.261 438.982 442.261 438.982 440.951C438.982 439.641 438.727 438.641 438.217 437.951C437.717 437.261 437.047 436.916 436.207 436.916C435.357 436.916 434.677 437.261 434.167 437.951C433.667 438.641 433.417 439.641 433.417 440.951C433.417 442.261 433.667 443.261 434.167 443.951C434.677 444.641 435.357 444.986 436.207 444.986ZM445.133 435.701V446.201H443.648V437.006H441.278V435.701H445.133ZM450.835 435.581C452.245 435.581 453.33 436.036 454.09 436.946C454.86 437.856 455.245 439.146 455.245 440.816C455.245 441.986 455.035 442.986 454.615 443.816C454.205 444.636 453.625 445.261 452.875 445.691C452.135 446.111 451.27 446.321 450.28 446.321C449.77 446.321 449.29 446.271 448.84 446.171C448.39 446.061 448 445.906 447.67 445.706L448.24 444.536C448.75 444.866 449.425 445.031 450.265 445.031C451.355 445.031 452.205 444.696 452.815 444.026C453.435 443.346 453.745 442.361 453.745 441.071V440.696C453.445 441.146 453.03 441.491 452.5 441.731C451.97 441.961 451.375 442.076 450.715 442.076C450.025 442.076 449.405 441.946 448.855 441.686C448.315 441.426 447.89 441.056 447.58 440.576C447.28 440.086 447.13 439.526 447.13 438.896C447.13 438.236 447.29 437.656 447.61 437.156C447.94 436.656 448.385 436.271 448.945 436.001C449.505 435.721 450.135 435.581 450.835 435.581ZM450.97 440.861C451.44 440.861 451.86 440.771 452.23 440.591C452.6 440.411 452.885 440.166 453.085 439.856C453.295 439.546 453.4 439.201 453.4 438.821C453.4 438.451 453.3 438.116 453.1 437.816C452.91 437.506 452.625 437.261 452.245 437.081C451.875 436.891 451.425 436.796 450.895 436.796C450.205 436.796 449.645 436.981 449.215 437.351C448.795 437.721 448.585 438.216 448.585 438.836C448.585 439.456 448.8 439.951 449.23 440.321C449.66 440.681 450.24 440.861 450.97 440.861Z" fill="#A8A8A8"/>
<path d="M109.687 447.322C108.857 447.322 108.117 447.112 107.467 446.692C106.827 446.262 106.322 445.642 105.952 444.832C105.582 444.022 105.397 443.062 105.397 441.952C105.397 440.842 105.582 439.882 105.952 439.072C106.322 438.262 106.827 437.647 107.467 437.227C108.117 436.797 108.857 436.582 109.687 436.582C110.507 436.582 111.237 436.797 111.877 437.227C112.527 437.647 113.037 438.262 113.407 439.072C113.777 439.882 113.962 440.842 113.962 441.952C113.962 443.062 113.777 444.022 113.407 444.832C113.037 445.642 112.527 446.262 111.877 446.692C111.237 447.112 110.507 447.322 109.687 447.322ZM109.687 445.987C110.527 445.987 111.197 445.642 111.697 444.952C112.207 444.262 112.462 443.262 112.462 441.952C112.462 440.642 112.207 439.642 111.697 438.952C111.197 438.262 110.527 437.917 109.687 437.917C108.837 437.917 108.157 438.262 107.647 438.952C107.147 439.642 106.897 440.642 106.897 441.952C106.897 443.262 107.147 444.262 107.647 444.952C108.157 445.642 108.837 445.987 109.687 445.987ZM117.682 442.342C116.952 442.342 116.362 442.077 115.912 441.547C115.462 441.017 115.237 440.327 115.237 439.477C115.237 438.627 115.462 437.937 115.912 437.407C116.362 436.877 116.952 436.612 117.682 436.612C118.412 436.612 118.997 436.877 119.437 437.407C119.887 437.927 120.112 438.617 120.112 439.477C120.112 440.337 119.887 441.032 119.437 441.562C118.997 442.082 118.412 442.342 117.682 442.342ZM124.012 436.702H125.167L117.997 447.202H116.842L124.012 436.702ZM117.682 441.487C118.142 441.487 118.502 441.312 118.762 440.962C119.022 440.602 119.152 440.107 119.152 439.477C119.152 438.847 119.022 438.357 118.762 438.007C118.502 437.647 118.142 437.467 117.682 437.467C117.232 437.467 116.872 437.647 116.602 438.007C116.342 438.367 116.212 438.857 116.212 439.477C116.212 440.097 116.342 440.587 116.602 440.947C116.872 441.307 117.232 441.487 117.682 441.487ZM124.327 447.292C123.597 447.292 123.007 447.032 122.557 446.512C122.117 445.982 121.897 445.287 121.897 444.427C121.897 443.567 122.117 442.877 122.557 442.357C123.007 441.827 123.597 441.562 124.327 441.562C125.057 441.562 125.647 441.827 126.097 442.357C126.547 442.887 126.772 443.577 126.772 444.427C126.772 445.277 126.547 445.967 126.097 446.497C125.647 447.027 125.057 447.292 124.327 447.292ZM124.327 446.437C124.777 446.437 125.132 446.257 125.392 445.897C125.662 445.537 125.797 445.047 125.797 444.427C125.797 443.807 125.662 443.317 125.392 442.957C125.132 442.597 124.777 442.417 124.327 442.417C123.867 442.417 123.507 442.597 123.247 442.957C122.987 443.307 122.857 443.797 122.857 444.427C122.857 445.057 122.987 445.552 123.247 445.912C123.507 446.262 123.867 446.437 124.327 446.437Z" fill="#7D7D7D"/>
<path d="M97.3734 227.702V238.202H95.8884V229.007H93.5184V227.702H97.3734ZM103.96 238.322C103.13 238.322 102.39 238.112 101.74 237.692C101.1 237.262 100.595 236.642 100.225 235.832C99.8552 235.022 99.6702 234.062 99.6702 232.952C99.6702 231.842 99.8552 230.882 100.225 230.072C100.595 229.262 101.1 228.647 101.74 228.227C102.39 227.797 103.13 227.582 103.96 227.582C104.78 227.582 105.51 227.797 106.15 228.227C106.8 228.647 107.31 229.262 107.68 230.072C108.05 230.882 108.235 231.842 108.235 232.952C108.235 234.062 108.05 235.022 107.68 235.832C107.31 236.642 106.8 237.262 106.15 237.692C105.51 238.112 104.78 238.322 103.96 238.322ZM103.96 236.987C104.8 236.987 105.47 236.642 105.97 235.952C106.48 235.262 106.735 234.262 106.735 232.952C106.735 231.642 106.48 230.642 105.97 229.952C105.47 229.262 104.8 228.917 103.96 228.917C103.11 228.917 102.43 229.262 101.92 229.952C101.42 230.642 101.17 231.642 101.17 232.952C101.17 234.262 101.42 235.262 101.92 235.952C102.43 236.642 103.11 236.987 103.96 236.987ZM113.965 238.322C113.135 238.322 112.395 238.112 111.745 237.692C111.105 237.262 110.6 236.642 110.23 235.832C109.86 235.022 109.675 234.062 109.675 232.952C109.675 231.842 109.86 230.882 110.23 230.072C110.6 229.262 111.105 228.647 111.745 228.227C112.395 227.797 113.135 227.582 113.965 227.582C114.785 227.582 115.515 227.797 116.155 228.227C116.805 228.647 117.315 229.262 117.685 230.072C118.055 230.882 118.24 231.842 118.24 232.952C118.24 234.062 118.055 235.022 117.685 235.832C117.315 236.642 116.805 237.262 116.155 237.692C115.515 238.112 114.785 238.322 113.965 238.322ZM113.965 236.987C114.805 236.987 115.475 236.642 115.975 235.952C116.485 235.262 116.74 234.262 116.74 232.952C116.74 231.642 116.485 230.642 115.975 229.952C115.475 229.262 114.805 228.917 113.965 228.917C113.115 228.917 112.435 229.262 111.925 229.952C111.425 230.642 111.175 231.642 111.175 232.952C111.175 234.262 111.425 235.262 111.925 235.952C112.435 236.642 113.115 236.987 113.965 236.987ZM121.96 233.342C121.23 233.342 120.64 233.077 120.19 232.547C119.74 232.017 119.515 231.327 119.515 230.477C119.515 229.627 119.74 228.937 120.19 228.407C120.64 227.877 121.23 227.612 121.96 227.612C122.69 227.612 123.275 227.877 123.715 228.407C124.165 228.927 124.39 229.617 124.39 230.477C124.39 231.337 124.165 232.032 123.715 232.562C123.275 233.082 122.69 233.342 121.96 233.342ZM128.29 227.702H129.445L122.275 238.202H121.12L128.29 227.702ZM121.96 232.487C122.42 232.487 122.78 232.312 123.04 231.962C123.3 231.602 123.43 231.107 123.43 230.477C123.43 229.847 123.3 229.357 123.04 229.007C122.78 228.647 122.42 228.467 121.96 228.467C121.51 228.467 121.15 228.647 120.88 229.007C120.62 229.367 120.49 229.857 120.49 230.477C120.49 231.097 120.62 231.587 120.88 231.947C121.15 232.307 121.51 232.487 121.96 232.487ZM128.605 238.292C127.875 238.292 127.285 238.032 126.835 237.512C126.395 236.982 126.175 236.287 126.175 235.427C126.175 234.567 126.395 233.877 126.835 233.357C127.285 232.827 127.875 232.562 128.605 232.562C129.335 232.562 129.925 232.827 130.375 233.357C130.825 233.887 131.05 234.577 131.05 235.427C131.05 236.277 130.825 236.967 130.375 237.497C129.925 238.027 129.335 238.292 128.605 238.292ZM128.605 237.437C129.055 237.437 129.41 237.257 129.67 236.897C129.94 236.537 130.075 236.047 130.075 235.427C130.075 234.807 129.94 234.317 129.67 233.957C129.41 233.597 129.055 233.417 128.605 233.417C128.145 233.417 127.785 233.597 127.525 233.957C127.265 234.307 127.135 234.797 127.135 235.427C127.135 236.057 127.265 236.552 127.525 236.912C127.785 237.262 128.145 237.437 128.605 237.437Z" fill="#7D7D7D"/>
<rect x="112" y="426.202" width="176" height="4" transform="rotate(-90 112 426.202)" fill="#0C0B3C"/>
<path d="M242.774 129.922C243.574 130.175 244.201 130.602 244.654 131.202C245.107 131.788 245.334 132.515 245.334 133.382C245.334 134.608 244.854 135.555 243.894 136.222C242.947 136.875 241.561 137.202 239.734 137.202H232.494V123.202H239.334C241.041 123.202 242.347 123.528 243.254 124.182C244.174 124.835 244.634 125.722 244.634 126.842C244.634 127.522 244.467 128.128 244.134 128.662C243.814 129.195 243.361 129.615 242.774 129.922ZM235.714 125.642V128.942H238.934C239.734 128.942 240.341 128.802 240.754 128.522C241.167 128.242 241.374 127.828 241.374 127.282C241.374 126.735 241.167 126.328 240.754 126.062C240.341 125.782 239.734 125.642 238.934 125.642H235.714ZM239.494 134.762C240.347 134.762 240.987 134.622 241.414 134.342C241.854 134.062 242.074 133.628 242.074 133.042C242.074 131.882 241.214 131.302 239.494 131.302H235.714V134.762H239.494ZM247.567 126.442H250.687V137.202H247.567V126.442ZM249.127 124.942C248.554 124.942 248.087 124.775 247.727 124.442C247.367 124.108 247.187 123.695 247.187 123.202C247.187 122.708 247.367 122.295 247.727 121.962C248.087 121.628 248.554 121.462 249.127 121.462C249.7 121.462 250.167 121.622 250.527 121.942C250.887 122.262 251.067 122.662 251.067 123.142C251.067 123.662 250.887 124.095 250.527 124.442C250.167 124.775 249.7 124.942 249.127 124.942ZM253.583 122.362H256.703V137.202H253.583V122.362ZM263.938 126.282C265.605 126.282 266.885 126.682 267.778 127.482C268.672 128.268 269.118 129.462 269.118 131.062V137.202H266.198V135.862C265.612 136.862 264.518 137.362 262.918 137.362C262.092 137.362 261.372 137.222 260.758 136.942C260.158 136.662 259.698 136.275 259.378 135.782C259.058 135.288 258.898 134.728 258.898 134.102C258.898 133.102 259.272 132.315 260.018 131.742C260.778 131.168 261.945 130.882 263.518 130.882H265.998C265.998 130.202 265.792 129.682 265.378 129.322C264.965 128.948 264.345 128.762 263.518 128.762C262.945 128.762 262.378 128.855 261.818 129.042C261.272 129.215 260.805 129.455 260.418 129.762L259.298 127.582C259.885 127.168 260.585 126.848 261.398 126.622C262.225 126.395 263.072 126.282 263.938 126.282ZM263.698 135.262C264.232 135.262 264.705 135.142 265.118 134.902C265.532 134.648 265.825 134.282 265.998 133.802V132.702H263.858C262.578 132.702 261.938 133.122 261.938 133.962C261.938 134.362 262.092 134.682 262.398 134.922C262.718 135.148 263.152 135.262 263.698 135.262ZM278.482 126.282C279.815 126.282 280.889 126.682 281.702 127.482C282.529 128.282 282.942 129.468 282.942 131.042V137.202H279.822V131.522C279.822 130.668 279.635 130.035 279.262 129.622C278.889 129.195 278.349 128.982 277.642 128.982C276.855 128.982 276.229 129.228 275.762 129.722C275.295 130.202 275.062 130.922 275.062 131.882V137.202H271.942V126.442H274.922V127.702C275.335 127.248 275.849 126.902 276.462 126.662C277.075 126.408 277.749 126.282 278.482 126.282ZM296.634 137.362C295.487 137.362 294.454 137.128 293.534 136.662C292.627 136.182 291.914 135.522 291.394 134.682C290.887 133.842 290.634 132.888 290.634 131.822C290.634 130.755 290.887 129.802 291.394 128.962C291.914 128.122 292.627 127.468 293.534 127.002C294.454 126.522 295.487 126.282 296.634 126.282C297.767 126.282 298.754 126.522 299.594 127.002C300.447 127.468 301.067 128.142 301.454 129.022L299.034 130.322C298.474 129.335 297.667 128.842 296.614 128.842C295.801 128.842 295.127 129.108 294.594 129.642C294.061 130.175 293.794 130.902 293.794 131.822C293.794 132.742 294.061 133.468 294.594 134.002C295.127 134.535 295.801 134.802 296.614 134.802C297.681 134.802 298.487 134.308 299.034 133.322L301.454 134.642C301.067 135.495 300.447 136.162 299.594 136.642C298.754 137.122 297.767 137.362 296.634 137.362ZM307.591 126.282C309.257 126.282 310.537 126.682 311.431 127.482C312.324 128.268 312.771 129.462 312.771 131.062V137.202H309.851V135.862C309.264 136.862 308.171 137.362 306.571 137.362C305.744 137.362 305.024 137.222 304.411 136.942C303.811 136.662 303.351 136.275 303.031 135.782C302.711 135.288 302.551 134.728 302.551 134.102C302.551 133.102 302.924 132.315 303.671 131.742C304.431 131.168 305.597 130.882 307.171 130.882H309.651C309.651 130.202 309.444 129.682 309.031 129.322C308.617 128.948 307.997 128.762 307.171 128.762C306.597 128.762 306.031 128.855 305.471 129.042C304.924 129.215 304.457 129.455 304.071 129.762L302.951 127.582C303.537 127.168 304.237 126.848 305.051 126.622C305.877 126.395 306.724 126.282 307.591 126.282ZM307.351 135.262C307.884 135.262 308.357 135.142 308.771 134.902C309.184 134.648 309.477 134.282 309.651 133.802V132.702H307.511C306.231 132.702 305.591 133.122 305.591 133.962C305.591 134.362 305.744 134.682 306.051 134.922C306.371 135.148 306.804 135.262 307.351 135.262ZM318.574 127.862C318.948 127.342 319.448 126.948 320.074 126.682C320.714 126.415 321.448 126.282 322.274 126.282V129.162C321.928 129.135 321.694 129.122 321.574 129.122C320.681 129.122 319.981 129.375 319.474 129.882C318.968 130.375 318.714 131.122 318.714 132.122V137.202H315.594V126.442H318.574V127.862ZM330.489 126.282C331.489 126.282 332.396 126.515 333.209 126.982C334.036 127.435 334.683 128.082 335.149 128.922C335.616 129.748 335.849 130.715 335.849 131.822C335.849 132.928 335.616 133.902 335.149 134.742C334.683 135.568 334.036 136.215 333.209 136.682C332.396 137.135 331.489 137.362 330.489 137.362C329.009 137.362 327.883 136.895 327.109 135.962V137.202H324.129V122.362H327.249V127.582C328.036 126.715 329.116 126.282 330.489 126.282ZM329.949 134.802C330.749 134.802 331.403 134.535 331.909 134.002C332.429 133.455 332.689 132.728 332.689 131.822C332.689 130.915 332.429 130.195 331.909 129.662C331.403 129.115 330.749 128.842 329.949 128.842C329.149 128.842 328.489 129.115 327.969 129.662C327.463 130.195 327.209 130.915 327.209 131.822C327.209 132.728 327.463 133.455 327.969 134.002C328.489 134.535 329.149 134.802 329.949 134.802ZM343.058 137.362C341.925 137.362 340.905 137.128 339.998 136.662C339.105 136.182 338.405 135.522 337.898 134.682C337.391 133.842 337.138 132.888 337.138 131.822C337.138 130.755 337.391 129.802 337.898 128.962C338.405 128.122 339.105 127.468 339.998 127.002C340.905 126.522 341.925 126.282 343.058 126.282C344.191 126.282 345.205 126.522 346.098 127.002C346.991 127.468 347.691 128.122 348.198 128.962C348.705 129.802 348.958 130.755 348.958 131.822C348.958 132.888 348.705 133.842 348.198 134.682C347.691 135.522 346.991 136.182 346.098 136.662C345.205 137.128 344.191 137.362 343.058 137.362ZM343.058 134.802C343.858 134.802 344.511 134.535 345.018 134.002C345.538 133.455 345.798 132.728 345.798 131.822C345.798 130.915 345.538 130.195 345.018 129.662C344.511 129.115 343.858 128.842 343.058 128.842C342.258 128.842 341.598 129.115 341.078 129.662C340.558 130.195 340.298 130.915 340.298 131.822C340.298 132.728 340.558 133.455 341.078 134.002C341.598 134.535 342.258 134.802 343.058 134.802ZM357.584 126.282C358.917 126.282 359.99 126.682 360.804 127.482C361.63 128.282 362.044 129.468 362.044 131.042V137.202H358.924V131.522C358.924 130.668 358.737 130.035 358.364 129.622C357.99 129.195 357.45 128.982 356.744 128.982C355.957 128.982 355.33 129.228 354.864 129.722C354.397 130.202 354.164 130.922 354.164 131.882V137.202H351.044V126.442H354.024V127.702C354.437 127.248 354.95 126.902 355.564 126.662C356.177 126.408 356.85 126.282 357.584 126.282ZM375.529 131.862C375.529 131.902 375.509 132.182 375.469 132.702H367.329C367.475 133.368 367.822 133.895 368.369 134.282C368.915 134.668 369.595 134.862 370.409 134.862C370.969 134.862 371.462 134.782 371.889 134.622C372.329 134.448 372.735 134.182 373.109 133.822L374.769 135.622C373.755 136.782 372.275 137.362 370.329 137.362C369.115 137.362 368.042 137.128 367.109 136.662C366.175 136.182 365.455 135.522 364.949 134.682C364.442 133.842 364.189 132.888 364.189 131.822C364.189 130.768 364.435 129.822 364.929 128.982C365.435 128.128 366.122 127.468 366.989 127.002C367.869 126.522 368.849 126.282 369.929 126.282C370.982 126.282 371.935 126.508 372.789 126.962C373.642 127.415 374.309 128.068 374.789 128.922C375.282 129.762 375.529 130.742 375.529 131.862ZM369.949 128.642C369.242 128.642 368.649 128.842 368.169 129.242C367.689 129.642 367.395 130.188 367.289 130.882H372.589C372.482 130.202 372.189 129.662 371.709 129.262C371.229 128.848 370.642 128.642 369.949 128.642ZM231.359 144.362V159.202H228.379V157.962C227.606 158.895 226.486 159.362 225.019 159.362C224.006 159.362 223.086 159.135 222.259 158.682C221.446 158.228 220.806 157.582 220.339 156.742C219.872 155.902 219.639 154.928 219.639 153.822C219.639 152.715 219.872 151.742 220.339 150.902C220.806 150.062 221.446 149.415 222.259 148.962C223.086 148.508 224.006 148.282 225.019 148.282C226.392 148.282 227.466 148.715 228.239 149.582V144.362H231.359ZM225.559 156.802C226.346 156.802 226.999 156.535 227.519 156.002C228.039 155.455 228.299 154.728 228.299 153.822C228.299 152.915 228.039 152.195 227.519 151.662C226.999 151.115 226.346 150.842 225.559 150.842C224.759 150.842 224.099 151.115 223.579 151.662C223.059 152.195 222.799 152.915 222.799 153.822C222.799 154.728 223.059 155.455 223.579 156.002C224.099 156.535 224.759 156.802 225.559 156.802ZM244.787 153.862C244.787 153.902 244.767 154.182 244.727 154.702H236.587C236.733 155.368 237.08 155.895 237.627 156.282C238.173 156.668 238.853 156.862 239.667 156.862C240.227 156.862 240.72 156.782 241.147 156.622C241.587 156.448 241.993 156.182 242.367 155.822L244.027 157.622C243.013 158.782 241.533 159.362 239.587 159.362C238.373 159.362 237.3 159.128 236.367 158.662C235.433 158.182 234.713 157.522 234.207 156.682C233.7 155.842 233.447 154.888 233.447 153.822C233.447 152.768 233.693 151.822 234.187 150.982C234.693 150.128 235.38 149.468 236.247 149.002C237.127 148.522 238.107 148.282 239.187 148.282C240.24 148.282 241.193 148.508 242.047 148.962C242.9 149.415 243.567 150.068 244.047 150.922C244.54 151.762 244.787 152.742 244.787 153.862ZM239.207 150.642C238.5 150.642 237.907 150.842 237.427 151.242C236.947 151.642 236.653 152.188 236.547 152.882H241.847C241.74 152.202 241.447 151.662 240.967 151.262C240.487 150.848 239.9 150.642 239.207 150.642ZM252.528 144.362H255.648V159.202H252.528V144.362ZM262.884 148.282C264.55 148.282 265.83 148.682 266.724 149.482C267.617 150.268 268.064 151.462 268.064 153.062V159.202H265.144V157.862C264.557 158.862 263.464 159.362 261.864 159.362C261.037 159.362 260.317 159.222 259.704 158.942C259.104 158.662 258.644 158.275 258.324 157.782C258.004 157.288 257.844 156.728 257.844 156.102C257.844 155.102 258.217 154.315 258.964 153.742C259.724 153.168 260.89 152.882 262.464 152.882H264.944C264.944 152.202 264.737 151.682 264.324 151.322C263.91 150.948 263.29 150.762 262.464 150.762C261.89 150.762 261.324 150.855 260.764 151.042C260.217 151.215 259.75 151.455 259.364 151.762L258.244 149.582C258.83 149.168 259.53 148.848 260.344 148.622C261.17 148.395 262.017 148.282 262.884 148.282ZM262.644 157.262C263.177 157.262 263.65 157.142 264.064 156.902C264.477 156.648 264.77 156.282 264.944 155.802V154.702H262.804C261.524 154.702 260.884 155.122 260.884 155.962C260.884 156.362 261.037 156.682 261.344 156.922C261.664 157.148 262.097 157.262 262.644 157.262ZM283.491 158.682C283.185 158.908 282.805 159.082 282.351 159.202C281.911 159.308 281.445 159.362 280.951 159.362C279.671 159.362 278.678 159.035 277.971 158.382C277.278 157.728 276.931 156.768 276.931 155.502V151.082H275.271V148.682H276.931V146.062H280.051V148.682H282.731V151.082H280.051V155.462C280.051 155.915 280.165 156.268 280.391 156.522C280.631 156.762 280.965 156.882 281.391 156.882C281.885 156.882 282.305 156.748 282.651 156.482L283.491 158.682ZM295.451 153.862C295.451 153.902 295.431 154.182 295.391 154.702H287.251C287.397 155.368 287.744 155.895 288.291 156.282C288.837 156.668 289.517 156.862 290.331 156.862C290.891 156.862 291.384 156.782 291.811 156.622C292.251 156.448 292.657 156.182 293.031 155.822L294.691 157.622C293.677 158.782 292.197 159.362 290.251 159.362C289.037 159.362 287.964 159.128 287.031 158.662C286.097 158.182 285.377 157.522 284.871 156.682C284.364 155.842 284.111 154.888 284.111 153.822C284.111 152.768 284.357 151.822 284.851 150.982C285.357 150.128 286.044 149.468 286.911 149.002C287.791 148.522 288.771 148.282 289.851 148.282C290.904 148.282 291.857 148.508 292.711 148.962C293.564 149.415 294.231 150.068 294.711 150.922C295.204 151.762 295.451 152.742 295.451 153.862ZM289.871 150.642C289.164 150.642 288.571 150.842 288.091 151.242C287.611 151.642 287.317 152.188 287.211 152.882H292.511C292.404 152.202 292.111 151.662 291.631 151.262C291.151 150.848 290.564 150.642 289.871 150.642ZM290.671 144.182H294.031L290.411 147.062H287.971L290.671 144.182ZM297.528 144.362H300.648V159.202H297.528V144.362ZM314.084 153.862C314.084 153.902 314.064 154.182 314.024 154.702H305.884C306.03 155.368 306.377 155.895 306.924 156.282C307.47 156.668 308.15 156.862 308.964 156.862C309.524 156.862 310.017 156.782 310.444 156.622C310.884 156.448 311.29 156.182 311.664 155.822L313.324 157.622C312.31 158.782 310.83 159.362 308.884 159.362C307.67 159.362 306.597 159.128 305.664 158.662C304.73 158.182 304.01 157.522 303.504 156.682C302.997 155.842 302.744 154.888 302.744 153.822C302.744 152.768 302.99 151.822 303.484 150.982C303.99 150.128 304.677 149.468 305.544 149.002C306.424 148.522 307.404 148.282 308.484 148.282C309.537 148.282 310.49 148.508 311.344 148.962C312.197 149.415 312.864 150.068 313.344 150.922C313.837 151.762 314.084 152.742 314.084 153.862ZM308.504 150.642C307.797 150.642 307.204 150.842 306.724 151.242C306.244 151.642 305.95 152.188 305.844 152.882H311.144C311.037 152.202 310.744 151.662 310.264 151.262C309.784 150.848 309.197 150.642 308.504 150.642ZM309.304 144.182H312.664L309.044 147.062H306.604L309.304 144.182ZM322.521 148.282C323.521 148.282 324.427 148.515 325.241 148.982C326.067 149.435 326.714 150.082 327.181 150.922C327.647 151.748 327.881 152.715 327.881 153.822C327.881 154.928 327.647 155.902 327.181 156.742C326.714 157.568 326.067 158.215 325.241 158.682C324.427 159.135 323.521 159.362 322.521 159.362C321.147 159.362 320.067 158.928 319.281 158.062V163.082H316.161V148.442H319.141V149.682C319.914 148.748 321.041 148.282 322.521 148.282ZM321.981 156.802C322.781 156.802 323.434 156.535 323.941 156.002C324.461 155.455 324.721 154.728 324.721 153.822C324.721 152.915 324.461 152.195 323.941 151.662C323.434 151.115 322.781 150.842 321.981 150.842C321.181 150.842 320.521 151.115 320.001 151.662C319.494 152.195 319.241 152.915 319.241 153.822C319.241 154.728 319.494 155.455 320.001 156.002C320.521 156.535 321.181 156.802 321.981 156.802ZM336.509 148.282C337.843 148.282 338.916 148.682 339.729 149.482C340.556 150.282 340.969 151.468 340.969 153.042V159.202H337.849V153.522C337.849 152.668 337.663 152.035 337.289 151.622C336.916 151.195 336.376 150.982 335.669 150.982C334.883 150.982 334.256 151.228 333.789 151.722C333.323 152.202 333.089 152.922 333.089 153.882V159.202H329.969V144.362H333.089V149.562C333.503 149.148 334.003 148.835 334.589 148.622C335.176 148.395 335.816 148.282 336.509 148.282ZM349.035 159.362C347.901 159.362 346.881 159.128 345.975 158.662C345.081 158.182 344.381 157.522 343.875 156.682C343.368 155.842 343.115 154.888 343.115 153.822C343.115 152.755 343.368 151.802 343.875 150.962C344.381 150.122 345.081 149.468 345.975 149.002C346.881 148.522 347.901 148.282 349.035 148.282C350.168 148.282 351.181 148.522 352.075 149.002C352.968 149.468 353.668 150.122 354.175 150.962C354.681 151.802 354.935 152.755 354.935 153.822C354.935 154.888 354.681 155.842 354.175 156.682C353.668 157.522 352.968 158.182 352.075 158.662C351.181 159.128 350.168 159.362 349.035 159.362ZM349.035 156.802C349.835 156.802 350.488 156.535 350.995 156.002C351.515 155.455 351.775 154.728 351.775 153.822C351.775 152.915 351.515 152.195 350.995 151.662C350.488 151.115 349.835 150.842 349.035 150.842C348.235 150.842 347.575 151.115 347.055 151.662C346.535 152.195 346.275 152.915 346.275 153.822C346.275 154.728 346.535 155.455 347.055 156.002C347.575 156.535 348.235 156.802 349.035 156.802ZM363.56 148.282C364.893 148.282 365.967 148.682 366.78 149.482C367.607 150.282 368.02 151.468 368.02 153.042V159.202H364.9V153.522C364.9 152.668 364.713 152.035 364.34 151.622C363.967 151.195 363.427 150.982 362.72 150.982C361.933 150.982 361.307 151.228 360.84 151.722C360.373 152.202 360.14 152.922 360.14 153.882V159.202H357.02V148.442H360V149.702C360.413 149.248 360.927 148.902 361.54 148.662C362.153 148.408 362.827 148.282 363.56 148.282ZM370.848 148.442H373.968V159.202H370.848V148.442ZM372.408 146.942C371.835 146.942 371.368 146.775 371.008 146.442C370.648 146.108 370.468 145.695 370.468 145.202C370.468 144.708 370.648 144.295 371.008 143.962C371.368 143.628 371.835 143.462 372.408 143.462C372.982 143.462 373.448 143.622 373.808 143.942C374.168 144.262 374.348 144.662 374.348 145.142C374.348 145.662 374.168 146.095 373.808 146.442C373.448 146.775 372.982 146.942 372.408 146.942ZM387.404 153.862C387.404 153.902 387.384 154.182 387.344 154.702H379.204C379.35 155.368 379.697 155.895 380.244 156.282C380.79 156.668 381.47 156.862 382.284 156.862C382.844 156.862 383.337 156.782 383.764 156.622C384.204 156.448 384.61 156.182 384.984 155.822L386.644 157.622C385.63 158.782 384.15 159.362 382.204 159.362C380.99 159.362 379.917 159.128 378.984 158.662C378.05 158.182 377.33 157.522 376.824 156.682C376.317 155.842 376.064 154.888 376.064 153.822C376.064 152.768 376.31 151.822 376.804 150.982C377.31 150.128 377.997 149.468 378.864 149.002C379.744 148.522 380.724 148.282 381.804 148.282C382.857 148.282 383.81 148.508 384.664 148.962C385.517 149.415 386.184 150.068 386.664 150.922C387.157 151.762 387.404 152.742 387.404 153.862ZM381.824 150.642C381.117 150.642 380.524 150.842 380.044 151.242C379.564 151.642 379.27 152.188 379.164 152.882H384.464C384.357 152.202 384.064 151.662 383.584 151.262C383.104 150.848 382.517 150.642 381.824 150.642Z" fill="#0C0B3C"/>
</svg>
