<svg width="594" height="623" viewBox="0 0 594 623" fill="none" xmlns="http://www.w3.org/2000/svg">
<rect x="1" y="296.457" width="593" height="27.5265" fill="white"/>
<path d="M1.97829 305.639C1.43114 137.903 133.225 1.49545 296.348 0.963338C459.471 0.43123 592.152 135.977 592.699 303.712C592.699 303.712 445.51 304.193 282.387 304.725C119.264 305.257 1.97829 305.639 1.97829 305.639Z" fill="white"/>
<path d="M3.33365 305.135L2.47702 305.137C2.19393 137.894 133.678 1.99397 296.35 1.46334C459.021 0.9327 591.389 135.972 592.197 303.214L591.005 303.218L586.054 303.234L567.15 303.296L498.713 303.519L282.385 304.225L81.0098 304.881L22.8513 305.071L7.33485 305.122L3.33365 305.135Z" stroke="#7A7A7A" stroke-opacity="0.7"/>
<path d="M593.093 317.251C593.594 484.987 461.762 621.358 298.639 621.845C135.516 622.331 2.87257 486.749 2.37207 319.013C2.37207 319.013 149.561 318.574 312.685 318.087C475.808 317.601 593.093 317.251 593.093 317.251Z" fill="white"/>
<path d="M591.738 317.755L592.595 317.752C592.831 484.996 461.309 620.859 298.638 621.345C135.966 621.83 3.63545 486.754 2.87395 319.512L4.06639 319.508L9.01671 319.494L27.9207 319.437L96.3586 319.233L312.686 318.587L514.062 317.986L572.22 317.813L587.737 317.767L591.738 317.755Z" stroke="#7A7A7A" stroke-opacity="0.7"/>
<path d="M302.212 97.0024H288.143L284.52 83.0995C283.046 77.4527 286.624 71.7279 292.512 70.314C293.384 70.1045 294.281 70 295.178 70C301.245 70 306.163 74.7188 306.163 80.5411C306.163 81.4051 306.054 82.2624 305.835 83.0995L302.212 97.0024Z" fill="#F2CC44"/>
<path d="M315.776 277.018H273.888L287.85 264.16H301.813L315.776 277.018Z" fill="#F2CC44"/>
<path d="M343.93 303.378H245.733C245.733 288.82 252.014 277.018 259.762 277.018H329.902C337.649 277.018 343.93 288.82 343.93 303.378Z" fill="#F2CC44"/>
<path d="M301.355 97.0024H287.621V264.16H301.355V97.0024Z" fill="#0C0B3C"/>
<path d="M294.543 70C293.357 70.0168 292.182 70.1993 291.055 70.5402C296.901 72.201 300.311 77.7057 298.835 83.0997L295.008 97.0024H301.981L305.811 83.0997C307.37 77.453 303.587 71.7283 297.362 70.3144C296.443 70.108 295.495 70 294.543 70Z" fill="#F2CC44"/>
<path d="M312.342 115.004H278.008V121.433H312.342V115.004Z" fill="#F2CC44"/>
<path d="M329.739 277.018H301.355C309.193 277.018 315.547 288.82 315.547 303.378H343.93C343.93 288.82 337.576 277.018 329.739 277.018Z" fill="#F2CC44"/>
<path d="M434.187 164.889C432.693 164.687 431.266 164.301 430.083 163.775C417.186 158.048 401.63 153.823 385.392 151.631L213.387 128.373C197.134 126.169 180.93 126.099 166.813 128.176C164.458 128.514 161.578 128.204 159.236 127.361L130.059 116.756L137.706 111.829L163.236 121.102C178.998 119.193 196.691 119.451 214.393 121.848L386.398 145.106C404.124 147.497 421.187 151.939 435.743 157.949L462.995 155.813L468.84 162.565L437.65 165.008C436.559 165.093 435.371 165.052 434.187 164.889Z" fill="#0C0B3C"/>
<path d="M207.797 217.666L166.021 132.325L124.245 217.666C123.252 219.695 120.687 220.585 118.519 219.655C116.351 218.725 115.401 216.324 116.394 214.294L162.095 120.936C163.088 118.907 165.653 118.017 167.821 118.947C168.762 119.351 169.514 120.055 169.946 120.936L215.647 214.294C216.64 216.324 215.691 218.725 213.522 219.655C211.355 220.589 208.794 219.695 207.797 217.666Z" fill="#F0E4D6"/>
<path d="M118.625 220.04H212.701C212.701 233.179 201.216 243.828 187.044 243.828H144.282C130.115 243.827 118.625 233.178 118.625 220.04Z" fill="#F2CC44"/>
<path d="M189.355 220.04C189.355 233.179 177.674 243.828 163.261 243.828H189.355C203.768 243.828 215.449 233.179 215.449 220.04H189.355Z" fill="#F2CC44"/>
<path d="M479.797 247.039L438.021 161.698L396.245 247.039C395.252 249.068 392.687 249.958 390.519 249.028C388.351 248.098 387.401 245.697 388.394 243.667L434.095 150.309C435.088 148.28 437.653 147.39 439.821 148.321C440.762 148.725 441.514 149.428 441.946 150.309L487.647 243.667C488.64 245.697 487.691 248.098 485.522 249.028C483.355 249.962 480.794 249.068 479.797 247.039Z" fill="#F0E4D6"/>
<path d="M390.625 249.413H484.701C484.701 262.552 473.216 273.201 459.044 273.201H416.282C402.115 273.201 390.625 262.552 390.625 249.413Z" fill="#F2CC44"/>
<path d="M461.354 249.413C461.354 262.552 449.673 273.201 435.26 273.201H461.354C475.767 273.201 487.448 262.552 487.448 249.413H461.354Z" fill="#F2CC44"/>
<path d="M281.062 294.02V296H271.774V294.434L276.778 289.682C277.342 289.142 277.72 288.674 277.912 288.278C278.116 287.87 278.218 287.468 278.218 287.072C278.218 286.484 278.02 286.034 277.624 285.722C277.228 285.41 276.646 285.254 275.878 285.254C274.594 285.254 273.61 285.692 272.926 286.568L271.288 285.308C271.78 284.648 272.44 284.138 273.268 283.778C274.108 283.406 275.044 283.22 276.076 283.22C277.444 283.22 278.536 283.544 279.352 284.192C280.168 284.84 280.576 285.722 280.576 286.838C280.576 287.522 280.432 288.164 280.144 288.764C279.856 289.364 279.304 290.048 278.488 290.816L275.122 294.02H281.062ZM287.615 296.18C286.607 296.18 285.707 295.928 284.915 295.424C284.123 294.908 283.499 294.164 283.043 293.192C282.587 292.208 282.359 291.044 282.359 289.7C282.359 288.356 282.587 287.198 283.043 286.226C283.499 285.242 284.123 284.498 284.915 283.994C285.707 283.478 286.607 283.22 287.615 283.22C288.623 283.22 289.523 283.478 290.315 283.994C291.119 284.498 291.749 285.242 292.205 286.226C292.661 287.198 292.889 288.356 292.889 289.7C292.889 291.044 292.661 292.208 292.205 293.192C291.749 294.164 291.119 294.908 290.315 295.424C289.523 295.928 288.623 296.18 287.615 296.18ZM287.615 294.146C288.515 294.146 289.223 293.774 289.739 293.03C290.267 292.286 290.531 291.176 290.531 289.7C290.531 288.224 290.267 287.114 289.739 286.37C289.223 285.626 288.515 285.254 287.615 285.254C286.727 285.254 286.019 285.626 285.491 286.37C284.975 287.114 284.717 288.224 284.717 289.7C284.717 291.176 284.975 292.286 285.491 293.03C286.019 293.774 286.727 294.146 287.615 294.146ZM298.739 283.4V296H296.399V285.362H293.735V283.4H298.739ZM306.962 288.224C307.79 288.224 308.534 288.386 309.194 288.71C309.854 289.022 310.37 289.472 310.742 290.06C311.114 290.648 311.3 291.326 311.3 292.094C311.3 292.91 311.096 293.63 310.688 294.254C310.28 294.866 309.728 295.34 309.032 295.676C308.336 296.012 307.556 296.18 306.692 296.18C304.964 296.18 303.62 295.64 302.66 294.56C301.712 293.48 301.238 291.932 301.238 289.916C301.238 288.5 301.496 287.294 302.012 286.298C302.528 285.29 303.248 284.528 304.172 284.012C305.108 283.484 306.188 283.22 307.412 283.22C308.06 283.22 308.666 283.292 309.23 283.436C309.806 283.568 310.304 283.766 310.724 284.03L309.86 285.794C309.236 285.386 308.438 285.182 307.466 285.182C306.254 285.182 305.306 285.554 304.622 286.298C303.938 287.042 303.596 288.116 303.596 289.52V289.538C303.968 289.106 304.442 288.782 305.018 288.566C305.594 288.338 306.242 288.224 306.962 288.224ZM306.566 294.344C307.298 294.344 307.892 294.152 308.348 293.768C308.804 293.372 309.032 292.85 309.032 292.202C309.032 291.542 308.804 291.02 308.348 290.636C307.892 290.252 307.28 290.06 306.512 290.06C305.756 290.06 305.138 290.264 304.658 290.672C304.19 291.08 303.956 291.596 303.956 292.22C303.956 292.832 304.184 293.342 304.64 293.75C305.108 294.146 305.75 294.344 306.566 294.344Z" fill="white"/>
<path d="M162.818 233.027H161.33V234.935H159.818V233.027H155.21V231.947L159.35 226.535H161.018L157.118 231.707H159.866V230.015H161.33V231.707H162.818V233.027ZM166.934 230.003C167.71 230.099 168.302 230.363 168.71 230.795C169.118 231.227 169.322 231.767 169.322 232.415C169.322 232.903 169.198 233.347 168.95 233.747C168.702 234.147 168.326 234.467 167.822 234.707C167.326 234.939 166.718 235.055 165.998 235.055C165.398 235.055 164.818 234.971 164.258 234.803C163.706 234.627 163.234 234.387 162.842 234.083L163.514 232.871C163.818 233.127 164.186 233.331 164.618 233.483C165.058 233.627 165.51 233.699 165.974 233.699C166.526 233.699 166.958 233.587 167.27 233.363C167.59 233.131 167.75 232.819 167.75 232.427C167.75 232.035 167.598 231.731 167.294 231.515C166.998 231.291 166.542 231.179 165.926 231.179H165.158V230.111L167.066 227.843H163.25V226.535H168.974V227.579L166.934 230.003ZM172.097 231.059C171.497 231.059 171.013 230.847 170.645 230.423C170.277 229.999 170.093 229.443 170.093 228.755C170.093 228.067 170.277 227.511 170.645 227.087C171.013 226.663 171.497 226.451 172.097 226.451C172.697 226.451 173.181 226.663 173.549 227.087C173.925 227.503 174.113 228.059 174.113 228.755C174.113 229.451 173.925 230.011 173.549 230.435C173.181 230.851 172.697 231.059 172.097 231.059ZM177.137 226.535H178.313L172.577 234.935H171.401L177.137 226.535ZM172.097 230.219C172.425 230.219 172.677 230.091 172.853 229.835C173.037 229.579 173.129 229.219 173.129 228.755C173.129 228.291 173.037 227.931 172.853 227.675C172.677 227.419 172.425 227.291 172.097 227.291C171.785 227.291 171.533 227.423 171.341 227.687C171.157 227.943 171.065 228.299 171.065 228.755C171.065 229.211 171.157 229.571 171.341 229.835C171.533 230.091 171.785 230.219 172.097 230.219ZM177.605 235.019C177.005 235.019 176.521 234.807 176.153 234.383C175.785 233.959 175.601 233.403 175.601 232.715C175.601 232.027 175.785 231.471 176.153 231.047C176.521 230.623 177.005 230.411 177.605 230.411C178.205 230.411 178.689 230.623 179.057 231.047C179.433 231.471 179.621 232.027 179.621 232.715C179.621 233.403 179.433 233.959 179.057 234.383C178.689 234.807 178.205 235.019 177.605 235.019ZM177.605 234.179C177.925 234.179 178.177 234.051 178.361 233.795C178.545 233.531 178.637 233.171 178.637 232.715C178.637 232.259 178.545 231.903 178.361 231.647C178.177 231.383 177.925 231.251 177.605 231.251C177.285 231.251 177.033 231.379 176.849 231.635C176.665 231.891 176.573 232.251 176.573 232.715C176.573 233.179 176.665 233.539 176.849 233.795C177.033 234.051 177.285 234.179 177.605 234.179Z" fill="#0C0B3C"/>
<g clip-path="url(#clip0)">
<path d="M160.655 176.806C162.714 176.806 164.383 175.138 164.383 173.079C164.383 171.02 162.714 169.352 160.655 169.352C158.597 169.352 156.928 171.02 156.928 173.079C156.928 175.138 158.597 176.806 160.655 176.806Z" fill="#0C0B3C"/>
<path d="M169.749 182.23C169.737 179.895 167.828 177.995 165.493 177.995H163.688C161.918 182.585 162.564 180.911 161.454 183.788L161.922 181.434C161.956 181.261 161.928 181.081 161.843 180.926L161.111 179.594L161.761 178.412C161.806 178.33 161.804 178.23 161.757 178.15C161.709 178.069 161.622 178.02 161.529 178.02H159.747C159.653 178.02 159.567 178.069 159.519 178.15C159.471 178.23 159.47 178.33 159.515 178.412L160.164 179.592L159.433 180.922C159.346 181.079 159.319 181.263 159.356 181.439L159.896 183.788C159.586 182.986 157.804 178.555 157.588 177.995H155.818C153.483 177.995 151.574 179.895 151.562 182.23C151.552 184.172 151.561 182.546 151.545 185.593L147.903 183.332C147.059 182.808 145.95 183.067 145.426 183.911C144.902 184.755 145.161 185.864 146.005 186.388L152.379 190.345C153.573 191.086 155.119 190.229 155.126 188.826C155.13 188.122 155.155 183.088 155.159 182.248C155.161 182.041 155.329 181.873 155.537 181.874C155.744 181.875 155.912 182.043 155.912 182.251C155.91 190.917 155.873 193.34 155.873 212.482C155.873 213.674 156.839 214.641 158.031 214.641C159.223 214.641 160.189 213.674 160.189 212.482V195.231H161.121V212.482C161.121 213.674 162.087 214.641 163.279 214.641C164.471 214.641 165.438 213.674 165.438 212.482L165.438 182.25C165.438 182.054 165.598 181.894 165.794 181.893C165.991 181.893 166.151 182.052 166.152 182.248L166.218 195.461C166.223 196.452 167.028 197.251 168.017 197.251C168.02 197.251 168.023 197.251 168.026 197.251C169.019 197.246 169.821 196.437 169.816 195.443L169.749 182.23Z" fill="#0C0B3C"/>
</g>
<g clip-path="url(#clip1)">
<path d="M177.248 183.819C178.973 183.819 180.371 182.421 180.371 180.696C180.371 178.971 178.973 177.573 177.248 177.573C175.523 177.573 174.125 178.971 174.125 180.696C174.125 182.421 175.523 183.819 177.248 183.819Z" fill="#0C0B3C"/>
<path d="M184.867 188.363C184.858 186.407 183.258 184.815 181.301 184.815H179.789C178.306 188.66 178.847 187.258 177.918 189.669L178.309 187.696C178.338 187.551 178.315 187.4 178.243 187.271L177.63 186.154L178.174 185.164C178.212 185.095 178.211 185.012 178.171 184.944C178.131 184.877 178.059 184.835 177.98 184.835H176.487C176.409 184.835 176.336 184.877 176.296 184.944C176.256 185.012 176.255 185.095 176.293 185.164L176.836 186.152L176.224 187.267C176.151 187.399 176.128 187.553 176.16 187.7L176.612 189.669C176.353 188.996 174.859 185.284 174.678 184.815H173.196C171.239 184.815 169.639 186.407 169.63 188.363C169.621 189.99 169.628 188.627 169.615 191.181L166.564 189.286C165.857 188.847 164.928 189.064 164.489 189.771C164.05 190.478 164.267 191.407 164.974 191.846L170.314 195.162C171.314 195.783 172.61 195.065 172.616 193.889C172.619 193.3 172.64 189.082 172.643 188.378C172.645 188.204 172.786 188.064 172.96 188.065C173.134 188.065 173.274 188.206 173.274 188.38C173.273 195.642 173.241 197.671 173.241 213.709C173.241 214.708 174.051 215.518 175.05 215.518C176.048 215.518 176.858 214.708 176.858 213.709V199.256H177.638V213.709C177.638 214.708 178.448 215.518 179.447 215.518C180.445 215.518 181.255 214.708 181.255 213.709L181.256 188.38C181.256 188.215 181.389 188.081 181.554 188.081C181.719 188.08 181.853 188.213 181.854 188.378L181.909 199.449C181.913 200.278 182.587 200.948 183.416 200.948C183.419 200.948 183.421 200.948 183.424 200.948C184.256 200.944 184.927 200.266 184.923 199.434L184.867 188.363Z" fill="#0C0B3C"/>
</g>
<g clip-path="url(#clip2)">
<path d="M454.291 206.633C452.51 206.633 451.066 208.121 451.066 209.957C451.066 211.794 452.51 213.273 454.278 213.281C454.282 213.282 454.287 213.282 454.291 213.283C454.295 213.282 454.3 213.282 454.304 213.281C456.072 213.273 457.516 211.794 457.516 209.957C457.516 208.121 456.072 206.633 454.291 206.633Z" fill="#A02A79"/>
<path d="M463.516 220.52C461.523 218.001 460.594 216.914 460.323 216.585C459.342 215.392 458.377 214.392 456.849 214.392C454.818 214.392 453.355 214.392 451.734 214.392H451.733C450.153 214.392 449.005 215.433 448.32 217.488C448.236 217.74 445.715 225.024 444.824 227.539C444.544 228.328 444.937 229.202 445.703 229.491C446.47 229.78 447.317 229.372 447.597 228.584C447.664 228.396 449.377 223.561 450.531 220.194L450.475 220.662L448.434 231.526C448.336 232.047 448.723 232.533 449.239 232.533C449.556 232.533 449.939 232.533 450.365 232.533C450.365 233.711 450.365 242.385 450.365 243.572C450.365 244.581 451.159 245.398 452.137 245.398C453.116 245.398 453.909 244.581 453.909 243.572C453.909 242.385 453.909 233.711 453.909 232.533C454.163 232.533 454.419 232.533 454.674 232.533V233.635V243.572C454.674 244.581 455.467 245.398 456.445 245.398C457.424 245.398 458.217 244.581 458.217 243.572C458.217 242.385 458.217 233.711 458.217 232.533C458.643 232.533 459.026 232.533 459.344 232.533C459.855 232.533 460.247 232.05 460.149 231.526L458.93 225.042L458.927 225.023L458.524 225.131C457.837 225.313 457.128 225.183 456.552 224.792L455.244 225.368C454.947 225.499 454.603 225.357 454.475 225.05L452.43 220.12C452.303 219.813 452.441 219.459 452.738 219.328L455.707 218.019C456.004 217.888 456.348 218.03 456.475 218.337L457.255 220.217C457.268 220.213 457.28 220.209 457.292 220.206L458.03 220.01C457.966 219.472 457.999 219.75 457.828 218.308H457.868C458.748 219.357 459.391 220.151 459.758 220.605L457.539 221.195C456.749 221.405 456.275 222.234 456.478 223.048C456.682 223.861 457.486 224.352 458.276 224.142L462.741 222.955C463.229 222.826 463.618 222.449 463.775 221.956C463.932 221.463 463.835 220.922 463.516 220.52Z" fill="#A02A79"/>
</g>
<g clip-path="url(#clip3)">
<path d="M424.077 206.633C422.296 206.633 420.853 208.121 420.853 209.957C420.853 211.794 422.296 213.273 424.064 213.281C424.068 213.282 424.073 213.282 424.077 213.283C424.082 213.282 424.086 213.282 424.09 213.281C425.858 213.273 427.302 211.794 427.302 209.957C427.302 208.121 425.858 206.633 424.077 206.633Z" fill="#A02A79"/>
<path d="M433.302 220.52C431.309 218.001 430.38 216.914 430.109 216.585C429.128 215.392 428.163 214.392 426.635 214.392C424.604 214.392 423.142 214.392 421.52 214.392H421.52C419.94 214.392 418.791 215.433 418.106 217.488C418.022 217.74 415.501 225.024 414.61 227.539C414.33 228.328 414.724 229.202 415.489 229.491C416.256 229.78 417.103 229.372 417.383 228.584C417.45 228.396 419.163 223.561 420.317 220.194L420.261 220.662L418.22 231.526C418.122 232.047 418.509 232.533 419.025 232.533C419.343 232.533 419.725 232.533 420.152 232.533C420.152 233.711 420.152 242.385 420.152 243.572C420.152 244.581 420.945 245.398 421.923 245.398C422.902 245.398 423.695 244.581 423.695 243.572C423.695 242.385 423.695 233.711 423.695 232.533C423.95 232.533 424.205 232.533 424.46 232.533V233.635V243.572C424.46 244.581 425.253 245.398 426.231 245.398C427.21 245.398 428.003 244.581 428.003 243.572C428.003 242.385 428.003 233.711 428.003 232.533C428.43 232.533 428.812 232.533 429.13 232.533C429.641 232.533 430.033 232.05 429.935 231.526L428.716 225.042L428.713 225.023L428.31 225.131C427.624 225.313 426.915 225.183 426.338 224.792L425.03 225.368C424.733 225.499 424.389 225.357 424.262 225.05L422.216 220.12C422.089 219.813 422.227 219.459 422.524 219.328L425.493 218.019C425.79 217.888 426.134 218.03 426.262 218.337L427.041 220.217C427.054 220.213 427.066 220.209 427.078 220.206L427.816 220.01C427.752 219.472 427.785 219.75 427.614 218.308H427.654C428.534 219.357 429.177 220.151 429.544 220.605L427.325 221.195C426.536 221.405 426.061 222.234 426.264 223.048C426.468 223.861 427.272 224.352 428.063 224.142L432.527 222.955C433.015 222.826 433.405 222.449 433.562 221.956C433.718 221.463 433.621 220.922 433.302 220.52Z" fill="#A02A79"/>
</g>
<g clip-path="url(#clip4)">
<path d="M438.547 199.914C436.52 199.914 434.876 201.646 434.876 203.783C434.876 205.921 436.52 207.644 438.532 207.653C438.537 207.654 438.542 207.654 438.547 207.655C438.552 207.654 438.557 207.654 438.562 207.653C440.574 207.644 442.218 205.922 442.218 203.783C442.218 201.646 440.575 199.914 438.547 199.914Z" fill="#A02A79"/>
<path d="M449.05 216.08C446.78 213.147 445.722 211.882 445.414 211.499C444.297 210.111 443.199 208.946 441.459 208.946C439.147 208.946 437.482 208.946 435.635 208.946H435.635C433.836 208.946 432.529 210.159 431.749 212.55C431.653 212.844 428.783 221.324 427.769 224.251C427.45 225.171 427.898 226.188 428.77 226.524C429.643 226.86 430.608 226.386 430.926 225.468C431.002 225.25 432.952 219.621 434.266 215.701L434.203 216.245L431.879 228.893C431.768 229.5 432.208 230.066 432.795 230.066C433.157 230.066 433.592 230.066 434.078 230.066C434.078 231.437 434.078 241.535 434.078 242.917C434.078 244.091 434.981 245.043 436.095 245.043C437.209 245.043 438.112 244.091 438.112 242.917C438.112 241.535 438.112 231.437 438.112 230.066C438.402 230.066 438.693 230.066 438.983 230.066V231.349V242.917C438.983 244.091 439.886 245.043 441 245.043C442.114 245.043 443.017 244.091 443.017 242.917C443.017 241.535 443.017 231.437 443.017 230.066C443.502 230.066 443.938 230.066 444.299 230.066C444.881 230.066 445.328 229.504 445.216 228.893L443.829 221.345L443.825 221.323L443.366 221.448C442.584 221.66 441.777 221.509 441.12 221.053L439.632 221.724C439.293 221.877 438.902 221.711 438.757 221.354L436.428 215.615C436.284 215.258 436.441 214.845 436.779 214.692L440.159 213.169C440.497 213.016 440.889 213.182 441.034 213.539L441.922 215.727C441.936 215.723 441.949 215.719 441.963 215.715L442.804 215.486C442.731 214.861 442.769 215.184 442.574 213.505H442.619C443.621 214.726 444.353 215.651 444.771 216.179L442.245 216.866C441.346 217.11 440.805 218.076 441.037 219.024C441.268 219.97 442.184 220.541 443.084 220.297L448.167 218.915C448.722 218.765 449.166 218.326 449.345 217.752C449.523 217.178 449.412 216.548 449.05 216.08Z" fill="#A02A79"/>
</g>
<path d="M429.923 259.347C431.107 259.347 431.983 259.579 432.551 260.043C433.119 260.499 433.403 261.123 433.403 261.915C433.403 262.419 433.279 262.875 433.031 263.283C432.783 263.691 432.411 264.015 431.915 264.255C431.419 264.495 430.807 264.615 430.079 264.615C429.479 264.615 428.899 264.531 428.339 264.363C427.779 264.187 427.307 263.947 426.923 263.643L427.583 262.431C427.895 262.687 428.267 262.891 428.699 263.043C429.139 263.187 429.591 263.259 430.055 263.259C430.607 263.259 431.039 263.147 431.351 262.923C431.671 262.691 431.831 262.375 431.831 261.975C431.831 261.543 431.659 261.219 431.315 261.003C430.979 260.779 430.399 260.667 429.575 260.667H427.547L427.979 256.095H432.911V257.403H429.299L429.119 259.347H429.923ZM440.487 256.095V257.139L437.223 264.495H435.555L438.711 257.415H435.411V258.843H433.959V256.095H440.487ZM443.382 260.619C442.782 260.619 442.298 260.407 441.93 259.983C441.562 259.559 441.378 259.003 441.378 258.315C441.378 257.627 441.562 257.071 441.93 256.647C442.298 256.223 442.782 256.011 443.382 256.011C443.982 256.011 444.466 256.223 444.834 256.647C445.21 257.063 445.398 257.619 445.398 258.315C445.398 259.011 445.21 259.571 444.834 259.995C444.466 260.411 443.982 260.619 443.382 260.619ZM448.422 256.095H449.598L443.862 264.495H442.686L448.422 256.095ZM443.382 259.779C443.71 259.779 443.962 259.651 444.138 259.395C444.322 259.139 444.414 258.779 444.414 258.315C444.414 257.851 444.322 257.491 444.138 257.235C443.962 256.979 443.71 256.851 443.382 256.851C443.07 256.851 442.818 256.983 442.626 257.247C442.442 257.503 442.35 257.859 442.35 258.315C442.35 258.771 442.442 259.131 442.626 259.395C442.818 259.651 443.07 259.779 443.382 259.779ZM448.89 264.579C448.29 264.579 447.806 264.367 447.438 263.943C447.07 263.519 446.886 262.963 446.886 262.275C446.886 261.587 447.07 261.031 447.438 260.607C447.806 260.183 448.29 259.971 448.89 259.971C449.49 259.971 449.974 260.183 450.342 260.607C450.718 261.031 450.906 261.587 450.906 262.275C450.906 262.963 450.718 263.519 450.342 263.943C449.974 264.367 449.49 264.579 448.89 264.579ZM448.89 263.739C449.21 263.739 449.462 263.611 449.646 263.355C449.83 263.091 449.922 262.731 449.922 262.275C449.922 261.819 449.83 261.463 449.646 261.207C449.462 260.943 449.21 260.811 448.89 260.811C448.57 260.811 448.318 260.939 448.134 261.195C447.95 261.451 447.858 261.811 447.858 262.275C447.858 262.739 447.95 263.099 448.134 263.355C448.318 263.611 448.57 263.739 448.89 263.739Z" fill="#A02A79"/>
<path d="M300.975 381.36H286.466L282.73 367.788C281.21 362.275 284.899 356.687 290.971 355.307C291.871 355.102 292.796 355 293.72 355C299.977 355 305.048 359.606 305.048 365.29C305.048 366.134 304.936 366.97 304.711 367.788L300.975 381.36Z" fill="#F2CC44"/>
<path d="M313.975 560.732H271.4L285.592 547.874H299.784L313.975 560.732Z" fill="#F2CC44"/>
<path d="M342.816 587.092H243.933C243.933 572.534 250.257 560.732 258.059 560.732H328.69C336.491 560.732 342.816 572.534 342.816 587.092Z" fill="#F2CC44"/>
<path d="M300.928 381.36H287.194V547.874H300.928V381.36Z" fill="#0C0B3C"/>
<path d="M294.486 355C293.407 355.016 292.339 355.195 291.314 355.527C296.629 357.149 299.729 362.522 298.387 367.788L294.908 381.36H301.247L304.729 367.788C306.146 362.276 302.708 356.687 297.048 355.307C296.213 355.105 295.351 355 294.486 355Z" fill="#F2CC44"/>
<path d="M310.542 400.004H276.207V407.076H310.542V400.004Z" fill="#F2CC44"/>
<path d="M328.854 560.732H300.929C308.64 560.732 314.891 572.534 314.891 587.092H342.817C342.817 572.534 336.565 560.732 328.854 560.732Z" fill="#F2CC44"/>
<path d="M434.215 435.912C432.716 435.862 431.262 435.623 430.034 435.222C416.638 430.857 400.787 428.242 384.494 427.703L211.91 421.959C195.601 421.41 179.585 422.964 165.876 426.431C163.588 427 160.708 426.983 158.298 426.385L128.262 418.831L135.252 413.197L161.534 419.8C176.888 416.336 194.396 414.818 212.158 415.412L384.743 421.156C402.527 421.742 419.892 424.42 434.959 428.9L461.637 424.059L468.183 430.144L437.65 435.682C436.582 435.876 435.403 435.954 434.215 435.912Z" fill="#0C0B3C"/>
<path d="M476.797 524.131L435.021 438.79L393.245 524.131C392.252 526.16 389.687 527.05 387.519 526.12C385.351 525.19 384.401 522.789 385.394 520.759L431.095 427.401C432.088 425.371 434.653 424.482 436.821 425.412C437.762 425.816 438.514 426.52 438.946 427.401L484.647 520.759C485.64 522.789 484.691 525.19 482.522 526.12C480.355 527.054 477.794 526.16 476.797 524.131Z" fill="#F0E4D6"/>
<path d="M387.625 526.505H481.701C481.701 539.644 470.216 550.293 456.044 550.293H413.282C399.115 550.293 387.625 539.644 387.625 526.505Z" fill="#F2CC44"/>
<path d="M207.797 516.223L166.021 430.882L124.245 516.223C123.252 518.253 120.687 519.142 118.519 518.213C116.351 517.283 115.401 514.881 116.394 512.852L162.095 419.493C163.088 417.463 165.653 416.574 167.821 417.504C168.762 417.908 169.514 418.612 169.946 419.493L215.647 512.852C216.64 514.881 215.691 517.283 213.522 518.213C211.355 519.147 208.794 518.253 207.797 516.223Z" fill="#F0E4D6"/>
<path d="M118.626 518.597H212.702C212.702 531.736 201.217 542.385 187.045 542.385H144.283C130.116 542.384 118.626 531.735 118.626 518.597Z" fill="#F2CC44"/>
<path d="M279.521 578.02V580H270.233V578.434L275.237 573.682C275.801 573.142 276.179 572.674 276.371 572.278C276.575 571.87 276.677 571.468 276.677 571.072C276.677 570.484 276.479 570.034 276.083 569.722C275.687 569.41 275.105 569.254 274.337 569.254C273.053 569.254 272.069 569.692 271.385 570.568L269.747 569.308C270.239 568.648 270.899 568.138 271.727 567.778C272.567 567.406 273.503 567.22 274.535 567.22C275.903 567.22 276.995 567.544 277.811 568.192C278.627 568.84 279.035 569.722 279.035 570.838C279.035 571.522 278.891 572.164 278.603 572.764C278.315 573.364 277.763 574.048 276.947 574.816L273.581 578.02H279.521ZM286.075 580.18C285.067 580.18 284.167 579.928 283.375 579.424C282.583 578.908 281.959 578.164 281.503 577.192C281.047 576.208 280.819 575.044 280.819 573.7C280.819 572.356 281.047 571.198 281.503 570.226C281.959 569.242 282.583 568.498 283.375 567.994C284.167 567.478 285.067 567.22 286.075 567.22C287.083 567.22 287.983 567.478 288.775 567.994C289.579 568.498 290.209 569.242 290.665 570.226C291.121 571.198 291.349 572.356 291.349 573.7C291.349 575.044 291.121 576.208 290.665 577.192C290.209 578.164 289.579 578.908 288.775 579.424C287.983 579.928 287.083 580.18 286.075 580.18ZM286.075 578.146C286.975 578.146 287.683 577.774 288.199 577.03C288.727 576.286 288.991 575.176 288.991 573.7C288.991 572.224 288.727 571.114 288.199 570.37C287.683 569.626 286.975 569.254 286.075 569.254C285.187 569.254 284.479 569.626 283.951 570.37C283.435 571.114 283.177 572.224 283.177 573.7C283.177 575.176 283.435 576.286 283.951 577.03C284.479 577.774 285.187 578.146 286.075 578.146ZM301.968 578.02V580H292.68V578.434L297.684 573.682C298.248 573.142 298.626 572.674 298.818 572.278C299.022 571.87 299.124 571.468 299.124 571.072C299.124 570.484 298.926 570.034 298.53 569.722C298.134 569.41 297.552 569.254 296.784 569.254C295.5 569.254 294.516 569.692 293.832 570.568L292.194 569.308C292.686 568.648 293.346 568.138 294.174 567.778C295.014 567.406 295.95 567.22 296.982 567.22C298.35 567.22 299.442 567.544 300.258 568.192C301.074 568.84 301.482 569.722 301.482 570.838C301.482 571.522 301.338 572.164 301.05 572.764C300.762 573.364 300.21 574.048 299.394 574.816L296.028 578.02H301.968ZM308.522 580.18C307.514 580.18 306.614 579.928 305.822 579.424C305.03 578.908 304.406 578.164 303.95 577.192C303.494 576.208 303.266 575.044 303.266 573.7C303.266 572.356 303.494 571.198 303.95 570.226C304.406 569.242 305.03 568.498 305.822 567.994C306.614 567.478 307.514 567.22 308.522 567.22C309.53 567.22 310.43 567.478 311.222 567.994C312.026 568.498 312.656 569.242 313.112 570.226C313.568 571.198 313.796 572.356 313.796 573.7C313.796 575.044 313.568 576.208 313.112 577.192C312.656 578.164 312.026 578.908 311.222 579.424C310.43 579.928 309.53 580.18 308.522 580.18ZM308.522 578.146C309.422 578.146 310.13 577.774 310.646 577.03C311.174 576.286 311.438 575.176 311.438 573.7C311.438 572.224 311.174 571.114 310.646 570.37C310.13 569.626 309.422 569.254 308.522 569.254C307.634 569.254 306.926 569.626 306.398 570.37C305.882 571.114 305.624 572.224 305.624 573.7C305.624 575.176 305.882 576.286 306.398 577.03C306.926 577.774 307.634 578.146 308.522 578.146Z" fill="white"/>
<g clip-path="url(#clip5)">
<path d="M447.961 479.605C446.043 479.605 444.488 481.208 444.488 483.185C444.488 485.163 446.043 486.756 447.947 486.764C447.951 486.765 447.956 486.766 447.961 486.767C447.966 486.766 447.971 486.765 447.975 486.764C449.879 486.756 451.434 485.163 451.434 483.185C451.434 481.208 449.879 479.605 447.961 479.605Z" fill="#A02A79"/>
<path d="M457.896 494.56C455.749 491.847 454.748 490.676 454.457 490.322C453.4 489.038 452.361 487.96 450.715 487.96C448.528 487.96 446.953 487.96 445.207 487.96H445.207C443.505 487.96 442.268 489.082 441.53 491.295C441.44 491.566 438.725 499.411 437.765 502.119C437.463 502.969 437.888 503.91 438.712 504.221C439.538 504.532 440.451 504.093 440.752 503.244C440.824 503.042 442.669 497.835 443.911 494.209L443.852 494.713L441.653 506.413C441.548 506.974 441.964 507.497 442.52 507.497C442.862 507.497 443.274 507.497 443.733 507.497C443.733 508.765 443.733 518.107 443.733 519.385C443.733 520.471 444.587 521.352 445.641 521.352C446.695 521.352 447.549 520.471 447.549 519.385C447.549 518.107 447.549 508.766 447.549 507.497C447.823 507.497 448.099 507.497 448.373 507.497V508.684V519.385C448.373 520.471 449.227 521.352 450.281 521.352C451.335 521.352 452.189 520.471 452.189 519.385C452.189 518.107 452.189 508.766 452.189 507.497C452.648 507.497 453.06 507.497 453.402 507.497C453.952 507.497 454.375 506.977 454.269 506.413L452.957 499.43L452.953 499.41L452.519 499.525C451.78 499.722 451.016 499.582 450.395 499.16L448.987 499.781C448.667 499.922 448.296 499.769 448.159 499.439L445.957 494.129C445.82 493.799 445.968 493.417 446.289 493.276L449.486 491.867C449.806 491.726 450.176 491.879 450.313 492.209L451.153 494.233C451.166 494.23 451.179 494.225 451.192 494.222L451.988 494.01C451.919 493.432 451.954 493.73 451.77 492.178H451.813C452.76 493.307 453.453 494.163 453.848 494.652L451.459 495.287C450.608 495.513 450.097 496.406 450.316 497.283C450.535 498.158 451.401 498.687 452.253 498.461L457.061 497.183C457.586 497.043 458.006 496.637 458.175 496.106C458.344 495.576 458.238 494.993 457.896 494.56Z" fill="#A02A79"/>
</g>
<g clip-path="url(#clip6)">
<path d="M431.006 472.369C428.823 472.369 427.053 474.234 427.053 476.536C427.053 478.839 428.823 480.693 430.99 480.703C430.995 480.704 431.001 480.705 431.006 480.706C431.012 480.705 431.017 480.704 431.023 480.703C433.189 480.694 434.96 478.839 434.96 476.536C434.96 474.234 433.19 472.369 431.006 472.369Z" fill="#A02A79"/>
<path d="M442.317 489.779C439.872 486.621 438.733 485.258 438.401 484.845C437.199 483.35 436.016 482.096 434.142 482.096C431.652 482.096 429.859 482.096 427.871 482.096H427.87C425.933 482.096 424.525 483.402 423.685 485.978C423.582 486.294 420.491 495.426 419.399 498.579C419.055 499.568 419.538 500.664 420.477 501.026C421.418 501.388 422.456 500.877 422.799 499.889C422.881 499.654 424.981 493.592 426.396 489.37L426.328 489.957L423.825 503.578C423.705 504.231 424.179 504.84 424.812 504.84C425.201 504.84 425.67 504.84 426.193 504.84C426.193 506.317 426.193 517.192 426.193 518.68C426.193 519.945 427.166 520.97 428.365 520.97C429.565 520.97 430.537 519.945 430.537 518.68C430.537 517.192 430.537 506.317 430.537 504.84C430.85 504.84 431.163 504.84 431.475 504.84V506.222V518.68C431.475 519.945 432.448 520.969 433.647 520.969C434.847 520.969 435.819 519.945 435.819 518.68C435.819 517.192 435.819 506.317 435.819 504.84C436.342 504.84 436.811 504.84 437.201 504.84C437.827 504.84 438.309 504.235 438.188 503.578L436.694 495.448L436.69 495.425L436.195 495.56C435.354 495.788 434.485 495.625 433.778 495.135L432.174 495.857C431.81 496.021 431.388 495.843 431.232 495.459L428.725 489.277C428.569 488.893 428.738 488.448 429.102 488.284L432.742 486.644C433.107 486.48 433.528 486.658 433.684 487.042L434.64 489.399C434.655 489.395 434.67 489.39 434.685 489.385L435.59 489.139C435.512 488.466 435.553 488.813 435.343 487.005H435.391C436.47 488.32 437.259 489.317 437.708 489.886L434.988 490.625C434.02 490.888 433.438 491.929 433.688 492.949C433.937 493.968 434.923 494.583 435.892 494.32L441.366 492.832C441.964 492.67 442.442 492.198 442.634 491.579C442.826 490.961 442.707 490.283 442.317 489.779Z" fill="#A02A79"/>
</g>
<path d="M431.241 537.467C432.425 537.467 433.301 537.699 433.869 538.163C434.437 538.619 434.721 539.243 434.721 540.035C434.721 540.539 434.597 540.995 434.349 541.403C434.101 541.811 433.729 542.135 433.233 542.375C432.737 542.615 432.125 542.735 431.397 542.735C430.797 542.735 430.217 542.651 429.657 542.483C429.097 542.307 428.625 542.067 428.241 541.763L428.901 540.551C429.213 540.807 429.585 541.011 430.017 541.163C430.457 541.307 430.909 541.379 431.373 541.379C431.925 541.379 432.357 541.267 432.669 541.043C432.989 540.811 433.149 540.495 433.149 540.095C433.149 539.663 432.977 539.339 432.633 539.123C432.297 538.899 431.717 538.787 430.893 538.787H428.865L429.297 534.215H434.229V535.523H430.617L430.437 537.467H431.241ZM438.525 534.215V542.615H436.965V535.523H435.189V534.215H438.525ZM442.064 538.739C441.464 538.739 440.98 538.527 440.612 538.103C440.244 537.679 440.06 537.123 440.06 536.435C440.06 535.747 440.244 535.191 440.612 534.767C440.98 534.343 441.464 534.131 442.064 534.131C442.664 534.131 443.148 534.343 443.516 534.767C443.892 535.183 444.08 535.739 444.08 536.435C444.08 537.131 443.892 537.691 443.516 538.115C443.148 538.531 442.664 538.739 442.064 538.739ZM447.104 534.215H448.28L442.544 542.615H441.368L447.104 534.215ZM442.064 537.899C442.392 537.899 442.644 537.771 442.82 537.515C443.004 537.259 443.096 536.899 443.096 536.435C443.096 535.971 443.004 535.611 442.82 535.355C442.644 535.099 442.392 534.971 442.064 534.971C441.752 534.971 441.5 535.103 441.308 535.367C441.124 535.623 441.032 535.979 441.032 536.435C441.032 536.891 441.124 537.251 441.308 537.515C441.5 537.771 441.752 537.899 442.064 537.899ZM447.572 542.699C446.972 542.699 446.488 542.487 446.12 542.063C445.752 541.639 445.568 541.083 445.568 540.395C445.568 539.707 445.752 539.151 446.12 538.727C446.488 538.303 446.972 538.091 447.572 538.091C448.172 538.091 448.656 538.303 449.024 538.727C449.4 539.151 449.588 539.707 449.588 540.395C449.588 541.083 449.4 541.639 449.024 542.063C448.656 542.487 448.172 542.699 447.572 542.699ZM447.572 541.859C447.892 541.859 448.144 541.731 448.328 541.475C448.512 541.211 448.604 540.851 448.604 540.395C448.604 539.939 448.512 539.583 448.328 539.327C448.144 539.063 447.892 538.931 447.572 538.931C447.252 538.931 447 539.059 446.816 539.315C446.632 539.571 446.54 539.931 446.54 540.395C446.54 540.859 446.632 541.219 446.816 541.475C447 541.731 447.252 541.859 447.572 541.859Z" fill="#A02A79"/>
<g clip-path="url(#clip7)">
<path d="M161.655 475.807C163.714 475.807 165.383 474.138 165.383 472.079C165.383 470.021 163.714 468.352 161.655 468.352C159.597 468.352 157.928 470.021 157.928 472.079C157.928 474.138 159.597 475.807 161.655 475.807Z" fill="#0C0B3C"/>
<path d="M170.749 481.231C170.737 478.895 168.828 476.996 166.493 476.996H164.688C162.918 481.585 163.564 479.912 162.454 482.789L162.922 480.434C162.956 480.261 162.928 480.081 162.843 479.927L162.111 478.594L162.761 477.412C162.806 477.33 162.804 477.23 162.757 477.15C162.709 477.069 162.622 477.02 162.529 477.02H160.747C160.653 477.02 160.567 477.069 160.519 477.15C160.471 477.23 160.47 477.33 160.515 477.412L161.164 478.592L160.433 479.922C160.346 480.08 160.319 480.263 160.356 480.439L160.896 482.789C160.586 481.986 158.804 477.556 158.588 476.996H156.818C154.483 476.996 152.574 478.895 152.562 481.231C152.552 483.172 152.561 481.546 152.545 484.593L148.903 482.332C148.059 481.808 146.95 482.067 146.426 482.911C145.902 483.755 146.161 484.864 147.005 485.388L153.379 489.345C154.573 490.086 156.119 489.229 156.126 487.826C156.13 487.122 156.155 482.089 156.159 481.248C156.161 481.041 156.329 480.874 156.537 480.874C156.744 480.875 156.912 481.043 156.912 481.251C156.91 489.918 156.873 492.34 156.873 511.483C156.873 512.675 157.839 513.641 159.031 513.641C160.223 513.641 161.189 512.675 161.189 511.483V494.232H162.121V511.483C162.121 512.675 163.087 513.641 164.279 513.641C165.471 513.641 166.438 512.675 166.438 511.483L166.438 481.25C166.438 481.054 166.598 480.894 166.794 480.894C166.991 480.893 167.151 481.052 167.152 481.249L167.218 494.462C167.223 495.452 168.028 496.251 169.017 496.251C169.02 496.251 169.023 496.251 169.026 496.251C170.019 496.246 170.821 495.437 170.816 494.444L170.749 481.231Z" fill="#0C0B3C"/>
</g>
<g clip-path="url(#clip8)">
<path d="M178.248 482.819C179.973 482.819 181.371 481.421 181.371 479.696C181.371 477.971 179.973 476.573 178.248 476.573C176.523 476.573 175.125 477.971 175.125 479.696C175.125 481.421 176.523 482.819 178.248 482.819Z" fill="#0C0B3C"/>
<path d="M185.867 487.363C185.858 485.407 184.258 483.815 182.301 483.815H180.789C179.306 487.66 179.847 486.258 178.918 488.669L179.309 486.696C179.338 486.551 179.315 486.401 179.243 486.271L178.63 485.155L179.174 484.164C179.212 484.095 179.211 484.012 179.171 483.944C179.131 483.877 179.059 483.836 178.98 483.836H177.487C177.409 483.836 177.336 483.877 177.296 483.944C177.256 484.012 177.255 484.095 177.293 484.164L177.836 485.153L177.224 486.267C177.151 486.399 177.128 486.553 177.16 486.7L177.612 488.669C177.353 487.996 175.859 484.284 175.678 483.815H174.196C172.239 483.815 170.639 485.407 170.63 487.363C170.621 488.99 170.628 487.628 170.615 490.181L167.564 488.286C166.857 487.847 165.928 488.064 165.489 488.771C165.05 489.478 165.267 490.407 165.974 490.846L171.314 494.162C172.314 494.783 173.61 494.065 173.616 492.889C173.619 492.3 173.64 488.082 173.643 487.378C173.645 487.204 173.786 487.064 173.96 487.065C174.134 487.066 174.274 487.207 174.274 487.38C174.273 494.642 174.241 496.672 174.241 512.71C174.241 513.708 175.051 514.518 176.05 514.518C177.048 514.518 177.858 513.708 177.858 512.71V498.256H178.638V512.71C178.638 513.708 179.448 514.518 180.447 514.518C181.445 514.518 182.255 513.708 182.255 512.71L182.256 487.38C182.256 487.215 182.389 487.082 182.554 487.081C182.719 487.081 182.853 487.214 182.854 487.378L182.909 498.449C182.913 499.279 183.587 499.948 184.416 499.948C184.419 499.948 184.421 499.948 184.424 499.948C185.256 499.944 185.927 499.266 185.923 498.434L185.867 487.363Z" fill="#0C0B3C"/>
</g>
<path d="M163.461 532.027H161.973V533.935H160.461V532.027H155.853V530.947L159.993 525.535H161.661L157.761 530.707H160.509V529.015H161.973V530.707H163.461V532.027ZM166.891 525.415C168.043 525.415 168.935 525.775 169.567 526.495C170.207 527.215 170.527 528.247 170.527 529.591C170.527 530.535 170.355 531.343 170.011 532.015C169.667 532.679 169.183 533.187 168.559 533.539C167.943 533.883 167.227 534.055 166.411 534.055C165.979 534.055 165.571 534.011 165.187 533.923C164.811 533.827 164.483 533.691 164.203 533.515L164.779 532.339C165.195 532.611 165.727 532.747 166.375 532.747C167.183 532.747 167.815 532.499 168.271 532.003C168.727 531.507 168.955 530.791 168.955 529.855V529.843C168.707 530.131 168.391 530.351 168.007 530.503C167.623 530.647 167.191 530.719 166.711 530.719C166.159 530.719 165.663 530.615 165.223 530.407C164.783 530.191 164.439 529.887 164.191 529.495C163.943 529.103 163.819 528.651 163.819 528.139C163.819 527.595 163.955 527.119 164.227 526.711C164.499 526.295 164.867 525.975 165.331 525.751C165.795 525.527 166.315 525.415 166.891 525.415ZM167.011 529.495C167.515 529.495 167.923 529.359 168.235 529.087C168.555 528.815 168.715 528.471 168.715 528.055C168.715 527.647 168.559 527.311 168.247 527.047C167.943 526.775 167.519 526.639 166.975 526.639C166.487 526.639 166.091 526.771 165.787 527.035C165.483 527.291 165.331 527.635 165.331 528.067C165.331 528.507 165.483 528.855 165.787 529.111C166.091 529.367 166.499 529.495 167.011 529.495ZM173.454 530.059C172.854 530.059 172.37 529.847 172.002 529.423C171.634 528.999 171.45 528.443 171.45 527.755C171.45 527.067 171.634 526.511 172.002 526.087C172.37 525.663 172.854 525.451 173.454 525.451C174.054 525.451 174.538 525.663 174.906 526.087C175.282 526.503 175.47 527.059 175.47 527.755C175.47 528.451 175.282 529.011 174.906 529.435C174.538 529.851 174.054 530.059 173.454 530.059ZM178.494 525.535H179.67L173.934 533.935H172.758L178.494 525.535ZM173.454 529.219C173.782 529.219 174.034 529.091 174.21 528.835C174.394 528.579 174.486 528.219 174.486 527.755C174.486 527.291 174.394 526.931 174.21 526.675C174.034 526.419 173.782 526.291 173.454 526.291C173.142 526.291 172.89 526.423 172.698 526.687C172.514 526.943 172.422 527.299 172.422 527.755C172.422 528.211 172.514 528.571 172.698 528.835C172.89 529.091 173.142 529.219 173.454 529.219ZM178.962 534.019C178.362 534.019 177.878 533.807 177.51 533.383C177.142 532.959 176.958 532.403 176.958 531.715C176.958 531.027 177.142 530.471 177.51 530.047C177.878 529.623 178.362 529.411 178.962 529.411C179.562 529.411 180.046 529.623 180.414 530.047C180.79 530.471 180.978 531.027 180.978 531.715C180.978 532.403 180.79 532.959 180.414 533.383C180.046 533.807 179.562 534.019 178.962 534.019ZM178.962 533.179C179.282 533.179 179.534 533.051 179.718 532.795C179.902 532.531 179.994 532.171 179.994 531.715C179.994 531.259 179.902 530.903 179.718 530.647C179.534 530.383 179.282 530.251 178.962 530.251C178.642 530.251 178.39 530.379 178.206 530.635C178.022 530.891 177.93 531.251 177.93 531.715C177.93 532.179 178.022 532.539 178.206 532.795C178.39 533.051 178.642 533.179 178.962 533.179Z" fill="#0C0B3C"/>
<defs>
<clipPath id="clip0">
<rect width="50.815" height="50.815" fill="white" transform="translate(119 165)"/>
</clipPath>
<clipPath id="clip1">
<rect width="42.5747" height="42.5747" fill="white" transform="translate(142.348 173.927)"/>
</clipPath>
<clipPath id="clip2">
<rect width="44.6348" height="46.0082" fill="white" transform="translate(419.214 201.553)"/>
</clipPath>
<clipPath id="clip3">
<rect width="44.6348" height="46.0082" fill="white" transform="translate(389 201.553)"/>
</clipPath>
<clipPath id="clip4">
<rect width="50.815" height="53.5618" fill="white" transform="translate(398.613 194)"/>
</clipPath>
<clipPath id="clip5">
<rect width="48.0683" height="49.5473" fill="white" transform="translate(410.186 474.135)"/>
</clipPath>
<clipPath id="clip6">
<rect width="54.7239" height="57.6819" fill="white" transform="translate(388 466)"/>
</clipPath>
<clipPath id="clip7">
<rect width="50.815" height="50.815" fill="white" transform="translate(120 464)"/>
</clipPath>
<clipPath id="clip8">
<rect width="42.5747" height="42.5747" fill="white" transform="translate(143.348 472.927)"/>
</clipPath>
</defs>
</svg>
