<svg width="757" height="757" viewBox="0 0 757 757" fill="none" xmlns="http://www.w3.org/2000/svg">
<circle cx="378.5" cy="378.5" r="378" fill="white" stroke="#7A7A7A"/>
<line x1="140" y1="327" x2="627.834" y2="327.117" stroke="#7A7A7A" stroke-width="2"/>
<path d="M577.143 213.896L602.362 307.98C603.871 313.609 603.366 319.589 600.934 324.885L545.313 446.009" stroke="#7A7A7A"/>
<line x1="387.019" y1="208.096" x2="387.864" y2="427.447" stroke="#7A7A7A"/>
<path d="M186.01 175.602L177.047 319.451C176.536 327.653 180.088 335.581 186.548 340.66L214.313 362.487" stroke="#7A7A7A"/>
<g clip-path="url(#clip0)">
<path opacity="0.1" d="M581.393 565.868C564.198 591.751 568.484 594.155 577.141 622.651C580.056 632.19 583.35 642.27 581.393 652.814C578.999 665.707 571.106 681.267 561.099 686.827C542.863 696.965 509.944 698.295 494.24 686.827C480.669 676.913 475.696 669.145 461.846 659.719C438.696 644 403.598 676.834 376.905 690.344C358.019 699.891 347.168 704.275 329.269 696.636C316.676 691.261 308.514 676.784 304.458 661.152C302.501 653.605 301.218 645.384 297.045 639.562C294.547 636.103 291.215 633.728 287.763 631.798C256.234 613.988 214.636 627.152 184.132 607.124C163.548 593.622 151.3 566.477 146.728 537.66C142.156 508.844 144.408 478.194 147.465 448.031C149.635 426.599 152.746 403.671 164.693 386.49C177.332 368.316 197.833 360.578 215.915 362.757C233.997 364.937 249.896 375.73 263.734 388.761C281.029 405.013 296.787 425.624 318.746 431.267C333.7 435.121 349.816 431.504 365.533 429.6C391.81 426.453 418.299 417.304 444.164 419.383C468.93 421.375 478.934 439.539 502.192 448.031C518.65 454.041 536.921 453.317 561.099 459.827C572.529 462.904 585.085 470.589 594.509 477.411C606.12 485.808 613.938 505.585 609.902 524.4C606.067 542.315 590.517 552.117 581.393 565.868Z" fill="#A02A79"/>
<path opacity="0.1" d="M527.962 469.255H510.934V495.051H527.962V469.255Z" fill="#A02A79"/>
<path opacity="0.1" d="M526.304 471.764H512.587V492.542H526.304V471.764Z" fill="#A02A79"/>
<path opacity="0.1" d="M502.522 451.336H476.37V477.131H502.522V451.336Z" fill="#A02A79"/>
<path opacity="0.1" d="M499.978 453.845H478.91V474.623H499.978V453.845Z" fill="#A02A79"/>
<path opacity="0.1" d="M250.981 412.956H171.046V415.085H250.981V412.956Z" fill="#A02A79"/>
<path d="M314.059 551.021H305.893V642.341H314.059V551.021Z" fill="#D6D6E3"/>
<path d="M552.595 560.609V476.373C552.596 474.025 553.528 471.774 555.188 470.114C556.847 468.454 559.098 467.522 561.444 467.522C563.787 467.526 566.033 468.46 567.689 470.12C569.345 471.779 570.275 474.028 570.276 476.373V578.32C570.276 580.669 569.344 582.921 567.685 584.582C566.025 586.243 563.774 587.176 561.427 587.176H506.62C504.273 587.176 502.022 586.243 500.362 584.582C498.703 582.921 497.771 580.669 497.771 578.32C497.771 575.972 498.703 573.719 500.362 572.059C502.022 570.398 504.273 569.465 506.62 569.465H543.745C546.092 569.465 548.343 568.532 550.003 566.871C551.662 565.21 552.595 562.958 552.595 560.609Z" fill="#AEBEE1"/>
<path d="M552.595 560.609V476.373C552.596 474.025 553.528 471.774 555.188 470.114C556.847 468.454 559.098 467.522 561.444 467.522C563.787 467.526 566.033 468.46 567.689 470.12C569.345 471.779 570.275 474.028 570.276 476.373V578.32C570.276 580.669 569.344 582.921 567.685 584.582C566.025 586.243 563.774 587.176 561.427 587.176H506.62C504.273 587.176 502.022 586.243 500.362 584.582C498.703 582.921 497.771 580.669 497.771 578.32C497.771 575.972 498.703 573.719 500.362 572.059C502.022 570.398 504.273 569.465 506.62 569.465H543.745C546.092 569.465 548.343 568.532 550.003 566.871C551.662 565.21 552.595 562.958 552.595 560.609Z" fill="#535461"/>
<path d="M497.783 577.845C497.905 575.582 498.889 573.452 500.533 571.893C502.177 570.334 504.355 569.465 506.62 569.465H543.745C546.092 569.465 548.343 568.532 550.003 566.871C551.662 565.21 552.595 562.958 552.595 560.609V476.373C552.593 474.097 553.468 471.908 555.036 470.26C556.605 468.611 558.747 467.631 561.019 467.522V577.845H497.783Z" fill="#D6D6E3"/>
<path d="M224.3 563.451V479.215C224.3 476.87 223.37 474.621 221.715 472.961C220.06 471.3 217.815 470.365 215.471 470.36C213.124 470.36 210.874 471.292 209.214 472.953C207.554 474.614 206.622 476.866 206.622 479.215V581.162C206.619 582.327 206.846 583.481 207.29 584.557C207.733 585.634 208.385 586.613 209.207 587.437C210.029 588.262 211.005 588.916 212.08 589.362C213.155 589.809 214.308 590.038 215.471 590.038H270.275C272.622 590.038 274.872 589.105 276.532 587.445C278.192 585.784 279.124 583.532 279.124 581.183C279.124 578.834 278.192 576.582 276.532 574.921C274.872 573.261 272.622 572.328 270.275 572.328H233.153C231.989 572.328 230.836 572.099 229.761 571.653C228.685 571.207 227.708 570.553 226.886 569.728C226.063 568.904 225.412 567.925 224.968 566.848C224.524 565.771 224.297 564.616 224.3 563.451Z" fill="#AEBEE1"/>
<path d="M224.3 563.451V479.215C224.3 476.87 223.37 474.621 221.715 472.961C220.06 471.3 217.815 470.365 215.471 470.36C213.124 470.36 210.874 471.292 209.214 472.953C207.554 474.614 206.622 476.866 206.622 479.215V581.162C206.619 582.327 206.846 583.481 207.29 584.557C207.733 585.634 208.385 586.613 209.207 587.437C210.029 588.262 211.005 588.916 212.08 589.362C213.155 589.809 214.308 590.038 215.471 590.038H270.275C272.622 590.038 274.872 589.105 276.532 587.445C278.192 585.784 279.124 583.532 279.124 581.183C279.124 578.834 278.192 576.582 276.532 574.921C274.872 573.261 272.622 572.328 270.275 572.328H233.153C231.989 572.328 230.836 572.099 229.761 571.653C228.685 571.207 227.708 570.553 226.886 569.728C226.063 568.904 225.412 567.925 224.968 566.848C224.524 565.771 224.297 564.616 224.3 563.451Z" fill="#535461"/>
<path d="M279.111 580.687C278.99 578.424 278.006 576.294 276.362 574.735C274.718 573.176 272.539 572.307 270.274 572.307H233.153C231.991 572.308 230.84 572.079 229.765 571.634C228.691 571.189 227.715 570.537 226.893 569.715C226.071 568.892 225.419 567.916 224.974 566.841C224.529 565.767 224.3 564.615 224.3 563.452V479.215C224.299 476.943 223.426 474.757 221.86 473.111C220.294 471.465 218.156 470.484 215.888 470.372V580.687H279.111Z" fill="#D6D6E3"/>
<path d="M475.624 551.021H467.458V644.471H475.624V551.021Z" fill="#D6D6E3"/>
<path opacity="0.1" d="M314.059 551.021H305.893V557.772H314.059V551.021Z" fill="black"/>
<path opacity="0.1" d="M475.624 551.021H467.458V557.772H475.624V551.021Z" fill="black"/>
<path opacity="0.1" d="M335.06 495.409C334.93 496.848 334.765 498.307 334.565 499.785H333.411V495.409H335.06Z" fill="black"/>
<path d="M368.521 540.865C368.546 542.344 367.48 543.557 366.16 543.557H341.236V540.957H361.975C362.87 540.957 363.428 539.873 362.978 539.006L344.172 500.73C344.039 500.455 343.832 500.221 343.575 500.055C343.318 499.888 343.02 499.796 342.714 499.789H333.411V495.413H345.159C345.373 495.418 345.581 495.483 345.761 495.599C345.941 495.715 346.086 495.878 346.179 496.071L367.738 537.744C368.235 538.71 368.503 539.778 368.521 540.865Z" fill="#535461"/>
<path d="M322.746 533.923L322.404 534.498L319.21 532.364L329.092 456.324H331.636C331.636 456.324 331.741 456.674 331.911 457.341C333.615 463.913 341.981 501.131 322.746 533.923Z" fill="#535461"/>
<path opacity="0.1" d="M331.907 457.341L322.746 533.923L322.404 534.498L319.21 532.364L329.092 456.324H331.636C331.636 456.324 331.736 456.687 331.907 457.341Z" fill="black"/>
<path d="M325.695 455.538L316.32 533.859L322.316 534.578L331.69 456.256L325.695 455.538Z" fill="#D6D6E3"/>
<path d="M295.774 540.894C295.773 541.083 295.697 541.264 295.564 541.397C295.431 541.531 295.25 541.606 295.061 541.607H293.995C293.806 541.607 293.625 541.532 293.491 541.398C293.358 541.265 293.283 541.083 293.283 540.894C293.279 540.867 293.279 540.839 293.283 540.811C293.304 540.639 293.387 540.481 293.517 540.365C293.646 540.25 293.813 540.187 293.987 540.186H295.053C295.211 540.187 295.365 540.242 295.489 540.34C295.613 540.438 295.702 540.574 295.74 540.728C295.759 540.782 295.77 540.838 295.774 540.894Z" fill="#E3EDF9"/>
<path d="M298.967 540.894C298.966 541.083 298.891 541.264 298.758 541.397C298.624 541.531 298.444 541.606 298.255 541.607H297.189C297 541.607 296.819 541.532 296.685 541.398C296.552 541.265 296.477 541.083 296.477 540.894C296.477 540.828 296.487 540.762 296.506 540.698C296.537 540.583 296.599 540.478 296.685 540.394C296.75 540.328 296.828 540.275 296.914 540.239C297 540.204 297.092 540.185 297.185 540.186H298.251C298.389 540.185 298.523 540.224 298.639 540.298C298.755 540.372 298.847 540.478 298.905 540.603C298.946 540.695 298.967 540.794 298.967 540.894Z" fill="#E3EDF9"/>
<path d="M301.808 540.894C301.807 541.083 301.732 541.264 301.599 541.397C301.465 541.531 301.285 541.606 301.096 541.607H300.03C299.841 541.607 299.66 541.532 299.526 541.398C299.393 541.265 299.317 541.083 299.317 540.894C299.316 540.792 299.337 540.691 299.38 540.598C299.438 540.475 299.529 540.371 299.643 540.297C299.757 540.224 299.89 540.184 300.026 540.182H301.092C301.186 540.181 301.278 540.199 301.365 540.235C301.452 540.27 301.531 540.323 301.597 540.389C301.663 540.455 301.715 540.534 301.751 540.621C301.787 540.708 301.805 540.801 301.804 540.894H301.808Z" fill="#E3EDF9"/>
<path d="M305.006 540.894C305.005 541.083 304.929 541.264 304.796 541.397C304.663 541.531 304.482 541.606 304.294 541.607H303.227C303.097 541.607 302.969 541.571 302.858 541.504C302.747 541.436 302.656 541.339 302.596 541.223C302.536 541.108 302.509 540.978 302.517 540.848C302.526 540.718 302.57 540.593 302.644 540.486L302.728 540.394C302.793 540.328 302.87 540.275 302.956 540.239C303.042 540.204 303.134 540.185 303.227 540.186H304.294C304.391 540.187 304.487 540.208 304.575 540.247C304.664 540.287 304.744 540.344 304.81 540.415C304.935 540.543 305.006 540.715 305.006 540.894Z" fill="#E3EDF9"/>
<path opacity="0.1" d="M295.753 540.723C295.767 540.779 295.774 540.837 295.774 540.894C295.773 541.083 295.697 541.264 295.564 541.397C295.431 541.531 295.25 541.606 295.061 541.607H293.995C293.806 541.607 293.625 541.532 293.491 541.398C293.358 541.265 293.283 541.083 293.283 540.894C293.279 540.867 293.279 540.839 293.283 540.811L295.753 540.723Z" fill="black"/>
<path opacity="0.1" d="M298.909 540.611C298.947 540.699 298.966 540.794 298.967 540.89C298.966 541.079 298.891 541.259 298.758 541.393C298.624 541.526 298.444 541.602 298.255 541.603H297.189C297 541.603 296.819 541.528 296.685 541.394C296.552 541.26 296.477 541.079 296.477 540.89C296.477 540.824 296.487 540.758 296.506 540.694L298.909 540.611Z" fill="black"/>
<path opacity="0.1" d="M301.704 540.515C301.774 540.628 301.812 540.758 301.812 540.89C301.811 541.079 301.736 541.26 301.602 541.393C301.469 541.526 301.289 541.602 301.1 541.603H300.034C299.845 541.603 299.664 541.528 299.53 541.394C299.396 541.261 299.321 541.079 299.321 540.89C299.32 540.788 299.341 540.687 299.384 540.594L301.704 540.515Z" fill="black"/>
<path opacity="0.1" d="M305.006 540.894C305.005 541.083 304.929 541.264 304.796 541.397C304.663 541.531 304.482 541.606 304.294 541.607H303.227C303.097 541.607 302.969 541.571 302.858 541.504C302.747 541.436 302.656 541.339 302.596 541.223C302.536 541.108 302.509 540.978 302.517 540.848C302.526 540.718 302.57 540.593 302.644 540.486L304.81 540.411C304.936 540.54 305.007 540.714 305.006 540.894Z" fill="black"/>
<path d="M311.394 543.736H290.801V542.799C290.801 542.382 290.962 541.982 291.251 541.683C291.54 541.384 291.934 541.208 292.35 541.194L308.866 540.623C309.194 540.612 309.521 540.667 309.828 540.785C310.134 540.903 310.414 541.081 310.65 541.309C310.886 541.538 311.074 541.811 311.203 542.113C311.331 542.416 311.397 542.741 311.398 543.07L311.394 543.736Z" fill="#D6D6E3"/>
<path d="M412.992 540.865C412.967 542.344 414.033 543.557 415.353 543.557H440.289V540.957H419.526C418.63 540.957 418.072 539.873 418.522 539.006L437.328 500.73C437.461 500.455 437.668 500.221 437.925 500.055C438.182 499.888 438.48 499.796 438.786 499.789H448.093V495.413H436.354C436.143 495.421 435.938 495.486 435.762 495.601C435.585 495.716 435.443 495.877 435.35 496.067L413.791 537.74C413.288 538.706 413.014 539.775 412.992 540.865Z" fill="#535461"/>
<path d="M458.771 533.923L459.113 534.498L462.307 532.364L452.425 456.324H449.88C449.88 456.324 449.776 456.674 449.605 457.341C447.898 463.913 439.515 501.131 458.771 533.923Z" fill="#535461"/>
<path opacity="0.1" d="M449.605 457.341L458.767 533.923L459.109 534.498L462.303 532.364L452.425 456.324H449.88C449.88 456.324 449.776 456.687 449.605 457.341Z" fill="black"/>
<path d="M455.826 455.53L449.83 456.248L459.205 534.57L465.2 533.852L455.826 455.53Z" fill="#D6D6E3"/>
<path d="M485.739 540.894C485.74 541.083 485.816 541.264 485.949 541.397C486.082 541.531 486.263 541.606 486.452 541.607H487.518C487.707 541.607 487.888 541.532 488.022 541.398C488.155 541.265 488.23 541.083 488.23 540.894C488.234 540.867 488.234 540.839 488.23 540.811C488.209 540.639 488.126 540.481 487.996 540.365C487.867 540.25 487.699 540.187 487.526 540.186H486.46C486.302 540.187 486.148 540.242 486.024 540.34C485.9 540.438 485.811 540.574 485.773 540.728C485.754 540.782 485.743 540.838 485.739 540.894Z" fill="#E3EDF9"/>
<path d="M482.545 540.894C482.546 541.083 482.622 541.264 482.755 541.397C482.888 541.531 483.069 541.606 483.258 541.607H484.324C484.417 541.607 484.51 541.589 484.597 541.553C484.683 541.517 484.761 541.465 484.828 541.398C484.894 541.332 484.946 541.254 484.982 541.167C485.018 541.081 485.036 540.988 485.036 540.894C485.036 540.828 485.026 540.762 485.007 540.698C484.976 540.583 484.914 540.478 484.828 540.394C484.763 540.328 484.685 540.275 484.599 540.239C484.513 540.204 484.421 540.185 484.328 540.186H483.241C483.103 540.185 482.969 540.224 482.853 540.298C482.737 540.372 482.644 540.478 482.587 540.603C482.553 540.696 482.539 540.795 482.545 540.894Z" fill="#E3EDF9"/>
<path d="M479.705 540.894C479.706 541.083 479.782 541.264 479.915 541.397C480.048 541.531 480.229 541.606 480.417 541.607H481.484C481.673 541.607 481.854 541.532 481.987 541.398C482.121 541.265 482.196 541.083 482.196 540.894C482.198 540.792 482.176 540.691 482.134 540.598C482.076 540.475 481.985 540.371 481.87 540.297C481.756 540.224 481.624 540.184 481.488 540.182H480.422C480.328 540.181 480.235 540.199 480.148 540.235C480.062 540.27 479.983 540.323 479.917 540.389C479.85 540.455 479.798 540.534 479.762 540.621C479.727 540.708 479.709 540.801 479.709 540.894H479.705Z" fill="#E3EDF9"/>
<path d="M476.507 540.894C476.508 541.083 476.583 541.264 476.717 541.397C476.85 541.531 477.031 541.606 477.219 541.607H478.285C478.416 541.607 478.543 541.571 478.655 541.504C478.766 541.436 478.857 541.339 478.917 541.223C478.977 541.108 479.004 540.978 478.996 540.848C478.987 540.718 478.943 540.593 478.869 540.486L478.785 540.394C478.72 540.328 478.642 540.275 478.557 540.239C478.471 540.204 478.378 540.185 478.285 540.186H477.219C477.122 540.187 477.026 540.208 476.937 540.247C476.849 540.287 476.769 540.344 476.703 540.415C476.577 540.543 476.507 540.715 476.507 540.894Z" fill="#E3EDF9"/>
<path opacity="0.1" d="M485.76 540.723C485.746 540.779 485.739 540.837 485.739 540.894C485.74 541.083 485.816 541.264 485.949 541.397C486.082 541.531 486.263 541.606 486.452 541.607H487.518C487.707 541.607 487.888 541.532 488.022 541.398C488.155 541.265 488.23 541.083 488.23 540.894C488.234 540.867 488.234 540.839 488.23 540.811L485.76 540.723Z" fill="black"/>
<path opacity="0.1" d="M482.604 540.611C482.567 540.699 482.547 540.794 482.546 540.89C482.547 541.079 482.622 541.259 482.756 541.393C482.889 541.526 483.07 541.602 483.258 541.603H484.324C484.418 541.603 484.511 541.584 484.597 541.549C484.683 541.513 484.762 541.46 484.828 541.394C484.894 541.328 484.947 541.249 484.983 541.163C485.018 541.076 485.037 540.984 485.037 540.89C485.036 540.824 485.027 540.758 485.008 540.694L482.604 540.611Z" fill="black"/>
<path opacity="0.1" d="M479.809 540.515C479.739 540.628 479.702 540.758 479.701 540.89C479.702 541.079 479.778 541.26 479.911 541.393C480.044 541.526 480.225 541.602 480.413 541.603H481.48C481.669 541.603 481.85 541.528 481.983 541.394C482.117 541.261 482.192 541.079 482.192 540.89C482.194 540.788 482.173 540.687 482.13 540.594L479.809 540.515Z" fill="black"/>
<path opacity="0.1" d="M476.507 540.894C476.508 541.083 476.583 541.264 476.717 541.397C476.85 541.531 477.031 541.606 477.219 541.607H478.285C478.416 541.607 478.543 541.571 478.655 541.504C478.766 541.436 478.857 541.339 478.917 541.223C478.977 541.108 479.004 540.978 478.996 540.848C478.987 540.718 478.943 540.593 478.869 540.486L476.703 540.411C476.576 540.54 476.506 540.714 476.507 540.894Z" fill="black"/>
<path d="M470.119 543.736H490.712V542.799C490.712 542.382 490.551 541.982 490.262 541.683C489.973 541.384 489.579 541.208 489.163 541.194L472.647 540.623C472.319 540.612 471.992 540.667 471.685 540.785C471.379 540.903 471.099 541.081 470.863 541.309C470.627 541.538 470.439 541.811 470.31 542.113C470.182 542.416 470.116 542.741 470.115 543.07L470.119 543.736Z" fill="#D6D6E3"/>
<path d="M556.314 555.034C565.921 538.727 562.44 505.835 562.827 505.206C563.172 504.652 561.848 489.162 553.02 485.378C551.425 482.215 549.855 478.652 549.855 478.652C549.7 478.798 549.53 478.925 549.347 479.032C549.277 478.843 549.209 478.651 549.143 478.457C549.03 478.127 548.926 477.79 548.822 477.452C549.069 477.531 549.321 477.595 549.576 477.644C550.249 477.808 550.958 477.745 551.591 477.465C551.807 477.349 552.003 477.198 552.17 477.019C552.866 476.556 553.249 475.723 553.574 474.935L556.143 468.776C557.301 465.997 558.467 463.2 559.083 460.254C560 455.82 559.645 451.218 558.059 446.977C557.451 445.36 556.609 443.744 555.181 442.777C552.32 440.835 548.339 442.177 545.07 441.039C543.995 440.664 543.025 440.031 541.951 439.647C539.631 438.814 537.012 439.26 534.78 440.297C532.548 441.335 530.74 442.985 528.787 444.464C527.825 445.202 526.289 445.965 525.156 446.965C524.056 447.823 523.211 448.861 523.373 450.228C523.557 451.79 525.202 452.728 526.734 453.095C526.988 453.153 527.251 453.199 527.509 453.245C525.69 455.089 524.379 457.373 523.704 459.874C523.03 462.375 523.014 465.009 523.658 467.518C524.303 470.028 525.586 472.327 527.382 474.193C529.179 476.059 531.427 477.427 533.909 478.165C534.691 479.633 535.367 481.155 535.933 482.72C536.008 482.934 536.082 483.149 536.154 483.366C533.63 484.082 531.656 484.678 531.261 485.008C530.066 485.999 532.568 494.684 532.568 494.684C531.931 495.492 531.282 496.413 530.624 497.401C525.634 504.985 522.475 513.626 521.395 522.642C520.979 525.938 520.438 529.309 519.75 532.514L489.904 526.526L489.842 527.263L489.13 527.088L486.889 526.534L486.802 527.038L486.46 526.876C480.909 524.271 471.556 520.946 465.222 524.375C458.538 527.976 472.964 532.76 482.221 535.306C479.152 535.456 476.216 536.194 473.892 537.919C467.179 542.953 486.165 545.574 495.131 546.503L495.493 546.541V546.733L498.6 547.02L499.328 547.087L499.399 548.195C499.399 548.195 503.847 548.925 509.789 549.808C503.005 551.504 494.623 552.679 488.801 553.367C482.629 554.092 477.374 558.393 475.716 564.389C475.181 566.109 475.129 567.943 475.566 569.69C477.299 575.745 475.183 620.289 474.704 629.882L463.731 636.203C463.731 636.203 446.657 638.287 458.03 642.292C459.055 642.642 460.103 642.92 461.166 643.125C459.667 644.092 459.796 645.355 464.214 646.905C475.596 650.897 502.052 646.73 502.052 646.73C502.052 646.73 501.473 642.037 500.532 638.137L500.823 638.162C500.823 638.162 498.092 627.99 502.235 622.86C506.379 617.73 501.54 578.687 501.54 578.687C501.54 578.687 508.794 575.682 530.478 575.487C547.968 579.979 556.493 563.898 556.372 555.584C556.335 555.396 556.326 555.205 556.314 555.034Z" fill="url(#paint0_linear)"/>
<path d="M491.674 529.764L489.821 537.265C489.821 537.265 488.155 536.89 485.657 536.248C477.195 534.056 459.346 528.793 466.5 524.93C472.668 521.596 481.75 524.838 487.143 527.367C489.117 528.297 490.6 529.13 491.262 529.522C491.541 529.68 491.674 529.764 491.674 529.764Z" fill="#F8B9BF"/>
<path opacity="0.1" d="M491.153 531.88L489.821 537.298C489.821 537.298 488.155 536.923 485.656 536.281L487.16 527.401C489.134 528.33 490.616 529.163 491.278 529.555L491.153 531.88Z" fill="black"/>
<path d="M491.158 537.811L485.985 536.531L487.593 527.047L491.728 528.068L491.158 537.811Z" fill="#D9DFE8"/>
<path opacity="0.1" d="M491.157 537.811L488.925 537.261L489.766 527.584L491.727 528.068L491.157 537.811Z" fill="black"/>
<path d="M541.063 498.526C541.063 498.526 531.131 492.783 526.717 509.257C522.302 525.73 521.886 533.318 521.886 533.318L490.52 527.042L489.524 538.506C489.524 538.506 523.06 549.341 527.279 548.554C531.497 547.766 545.186 524.8 545.186 524.8C545.186 524.8 557.629 507.002 541.063 498.526Z" fill="#F2CC44"/>
<g opacity="0.1">
<path opacity="0.1" d="M491.674 529.764L489.821 537.265C489.821 537.265 488.155 536.89 485.657 536.248C477.195 534.056 459.346 528.793 466.5 524.93C472.668 521.596 481.75 524.838 487.143 527.367C489.117 528.297 490.6 529.13 491.262 529.522C491.541 529.68 491.674 529.764 491.674 529.764Z" fill="black"/>
<path opacity="0.1" d="M491.153 531.881L489.821 537.298C489.821 537.298 488.155 536.923 485.656 536.281L487.16 527.401C489.134 528.33 490.616 529.164 491.278 529.555L491.153 531.881Z" fill="black"/>
<path opacity="0.1" d="M491.158 537.81L485.985 536.531L487.593 527.046L491.728 528.067L491.158 537.81Z" fill="black"/>
<path opacity="0.1" d="M491.158 537.81L488.926 537.26L489.767 527.584L491.728 528.068L491.158 537.81Z" fill="black"/>
<path opacity="0.1" d="M541.064 498.943C541.064 498.943 531.132 493.2 526.717 509.673C522.303 526.146 521.887 533.735 521.887 533.735L490.521 527.459L489.525 538.923C489.525 538.923 523.061 549.758 527.28 548.97C531.498 548.183 545.187 525.217 545.187 525.217C545.187 525.217 557.63 507.419 541.064 498.943Z" fill="#F2CC44"/>
</g>
<path d="M477.889 626.168L465.084 633.549C465.084 633.549 448.493 635.582 459.545 639.458C470.598 643.333 496.292 639.287 496.292 639.287C496.292 639.287 494.863 627.735 492.873 626.123C490.882 624.51 477.889 626.168 477.889 626.168Z" fill="#68739D"/>
<path d="M527.8 543.365C527.8 543.365 521.428 546.699 510.11 549.579C503.476 551.246 495.172 552.429 489.433 553.104C486.496 553.424 483.719 554.61 481.457 556.512C479.194 558.413 477.546 560.945 476.724 563.785C476.2 565.461 476.149 567.249 476.578 568.952C478.465 575.549 475.649 629.173 475.649 629.173L495.097 630.973C495.097 630.973 492.444 621.093 496.471 616.113C500.498 611.133 495.797 573.228 495.797 573.228C495.797 573.228 502.843 570.311 523.898 570.119C543.404 575.12 551.441 553.754 548.43 547.766C545.419 541.778 527.8 543.365 527.8 543.365Z" fill="#6394E2"/>
<g opacity="0.1">
<path opacity="0.1" d="M477.889 626.168L465.084 633.549C465.084 633.549 448.493 635.582 459.545 639.458C470.598 643.333 496.292 639.287 496.292 639.287C496.292 639.287 494.863 627.735 492.873 626.123C490.882 624.51 477.889 626.168 477.889 626.168Z" fill="black"/>
<path opacity="0.1" d="M527.8 543.365C527.8 543.365 521.428 546.699 510.11 549.579C503.476 551.246 495.172 552.429 489.433 553.104C486.496 553.424 483.719 554.61 481.457 556.512C479.194 558.413 477.546 560.945 476.724 563.785C476.2 565.461 476.149 567.249 476.578 568.952C478.465 575.549 475.649 629.173 475.649 629.173L495.097 630.973C495.097 630.973 492.444 621.093 496.471 616.113C500.498 611.133 495.797 573.228 495.797 573.228C495.797 573.228 502.843 570.311 523.898 570.119C543.404 575.12 551.441 553.754 548.43 547.766C545.419 541.778 527.8 543.365 527.8 543.365Z" fill="black"/>
</g>
<path d="M483.895 630.648L471.089 638.028C471.089 638.028 454.507 640.045 465.551 643.938C476.594 647.83 502.297 643.767 502.297 643.767C502.297 643.767 500.869 632.215 498.878 630.602C496.887 628.99 483.895 630.648 483.895 630.648Z" fill="#68739D"/>
<path d="M529.881 574.599C508.826 574.791 501.78 577.708 501.78 577.708C501.78 577.708 506.482 615.63 502.455 620.593C498.428 625.556 501.08 635.453 501.08 635.453L481.633 633.653C481.633 633.653 481.666 633.019 481.72 631.886C482.187 622.568 484.24 579.312 482.553 573.432C482.128 571.734 482.178 569.952 482.699 568.281C483.518 565.438 485.163 562.901 487.425 560.995C489.687 559.089 492.465 557.899 495.404 557.576C501.139 556.905 509.443 555.738 516.076 554.05L516.401 553.967C527.52 551.108 533.767 547.837 533.767 547.837C533.767 547.837 551.386 546.253 554.397 552.242C554.822 553.191 555.032 554.223 555.013 555.263C555.163 563.343 546.876 578.962 529.881 574.599Z" fill="#6394E2"/>
<path d="M500.552 539.111L499.84 546.82C499.84 546.82 498.128 546.699 495.584 546.433C486.893 545.528 468.457 542.986 474.974 538.098C480.58 533.897 490.041 535.731 495.75 537.431C497.833 538.056 499.432 538.661 500.144 538.948C500.406 539.048 500.552 539.111 500.552 539.111Z" fill="#F8B9BF"/>
<path d="M552.278 488.708C552.278 488.708 549.671 490.75 546.485 492.992C542.991 493.783 538.935 494.438 536.012 494.863C537.057 491.529 536.428 487.778 535.25 484.491C533.968 481.055 532.208 477.817 530.023 474.873L547.647 469.368C546.264 472.872 546.889 476.869 548.063 480.344C549.1 483.303 550.517 486.114 552.278 488.708Z" fill="#F8B9BF"/>
<path opacity="0.1" d="M500.352 541.282L499.84 546.82C499.84 546.82 498.128 546.699 495.584 546.433L495.751 537.427C497.833 538.052 499.432 538.657 500.144 538.944L500.352 541.282Z" fill="black"/>
<path d="M501.239 547.145L495.934 546.653L496.108 537.035L500.352 537.427L501.239 547.145Z" fill="#D9DFE8"/>
<path opacity="0.1" d="M552.278 488.708C552.278 488.708 549.671 490.75 546.485 492.992C542.992 493.783 538.935 494.438 536.012 494.863C537.057 491.529 536.429 487.779 535.25 484.491C539.556 483.24 545.715 481.624 548.068 480.323C549.102 483.289 550.517 486.108 552.278 488.708Z" fill="black"/>
<path d="M548.755 480.532C548.755 480.532 551.704 487.228 553.561 490.254C555.418 493.279 531.981 496.088 531.981 496.088C531.981 496.088 529.549 487.658 530.711 486.691C531.873 485.724 546.794 482.49 548.755 480.532Z" fill="#D9DFE8"/>
<path opacity="0.1" d="M555.047 555.267C554.061 557.007 552.833 558.599 551.399 559.993C541.046 569.836 524.076 559.576 516.418 553.967C527.537 551.108 533.783 547.837 533.783 547.837C533.783 547.837 551.403 546.253 554.414 552.242C554.845 553.191 555.061 554.224 555.047 555.267Z" fill="black"/>
<path d="M551.466 559.288C539.698 570.473 519.4 555.663 513.928 551.3C513.041 550.591 512.546 550.154 512.546 550.154C514.707 548.129 516.606 543.836 518.109 538.586C519.511 533.562 520.523 528.438 521.137 523.259C522.185 514.502 525.253 506.109 530.099 498.743C530.736 497.784 531.348 496.888 531.985 496.105C536.429 490.45 543.895 486.858 543.895 486.858C559.653 482.249 561.773 505.639 561.352 506.315C560.932 506.99 565.146 546.283 551.466 559.288Z" fill="#F2CC44"/>
<path opacity="0.1" d="M552.99 527.313C552.99 527.313 542.858 552.067 538.806 553.479C536.487 554.284 524.098 552.758 513.928 551.304C513.041 550.596 512.546 550.158 512.546 550.158C514.707 548.133 516.606 543.84 518.109 538.59L531.206 539.215C531.206 539.215 530.478 531.655 532.402 514.703C534.326 497.751 544.991 501.951 544.991 501.951C562.635 507.865 552.99 527.313 552.99 527.313Z" fill="black"/>
<path opacity="0.1" d="M501.239 547.145L498.949 546.933L498.341 537.244L500.352 537.427L501.239 547.145Z" fill="black"/>
<path d="M544.736 500.86C544.736 500.86 534.071 496.663 532.147 513.611C530.224 530.56 530.952 538.123 530.952 538.123L498.999 536.594L499.719 548.079C499.719 548.079 534.496 553.792 538.548 552.383C542.6 550.975 552.732 526.217 552.732 526.217C552.732 526.217 562.364 506.769 544.736 500.86Z" fill="#F2CC44"/>
<path opacity="0.1" d="M545.452 475.764C544.986 473.231 547.63 473.264 548.58 470.88L530.956 476.385C532.179 478.029 533.271 479.766 534.221 481.582C535.135 481.853 536.074 482.035 537.024 482.124C541.225 482.524 542.537 478.386 545.452 475.764Z" fill="black"/>
<path d="M551.915 467.437C552.654 459.425 546.764 452.33 538.757 451.59C530.751 450.849 523.661 456.744 522.921 464.756C522.181 472.768 528.072 479.863 536.078 480.604C544.084 481.344 551.175 475.449 551.915 467.437Z" fill="#F8B9BF"/>
<path opacity="0.1" d="M523.052 452.936C523.231 454.453 524.83 455.378 526.317 455.72C527.803 456.062 529.415 456.078 530.718 456.874C532.801 458.158 533.363 461.008 533.1 463.459C532.955 464.842 532.746 466.538 533.879 467.342C534.235 467.561 534.632 467.702 535.045 467.759C536.227 467.999 537.44 468.041 538.635 467.884C539.335 467.793 540.055 467.634 540.717 467.83C541.808 468.147 542.454 469.297 542.666 470.41C542.878 471.522 542.762 472.681 542.933 473.802C543.17 475.205 543.828 476.504 544.818 477.526C545.808 478.548 547.085 479.246 548.479 479.527C549.133 479.687 549.821 479.625 550.437 479.352C551.228 478.936 551.632 478.048 551.973 477.219L554.472 471.235C555.596 468.538 556.729 465.817 557.329 462.959C558.219 458.653 557.874 454.183 556.334 450.065C555.742 448.498 554.926 446.927 553.539 445.985C550.762 444.098 546.876 445.402 543.72 444.318C542.674 443.956 541.733 443.339 540.692 442.968C538.439 442.164 535.895 442.589 533.725 443.602C531.555 444.614 529.802 446.21 527.895 447.665C526.242 448.952 522.739 450.315 523.052 452.936Z" fill="black"/>
<path d="M523.436 452.615C523.615 454.132 525.214 455.057 526.701 455.399C528.188 455.741 529.799 455.758 531.103 456.553C533.185 457.837 533.747 460.687 533.485 463.138C533.339 464.521 533.131 466.217 534.263 467.022C534.619 467.24 535.016 467.382 535.429 467.438C536.611 467.678 537.824 467.72 539.019 467.563C539.719 467.472 540.439 467.313 541.101 467.509C542.192 467.826 542.838 468.976 543.05 470.089C543.263 471.201 543.146 472.36 543.317 473.481C543.555 474.884 544.212 476.183 545.202 477.205C546.193 478.227 547.469 478.925 548.864 479.207C549.518 479.366 550.206 479.304 550.821 479.032C551.612 478.615 552.016 477.727 552.358 476.898L554.856 470.914C555.981 468.218 557.113 465.496 557.713 462.638C558.603 458.332 558.258 453.862 556.718 449.744C556.126 448.177 555.31 446.606 553.923 445.664C551.146 443.777 547.26 445.081 544.104 443.998C543.059 443.635 542.117 443.018 541.076 442.647C538.823 441.843 536.279 442.268 534.109 443.281C531.94 444.293 530.187 445.89 528.279 447.344C526.63 448.632 523.128 449.994 523.436 452.615Z" fill="#B96B6B"/>
<path opacity="0.1" d="M535.495 510.169C535.495 510.169 529.936 531.781 524.401 533.781C518.867 535.781 521.311 536.348 521.311 536.348" fill="black"/>
<path d="M535.758 589.338H529.716V629.081H535.758V589.338Z" fill="#D6D6E3"/>
<path opacity="0.1" d="M535.758 589.338H529.716V592.285H535.758V589.338Z" fill="black"/>
<path d="M517.626 589.13V589.964C517.626 590.22 517.676 590.474 517.775 590.711C517.873 590.949 518.017 591.164 518.198 591.346C518.379 591.527 518.595 591.671 518.832 591.769C519.069 591.867 519.323 591.918 519.579 591.918H545.89C546.146 591.918 546.4 591.867 546.637 591.769C546.874 591.671 547.089 591.527 547.271 591.346C547.452 591.164 547.596 590.949 547.694 590.711C547.792 590.474 547.843 590.22 547.843 589.964V589.13C547.843 588.873 547.792 588.619 547.694 588.382C547.596 588.145 547.452 587.93 547.271 587.748C547.089 587.567 546.874 587.423 546.637 587.324C546.4 587.226 546.146 587.176 545.89 587.176H519.579C519.323 587.176 519.069 587.226 518.832 587.324C518.595 587.423 518.379 587.567 518.198 587.748C518.017 587.93 517.873 588.145 517.775 588.382C517.676 588.619 517.626 588.873 517.626 589.13Z" fill="#D6D6E3"/>
<path opacity="0.1" d="M518.076 587.888H547.398C547.215 587.665 546.985 587.485 546.724 587.362C546.463 587.239 546.178 587.175 545.89 587.176H519.58C519.292 587.176 519.008 587.24 518.748 587.363C518.488 587.486 518.258 587.666 518.076 587.888Z" fill="black"/>
<path d="M555.272 626.919H510.209C508.944 626.919 507.919 627.945 507.919 629.211V629.377C507.919 630.643 508.944 631.669 510.209 631.669H555.272C556.537 631.669 557.562 630.643 557.562 629.377V629.211C557.562 627.945 556.537 626.919 555.272 626.919Z" fill="#D6D6E3"/>
<path d="M554.756 637.72C556.426 637.72 557.779 636.366 557.779 634.695C557.779 633.024 556.426 631.669 554.756 631.669C553.086 631.669 551.732 633.024 551.732 634.695C551.732 636.366 553.086 637.72 554.756 637.72Z" fill="#535461"/>
<path d="M510.722 637.72C512.391 637.72 513.745 636.366 513.745 634.695C513.745 633.024 512.391 631.669 510.722 631.669C509.052 631.669 507.698 633.024 507.698 634.695C507.698 636.366 509.052 637.72 510.722 637.72Z" fill="#535461"/>
<path d="M532.739 637.72C534.409 637.72 535.762 636.366 535.762 634.695C535.762 633.024 534.409 631.669 532.739 631.669C531.069 631.669 529.716 633.024 529.716 634.695C529.716 636.366 531.069 637.72 532.739 637.72Z" fill="#535461"/>
<path d="M570.264 540.523H529.857C527.902 540.523 526.317 542.109 526.317 544.065V544.324C526.317 546.28 527.902 547.866 529.857 547.866H570.264C572.219 547.866 573.804 546.28 573.804 544.324V544.065C573.804 542.109 572.219 540.523 570.264 540.523Z" fill="#D6D6E3"/>
<path opacity="0.1" d="M535.758 626.919C535.758 626.919 533.385 629.265 529.716 626.919H535.758Z" fill="black"/>
<path opacity="0.1" d="M573.804 544.27V544.849C573.804 545.65 573.486 546.419 572.919 546.985C572.353 547.552 571.585 547.87 570.785 547.87H529.337C528.536 547.87 527.768 547.552 527.202 546.985C526.635 546.419 526.317 545.65 526.317 544.849V544.27H573.804Z" fill="black"/>
<path d="M494.797 551.021H486.631V655.143H494.797V551.021Z" fill="#D6D6E3"/>
<path opacity="0.1" d="M494.797 551.021H486.631V557.772H494.797V551.021Z" fill="black"/>
<path d="M247.183 592.18H241.141V631.923H247.183V592.18Z" fill="#D6D6E3"/>
<path opacity="0.1" d="M247.183 592.18H241.141V595.127H247.183V592.18Z" fill="black"/>
<path d="M259.268 591.976V592.81C259.268 593.328 259.063 593.825 258.696 594.192C258.33 594.558 257.833 594.764 257.315 594.764H231.005C230.487 594.764 229.99 594.558 229.624 594.192C229.258 593.825 229.052 593.328 229.052 592.81V591.976C229.056 591.461 229.264 590.968 229.63 590.605C229.995 590.242 230.49 590.039 231.005 590.039H257.315C257.572 590.039 257.826 590.089 258.063 590.187C258.3 590.286 258.515 590.43 258.696 590.611C258.878 590.792 259.022 591.008 259.12 591.245C259.218 591.482 259.268 591.736 259.268 591.993V591.976Z" fill="#D6D6E3"/>
<path opacity="0.1" d="M258.823 590.73H229.497C229.682 590.511 229.913 590.335 230.173 590.215C230.434 590.096 230.718 590.035 231.005 590.038H257.315C257.602 590.035 257.886 590.096 258.146 590.215C258.407 590.335 258.638 590.511 258.823 590.73Z" fill="black"/>
<path d="M266.693 629.761H221.63C220.365 629.761 219.34 630.787 219.34 632.053V632.219C219.34 633.485 220.365 634.511 221.63 634.511H266.693C267.958 634.511 268.983 633.485 268.983 632.219V632.053C268.983 630.787 267.958 629.761 266.693 629.761Z" fill="#D6D6E3"/>
<path d="M222.147 640.562C223.817 640.562 225.171 639.207 225.171 637.537C225.171 635.866 223.817 634.511 222.147 634.511C220.478 634.511 219.124 635.866 219.124 637.537C219.124 639.207 220.478 640.562 222.147 640.562Z" fill="#535461"/>
<path d="M266.177 640.562C267.846 640.562 269.2 639.207 269.2 637.537C269.2 635.866 267.846 634.511 266.177 634.511C264.507 634.511 263.153 635.866 263.153 637.537C263.153 639.207 264.507 640.562 266.177 640.562Z" fill="#535461"/>
<path d="M244.16 640.562C245.83 640.562 247.183 639.207 247.183 637.537C247.183 635.866 245.83 634.511 244.16 634.511C242.49 634.511 241.137 635.866 241.137 637.537C241.137 639.207 242.49 640.562 244.16 640.562Z" fill="#535461"/>
<path opacity="0.1" d="M241.141 629.761C241.141 629.761 243.514 632.107 247.183 629.761H241.141Z" fill="black"/>
<path d="M395.294 510.119C395.294 510.119 388.514 497.788 390.992 487.07C392.06 482.581 391.643 477.867 389.805 473.635C388.923 471.633 387.859 469.717 386.628 467.909" stroke="#535461" stroke-width="2" stroke-miterlimit="10"/>
<path d="M388.13 461.142C388.484 462.759 386.59 468.088 386.59 468.088C386.59 468.088 382.638 464.046 382.279 462.429C382.16 462.034 382.123 461.618 382.171 461.208C382.219 460.798 382.352 460.402 382.56 460.046C382.769 459.69 383.049 459.38 383.382 459.137C383.716 458.894 384.096 458.722 384.499 458.633C384.902 458.544 385.319 458.54 385.724 458.62C386.129 458.7 386.513 458.863 386.852 459.098C387.191 459.334 387.478 459.637 387.694 459.988C387.911 460.34 388.052 460.733 388.11 461.142H388.13Z" fill="#A02A79"/>
<path d="M394.931 469.03C394.352 470.58 389.867 474.031 389.867 474.031C389.867 474.031 388.743 468.488 389.326 466.947C389.451 466.563 389.652 466.208 389.917 465.904C390.183 465.6 390.507 465.352 390.87 465.176C391.233 465.001 391.628 464.9 392.031 464.881C392.434 464.862 392.837 464.924 393.215 465.065C393.593 465.205 393.939 465.421 394.232 465.699C394.525 465.976 394.759 466.31 394.92 466.681C395.08 467.051 395.165 467.45 395.167 467.854C395.17 468.258 395.091 468.658 394.935 469.03H394.931Z" fill="#A02A79"/>
<path d="M398.08 484.374C396.797 485.42 391.188 486.124 391.188 486.124C391.188 486.124 393.016 480.774 394.298 479.728C394.603 479.475 394.954 479.285 395.332 479.17C395.71 479.054 396.107 479.014 396.501 479.052C396.894 479.091 397.276 479.207 397.625 479.394C397.973 479.581 398.281 479.836 398.531 480.142C398.78 480.449 398.967 480.802 399.079 481.182C399.192 481.561 399.228 481.959 399.186 482.352C399.144 482.746 399.025 483.127 398.835 483.474C398.645 483.821 398.388 484.127 398.08 484.374Z" fill="#A02A79"/>
<path d="M397.85 496.517C396.763 497.768 391.354 499.409 391.354 499.409C391.354 499.409 392.249 493.825 393.336 492.579C393.59 492.269 393.904 492.013 394.259 491.827C394.614 491.64 395.003 491.527 395.402 491.494C395.802 491.46 396.204 491.507 396.585 491.633C396.966 491.758 397.317 491.958 397.619 492.222C397.922 492.486 398.168 492.807 398.343 493.168C398.519 493.529 398.62 493.921 398.641 494.322C398.662 494.722 398.603 495.123 398.466 495.5C398.329 495.877 398.118 496.223 397.846 496.517H397.85Z" fill="#A02A79"/>
<path d="M383.795 475.685C385.203 476.556 390.854 476.519 390.854 476.519C390.854 476.519 388.355 471.447 386.948 470.576C386.614 470.356 386.239 470.206 385.845 470.133C385.452 470.061 385.048 470.068 384.657 470.154C384.267 470.24 383.897 470.404 383.571 470.636C383.245 470.867 382.968 471.162 382.757 471.502C382.547 471.842 382.406 472.221 382.345 472.617C382.283 473.012 382.301 473.416 382.398 473.805C382.494 474.193 382.668 474.558 382.908 474.878C383.148 475.198 383.45 475.467 383.795 475.669V475.685Z" fill="#A02A79"/>
<path d="M383.713 489.895C385.316 490.312 390.701 488.595 390.701 488.595C390.701 488.595 386.798 484.503 385.195 484.095C384.439 483.934 383.65 484.072 382.993 484.48C382.337 484.887 381.863 485.534 381.671 486.283C381.48 487.032 381.585 487.827 381.966 488.5C382.346 489.173 382.972 489.673 383.713 489.895Z" fill="#A02A79"/>
<path d="M385.516 503.714C387.023 504.389 392.624 503.614 392.624 503.614C392.624 503.614 389.468 498.922 387.96 498.247C387.235 497.922 386.411 497.899 385.669 498.183C384.927 498.467 384.328 499.034 384.004 499.759C383.68 500.485 383.657 501.31 383.94 502.052C384.224 502.794 384.791 503.394 385.516 503.718V503.714Z" fill="#A02A79"/>
<path d="M388.13 461.142C388.484 462.759 386.59 468.088 386.59 468.088C386.59 468.088 382.638 464.046 382.279 462.429C382.16 462.034 382.123 461.618 382.171 461.208C382.219 460.798 382.352 460.402 382.56 460.046C382.769 459.69 383.049 459.38 383.382 459.137C383.716 458.894 384.096 458.722 384.499 458.633C384.902 458.544 385.319 458.54 385.724 458.62C386.129 458.7 386.513 458.863 386.852 459.098C387.191 459.334 387.478 459.637 387.694 459.988C387.911 460.34 388.052 460.733 388.11 461.142H388.13Z" fill="#F2CC44"/>
<path d="M394.931 469.03C394.352 470.58 389.867 474.031 389.867 474.031C389.867 474.031 388.743 468.488 389.326 466.947C389.451 466.563 389.652 466.208 389.917 465.904C390.183 465.6 390.507 465.352 390.87 465.176C391.233 465.001 391.628 464.9 392.031 464.881C392.434 464.862 392.837 464.924 393.215 465.065C393.593 465.205 393.939 465.421 394.232 465.699C394.525 465.976 394.759 466.31 394.92 466.681C395.08 467.051 395.165 467.45 395.167 467.854C395.17 468.258 395.091 468.658 394.935 469.03H394.931Z" fill="#F2CC44"/>
<path d="M398.08 484.374C396.797 485.42 391.188 486.124 391.188 486.124C391.188 486.124 393.016 480.774 394.298 479.728C394.603 479.475 394.954 479.285 395.332 479.17C395.71 479.054 396.107 479.014 396.501 479.052C396.894 479.091 397.276 479.207 397.625 479.394C397.973 479.581 398.281 479.836 398.531 480.142C398.78 480.449 398.967 480.802 399.079 481.182C399.192 481.561 399.228 481.959 399.186 482.352C399.144 482.746 399.025 483.127 398.835 483.474C398.645 483.821 398.388 484.127 398.08 484.374Z" fill="#F2CC44"/>
<path d="M397.85 496.517C396.763 497.768 391.354 499.409 391.354 499.409C391.354 499.409 392.249 493.825 393.336 492.579C393.59 492.269 393.904 492.013 394.259 491.827C394.614 491.64 395.003 491.527 395.402 491.494C395.802 491.46 396.204 491.507 396.585 491.633C396.966 491.758 397.317 491.958 397.619 492.222C397.922 492.486 398.168 492.807 398.343 493.168C398.519 493.529 398.62 493.921 398.641 494.322C398.662 494.722 398.603 495.123 398.466 495.5C398.329 495.877 398.118 496.223 397.846 496.517H397.85Z" fill="#F2CC44"/>
<path d="M383.795 475.685C385.203 476.556 390.854 476.519 390.854 476.519C390.854 476.519 388.355 471.447 386.948 470.576C386.614 470.356 386.239 470.206 385.845 470.133C385.452 470.061 385.048 470.068 384.657 470.154C384.267 470.24 383.897 470.404 383.571 470.636C383.245 470.867 382.968 471.162 382.757 471.502C382.547 471.842 382.406 472.221 382.345 472.617C382.283 473.012 382.301 473.416 382.398 473.805C382.494 474.193 382.668 474.558 382.908 474.878C383.148 475.198 383.45 475.467 383.795 475.669V475.685Z" fill="#F2CC44"/>
<path d="M383.713 489.895C385.316 490.312 390.701 488.595 390.701 488.595C390.701 488.595 386.798 484.503 385.195 484.095C384.439 483.934 383.65 484.072 382.993 484.48C382.337 484.887 381.863 485.534 381.671 486.283C381.48 487.032 381.585 487.827 381.966 488.5C382.346 489.173 382.972 489.673 383.713 489.895Z" fill="#F2CC44"/>
<path d="M385.516 503.714C387.023 504.389 392.624 503.614 392.624 503.614C392.624 503.614 389.468 498.922 387.96 498.247C387.235 497.922 386.411 497.899 385.669 498.183C384.927 498.467 384.328 499.034 384.004 499.759C383.68 500.485 383.657 501.31 383.94 502.052C384.224 502.794 384.791 503.394 385.516 503.718V503.714Z" fill="#F2CC44"/>
<path d="M392.537 544.32C391.562 544.32 390.596 544.12 389.701 543.733C388.806 543.345 388 542.778 387.332 542.067C386.664 541.355 386.149 540.514 385.819 539.596C385.489 538.678 385.35 537.701 385.412 536.727L387.406 505.098H397.667L399.662 536.727C399.724 537.701 399.585 538.678 399.255 539.596C398.924 540.514 398.409 541.355 397.742 542.067C397.074 542.778 396.268 543.345 395.373 543.733C394.477 544.12 393.512 544.32 392.537 544.32Z" fill="#F2CC44"/>
<path opacity="0.1" d="M184.78 388.828H178.95V412.998H184.78V388.828Z" fill="#A02A79"/>
<path opacity="0.1" d="M192.276 388.828H186.446V412.998H192.276V388.828Z" fill="#A02A79"/>
<path opacity="0.1" d="M199.772 388.828H193.941V412.998H199.772V388.828Z" fill="#A02A79"/>
<path opacity="0.1" d="M207.268 388.828H201.438V412.998H207.268V388.828Z" fill="#A02A79"/>
<path opacity="0.1" d="M222.26 388.828H216.43V412.998H222.26V388.828Z" fill="#A02A79"/>
<path opacity="0.1" d="M229.755 388.828H223.925V412.998H229.755V388.828Z" fill="#A02A79"/>
<path opacity="0.1" d="M184.78 393.411H178.95V394.662H184.78V393.411Z" fill="#A02A79"/>
<path opacity="0.1" d="M184.78 408.414H178.95V409.664H184.78V408.414Z" fill="#A02A79"/>
<path opacity="0.1" d="M192.276 393.411H186.446V394.662H192.276V393.411Z" fill="#A02A79"/>
<path opacity="0.1" d="M192.276 408.414H186.446V409.664H192.276V408.414Z" fill="#A02A79"/>
<path opacity="0.1" d="M199.772 393.411H193.941V394.662H199.772V393.411Z" fill="#A02A79"/>
<path opacity="0.1" d="M199.772 408.414H193.941V409.664H199.772V408.414Z" fill="#A02A79"/>
<path opacity="0.1" d="M207.268 393.411H201.438V394.662H207.268V393.411Z" fill="#A02A79"/>
<path opacity="0.1" d="M207.268 408.414H201.438V409.664H207.268V408.414Z" fill="#A02A79"/>
<path opacity="0.1" d="M214.764 393.411H208.934V394.662H214.764V393.411Z" fill="#A02A79"/>
<path opacity="0.1" d="M214.764 408.414H208.934V409.664H214.764V408.414Z" fill="#A02A79"/>
<path opacity="0.1" d="M222.26 393.411H216.43V394.662H222.26V393.411Z" fill="#A02A79"/>
<path opacity="0.1" d="M222.26 408.414H216.43V409.664H222.26V408.414Z" fill="#A02A79"/>
<path opacity="0.1" d="M229.755 393.411H223.925V394.662H229.755V393.411Z" fill="#A02A79"/>
<path opacity="0.1" d="M229.755 408.414H223.925V409.664H229.755V408.414Z" fill="#A02A79"/>
<path opacity="0.1" d="M214.764 388.828H208.934V412.998H214.764V388.828Z" fill="#A02A79"/>
<path opacity="0.1" d="M231.672 432.825L229.089 438.055L250.741 448.766L253.325 443.536L231.672 432.825Z" fill="#A02A79"/>
<path opacity="0.1" d="M235.783 434.859L233.199 440.089L234.319 440.643L236.903 435.413L235.783 434.859Z" fill="#A02A79"/>
<path opacity="0.1" d="M249.218 441.508L246.635 446.738L247.755 447.292L250.338 442.062L249.218 441.508Z" fill="#A02A79"/>
<path opacity="0.1" d="M234.502 427.123L236.143 432.721L259.32 425.922L257.68 420.323L234.502 427.123Z" fill="#A02A79"/>
<path opacity="0.1" d="M238.903 425.833L240.543 431.431L241.742 431.079L240.102 425.481L238.903 425.833Z" fill="#A02A79"/>
<path opacity="0.1" d="M253.287 421.615L254.927 427.213L256.126 426.862L254.485 421.263L253.287 421.615Z" fill="#A02A79"/>
<path opacity="0.1" d="M233.253 407.122L233.285 412.956L257.438 412.822L257.406 406.988L233.253 407.122Z" fill="#A02A79"/>
<path opacity="0.1" d="M237.839 407.097L237.871 412.931L239.12 412.924L239.088 407.09L237.839 407.097Z" fill="#A02A79"/>
<path opacity="0.1" d="M252.827 407.016L252.859 412.85L254.109 412.843L254.077 407.009L252.827 407.016Z" fill="#A02A79"/>
<path d="M249.619 460.854C249.619 463.821 248.74 466.722 247.093 469.189C245.445 471.656 243.104 473.579 240.365 474.714C237.625 475.85 234.611 476.147 231.703 475.568C228.795 474.989 226.123 473.56 224.027 471.462C221.93 469.364 220.502 466.691 219.924 463.781C219.345 460.871 219.642 457.854 220.777 455.113C221.912 452.372 223.833 450.029 226.299 448.38C228.764 446.732 231.662 445.852 234.628 445.852C236.596 445.852 238.546 446.24 240.365 446.994C242.183 447.748 243.836 448.853 245.228 450.246C246.62 451.639 247.725 453.293 248.478 455.113C249.231 456.933 249.619 458.884 249.619 460.854Z" fill="#572F1D"/>
<path d="M272.334 505.906L278.127 511.04C278.127 511.04 279.292 509.776 280.967 507.842C286.689 501.232 298.389 486.749 290.292 487.647C283.331 488.423 277.687 496.24 274.688 501.389C273.584 503.271 272.843 504.804 272.521 505.504C272.396 505.76 272.334 505.906 272.334 505.906Z" fill="#F8B9BF"/>
<path d="M278.635 512.168L281.881 507.943L274.715 501.53L272.116 504.913L278.635 512.168Z" fill="#D9DFE8"/>
<path opacity="0.1" d="M279.652 511.686L280.812 509.701L273.301 503.56L272.278 505.304L279.652 511.686Z" fill="black"/>
<path d="M226.669 508.089C226.669 508.089 232.768 498.216 244.592 510.777C256.416 523.338 260.389 529.908 260.389 529.908L272.833 503.976L279.573 510.766C279.573 510.766 267.009 544.745 262.873 546.061C258.737 547.378 235.534 533.483 235.534 533.483C235.534 533.483 215.961 523.587 226.669 508.089Z" fill="#F2CC44"/>
<g opacity="0.1">
<path opacity="0.1" d="M272.668 503.343L277.855 509.089C277.855 509.089 279.152 507.962 281.032 506.226C287.452 500.292 300.686 487.198 292.54 487.192C285.535 487.189 279.059 494.331 275.507 499.115C274.201 500.862 273.295 502.304 272.897 502.963C272.745 503.205 272.668 503.343 272.668 503.343Z" fill="black"/>
<path opacity="0.1" d="M273.968 507.354L278.127 511.04C278.127 511.04 279.291 509.776 280.967 507.842L274.687 501.389C273.583 503.271 272.843 504.804 272.52 505.504L273.968 507.354Z" fill="black"/>
<path opacity="0.1" d="M289.852 529.244L293.804 525.672L287.907 518.074L284.743 520.934L289.852 529.244Z" fill="black"/>
<path opacity="0.1" d="M219.89 526.235C219.89 526.235 221.163 514.834 237.041 521.059C252.919 527.284 259.248 531.475 259.248 531.475L272.614 503.042L280.32 508.877C280.32 508.877 268.883 540.335 265.744 543.261C262.605 546.186 238.552 545.179 238.552 545.179C238.552 545.179 216.877 544.611 219.89 526.235Z" fill="black"/>
</g>
<path d="M292.929 628.256L305.397 636.174C305.397 636.174 321.884 638.937 310.669 642.325C299.455 645.713 273.969 640.533 273.969 640.533C273.969 640.533 275.905 629.056 277.967 627.535C280.028 626.014 292.929 628.256 292.929 628.256Z" fill="#2B4D66"/>
<path d="M246.704 543.324C246.704 543.324 252.922 546.937 264.103 550.312C270.658 552.292 278.903 553.821 284.6 554.75C287.523 555.202 290.245 556.512 292.422 558.516C294.598 560.519 296.13 563.125 296.823 566.002C297.27 567.693 297.243 569.476 296.744 571.153C294.57 577.662 295.011 631.357 295.011 631.357L275.505 632.294C275.505 632.294 278.591 622.539 274.789 617.388C270.987 612.237 277.354 574.578 277.354 574.578C277.354 574.578 270.446 571.353 249.415 570.232C229.705 574.399 222.622 552.667 225.895 546.816C229.168 540.965 246.704 543.324 246.704 543.324Z" fill="#96A2D0"/>
<g opacity="0.1">
<path opacity="0.1" d="M246.704 543.324C246.704 543.324 252.922 546.937 264.103 550.312C270.658 552.292 278.903 553.821 284.6 554.75C287.523 555.202 290.245 556.512 292.422 558.516C294.598 560.519 296.13 563.125 296.823 566.002C297.27 567.693 297.243 569.476 296.744 571.153C294.57 577.662 295.011 631.357 295.011 631.357L275.505 632.294C275.505 632.294 278.591 622.539 274.789 617.388C270.987 612.237 277.354 574.578 277.354 574.578C277.354 574.578 270.446 571.353 249.415 570.232C229.705 574.399 222.622 552.667 225.895 546.816C229.168 540.965 246.704 543.324 246.704 543.324Z" fill="black"/>
</g>
<path d="M286.715 632.469L299.183 640.387C299.183 640.387 315.67 643.15 304.456 646.538C293.241 649.926 267.755 644.746 267.755 644.746C267.755 644.746 269.691 633.269 271.753 631.748C273.814 630.227 286.715 632.469 286.715 632.469Z" fill="#2B4D66"/>
<path d="M243.223 574.441C264.253 575.562 271.162 578.787 271.162 578.787C271.162 578.787 269.167 615.384 271.995 620.709C275.014 626.36 269.296 636.503 269.296 636.503L288.802 635.566C288.802 635.566 288.802 634.932 288.802 633.799C288.744 624.472 288.603 581.166 290.539 575.362C291.038 573.685 291.065 571.902 290.618 570.211C289.925 567.334 288.393 564.729 286.216 562.725C284.04 560.722 281.318 559.411 278.396 558.959C272.695 558.034 264.453 556.505 257.899 554.525L257.578 554.425C246.596 551.092 240.504 547.537 240.504 547.537C240.504 547.537 227.515 546.637 224.263 552.488C223.847 553.246 222.052 554.738 221.977 555.942C221.489 564.002 226.074 578.054 243.223 574.441Z" fill="#96A2D0"/>
<path d="M274.11 540.282L274.481 548.016C274.481 548.016 276.197 547.97 278.754 547.816C287.478 547.295 306.009 545.57 299.713 540.398C294.299 535.952 284.763 537.369 278.987 538.815C276.867 539.348 275.239 539.882 274.531 540.136C274.256 540.227 274.11 540.282 274.11 540.282Z" fill="#F8B9BF"/>
<path d="M224.633 487.645C224.633 487.645 227.131 489.8 230.23 492.183C233.686 493.125 237.726 493.963 240.612 494.517C239.716 491.121 240.512 487.433 241.832 484.186C243.264 480.81 245.165 477.652 247.479 474.806L230.113 468.526C231.342 472.089 230.53 476.069 229.209 479.473C228.044 482.384 226.506 485.131 224.633 487.645Z" fill="#F8B9BF"/>
<path opacity="0.1" d="M274.214 542.461L274.48 548.016C274.48 548.016 276.196 547.97 278.753 547.816L278.986 538.811C276.867 539.344 275.238 539.877 274.53 540.132L274.214 542.461Z" fill="black"/>
<path d="M273.073 548.279L278.391 548.024L278.641 538.406L274.385 538.611L273.073 548.279Z" fill="#D9DFE8"/>
<path d="M222.356 558.192C233.6 569.89 254.567 555.988 260.206 551.871C261.122 551.2 261.634 550.787 261.634 550.787C259.552 548.666 256.22 546.703 254.942 541.39C253.722 535.967 252.896 530.463 252.468 524.921C252.123 520.525 256.662 512.153 255.35 507.977C254.038 503.802 248.637 502.431 246.367 498.651C245.772 497.667 245.181 496.742 244.598 495.934C240.408 490.1 233.108 486.17 233.108 486.17C217.554 480.857 216.334 503.085 216.721 503.777C217.109 504.468 215.33 528.972 222.356 558.192Z" fill="#F2CC44"/>
<path opacity="0.1" d="M222.239 526.18C222.239 526.18 231.271 551.358 235.257 552.946C237.539 553.854 249.986 552.875 260.206 551.871C261.122 551.2 261.634 550.787 261.634 550.787C259.552 548.666 257.857 544.295 256.583 538.986L243.469 539.031C243.469 539.031 244.531 531.53 243.357 514.491C242.182 497.451 231.342 501.197 231.342 501.197C213.465 506.327 222.239 526.18 222.239 526.18Z" fill="black"/>
<path opacity="0.1" d="M273.073 548.279L275.368 548.17L276.405 538.515L274.385 538.611L273.073 548.279Z" fill="black"/>
<path d="M231.65 500.114C231.65 500.114 242.478 496.392 243.665 513.407C244.851 530.422 243.789 537.948 243.789 537.948L275.78 537.831L274.552 549.275C274.552 549.275 239.571 553.442 235.573 551.863C231.575 550.283 222.551 525.101 222.551 525.101C222.551 525.101 213.768 505.244 231.65 500.114Z" fill="#F2CC44"/>
<path opacity="0.1" d="M232.046 475.023C232.625 472.522 229.964 472.443 229.131 470.022L246.505 476.273C245.21 477.861 244.044 479.548 243.015 481.319C242.09 481.55 241.144 481.69 240.191 481.736C235.969 481.944 234.84 477.765 232.046 475.023Z" fill="black"/>
<path d="M241.182 480.276C249.213 479.89 255.411 473.062 255.025 465.026C254.64 456.989 247.816 450.787 239.785 451.173C231.754 451.559 225.556 458.387 225.942 466.424C226.327 474.46 233.151 480.662 241.182 480.276Z" fill="#F8B9BF"/>
<path opacity="0.1" d="M232.962 510.919C232.962 510.919 237.568 532.751 243.006 534.981C248.445 537.21 245.98 537.685 245.98 537.685" fill="black"/>
<path opacity="0.1" d="M251.943 523.25C251.943 523.25 248.095 524.454 243.614 518.7L251.943 523.25Z" fill="black"/>
<path d="M222.968 452.103C226.648 452.103 229.631 449.118 229.631 445.435C229.631 441.753 226.648 438.768 222.968 438.768C219.288 438.768 216.305 441.753 216.305 445.435C216.305 449.118 219.288 452.103 222.968 452.103Z" fill="#572F1D"/>
<path d="M218.286 448.957C217.128 447.721 216.484 446.09 216.484 444.396C216.484 442.701 217.128 441.07 218.286 439.835C218.178 439.922 218.07 440.01 217.97 440.105C216.682 441.317 215.928 442.99 215.873 444.758C215.819 446.526 216.468 448.243 217.678 449.532C218.889 450.82 220.561 451.575 222.328 451.63C224.095 451.685 225.81 451.035 227.098 449.823C227.202 449.728 227.294 449.623 227.386 449.523C226.081 450.604 224.414 451.146 222.724 451.041C221.034 450.936 219.447 450.19 218.286 448.957Z" fill="#572F1D"/>
<path d="M222.093 451.474C220.402 451.576 218.735 451.029 217.433 449.945C216.13 448.862 215.289 447.322 215.08 445.64C215.08 445.777 215.08 445.915 215.08 446.056C215.191 447.821 215.997 449.47 217.322 450.64C217.979 451.219 218.742 451.664 219.57 451.948C220.398 452.231 221.274 452.349 222.147 452.295C223.02 452.24 223.874 452.014 224.66 451.629C225.446 451.244 226.149 450.707 226.728 450.051C227.307 449.394 227.751 448.63 228.034 447.801C228.318 446.973 228.436 446.097 228.381 445.223C228.381 445.081 228.352 444.948 228.335 444.806C228.339 446.504 227.695 448.139 226.535 449.378C225.375 450.617 223.786 451.367 222.093 451.474Z" fill="#572F1D"/>
<path opacity="0.1" d="M245.85 451.232C247.404 451.999 249.182 452.211 250.848 452.695C252.513 453.178 254.212 454.062 254.945 455.637C255.483 456.795 255.42 458.166 255.982 459.312C256.79 460.979 258.656 461.746 260.372 462.4C258.897 464.38 255.732 463.842 253.667 462.496C251.601 461.15 249.823 459.162 247.42 458.641C246.235 458.407 245.006 458.546 243.902 459.037C242.798 459.529 241.873 460.35 241.253 461.388C240.595 462.542 240.362 463.888 240.037 465.171C239.204 468.555 237.538 471.922 234.623 473.844C231.708 475.765 227.365 475.752 225.078 473.123C223.746 471.589 223.3 469.501 222.905 467.509C222.679 466.581 222.572 465.627 222.584 464.671C222.717 462.279 224.308 460.242 225.915 458.466C227.81 456.383 229.826 454.382 231.841 452.395C233.582 450.678 235.589 447.769 238.213 447.565C241.236 447.323 243.373 450.019 245.85 451.232Z" fill="black"/>
<path d="M245.434 450.815C246.988 451.582 248.766 451.795 250.432 452.278C252.097 452.761 253.796 453.645 254.529 455.22C255.067 456.379 255.004 457.75 255.566 458.896C256.374 460.563 258.24 461.329 259.956 461.984C258.481 463.963 255.316 463.425 253.251 462.079C251.185 460.733 249.407 458.746 247.004 458.225C245.819 457.991 244.59 458.129 243.486 458.621C242.382 459.112 241.457 459.933 240.837 460.971C240.179 462.125 239.946 463.471 239.621 464.755C238.788 468.139 237.122 471.506 234.207 473.427C231.292 475.348 226.949 475.335 224.662 472.706C223.33 471.172 222.884 469.085 222.489 467.093C222.263 466.164 222.156 465.21 222.168 464.255C222.301 461.863 223.892 459.825 225.499 458.05C227.394 455.966 229.41 453.966 231.425 451.978C233.166 450.261 235.173 447.352 237.797 447.148C240.82 446.907 242.957 449.603 245.434 450.815Z" fill="#572F1D"/>
<path d="M247.041 543.366H206.634C204.68 543.366 203.095 544.951 203.095 546.908V547.166C203.095 549.122 204.68 550.708 206.634 550.708H247.041C248.996 550.708 250.581 549.122 250.581 547.166V546.908C250.581 544.951 248.996 543.366 247.041 543.366Z" fill="#D6D6E3"/>
<path opacity="0.1" d="M203.095 547.116V547.695C203.095 548.497 203.413 549.265 203.979 549.832C204.545 550.398 205.313 550.717 206.114 550.717H247.562C248.363 550.717 249.131 550.398 249.697 549.832C250.263 549.265 250.581 548.497 250.581 547.695V547.116H203.095Z" fill="black"/>
<path d="M294.886 551.021H286.72V655.131H294.886V551.021Z" fill="#D6D6E3"/>
<path opacity="0.1" d="M294.886 551.021H286.72V557.772H294.886V551.021Z" fill="black"/>
<path d="M498.703 543.557H282.813V557.059H498.703V543.557Z" fill="#D6D6E3"/>
</g>
<path d="M650.708 218.591C650.708 228.087 650.705 234.81 649.623 239.603C649.085 241.985 648.287 243.856 647.112 245.338C645.941 246.815 644.372 247.936 642.244 248.783C637.952 250.489 631.459 251.054 621.57 251.179C616.284 251.246 610.063 251.188 602.728 251.12C596.355 251.06 589.142 250.993 580.969 250.993C572.596 250.993 565.205 251.06 558.676 251.12C551.159 251.188 544.784 251.246 539.368 251.179C529.236 251.054 522.578 250.489 518.177 248.781C515.993 247.934 514.384 246.811 513.183 245.333C511.98 243.852 511.163 241.981 510.612 239.6C509.503 234.809 509.5 228.088 509.5 218.591C509.5 181.002 541.093 150.5 580.104 150.5C619.115 150.5 650.708 181.002 650.708 218.591Z" fill="white" stroke="#7A7A7A"/>
<path d="M560.295 193.224C561.123 193.224 561.867 193.386 562.527 193.71C563.187 194.022 563.703 194.472 564.075 195.06C564.447 195.648 564.633 196.326 564.633 197.094C564.633 197.91 564.429 198.63 564.021 199.254C563.613 199.866 563.061 200.34 562.365 200.676C561.669 201.012 560.889 201.18 560.025 201.18C558.297 201.18 556.953 200.64 555.993 199.56C555.045 198.48 554.571 196.932 554.571 194.916C554.571 193.5 554.829 192.294 555.345 191.298C555.861 190.29 556.581 189.528 557.505 189.012C558.441 188.484 559.521 188.22 560.745 188.22C561.393 188.22 561.999 188.292 562.563 188.436C563.139 188.568 563.637 188.766 564.057 189.03L563.193 190.794C562.569 190.386 561.771 190.182 560.799 190.182C559.587 190.182 558.639 190.554 557.955 191.298C557.271 192.042 556.929 193.116 556.929 194.52V194.538C557.301 194.106 557.775 193.782 558.351 193.566C558.927 193.338 559.575 193.224 560.295 193.224ZM559.899 199.344C560.631 199.344 561.225 199.152 561.681 198.768C562.137 198.372 562.365 197.85 562.365 197.202C562.365 196.542 562.137 196.02 561.681 195.636C561.225 195.252 560.613 195.06 559.845 195.06C559.089 195.06 558.471 195.264 557.991 195.672C557.523 196.08 557.289 196.596 557.289 197.22C557.289 197.832 557.517 198.342 557.973 198.75C558.441 199.146 559.083 199.344 559.899 199.344ZM567.454 198.138C567.874 198.138 568.222 198.276 568.498 198.552C568.774 198.828 568.912 199.188 568.912 199.632C568.912 199.824 568.882 200.028 568.822 200.244C568.774 200.448 568.666 200.76 568.498 201.18L567.58 203.718H566.122L566.842 200.964C566.578 200.856 566.368 200.688 566.212 200.46C566.068 200.22 565.996 199.944 565.996 199.632C565.996 199.188 566.134 198.828 566.41 198.552C566.686 198.276 567.034 198.138 567.454 198.138ZM574.519 188.4V201H572.179V190.362H569.515V188.4H574.519ZM581.375 188.4V201H579.035V190.362H576.371V188.4H581.375ZM594.987 191.28C596.199 191.28 597.171 191.634 597.903 192.342C598.635 193.05 599.001 194.1 599.001 195.492V201H596.751V195.78C596.751 194.94 596.553 194.31 596.157 193.89C595.761 193.458 595.197 193.242 594.465 193.242C593.637 193.242 592.983 193.494 592.503 193.998C592.023 194.49 591.783 195.204 591.783 196.14V201H589.533V187.644H591.783V192.504C592.155 192.108 592.611 191.808 593.151 191.604C593.703 191.388 594.315 191.28 594.987 191.28ZM605.779 185.844H607.795L601.855 202.8H599.839L605.779 185.844ZM607.632 204.618C606.684 204.618 605.964 204.432 605.472 204.06L606.12 202.386C606.456 202.638 606.894 202.764 607.434 202.764C607.854 202.764 608.172 202.632 608.388 202.368C608.616 202.116 608.73 201.738 608.73 201.234V191.388H610.98V201.18C610.98 202.248 610.686 203.088 610.098 203.7C609.51 204.312 608.688 204.618 607.632 204.618ZM609.846 189.804C609.438 189.804 609.096 189.678 608.82 189.426C608.544 189.162 608.406 188.838 608.406 188.454C608.406 188.07 608.544 187.752 608.82 187.5C609.096 187.236 609.438 187.104 609.846 187.104C610.254 187.104 610.596 187.23 610.872 187.482C611.148 187.722 611.286 188.028 611.286 188.4C611.286 188.796 611.148 189.132 610.872 189.408C610.608 189.672 610.266 189.804 609.846 189.804Z" fill="#2F2E41"/>
<path opacity="0.1" d="M577.409 243.628L577.441 249.084L601.582 248.959L601.55 243.503L577.409 243.628Z" fill="#A02A79"/>
<path opacity="0.1" d="M581.992 243.605L582.024 249.06L583.273 249.054L583.241 243.599L581.992 243.605Z" fill="#A02A79"/>
<path opacity="0.1" d="M596.973 243.529L597.005 248.985L598.253 248.978L598.221 243.522L596.973 243.529Z" fill="#A02A79"/>
<path opacity="0.1" d="M572.831 238.173L572.863 243.627L597.004 243.503L596.972 238.048L572.831 238.173Z" fill="#A02A79"/>
<path opacity="0.1" d="M577.414 238.149L577.446 243.605L578.695 243.599L578.663 238.142L577.414 238.149Z" fill="#A02A79"/>
<path opacity="0.1" d="M592.395 238.074L592.427 243.528L593.675 243.522L593.643 238.068L592.395 238.074Z" fill="#A02A79"/>
<path opacity="0.1" d="M577.409 232.716L577.441 238.172L601.582 238.048L601.55 232.591L577.409 232.716Z" fill="#A02A79"/>
<path opacity="0.1" d="M581.992 232.693L582.024 238.15L583.273 238.143L583.241 232.687L581.992 232.693Z" fill="#A02A79"/>
<path opacity="0.1" d="M596.973 232.617L597.005 238.073L598.253 238.067L598.221 232.611L596.973 232.617Z" fill="#A02A79"/>
<path opacity="0.1" d="M567.003 227.261L567.035 232.716L591.176 232.592L591.144 227.136L567.003 227.261Z" fill="#A02A79"/>
<path opacity="0.1" d="M571.587 227.237L571.619 232.693L572.868 232.687L572.836 227.23L571.587 227.237Z" fill="#A02A79"/>
<path opacity="0.1" d="M586.567 227.163L586.6 232.618L587.848 232.611L587.816 227.156L586.567 227.163Z" fill="#A02A79"/>
<path opacity="0.1" d="M572.831 221.805L572.863 227.261L597.004 227.137L596.972 221.68L572.831 221.805Z" fill="#A02A79"/>
<path opacity="0.1" d="M577.414 221.783L577.446 227.238L578.695 227.231L578.663 221.777L577.414 221.783Z" fill="#A02A79"/>
<path opacity="0.1" d="M592.395 221.707L592.427 227.163L593.675 227.156L593.643 221.7L592.395 221.707Z" fill="#A02A79"/>
<path opacity="0.1" d="M568.253 216.351L568.285 221.806L592.426 221.681L592.394 216.226L568.253 216.351Z" fill="#A02A79"/>
<path opacity="0.1" d="M572.835 216.326L572.867 221.782L574.116 221.775L574.084 216.32L572.835 216.326Z" fill="#A02A79"/>
<path opacity="0.1" d="M587.816 216.251L587.849 221.707L589.097 221.7L589.065 216.244L587.816 216.251Z" fill="#A02A79"/>
<path opacity="0.1" d="M627.336 248.959H547.441V250.951H627.336V248.959Z" fill="#A02A79"/>
<path d="M458.708 218.591C458.708 228.087 458.705 234.81 457.623 239.603C457.085 241.985 456.287 243.856 455.112 245.338C453.941 246.815 452.372 247.936 450.244 248.783C445.952 250.489 439.459 251.054 429.57 251.179C424.284 251.246 418.063 251.188 410.728 251.12C404.355 251.06 397.142 250.993 388.969 250.993C380.596 250.993 373.205 251.06 366.676 251.12C359.159 251.188 352.784 251.246 347.368 251.179C337.236 251.054 330.578 250.489 326.177 248.781C323.993 247.934 322.384 246.811 321.183 245.333C319.98 243.852 319.163 241.981 318.612 239.6C317.503 234.809 317.5 228.088 317.5 218.591C317.5 181.002 349.093 150.5 388.104 150.5C427.115 150.5 458.708 181.002 458.708 218.591Z" fill="white" stroke="#7A7A7A"/>
<path d="M366.054 193.224C366.882 193.224 367.626 193.386 368.286 193.71C368.946 194.022 369.462 194.472 369.834 195.06C370.206 195.648 370.392 196.326 370.392 197.094C370.392 197.91 370.188 198.63 369.78 199.254C369.372 199.866 368.82 200.34 368.124 200.676C367.428 201.012 366.648 201.18 365.784 201.18C364.056 201.18 362.712 200.64 361.752 199.56C360.804 198.48 360.33 196.932 360.33 194.916C360.33 193.5 360.588 192.294 361.104 191.298C361.62 190.29 362.34 189.528 363.264 189.012C364.2 188.484 365.28 188.22 366.504 188.22C367.152 188.22 367.758 188.292 368.322 188.436C368.898 188.568 369.396 188.766 369.816 189.03L368.952 190.794C368.328 190.386 367.53 190.182 366.558 190.182C365.346 190.182 364.398 190.554 363.714 191.298C363.03 192.042 362.688 193.116 362.688 194.52V194.538C363.06 194.106 363.534 193.782 364.11 193.566C364.686 193.338 365.334 193.224 366.054 193.224ZM365.658 199.344C366.39 199.344 366.984 199.152 367.44 198.768C367.896 198.372 368.124 197.85 368.124 197.202C368.124 196.542 367.896 196.02 367.44 195.636C366.984 195.252 366.372 195.06 365.604 195.06C364.848 195.06 364.23 195.264 363.75 195.672C363.282 196.08 363.048 196.596 363.048 197.22C363.048 197.832 363.276 198.342 363.732 198.75C364.2 199.146 364.842 199.344 365.658 199.344ZM373.213 198.138C373.633 198.138 373.981 198.276 374.257 198.552C374.533 198.828 374.671 199.188 374.671 199.632C374.671 199.824 374.641 200.028 374.581 200.244C374.533 200.448 374.425 200.76 374.257 201.18L373.339 203.718H371.881L372.601 200.964C372.337 200.856 372.127 200.688 371.971 200.46C371.827 200.22 371.755 199.944 371.755 199.632C371.755 199.188 371.893 198.828 372.169 198.552C372.445 198.276 372.793 198.138 373.213 198.138ZM381.699 193.224C382.527 193.224 383.271 193.386 383.931 193.71C384.591 194.022 385.107 194.472 385.479 195.06C385.851 195.648 386.037 196.326 386.037 197.094C386.037 197.91 385.833 198.63 385.425 199.254C385.017 199.866 384.465 200.34 383.769 200.676C383.073 201.012 382.293 201.18 381.429 201.18C379.701 201.18 378.357 200.64 377.397 199.56C376.449 198.48 375.975 196.932 375.975 194.916C375.975 193.5 376.233 192.294 376.749 191.298C377.265 190.29 377.985 189.528 378.909 189.012C379.845 188.484 380.925 188.22 382.149 188.22C382.797 188.22 383.403 188.292 383.967 188.436C384.543 188.568 385.041 188.766 385.461 189.03L384.597 190.794C383.973 190.386 383.175 190.182 382.203 190.182C380.991 190.182 380.043 190.554 379.359 191.298C378.675 192.042 378.333 193.116 378.333 194.52V194.538C378.705 194.106 379.179 193.782 379.755 193.566C380.331 193.338 380.979 193.224 381.699 193.224ZM381.303 199.344C382.035 199.344 382.629 199.152 383.085 198.768C383.541 198.372 383.769 197.85 383.769 197.202C383.769 196.542 383.541 196.02 383.085 195.636C382.629 195.252 382.017 195.06 381.249 195.06C380.493 195.06 379.875 195.264 379.395 195.672C378.927 196.08 378.693 196.596 378.693 197.22C378.693 197.832 378.921 198.342 379.377 198.75C379.845 199.146 380.487 199.344 381.303 199.344ZM391.616 188.4V201H389.276V190.362H386.612V188.4H391.616ZM405.228 191.28C406.44 191.28 407.412 191.634 408.144 192.342C408.876 193.05 409.242 194.1 409.242 195.492V201H406.992V195.78C406.992 194.94 406.794 194.31 406.398 193.89C406.002 193.458 405.438 193.242 404.706 193.242C403.878 193.242 403.224 193.494 402.744 193.998C402.264 194.49 402.024 195.204 402.024 196.14V201H399.774V187.644H402.024V192.504C402.396 192.108 402.852 191.808 403.392 191.604C403.944 191.388 404.556 191.28 405.228 191.28ZM416.02 185.844H418.036L412.096 202.8H410.08L416.02 185.844ZM417.874 204.618C416.926 204.618 416.206 204.432 415.714 204.06L416.362 202.386C416.698 202.638 417.136 202.764 417.676 202.764C418.096 202.764 418.414 202.632 418.63 202.368C418.858 202.116 418.972 201.738 418.972 201.234V191.388H421.222V201.18C421.222 202.248 420.928 203.088 420.34 203.7C419.752 204.312 418.93 204.618 417.874 204.618ZM420.088 189.804C419.68 189.804 419.338 189.678 419.062 189.426C418.786 189.162 418.648 188.838 418.648 188.454C418.648 188.07 418.786 187.752 419.062 187.5C419.338 187.236 419.68 187.104 420.088 187.104C420.496 187.104 420.838 187.23 421.114 187.482C421.39 187.722 421.528 188.028 421.528 188.4C421.528 188.796 421.39 189.132 421.114 189.408C420.85 189.672 420.508 189.804 420.088 189.804Z" fill="#2F2E41"/>
<path opacity="0.1" d="M385.409 242.763L385.441 248.22L409.582 248.095L409.55 242.639L385.409 242.763Z" fill="#A02A79"/>
<path opacity="0.1" d="M389.992 242.741L390.024 248.196L391.273 248.19L391.241 242.734L389.992 242.741Z" fill="#A02A79"/>
<path opacity="0.1" d="M404.973 242.665L405.005 248.12L406.253 248.114L406.221 242.659L404.973 242.665Z" fill="#A02A79"/>
<path opacity="0.1" d="M380.831 237.309L380.863 242.764L405.004 242.639L404.972 237.184L380.831 237.309Z" fill="#A02A79"/>
<path opacity="0.1" d="M385.414 237.285L385.446 242.741L386.695 242.734L386.663 237.279L385.414 237.285Z" fill="#A02A79"/>
<path opacity="0.1" d="M400.395 237.211L400.427 242.665L401.675 242.658L401.643 237.204L400.395 237.211Z" fill="#A02A79"/>
<path opacity="0.1" d="M385.409 231.853L385.441 237.309L409.582 237.184L409.55 231.728L385.409 231.853Z" fill="#A02A79"/>
<path opacity="0.1" d="M389.992 231.829L390.024 237.286L391.273 237.279L391.241 231.823L389.992 231.829Z" fill="#A02A79"/>
<path opacity="0.1" d="M404.973 231.754L405.005 237.209L406.253 237.203L406.221 231.747L404.973 231.754Z" fill="#A02A79"/>
<path opacity="0.1" d="M375.003 226.397L375.035 231.853L399.176 231.728L399.144 226.272L375.003 226.397Z" fill="#A02A79"/>
<path opacity="0.1" d="M379.587 226.373L379.619 231.829L380.868 231.823L380.836 226.367L379.587 226.373Z" fill="#A02A79"/>
<path opacity="0.1" d="M394.567 226.298L394.6 231.753L395.848 231.747L395.816 226.292L394.567 226.298Z" fill="#A02A79"/>
<path opacity="0.1" d="M380.831 220.94L380.863 226.397L405.004 226.272L404.972 220.815L380.831 220.94Z" fill="#A02A79"/>
<path opacity="0.1" d="M385.414 220.92L385.446 226.374L386.695 226.367L386.663 220.913L385.414 220.92Z" fill="#A02A79"/>
<path opacity="0.1" d="M400.395 220.842L400.427 226.298L401.675 226.291L401.643 220.835L400.395 220.842Z" fill="#A02A79"/>
<path opacity="0.1" d="M376.253 215.487L376.285 220.942L400.426 220.817L400.394 215.362L376.253 215.487Z" fill="#A02A79"/>
<path opacity="0.1" d="M380.835 215.462L380.867 220.918L382.116 220.912L382.084 215.456L380.835 215.462Z" fill="#A02A79"/>
<path opacity="0.1" d="M395.816 215.386L395.849 220.842L397.097 220.836L397.065 215.38L395.816 215.386Z" fill="#A02A79"/>
<path opacity="0.1" d="M435.336 248.095H355.441V250.087H435.336V248.095Z" fill="#A02A79"/>
<path d="M274.174 193.906C274.174 205.289 274.171 213.364 272.865 219.123C272.215 221.99 271.249 224.248 269.823 226.04C268.401 227.828 266.496 229.182 263.92 230.202C258.733 232.256 250.897 232.933 238.994 233.083C232.63 233.163 225.139 233.094 216.306 233.011C208.634 232.94 199.95 232.86 190.114 232.86C180.036 232.86 171.139 232.94 163.278 233.011C154.227 233.094 146.551 233.163 140.03 233.083C127.835 232.933 119.801 232.256 114.482 230.2C111.839 229.179 109.886 227.824 108.428 226.035C106.968 224.243 105.978 221.986 105.313 219.121C103.975 213.363 103.972 205.289 103.972 193.906C103.972 148.778 142.054 112.16 189.073 112.16C236.092 112.16 274.174 148.778 274.174 193.906Z" fill="white" stroke="#7A7A7A"/>
<path d="M166.606 156.258V157.824L161.71 168.858H159.208L163.942 158.238H158.992V160.38H156.814V156.258H166.606ZM168.579 165.996C168.999 165.996 169.347 166.134 169.623 166.41C169.899 166.686 170.037 167.046 170.037 167.49C170.037 167.682 170.007 167.886 169.947 168.102C169.899 168.306 169.791 168.618 169.623 169.038L168.705 171.576H167.247L167.967 168.822C167.703 168.714 167.493 168.546 167.337 168.318C167.193 168.078 167.121 167.802 167.121 167.49C167.121 167.046 167.259 166.686 167.535 166.41C167.811 166.134 168.159 165.996 168.579 165.996ZM175.644 156.258V168.858H173.304V158.22H170.64V156.258H175.644ZM187.647 156.258V157.824L182.751 168.858H180.249L184.983 158.238H180.033V160.38H177.855V156.258H187.647ZM200.207 159.138C201.419 159.138 202.391 159.492 203.123 160.2C203.855 160.908 204.221 161.958 204.221 163.35V168.858H201.971V163.638C201.971 162.798 201.773 162.168 201.377 161.748C200.981 161.316 200.417 161.1 199.685 161.1C198.857 161.1 198.203 161.352 197.723 161.856C197.243 162.348 197.003 163.062 197.003 163.998V168.858H194.753V155.502H197.003V160.362C197.375 159.966 197.831 159.666 198.371 159.462C198.923 159.246 199.535 159.138 200.207 159.138ZM211 153.702H213.016L207.076 170.658H205.06L211 153.702ZM212.853 172.476C211.905 172.476 211.185 172.29 210.693 171.918L211.341 170.244C211.677 170.496 212.115 170.622 212.655 170.622C213.075 170.622 213.393 170.49 213.609 170.226C213.837 169.974 213.951 169.596 213.951 169.092V159.246H216.201V169.038C216.201 170.106 215.907 170.946 215.319 171.558C214.731 172.17 213.909 172.476 212.853 172.476ZM215.067 157.662C214.659 157.662 214.317 157.536 214.041 157.284C213.765 157.02 213.627 156.696 213.627 156.312C213.627 155.928 213.765 155.61 214.041 155.358C214.317 155.094 214.659 154.962 215.067 154.962C215.475 154.962 215.817 155.088 216.093 155.34C216.369 155.58 216.507 155.886 216.507 156.258C216.507 156.654 216.369 156.99 216.093 157.266C215.829 157.53 215.487 157.662 215.067 157.662Z" fill="#2F2E41"/>
<path opacity="0.1" d="M226.894 233.017H147V235.008H226.894V233.017Z" fill="#A02A79"/>
<path opacity="0.1" d="M175.72 227.685L175.752 233.14L199.893 233.015L199.86 227.561L175.72 227.685Z" fill="#A02A79"/>
<path opacity="0.1" d="M180.302 227.662L180.334 233.118L181.583 233.112L181.551 227.656L180.302 227.662Z" fill="#A02A79"/>
<path opacity="0.1" d="M195.283 227.587L195.315 233.042L196.564 233.036L196.532 227.581L195.283 227.587Z" fill="#A02A79"/>
<path opacity="0.1" d="M179.465 222.229L179.497 227.686L203.638 227.561L203.606 222.104L179.465 222.229Z" fill="#A02A79"/>
<path opacity="0.1" d="M184.048 222.207L184.08 227.663L185.329 227.657L185.297 222.201L184.048 222.207Z" fill="#A02A79"/>
<path opacity="0.1" d="M199.029 222.131L199.062 227.586L200.31 227.58L200.278 222.125L199.029 222.131Z" fill="#A02A79"/>
<path opacity="0.1" d="M172.39 216.774L172.422 222.229L196.563 222.105L196.53 216.649L172.39 216.774Z" fill="#A02A79"/>
<path opacity="0.1" d="M176.972 216.751L177.004 222.207L178.253 222.201L178.22 216.745L176.972 216.751Z" fill="#A02A79"/>
<path opacity="0.1" d="M191.953 216.676L191.985 222.132L193.234 222.125L193.202 216.669L191.953 216.676Z" fill="#A02A79"/>
<path opacity="0.1" d="M179.882 211.319L179.914 216.774L204.055 216.65L204.023 211.194L179.882 211.319Z" fill="#A02A79"/>
<path opacity="0.1" d="M184.464 211.296L184.496 216.751L185.745 216.745L185.713 211.289L184.464 211.296Z" fill="#A02A79"/>
<path opacity="0.1" d="M199.445 211.219L199.478 216.675L200.726 216.669L200.694 211.213L199.445 211.219Z" fill="#A02A79"/>
<path opacity="0.1" d="M173.638 205.863L173.67 211.318L197.811 211.194L197.778 205.738L173.638 205.863Z" fill="#A02A79"/>
<path opacity="0.1" d="M178.221 205.84L178.253 211.294L179.502 211.288L179.469 205.834L178.221 205.84Z" fill="#A02A79"/>
<path opacity="0.1" d="M193.202 205.764L193.234 211.219L194.483 211.213L194.451 205.757L193.202 205.764Z" fill="#A02A79"/>
<path opacity="0.1" d="M179.882 200.408L179.914 205.862L204.055 205.738L204.023 200.283L179.882 200.408Z" fill="#A02A79"/>
<path opacity="0.1" d="M184.464 200.384L184.496 205.839L185.745 205.833L185.713 200.377L184.464 200.384Z" fill="#A02A79"/>
<path opacity="0.1" d="M199.445 200.309L199.478 205.764L200.726 205.757L200.694 200.302L199.445 200.309Z" fill="#A02A79"/>
<path opacity="0.1" d="M174.887 194.952L174.919 200.407L199.06 200.283L199.027 194.828L174.887 194.952Z" fill="#A02A79"/>
<path opacity="0.1" d="M179.47 194.929L179.502 200.382L180.751 200.376L180.718 194.922L179.47 194.929Z" fill="#A02A79"/>
<path opacity="0.1" d="M194.45 194.853L194.482 200.308L195.731 200.302L195.699 194.847L194.45 194.853Z" fill="#A02A79"/>
<rect x="140" y="302" width="90.6636" height="51.5448" rx="25.7724" fill="#0C0B3C"/>
<path d="M176.273 332.366V334.346H166.985V332.78L171.989 328.028C172.553 327.488 172.931 327.02 173.123 326.624C173.327 326.216 173.429 325.814 173.429 325.418C173.429 324.83 173.231 324.38 172.835 324.068C172.439 323.756 171.857 323.6 171.089 323.6C169.805 323.6 168.821 324.038 168.137 324.914L166.499 323.654C166.991 322.994 167.651 322.484 168.479 322.124C169.319 321.752 170.255 321.566 171.287 321.566C172.655 321.566 173.747 321.89 174.563 322.538C175.379 323.186 175.787 324.068 175.787 325.184C175.787 325.868 175.643 326.51 175.355 327.11C175.067 327.71 174.515 328.394 173.699 329.162L170.333 332.366H176.273ZM182.827 334.526C181.819 334.526 180.919 334.274 180.127 333.77C179.335 333.254 178.711 332.51 178.255 331.538C177.799 330.554 177.571 329.39 177.571 328.046C177.571 326.702 177.799 325.544 178.255 324.572C178.711 323.588 179.335 322.844 180.127 322.34C180.919 321.824 181.819 321.566 182.827 321.566C183.835 321.566 184.735 321.824 185.527 322.34C186.331 322.844 186.961 323.588 187.417 324.572C187.873 325.544 188.101 326.702 188.101 328.046C188.101 329.39 187.873 330.554 187.417 331.538C186.961 332.51 186.331 333.254 185.527 333.77C184.735 334.274 183.835 334.526 182.827 334.526ZM182.827 332.492C183.727 332.492 184.435 332.12 184.951 331.376C185.479 330.632 185.743 329.522 185.743 328.046C185.743 326.57 185.479 325.46 184.951 324.716C184.435 323.972 183.727 323.6 182.827 323.6C181.939 323.6 181.231 323.972 180.703 324.716C180.187 325.46 179.929 326.57 179.929 328.046C179.929 329.522 180.187 330.632 180.703 331.376C181.231 332.12 181.939 332.492 182.827 332.492ZM193.951 321.746V334.346H191.611V323.708H188.947V321.746H193.951ZM205.954 321.746V323.312L201.058 334.346H198.556L203.29 323.726H198.34V325.868H196.162V321.746H205.954Z" fill="white"/>
<rect x="343" y="302" width="90.2033" height="51.0845" rx="25.5423" fill="#0C0B3C"/>
<path d="M377.498 331.827V333.807H368.21V332.241L373.214 327.489C373.778 326.949 374.156 326.481 374.348 326.085C374.552 325.677 374.654 325.275 374.654 324.879C374.654 324.291 374.456 323.841 374.06 323.529C373.664 323.217 373.082 323.061 372.314 323.061C371.03 323.061 370.046 323.499 369.362 324.375L367.724 323.115C368.216 322.455 368.876 321.945 369.704 321.585C370.544 321.213 371.48 321.027 372.512 321.027C373.88 321.027 374.972 321.351 375.788 321.999C376.604 322.647 377.012 323.529 377.012 324.645C377.012 325.329 376.868 325.971 376.58 326.571C376.292 327.171 375.74 327.855 374.924 328.623L371.558 331.827H377.498ZM384.052 333.987C383.044 333.987 382.144 333.735 381.352 333.231C380.56 332.715 379.936 331.971 379.48 330.999C379.024 330.015 378.796 328.851 378.796 327.507C378.796 326.163 379.024 325.005 379.48 324.033C379.936 323.049 380.56 322.305 381.352 321.801C382.144 321.285 383.044 321.027 384.052 321.027C385.06 321.027 385.96 321.285 386.752 321.801C387.556 322.305 388.186 323.049 388.642 324.033C389.098 325.005 389.326 326.163 389.326 327.507C389.326 328.851 389.098 330.015 388.642 330.999C388.186 331.971 387.556 332.715 386.752 333.231C385.96 333.735 385.06 333.987 384.052 333.987ZM384.052 331.953C384.952 331.953 385.66 331.581 386.176 330.837C386.704 330.093 386.968 328.983 386.968 327.507C386.968 326.031 386.704 324.921 386.176 324.177C385.66 323.433 384.952 323.061 384.052 323.061C383.164 323.061 382.456 323.433 381.928 324.177C381.412 324.921 381.154 326.031 381.154 327.507C381.154 328.983 381.412 330.093 381.928 330.837C382.456 331.581 383.164 331.953 384.052 331.953ZM395.175 321.207V333.807H392.835V323.169H390.171V321.207H395.175ZM405.846 327.183C406.506 327.483 407.01 327.891 407.358 328.407C407.718 328.911 407.898 329.505 407.898 330.189C407.898 330.957 407.682 331.629 407.25 332.205C406.83 332.781 406.23 333.225 405.45 333.537C404.67 333.837 403.764 333.987 402.732 333.987C401.7 333.987 400.794 333.837 400.014 333.537C399.246 333.225 398.652 332.781 398.232 332.205C397.812 331.629 397.602 330.957 397.602 330.189C397.602 329.505 397.776 328.911 398.124 328.407C398.472 327.891 398.97 327.483 399.618 327.183C399.114 326.907 398.724 326.547 398.448 326.103C398.184 325.647 398.052 325.125 398.052 324.537C398.052 323.829 398.244 323.211 398.628 322.683C399.024 322.155 399.576 321.747 400.284 321.459C400.992 321.171 401.808 321.027 402.732 321.027C403.668 321.027 404.49 321.171 405.198 321.459C405.906 321.747 406.458 322.155 406.854 322.683C407.25 323.211 407.448 323.829 407.448 324.537C407.448 325.125 407.31 325.641 407.034 326.085C406.758 326.529 406.362 326.895 405.846 327.183ZM402.732 322.863C402 322.863 401.418 323.019 400.986 323.331C400.566 323.643 400.356 324.081 400.356 324.645C400.356 325.185 400.566 325.617 400.986 325.941C401.418 326.253 402 326.409 402.732 326.409C403.476 326.409 404.064 326.253 404.496 325.941C404.928 325.617 405.144 325.185 405.144 324.645C405.144 324.081 404.922 323.643 404.478 323.331C404.046 323.019 403.464 322.863 402.732 322.863ZM402.732 332.151C403.596 332.151 404.28 331.971 404.784 331.611C405.288 331.251 405.54 330.753 405.54 330.117C405.54 329.493 405.288 329.001 404.784 328.641C404.28 328.281 403.596 328.101 402.732 328.101C401.868 328.101 401.19 328.281 400.698 328.641C400.206 329.001 399.96 329.493 399.96 330.117C399.96 330.753 400.206 331.251 400.698 331.611C401.19 331.971 401.868 332.151 402.732 332.151Z" fill="white"/>
<rect x="537.17" y="302" width="90.6636" height="51.0845" rx="25.5423" fill="#0C0B3C"/>
<path d="M571.666 332.366V334.346H562.378V332.78L567.382 328.028C567.946 327.488 568.324 327.02 568.516 326.624C568.72 326.216 568.822 325.814 568.822 325.418C568.822 324.83 568.624 324.38 568.228 324.068C567.832 323.756 567.25 323.6 566.482 323.6C565.198 323.6 564.214 324.038 563.53 324.914L561.892 323.654C562.384 322.994 563.044 322.484 563.872 322.124C564.712 321.752 565.648 321.566 566.68 321.566C568.048 321.566 569.14 321.89 569.956 322.538C570.772 323.186 571.18 324.068 571.18 325.184C571.18 325.868 571.036 326.51 570.748 327.11C570.46 327.71 569.908 328.394 569.092 329.162L565.726 332.366H571.666ZM578.22 334.526C577.212 334.526 576.312 334.274 575.52 333.77C574.728 333.254 574.104 332.51 573.648 331.538C573.192 330.554 572.964 329.39 572.964 328.046C572.964 326.702 573.192 325.544 573.648 324.572C574.104 323.588 574.728 322.844 575.52 322.34C576.312 321.824 577.212 321.566 578.22 321.566C579.228 321.566 580.128 321.824 580.92 322.34C581.724 322.844 582.354 323.588 582.81 324.572C583.266 325.544 583.494 326.702 583.494 328.046C583.494 329.39 583.266 330.554 582.81 331.538C582.354 332.51 581.724 333.254 580.92 333.77C580.128 334.274 579.228 334.526 578.22 334.526ZM578.22 332.492C579.12 332.492 579.828 332.12 580.344 331.376C580.872 330.632 581.136 329.522 581.136 328.046C581.136 326.57 580.872 325.46 580.344 324.716C579.828 323.972 579.12 323.6 578.22 323.6C577.332 323.6 576.624 323.972 576.096 324.716C575.58 325.46 575.322 326.57 575.322 328.046C575.322 329.522 575.58 330.632 576.096 331.376C576.624 332.12 577.332 332.492 578.22 332.492ZM589.344 321.746V334.346H587.004V323.708H584.34V321.746H589.344ZM596.091 321.566C597.819 321.566 599.157 322.106 600.105 323.186C601.065 324.266 601.545 325.814 601.545 327.83C601.545 329.246 601.287 330.458 600.771 331.466C600.255 332.462 599.529 333.224 598.593 333.752C597.669 334.268 596.595 334.526 595.371 334.526C594.723 334.526 594.111 334.46 593.535 334.328C592.971 334.184 592.479 333.98 592.059 333.716L592.923 331.952C593.547 332.36 594.345 332.564 595.317 332.564C596.529 332.564 597.477 332.192 598.161 331.448C598.845 330.704 599.187 329.63 599.187 328.226V328.208C598.815 328.64 598.341 328.97 597.765 329.198C597.189 329.414 596.541 329.522 595.821 329.522C594.993 329.522 594.249 329.366 593.589 329.054C592.929 328.73 592.413 328.274 592.041 327.686C591.669 327.098 591.483 326.42 591.483 325.652C591.483 324.836 591.687 324.122 592.095 323.51C592.503 322.886 593.055 322.406 593.751 322.07C594.447 321.734 595.227 321.566 596.091 321.566ZM596.271 327.686C597.027 327.686 597.639 327.482 598.107 327.074C598.587 326.666 598.827 326.15 598.827 325.526C598.827 324.914 598.593 324.41 598.125 324.014C597.669 323.606 597.033 323.402 596.217 323.402C595.485 323.402 594.891 323.6 594.435 323.996C593.979 324.38 593.751 324.896 593.751 325.544C593.751 326.204 593.979 326.726 594.435 327.11C594.891 327.494 595.503 327.686 596.271 327.686Z" fill="white"/>
<defs>
<linearGradient id="paint0_linear" x1="503.978" y1="651.599" x2="523.299" y2="437.068" gradientUnits="userSpaceOnUse">
<stop stop-color="#808080" stop-opacity="0.25"/>
<stop offset="0.54" stop-color="#808080" stop-opacity="0.12"/>
<stop offset="1" stop-color="#808080" stop-opacity="0.1"/>
</linearGradient>
<clipPath id="clip0">
<rect width="466.664" height="359.433" fill="white" transform="translate(144.136 362.399)"/>
</clipPath>
</defs>
</svg>
