<svg width="570" height="577" viewBox="0 0 570 577" fill="none" xmlns="http://www.w3.org/2000/svg">
<circle cx="284.923" cy="285.072" r="282.5" transform="rotate(-179.517 284.923 285.072)" fill="#0C0B3C"/>
<rect x="537.359" y="571.564" width="508.29" height="159.628" transform="rotate(-180 537.359 571.564)" fill="white"/>
<line x1="538.332" y1="428.126" x2="29.0515" y2="427.559" stroke="#D5F1AE"/>
<path d="M467.761 211.208C465.632 211.208 463.611 211.711 461.788 212.611C460.897 213.051 459.889 212.352 459.889 211.282V206.637C459.889 197.83 453.369 190.69 445.325 190.69C439.952 190.69 435.261 193.878 432.738 198.619C432.348 199.349 431.486 199.563 430.84 199.1C428.554 197.465 425.823 196.514 422.889 196.514C414.845 196.514 408.324 203.654 408.324 212.46V216.679C408.324 217.749 407.316 218.447 406.425 218.008C404.603 217.108 402.582 216.605 400.453 216.605C392.408 216.605 385.888 223.745 385.888 232.552V236.473C385.888 245.28 392.408 252.42 400.453 252.42H467.761C475.805 252.42 482.326 245.281 482.326 236.473V227.155C482.326 218.348 475.805 211.208 467.761 211.208Z" fill="#6BDAE8"/>
<path d="M470 211.126C471.562 213.666 472.474 216.726 472.474 220.018V229.336C472.474 238.143 465.953 245.282 457.909 245.282H390.601C390.411 245.282 390.224 245.274 390.036 245.267C392.652 249.521 397.091 252.321 402.127 252.321H469.436C477.479 252.321 484 245.181 484 236.374V227.056C484 218.457 477.782 211.451 470 211.126Z" fill="#00C8DE"/>
<path d="M425.262 232.261V234.241H417.327V232.666L421.377 228.841C421.807 228.431 422.097 228.081 422.247 227.791C422.397 227.491 422.472 227.196 422.472 226.906C422.472 226.486 422.327 226.166 422.037 225.946C421.757 225.716 421.342 225.601 420.792 225.601C420.332 225.601 419.917 225.691 419.547 225.871C419.177 226.041 418.867 226.301 418.617 226.651L416.847 225.511C417.257 224.901 417.822 224.426 418.542 224.086C419.262 223.736 420.087 223.561 421.017 223.561C421.797 223.561 422.477 223.691 423.057 223.951C423.647 224.201 424.102 224.561 424.422 225.031C424.752 225.491 424.917 226.036 424.917 226.666C424.917 227.236 424.797 227.771 424.557 228.271C424.317 228.771 423.852 229.341 423.162 229.981L420.747 232.261H425.262ZM430.735 234.421C429.865 234.421 429.09 234.206 428.41 233.776C427.73 233.346 427.195 232.726 426.805 231.916C426.425 231.096 426.235 230.121 426.235 228.991C426.235 227.861 426.425 226.891 426.805 226.081C427.195 225.261 427.73 224.636 428.41 224.206C429.09 223.776 429.865 223.561 430.735 223.561C431.605 223.561 432.38 223.776 433.06 224.206C433.74 224.636 434.27 225.261 434.65 226.081C435.04 226.891 435.235 227.861 435.235 228.991C435.235 230.121 435.04 231.096 434.65 231.916C434.27 232.726 433.74 233.346 433.06 233.776C432.38 234.206 431.605 234.421 430.735 234.421ZM430.735 232.366C431.375 232.366 431.875 232.091 432.235 231.541C432.605 230.991 432.79 230.141 432.79 228.991C432.79 227.841 432.605 226.991 432.235 226.441C431.875 225.891 431.375 225.616 430.735 225.616C430.105 225.616 429.605 225.891 429.235 226.441C428.875 226.991 428.695 227.841 428.695 228.991C428.695 230.141 428.875 230.991 429.235 231.541C429.605 232.091 430.105 232.366 430.735 232.366ZM440.378 223.741V234.241H437.948V225.691H435.848V223.741H440.378ZM445.892 223.561C447.362 223.561 448.512 224.011 449.342 224.911C450.172 225.801 450.587 227.086 450.587 228.766C450.587 229.956 450.362 230.976 449.912 231.826C449.472 232.676 448.847 233.321 448.037 233.761C447.227 234.201 446.292 234.421 445.232 234.421C444.672 234.421 444.137 234.361 443.627 234.241C443.117 234.111 442.682 233.931 442.322 233.701L443.222 231.916C443.732 232.266 444.387 232.441 445.187 232.441C446.077 232.441 446.782 232.181 447.302 231.661C447.822 231.131 448.102 230.371 448.142 229.381C447.512 230.011 446.642 230.326 445.532 230.326C444.862 230.326 444.252 230.191 443.702 229.921C443.152 229.651 442.717 229.271 442.397 228.781C442.077 228.281 441.917 227.706 441.917 227.056C441.917 226.356 442.092 225.741 442.442 225.211C442.792 224.681 443.267 224.276 443.867 223.996C444.477 223.706 445.152 223.561 445.892 223.561ZM446.072 228.511C446.602 228.511 447.032 228.366 447.362 228.076C447.702 227.776 447.872 227.396 447.872 226.936C447.872 226.476 447.707 226.101 447.377 225.811C447.057 225.521 446.612 225.376 446.042 225.376C445.522 225.376 445.097 225.516 444.767 225.796C444.447 226.076 444.287 226.456 444.287 226.936C444.287 227.416 444.447 227.801 444.767 228.091C445.097 228.371 445.532 228.511 446.072 228.511Z" fill="#006A74"/>
<path d="M175.314 206.006C173.459 206.006 171.699 206.382 170.111 207.053C169.335 207.382 168.457 206.86 168.457 206.062V202.594C168.457 196.02 162.778 190.69 155.771 190.69C151.091 190.69 147.005 193.069 144.807 196.608C144.468 197.154 143.717 197.313 143.154 196.968C141.163 195.747 138.784 195.037 136.229 195.037C129.223 195.037 123.543 200.367 123.543 206.941V210.09C123.543 210.889 122.665 211.41 121.889 211.082C120.301 210.41 118.541 210.035 116.686 210.035C109.679 210.035 104 215.365 104 221.938V224.866C104 231.44 109.679 236.77 116.686 236.77H175.314C182.32 236.77 188 231.44 188 224.866V217.91C188 211.336 182.32 206.006 175.314 206.006Z" fill="#6BDAE8"/>
<path d="M175.806 206.019C177.166 207.915 177.961 210.199 177.961 212.656V219.612C177.961 226.186 172.281 231.516 165.274 231.516H106.647C106.482 231.516 106.318 231.51 106.155 231.504C108.433 234.68 112.299 236.77 116.686 236.77H175.314C182.32 236.77 188 231.44 188 224.866V217.91C188 211.491 182.584 206.261 175.806 206.019Z" fill="#00C8DE"/>
<path d="M137.651 222.174V224.154H129.716V222.579L133.766 218.754C134.196 218.344 134.486 217.994 134.636 217.704C134.786 217.404 134.861 217.109 134.861 216.819C134.861 216.399 134.716 216.079 134.426 215.859C134.146 215.629 133.731 215.514 133.181 215.514C132.721 215.514 132.306 215.604 131.936 215.784C131.566 215.954 131.256 216.214 131.006 216.564L129.236 215.424C129.646 214.814 130.211 214.339 130.931 213.999C131.651 213.649 132.476 213.474 133.406 213.474C134.186 213.474 134.866 213.604 135.446 213.864C136.036 214.114 136.491 214.474 136.811 214.944C137.141 215.404 137.306 215.949 137.306 216.579C137.306 217.149 137.186 217.684 136.946 218.184C136.706 218.684 136.241 219.254 135.551 219.894L133.136 222.174H137.651ZM143.124 224.334C142.254 224.334 141.479 224.119 140.799 223.689C140.119 223.259 139.584 222.639 139.194 221.829C138.814 221.009 138.624 220.034 138.624 218.904C138.624 217.774 138.814 216.804 139.194 215.994C139.584 215.174 140.119 214.549 140.799 214.119C141.479 213.689 142.254 213.474 143.124 213.474C143.994 213.474 144.769 213.689 145.449 214.119C146.129 214.549 146.659 215.174 147.039 215.994C147.429 216.804 147.624 217.774 147.624 218.904C147.624 220.034 147.429 221.009 147.039 221.829C146.659 222.639 146.129 223.259 145.449 223.689C144.769 224.119 143.994 224.334 143.124 224.334ZM143.124 222.279C143.764 222.279 144.264 222.004 144.624 221.454C144.994 220.904 145.179 220.054 145.179 218.904C145.179 217.754 144.994 216.904 144.624 216.354C144.264 215.804 143.764 215.529 143.124 215.529C142.494 215.529 141.994 215.804 141.624 216.354C141.264 216.904 141.084 217.754 141.084 218.904C141.084 220.054 141.264 220.904 141.624 221.454C141.994 222.004 142.494 222.279 143.124 222.279ZM152.767 213.654V224.154H150.337V215.604H148.237V213.654H152.767ZM158.191 217.599C159.671 217.599 160.761 217.894 161.461 218.484C162.171 219.074 162.526 219.864 162.526 220.854C162.526 221.494 162.366 222.079 162.046 222.609C161.726 223.129 161.236 223.549 160.576 223.869C159.926 224.179 159.121 224.334 158.161 224.334C157.421 224.334 156.691 224.239 155.971 224.049C155.261 223.849 154.656 223.569 154.156 223.209L155.116 221.349C155.516 221.649 155.976 221.884 156.496 222.054C157.016 222.214 157.551 222.294 158.101 222.294C158.711 222.294 159.191 222.174 159.541 221.934C159.891 221.694 160.066 221.359 160.066 220.929C160.066 220.479 159.881 220.139 159.511 219.909C159.151 219.679 158.521 219.564 157.621 219.564H154.936L155.476 213.654H161.881V215.604H157.501L157.336 217.599H158.191Z" fill="#006A74"/>
<path d="M332.246 213.357C329.407 213.357 326.712 214.027 324.282 215.227C323.094 215.813 321.75 214.882 321.75 213.456V207.262C321.75 195.52 313.057 186 302.331 186C295.167 186 288.913 190.25 285.548 196.571C285.029 197.545 283.879 197.83 283.018 197.213C279.97 195.033 276.328 193.765 272.416 193.765C261.692 193.765 252.997 203.284 252.997 215.026V220.651C252.997 222.078 251.653 223.009 250.465 222.422C248.035 221.223 245.34 220.552 242.501 220.552C231.776 220.552 223.082 230.072 223.082 241.814V247.043C223.082 258.785 231.776 268.304 242.501 268.304H332.246C342.972 268.304 351.665 258.786 351.665 247.043V234.619C351.665 222.877 342.972 213.357 332.246 213.357Z" fill="#C4C4C4"/>
<path d="M333.521 214.107C335.604 217.494 336.82 221.573 336.82 225.963V238.387C336.82 250.13 328.125 259.649 317.4 259.649H227.656C227.403 259.649 227.153 259.638 226.902 259.629C230.39 265.301 236.308 269.034 243.023 269.034H332.769C343.493 269.034 352.188 259.514 352.188 247.772V235.347C352.188 223.881 343.897 214.54 333.521 214.107Z" fill="#9B9B9B"/>
<path d="M279.082 235.408V237.388H271.147V235.813L275.197 231.988C275.627 231.578 275.917 231.228 276.067 230.938C276.217 230.638 276.292 230.343 276.292 230.053C276.292 229.633 276.147 229.313 275.857 229.093C275.577 228.863 275.162 228.748 274.612 228.748C274.152 228.748 273.737 228.838 273.367 229.018C272.997 229.188 272.687 229.448 272.437 229.798L270.667 228.658C271.077 228.048 271.642 227.573 272.362 227.233C273.082 226.883 273.907 226.708 274.837 226.708C275.617 226.708 276.297 226.838 276.877 227.098C277.467 227.348 277.922 227.708 278.242 228.178C278.572 228.638 278.737 229.183 278.737 229.813C278.737 230.383 278.617 230.918 278.377 231.418C278.137 231.918 277.672 232.488 276.982 233.128L274.567 235.408H279.082ZM284.555 237.568C283.685 237.568 282.91 237.353 282.23 236.923C281.55 236.493 281.015 235.873 280.625 235.063C280.245 234.243 280.055 233.268 280.055 232.138C280.055 231.008 280.245 230.038 280.625 229.228C281.015 228.408 281.55 227.783 282.23 227.353C282.91 226.923 283.685 226.708 284.555 226.708C285.425 226.708 286.2 226.923 286.88 227.353C287.56 227.783 288.09 228.408 288.47 229.228C288.86 230.038 289.055 231.008 289.055 232.138C289.055 233.268 288.86 234.243 288.47 235.063C288.09 235.873 287.56 236.493 286.88 236.923C286.2 237.353 285.425 237.568 284.555 237.568ZM284.555 235.513C285.195 235.513 285.695 235.238 286.055 234.688C286.425 234.138 286.61 233.288 286.61 232.138C286.61 230.988 286.425 230.138 286.055 229.588C285.695 229.038 285.195 228.763 284.555 228.763C283.925 228.763 283.425 229.038 283.055 229.588C282.695 230.138 282.515 230.988 282.515 232.138C282.515 233.288 282.695 234.138 283.055 234.688C283.425 235.238 283.925 235.513 284.555 235.513ZM294.198 226.888V237.388H291.768V228.838H289.668V226.888H294.198ZM304.242 226.888V228.463L300.342 237.388H297.702L301.467 228.868H297.987V230.578H295.827V226.888H304.242Z" fill="#006A74"/>
<path d="M215.892 330.067L224.56 330.108L224.46 348.667C224.457 349.077 224.81 349.411 225.247 349.413L237.905 349.473C238.342 349.475 238.698 349.145 238.701 348.735L238.801 330.176L247.504 330.217C247.941 330.219 248.297 329.889 248.299 329.479C248.3 329.282 248.218 329.093 248.071 328.954L232.368 314.019C232.22 313.879 232.019 313.8 231.809 313.798C231.599 313.797 231.397 313.874 231.247 314.013L215.344 328.796C215.033 329.084 215.03 329.554 215.337 329.846C215.483 329.986 215.683 330.065 215.892 330.067Z" fill="#998855"/>
<path d="M396.403 320.983H387.735V302.423C387.735 302.013 387.381 301.681 386.944 301.681H374.285C373.848 301.681 373.494 302.013 373.494 302.423V320.983H364.791C364.354 320.983 364 321.316 364 321.726C364 321.922 364.083 322.11 364.231 322.25L380.015 337.109C380.163 337.249 380.365 337.328 380.575 337.328C380.785 337.328 380.986 337.25 381.135 337.111L396.959 322.251C397.268 321.961 397.269 321.491 396.96 321.201C396.812 321.062 396.612 320.984 396.403 320.983Z" fill="#7FB239"/>
<path d="M96.4032 308.891H87.7351V290.332C87.7351 289.922 87.3809 289.589 86.9439 289.589H74.2851C73.8481 289.589 73.4939 289.922 73.4939 290.332V308.891H64.791C64.354 308.891 63.9999 309.223 64 309.633C64.0001 309.83 64.0831 310.018 64.2308 310.157L80.0148 325.017C80.1632 325.156 80.3647 325.235 80.575 325.235C80.7849 325.235 80.9865 325.157 81.1351 325.018L96.9586 310.159C97.268 309.869 97.2686 309.399 96.96 309.109C96.8124 308.97 96.6122 308.892 96.4032 308.891Z" fill="#7FB239"/>
<path d="M415.415 313.179C415.943 313.355 416.347 313.619 416.627 313.971C416.915 314.323 417.059 314.747 417.059 315.243C417.059 315.731 416.927 316.159 416.663 316.527C416.399 316.887 416.019 317.167 415.523 317.367C415.035 317.559 414.459 317.655 413.795 317.655C412.787 317.655 411.995 317.439 411.419 317.007C410.843 316.575 410.555 315.987 410.555 315.243C410.555 314.739 410.691 314.315 410.963 313.971C411.243 313.619 411.647 313.355 412.175 313.179C411.743 313.011 411.415 312.771 411.191 312.459C410.967 312.139 410.855 311.763 410.855 311.331C410.855 310.651 411.119 310.111 411.647 309.711C412.183 309.311 412.899 309.111 413.795 309.111C414.387 309.111 414.903 309.203 415.343 309.387C415.791 309.563 416.139 309.819 416.387 310.155C416.635 310.491 416.759 310.883 416.759 311.331C416.759 311.763 416.643 312.139 416.411 312.459C416.179 312.771 415.847 313.011 415.415 313.179ZM411.719 311.355C411.719 311.819 411.903 312.187 412.271 312.459C412.639 312.731 413.147 312.867 413.795 312.867C414.443 312.867 414.951 312.731 415.319 312.459C415.695 312.187 415.883 311.823 415.883 311.367C415.883 310.895 415.691 310.523 415.307 310.251C414.931 309.979 414.427 309.843 413.795 309.843C413.155 309.843 412.647 309.979 412.271 310.251C411.903 310.523 411.719 310.891 411.719 311.355ZM413.795 316.923C414.539 316.923 415.119 316.771 415.535 316.467C415.959 316.163 416.171 315.751 416.171 315.231C416.171 314.711 415.959 314.303 415.535 314.007C415.119 313.703 414.539 313.551 413.795 313.551C413.059 313.551 412.479 313.703 412.055 314.007C411.639 314.303 411.431 314.711 411.431 315.231C411.431 315.759 411.639 316.175 412.055 316.479C412.471 316.775 413.051 316.923 413.795 316.923ZM423.992 316.815V317.583H418.1V316.971L421.592 313.551C422.032 313.119 422.328 312.747 422.48 312.435C422.64 312.115 422.72 311.795 422.72 311.475C422.72 310.979 422.548 310.595 422.204 310.323C421.868 310.043 421.384 309.903 420.752 309.903C419.768 309.903 419.004 310.215 418.46 310.839L417.848 310.311C418.176 309.927 418.592 309.631 419.096 309.423C419.608 309.215 420.184 309.111 420.824 309.111C421.68 309.111 422.356 309.315 422.852 309.723C423.356 310.123 423.608 310.675 423.608 311.379C423.608 311.811 423.512 312.227 423.32 312.627C423.128 313.027 422.764 313.487 422.228 314.007L419.372 316.815H423.992ZM431.565 317.655C430.917 317.655 430.337 317.483 429.825 317.139C429.321 316.795 428.925 316.303 428.637 315.663C428.357 315.015 428.217 314.255 428.217 313.383C428.217 312.511 428.357 311.755 428.637 311.115C428.925 310.467 429.321 309.971 429.825 309.627C430.337 309.283 430.917 309.111 431.565 309.111C432.213 309.111 432.789 309.283 433.293 309.627C433.805 309.971 434.205 310.467 434.493 311.115C434.781 311.755 434.925 312.511 434.925 313.383C434.925 314.255 434.781 315.015 434.493 315.663C434.205 316.303 433.805 316.795 433.293 317.139C432.789 317.483 432.213 317.655 431.565 317.655ZM431.565 316.863C432.053 316.863 432.481 316.727 432.849 316.455C433.225 316.183 433.517 315.787 433.725 315.267C433.933 314.747 434.037 314.119 434.037 313.383C434.037 312.647 433.933 312.019 433.725 311.499C433.517 310.979 433.225 310.583 432.849 310.311C432.481 310.039 432.053 309.903 431.565 309.903C431.077 309.903 430.645 310.039 430.269 310.311C429.901 310.583 429.613 310.979 429.405 311.499C429.197 312.019 429.093 312.647 429.093 313.383C429.093 314.119 429.197 314.747 429.405 315.267C429.613 315.787 429.901 316.183 430.269 316.455C430.645 316.727 431.077 316.863 431.565 316.863ZM439.51 317.655C438.862 317.655 438.282 317.483 437.77 317.139C437.266 316.795 436.87 316.303 436.582 315.663C436.302 315.015 436.162 314.255 436.162 313.383C436.162 312.511 436.302 311.755 436.582 311.115C436.87 310.467 437.266 309.971 437.77 309.627C438.282 309.283 438.862 309.111 439.51 309.111C440.158 309.111 440.734 309.283 441.238 309.627C441.75 309.971 442.15 310.467 442.438 311.115C442.726 311.755 442.87 312.511 442.87 313.383C442.87 314.255 442.726 315.015 442.438 315.663C442.15 316.303 441.75 316.795 441.238 317.139C440.734 317.483 440.158 317.655 439.51 317.655ZM439.51 316.863C439.998 316.863 440.426 316.727 440.794 316.455C441.17 316.183 441.462 315.787 441.67 315.267C441.878 314.747 441.982 314.119 441.982 313.383C441.982 312.647 441.878 312.019 441.67 311.499C441.462 310.979 441.17 310.583 440.794 310.311C440.426 310.039 439.998 309.903 439.51 309.903C439.022 309.903 438.59 310.039 438.214 310.311C437.846 310.583 437.558 310.979 437.35 311.499C437.142 312.019 437.038 312.647 437.038 313.383C437.038 314.119 437.142 314.747 437.35 315.267C437.558 315.787 437.846 316.183 438.214 316.455C438.59 316.727 439.022 316.863 439.51 316.863ZM447.455 317.655C446.807 317.655 446.227 317.483 445.715 317.139C445.211 316.795 444.815 316.303 444.527 315.663C444.247 315.015 444.107 314.255 444.107 313.383C444.107 312.511 444.247 311.755 444.527 311.115C444.815 310.467 445.211 309.971 445.715 309.627C446.227 309.283 446.807 309.111 447.455 309.111C448.103 309.111 448.679 309.283 449.183 309.627C449.695 309.971 450.095 310.467 450.383 311.115C450.671 311.755 450.815 312.511 450.815 313.383C450.815 314.255 450.671 315.015 450.383 315.663C450.095 316.303 449.695 316.795 449.183 317.139C448.679 317.483 448.103 317.655 447.455 317.655ZM447.455 316.863C447.943 316.863 448.371 316.727 448.739 316.455C449.115 316.183 449.407 315.787 449.615 315.267C449.823 314.747 449.927 314.119 449.927 313.383C449.927 312.647 449.823 312.019 449.615 311.499C449.407 310.979 449.115 310.583 448.739 310.311C448.371 310.039 447.943 309.903 447.455 309.903C446.967 309.903 446.535 310.039 446.159 310.311C445.791 310.583 445.503 310.979 445.295 311.499C445.087 312.019 444.983 312.647 444.983 313.383C444.983 314.119 445.087 314.747 445.295 315.267C445.503 315.787 445.791 316.183 446.159 316.455C446.535 316.727 446.967 316.863 447.455 316.863ZM459.081 317.199C458.921 317.343 458.721 317.455 458.481 317.535C458.249 317.607 458.005 317.643 457.749 317.643C457.157 317.643 456.701 317.483 456.381 317.163C456.061 316.843 455.901 316.391 455.901 315.807V311.991H454.773V311.271H455.901V309.891H456.753V311.271H458.673V311.991H456.753V315.759C456.753 316.135 456.845 316.423 457.029 316.623C457.221 316.815 457.493 316.911 457.845 316.911C458.021 316.911 458.189 316.883 458.349 316.827C458.517 316.771 458.661 316.691 458.781 316.587L459.081 317.199ZM462.99 317.643C462.382 317.643 461.834 317.507 461.346 317.235C460.858 316.955 460.474 316.571 460.194 316.083C459.914 315.595 459.774 315.043 459.774 314.427C459.774 313.811 459.914 313.259 460.194 312.771C460.474 312.283 460.858 311.903 461.346 311.631C461.834 311.359 462.382 311.223 462.99 311.223C463.598 311.223 464.146 311.359 464.634 311.631C465.122 311.903 465.502 312.283 465.774 312.771C466.054 313.259 466.194 313.811 466.194 314.427C466.194 315.043 466.054 315.595 465.774 316.083C465.502 316.571 465.122 316.955 464.634 317.235C464.146 317.507 463.598 317.643 462.99 317.643ZM462.99 316.887C463.438 316.887 463.838 316.787 464.19 316.587C464.55 316.379 464.83 316.087 465.03 315.711C465.23 315.335 465.33 314.907 465.33 314.427C465.33 313.947 465.23 313.519 465.03 313.143C464.83 312.767 464.55 312.479 464.19 312.279C463.838 312.071 463.438 311.967 462.99 311.967C462.542 311.967 462.138 312.071 461.778 312.279C461.426 312.479 461.146 312.767 460.938 313.143C460.738 313.519 460.638 313.947 460.638 314.427C460.638 314.907 460.738 315.335 460.938 315.711C461.146 316.087 461.426 316.379 461.778 316.587C462.138 316.787 462.542 316.887 462.99 316.887ZM471.149 311.223C471.941 311.223 472.569 311.455 473.033 311.919C473.505 312.375 473.741 313.043 473.741 313.923V317.583H472.889V314.007C472.889 313.351 472.725 312.851 472.397 312.507C472.069 312.163 471.601 311.991 470.993 311.991C470.313 311.991 469.773 312.195 469.373 312.603C468.981 313.003 468.785 313.559 468.785 314.271V317.583H467.933V311.271H468.749V312.435C468.981 312.051 469.301 311.755 469.709 311.547C470.125 311.331 470.605 311.223 471.149 311.223ZM479.27 311.223C480.062 311.223 480.69 311.455 481.154 311.919C481.626 312.375 481.862 313.043 481.862 313.923V317.583H481.01V314.007C481.01 313.351 480.846 312.851 480.518 312.507C480.19 312.163 479.722 311.991 479.114 311.991C478.434 311.991 477.894 312.195 477.494 312.603C477.102 313.003 476.906 313.559 476.906 314.271V317.583H476.054V311.271H476.87V312.435C477.102 312.051 477.422 311.755 477.83 311.547C478.246 311.331 478.726 311.223 479.27 311.223ZM489.695 314.691H484.415C484.463 315.347 484.715 315.879 485.171 316.287C485.627 316.687 486.203 316.887 486.899 316.887C487.291 316.887 487.651 316.819 487.979 316.683C488.307 316.539 488.591 316.331 488.831 316.059L489.311 316.611C489.031 316.947 488.679 317.203 488.255 317.379C487.839 317.555 487.379 317.643 486.875 317.643C486.227 317.643 485.651 317.507 485.147 317.235C484.651 316.955 484.263 316.571 483.983 316.083C483.703 315.595 483.563 315.043 483.563 314.427C483.563 313.811 483.695 313.259 483.959 312.771C484.231 312.283 484.599 311.903 485.063 311.631C485.535 311.359 486.063 311.223 486.647 311.223C487.231 311.223 487.755 311.359 488.219 311.631C488.683 311.903 489.047 312.283 489.311 312.771C489.575 313.251 489.707 313.803 489.707 314.427L489.695 314.691ZM486.647 311.955C486.039 311.955 485.527 312.151 485.111 312.543C484.703 312.927 484.471 313.431 484.415 314.055H488.891C488.835 313.431 488.599 312.927 488.183 312.543C487.775 312.151 487.263 311.955 486.647 311.955ZM493.133 317.643C492.621 317.643 492.129 317.571 491.657 317.427C491.193 317.275 490.829 317.087 490.565 316.863L490.949 316.191C491.213 316.399 491.545 316.571 491.945 316.707C492.345 316.835 492.761 316.899 493.193 316.899C493.769 316.899 494.193 316.811 494.465 316.635C494.745 316.451 494.885 316.195 494.885 315.867C494.885 315.635 494.809 315.455 494.657 315.327C494.505 315.191 494.313 315.091 494.081 315.027C493.849 314.955 493.541 314.887 493.157 314.823C492.645 314.727 492.233 314.631 491.921 314.535C491.609 314.431 491.341 314.259 491.117 314.019C490.901 313.779 490.793 313.447 490.793 313.023C490.793 312.495 491.013 312.063 491.453 311.727C491.893 311.391 492.505 311.223 493.289 311.223C493.697 311.223 494.105 311.279 494.513 311.391C494.921 311.495 495.257 311.635 495.521 311.811L495.149 312.495C494.629 312.135 494.009 311.955 493.289 311.955C492.745 311.955 492.333 312.051 492.053 312.243C491.781 312.435 491.645 312.687 491.645 312.999C491.645 313.239 491.721 313.431 491.873 313.575C492.033 313.719 492.229 313.827 492.461 313.899C492.693 313.963 493.013 314.031 493.421 314.103C493.925 314.199 494.329 314.295 494.633 314.391C494.937 314.487 495.197 314.651 495.413 314.883C495.629 315.115 495.737 315.435 495.737 315.843C495.737 316.395 495.505 316.835 495.041 317.163C494.585 317.483 493.949 317.643 493.133 317.643Z" fill="white"/>
<path d="M261.081 329.94C262.193 329.94 263.045 330.308 263.637 331.044C264.229 331.772 264.525 332.804 264.525 334.14C264.525 335.076 264.365 335.868 264.045 336.516C263.725 337.164 263.277 337.656 262.701 337.992C262.125 338.32 261.453 338.484 260.685 338.484C259.853 338.484 259.189 338.332 258.693 338.028L259.041 337.332C259.441 337.596 259.985 337.728 260.673 337.728C261.601 337.728 262.329 337.436 262.857 336.852C263.385 336.26 263.649 335.404 263.649 334.284C263.649 334.076 263.637 333.848 263.613 333.6C263.405 334.056 263.073 334.412 262.617 334.668C262.161 334.916 261.637 335.04 261.045 335.04C260.493 335.04 260.001 334.936 259.569 334.728C259.145 334.52 258.813 334.228 258.573 333.852C258.333 333.468 258.213 333.024 258.213 332.52C258.213 332.008 258.337 331.556 258.585 331.164C258.833 330.772 259.173 330.472 259.605 330.264C260.045 330.048 260.537 329.94 261.081 329.94ZM261.177 334.308C261.601 334.308 261.973 334.228 262.293 334.068C262.621 333.908 262.877 333.688 263.061 333.408C263.245 333.128 263.337 332.816 263.337 332.472C263.337 332.152 263.249 331.856 263.073 331.584C262.905 331.312 262.653 331.092 262.317 330.924C261.981 330.756 261.581 330.672 261.117 330.672C260.509 330.672 260.013 330.84 259.629 331.176C259.253 331.504 259.065 331.944 259.065 332.496C259.065 333.048 259.253 333.488 259.629 333.816C260.013 334.144 260.529 334.308 261.177 334.308ZM271.612 330.012V330.624L268.096 338.412H267.16L270.616 330.78H266.296V332.352H265.444V330.012H271.612ZM283.031 336.204H281.351V338.412H280.487V336.204H275.747V335.58L280.199 330.012H281.159L276.863 335.436H280.511V333.492H281.351V335.436H283.031V336.204ZM285.848 330.012V338.412H284.984V330.78H283.004V330.012H285.848ZM290.183 330.012V338.412H289.319V330.78H287.339V330.012H290.183ZM299.22 338.028C299.06 338.172 298.86 338.284 298.62 338.364C298.388 338.436 298.144 338.472 297.888 338.472C297.296 338.472 296.84 338.312 296.52 337.992C296.2 337.672 296.04 337.22 296.04 336.636V332.82H294.912V332.1H296.04V330.72H296.892V332.1H298.812V332.82H296.892V336.588C296.892 336.964 296.984 337.252 297.168 337.452C297.36 337.644 297.632 337.74 297.984 337.74C298.16 337.74 298.328 337.712 298.488 337.656C298.656 337.6 298.8 337.52 298.92 337.416L299.22 338.028ZM303.128 338.472C302.52 338.472 301.972 338.336 301.484 338.064C300.996 337.784 300.612 337.4 300.332 336.912C300.052 336.424 299.912 335.872 299.912 335.256C299.912 334.64 300.052 334.088 300.332 333.6C300.612 333.112 300.996 332.732 301.484 332.46C301.972 332.188 302.52 332.052 303.128 332.052C303.736 332.052 304.284 332.188 304.772 332.46C305.26 332.732 305.64 333.112 305.912 333.6C306.192 334.088 306.332 334.64 306.332 335.256C306.332 335.872 306.192 336.424 305.912 336.912C305.64 337.4 305.26 337.784 304.772 338.064C304.284 338.336 303.736 338.472 303.128 338.472ZM303.128 337.716C303.576 337.716 303.976 337.616 304.328 337.416C304.688 337.208 304.968 336.916 305.168 336.54C305.368 336.164 305.468 335.736 305.468 335.256C305.468 334.776 305.368 334.348 305.168 333.972C304.968 333.596 304.688 333.308 304.328 333.108C303.976 332.9 303.576 332.796 303.128 332.796C302.68 332.796 302.276 332.9 301.916 333.108C301.564 333.308 301.284 333.596 301.076 333.972C300.876 334.348 300.776 334.776 300.776 335.256C300.776 335.736 300.876 336.164 301.076 336.54C301.284 336.916 301.564 337.208 301.916 337.416C302.276 337.616 302.68 337.716 303.128 337.716ZM311.288 332.052C312.08 332.052 312.708 332.284 313.172 332.748C313.644 333.204 313.88 333.872 313.88 334.752V338.412H313.028V334.836C313.028 334.18 312.864 333.68 312.536 333.336C312.208 332.992 311.74 332.82 311.132 332.82C310.452 332.82 309.912 333.024 309.512 333.432C309.12 333.832 308.924 334.388 308.924 335.1V338.412H308.072V332.1H308.888V333.264C309.12 332.88 309.44 332.584 309.848 332.376C310.264 332.16 310.744 332.052 311.288 332.052ZM319.409 332.052C320.201 332.052 320.829 332.284 321.293 332.748C321.765 333.204 322.001 333.872 322.001 334.752V338.412H321.149V334.836C321.149 334.18 320.985 333.68 320.657 333.336C320.329 332.992 319.861 332.82 319.253 332.82C318.573 332.82 318.033 333.024 317.633 333.432C317.241 333.832 317.045 334.388 317.045 335.1V338.412H316.193V332.1H317.009V333.264C317.241 332.88 317.561 332.584 317.969 332.376C318.385 332.16 318.865 332.052 319.409 332.052ZM329.833 335.52H324.553C324.601 336.176 324.853 336.708 325.309 337.116C325.765 337.516 326.341 337.716 327.037 337.716C327.429 337.716 327.789 337.648 328.117 337.512C328.445 337.368 328.729 337.16 328.969 336.888L329.449 337.44C329.169 337.776 328.817 338.032 328.393 338.208C327.977 338.384 327.517 338.472 327.013 338.472C326.365 338.472 325.789 338.336 325.285 338.064C324.789 337.784 324.401 337.4 324.121 336.912C323.841 336.424 323.701 335.872 323.701 335.256C323.701 334.64 323.833 334.088 324.097 333.6C324.369 333.112 324.737 332.732 325.201 332.46C325.673 332.188 326.201 332.052 326.785 332.052C327.369 332.052 327.893 332.188 328.357 332.46C328.821 332.732 329.185 333.112 329.449 333.6C329.713 334.08 329.845 334.632 329.845 335.256L329.833 335.52ZM326.785 332.784C326.177 332.784 325.665 332.98 325.249 333.372C324.841 333.756 324.609 334.26 324.553 334.884H329.029C328.973 334.26 328.737 333.756 328.321 333.372C327.913 332.98 327.401 332.784 326.785 332.784ZM333.272 338.472C332.76 338.472 332.268 338.4 331.796 338.256C331.332 338.104 330.968 337.916 330.704 337.692L331.088 337.02C331.352 337.228 331.684 337.4 332.084 337.536C332.484 337.664 332.9 337.728 333.332 337.728C333.908 337.728 334.332 337.64 334.604 337.464C334.884 337.28 335.024 337.024 335.024 336.696C335.024 336.464 334.948 336.284 334.796 336.156C334.644 336.02 334.452 335.92 334.22 335.856C333.988 335.784 333.68 335.716 333.296 335.652C332.784 335.556 332.372 335.46 332.06 335.364C331.748 335.26 331.48 335.088 331.256 334.848C331.04 334.608 330.932 334.276 330.932 333.852C330.932 333.324 331.152 332.892 331.592 332.556C332.032 332.22 332.644 332.052 333.428 332.052C333.836 332.052 334.244 332.108 334.652 332.22C335.06 332.324 335.396 332.464 335.66 332.64L335.288 333.324C334.768 332.964 334.148 332.784 333.428 332.784C332.884 332.784 332.472 332.88 332.192 333.072C331.92 333.264 331.784 333.516 331.784 333.828C331.784 334.068 331.86 334.26 332.012 334.404C332.172 334.548 332.368 334.656 332.6 334.728C332.832 334.792 333.152 334.86 333.56 334.932C334.064 335.028 334.468 335.124 334.772 335.22C335.076 335.316 335.336 335.48 335.552 335.712C335.768 335.944 335.876 336.264 335.876 336.672C335.876 337.224 335.644 337.664 335.18 337.992C334.724 338.312 334.088 338.472 333.272 338.472Z" fill="white"/>
<path d="M113.548 302.293C114.076 302.469 114.48 302.733 114.76 303.085C115.048 303.437 115.192 303.861 115.192 304.357C115.192 304.845 115.06 305.273 114.796 305.641C114.532 306.001 114.152 306.281 113.656 306.481C113.168 306.673 112.592 306.769 111.928 306.769C110.92 306.769 110.128 306.553 109.552 306.121C108.976 305.689 108.688 305.101 108.688 304.357C108.688 303.853 108.824 303.429 109.096 303.085C109.376 302.733 109.78 302.469 110.308 302.293C109.876 302.125 109.548 301.885 109.324 301.573C109.1 301.253 108.988 300.877 108.988 300.445C108.988 299.765 109.252 299.225 109.78 298.825C110.316 298.425 111.032 298.225 111.928 298.225C112.52 298.225 113.036 298.317 113.476 298.501C113.924 298.677 114.272 298.933 114.52 299.269C114.768 299.605 114.892 299.997 114.892 300.445C114.892 300.877 114.776 301.253 114.544 301.573C114.312 301.885 113.98 302.125 113.548 302.293ZM109.852 300.469C109.852 300.933 110.036 301.301 110.404 301.573C110.772 301.845 111.28 301.981 111.928 301.981C112.576 301.981 113.084 301.845 113.452 301.573C113.828 301.301 114.016 300.937 114.016 300.481C114.016 300.009 113.824 299.637 113.44 299.365C113.064 299.093 112.56 298.957 111.928 298.957C111.288 298.957 110.78 299.093 110.404 299.365C110.036 299.637 109.852 300.005 109.852 300.469ZM111.928 306.037C112.672 306.037 113.252 305.885 113.668 305.581C114.092 305.277 114.304 304.865 114.304 304.345C114.304 303.825 114.092 303.417 113.668 303.121C113.252 302.817 112.672 302.665 111.928 302.665C111.192 302.665 110.612 302.817 110.188 303.121C109.772 303.417 109.564 303.825 109.564 304.345C109.564 304.873 109.772 305.289 110.188 305.593C110.604 305.889 111.184 306.037 111.928 306.037ZM118.717 298.297V306.697H117.853V299.065H115.873V298.297H118.717ZM128.677 302.293C129.205 302.469 129.609 302.733 129.889 303.085C130.177 303.437 130.321 303.861 130.321 304.357C130.321 304.845 130.189 305.273 129.925 305.641C129.661 306.001 129.281 306.281 128.785 306.481C128.297 306.673 127.721 306.769 127.057 306.769C126.049 306.769 125.257 306.553 124.681 306.121C124.105 305.689 123.817 305.101 123.817 304.357C123.817 303.853 123.953 303.429 124.225 303.085C124.505 302.733 124.909 302.469 125.437 302.293C125.005 302.125 124.677 301.885 124.453 301.573C124.229 301.253 124.117 300.877 124.117 300.445C124.117 299.765 124.381 299.225 124.909 298.825C125.445 298.425 126.161 298.225 127.057 298.225C127.649 298.225 128.165 298.317 128.605 298.501C129.053 298.677 129.401 298.933 129.649 299.269C129.897 299.605 130.021 299.997 130.021 300.445C130.021 300.877 129.905 301.253 129.673 301.573C129.441 301.885 129.109 302.125 128.677 302.293ZM124.981 300.469C124.981 300.933 125.165 301.301 125.533 301.573C125.901 301.845 126.409 301.981 127.057 301.981C127.705 301.981 128.213 301.845 128.581 301.573C128.957 301.301 129.145 300.937 129.145 300.481C129.145 300.009 128.953 299.637 128.569 299.365C128.193 299.093 127.689 298.957 127.057 298.957C126.417 298.957 125.909 299.093 125.533 299.365C125.165 299.637 124.981 300.005 124.981 300.469ZM127.057 306.037C127.801 306.037 128.381 305.885 128.797 305.581C129.221 305.277 129.433 304.865 129.433 304.345C129.433 303.825 129.221 303.417 128.797 303.121C128.381 302.817 127.801 302.665 127.057 302.665C126.321 302.665 125.741 302.817 125.317 303.121C124.901 303.417 124.693 303.825 124.693 304.345C124.693 304.873 124.901 305.289 125.317 305.593C125.733 305.889 126.313 306.037 127.057 306.037ZM138.658 304.489H136.978V306.697H136.114V304.489H131.374V303.865L135.826 298.297H136.786L132.49 303.721H136.138V301.777H136.978V303.721H138.658V304.489ZM144.781 298.297V298.909L141.265 306.697H140.329L143.785 299.065H139.465V300.637H138.613V298.297H144.781ZM152.949 306.313C152.789 306.457 152.589 306.569 152.349 306.649C152.117 306.721 151.873 306.757 151.617 306.757C151.025 306.757 150.569 306.597 150.249 306.277C149.929 305.957 149.769 305.505 149.769 304.921V301.105H148.641V300.385H149.769V299.005H150.621V300.385H152.541V301.105H150.621V304.873C150.621 305.249 150.713 305.537 150.897 305.737C151.089 305.929 151.361 306.025 151.713 306.025C151.889 306.025 152.057 305.997 152.217 305.941C152.385 305.885 152.529 305.805 152.649 305.701L152.949 306.313ZM156.857 306.757C156.249 306.757 155.701 306.621 155.213 306.349C154.725 306.069 154.341 305.685 154.061 305.197C153.781 304.709 153.641 304.157 153.641 303.541C153.641 302.925 153.781 302.373 154.061 301.885C154.341 301.397 154.725 301.017 155.213 300.745C155.701 300.473 156.249 300.337 156.857 300.337C157.465 300.337 158.013 300.473 158.501 300.745C158.989 301.017 159.369 301.397 159.641 301.885C159.921 302.373 160.061 302.925 160.061 303.541C160.061 304.157 159.921 304.709 159.641 305.197C159.369 305.685 158.989 306.069 158.501 306.349C158.013 306.621 157.465 306.757 156.857 306.757ZM156.857 306.001C157.305 306.001 157.705 305.901 158.057 305.701C158.417 305.493 158.697 305.201 158.897 304.825C159.097 304.449 159.197 304.021 159.197 303.541C159.197 303.061 159.097 302.633 158.897 302.257C158.697 301.881 158.417 301.593 158.057 301.393C157.705 301.185 157.305 301.081 156.857 301.081C156.409 301.081 156.005 301.185 155.645 301.393C155.293 301.593 155.013 301.881 154.805 302.257C154.605 302.633 154.505 303.061 154.505 303.541C154.505 304.021 154.605 304.449 154.805 304.825C155.013 305.201 155.293 305.493 155.645 305.701C156.005 305.901 156.409 306.001 156.857 306.001ZM165.016 300.337C165.808 300.337 166.436 300.569 166.9 301.033C167.372 301.489 167.608 302.157 167.608 303.037V306.697H166.756V303.121C166.756 302.465 166.592 301.965 166.264 301.621C165.936 301.277 165.468 301.105 164.86 301.105C164.18 301.105 163.64 301.309 163.24 301.717C162.848 302.117 162.652 302.673 162.652 303.385V306.697H161.8V300.385H162.616V301.549C162.848 301.165 163.168 300.869 163.576 300.661C163.992 300.445 164.472 300.337 165.016 300.337ZM173.137 300.337C173.929 300.337 174.557 300.569 175.021 301.033C175.493 301.489 175.729 302.157 175.729 303.037V306.697H174.877V303.121C174.877 302.465 174.713 301.965 174.385 301.621C174.057 301.277 173.589 301.105 172.981 301.105C172.301 301.105 171.761 301.309 171.361 301.717C170.969 302.117 170.773 302.673 170.773 303.385V306.697H169.921V300.385H170.737V301.549C170.969 301.165 171.289 300.869 171.697 300.661C172.113 300.445 172.593 300.337 173.137 300.337ZM183.562 303.805H178.282C178.33 304.461 178.582 304.993 179.038 305.401C179.494 305.801 180.07 306.001 180.766 306.001C181.158 306.001 181.518 305.933 181.846 305.797C182.174 305.653 182.458 305.445 182.698 305.173L183.178 305.725C182.898 306.061 182.546 306.317 182.122 306.493C181.706 306.669 181.246 306.757 180.742 306.757C180.094 306.757 179.518 306.621 179.014 306.349C178.518 306.069 178.13 305.685 177.85 305.197C177.57 304.709 177.43 304.157 177.43 303.541C177.43 302.925 177.562 302.373 177.826 301.885C178.098 301.397 178.466 301.017 178.93 300.745C179.402 300.473 179.93 300.337 180.514 300.337C181.098 300.337 181.622 300.473 182.086 300.745C182.55 301.017 182.914 301.397 183.178 301.885C183.442 302.365 183.574 302.917 183.574 303.541L183.562 303.805ZM180.514 301.069C179.906 301.069 179.394 301.265 178.978 301.657C178.57 302.041 178.338 302.545 178.282 303.169H182.758C182.702 302.545 182.466 302.041 182.05 301.657C181.642 301.265 181.13 301.069 180.514 301.069ZM187 306.757C186.488 306.757 185.996 306.685 185.524 306.541C185.06 306.389 184.696 306.201 184.432 305.977L184.816 305.305C185.08 305.513 185.412 305.685 185.812 305.821C186.212 305.949 186.628 306.013 187.06 306.013C187.636 306.013 188.06 305.925 188.332 305.749C188.612 305.565 188.752 305.309 188.752 304.981C188.752 304.749 188.676 304.569 188.524 304.441C188.372 304.305 188.18 304.205 187.948 304.141C187.716 304.069 187.408 304.001 187.024 303.937C186.512 303.841 186.1 303.745 185.788 303.649C185.476 303.545 185.208 303.373 184.984 303.133C184.768 302.893 184.66 302.561 184.66 302.137C184.66 301.609 184.88 301.177 185.32 300.841C185.76 300.505 186.372 300.337 187.156 300.337C187.564 300.337 187.972 300.393 188.38 300.505C188.788 300.609 189.124 300.749 189.388 300.925L189.016 301.609C188.496 301.249 187.876 301.069 187.156 301.069C186.612 301.069 186.2 301.165 185.92 301.357C185.648 301.549 185.512 301.801 185.512 302.113C185.512 302.353 185.588 302.545 185.74 302.689C185.9 302.833 186.096 302.941 186.328 303.013C186.56 303.077 186.88 303.145 187.288 303.217C187.792 303.313 188.196 303.409 188.5 303.505C188.804 303.601 189.064 303.765 189.28 303.997C189.496 304.229 189.604 304.549 189.604 304.957C189.604 305.509 189.372 305.949 188.908 306.277C188.452 306.597 187.816 306.757 187 306.757Z" fill="white"/>
<path d="M253.484 118.602V121.202H242.644V107.202H253.224V109.802H245.864V112.842H252.364V115.362H245.864V118.602H253.484ZM248.824 103.182H252.184L248.564 106.062H246.124L248.824 103.182ZM266.424 110.442L261.884 121.202H258.664L254.144 110.442H257.364L260.344 117.762L263.424 110.442H266.424ZM272.524 121.362C271.391 121.362 270.371 121.128 269.464 120.662C268.571 120.182 267.871 119.522 267.364 118.682C266.858 117.842 266.604 116.888 266.604 115.822C266.604 114.755 266.858 113.802 267.364 112.962C267.871 112.122 268.571 111.468 269.464 111.002C270.371 110.522 271.391 110.282 272.524 110.282C273.658 110.282 274.671 110.522 275.564 111.002C276.458 111.468 277.158 112.122 277.664 112.962C278.171 113.802 278.424 114.755 278.424 115.822C278.424 116.888 278.171 117.842 277.664 118.682C277.158 119.522 276.458 120.182 275.564 120.662C274.671 121.128 273.658 121.362 272.524 121.362ZM272.524 118.802C273.324 118.802 273.978 118.535 274.484 118.002C275.004 117.455 275.264 116.728 275.264 115.822C275.264 114.915 275.004 114.195 274.484 113.662C273.978 113.115 273.324 112.842 272.524 112.842C271.724 112.842 271.064 113.115 270.544 113.662C270.024 114.195 269.764 114.915 269.764 115.822C269.764 116.728 270.024 117.455 270.544 118.002C271.064 118.535 271.724 118.802 272.524 118.802ZM280.51 106.362H283.63V121.202H280.51V106.362ZM297.365 110.442V121.202H294.405V119.922C293.992 120.388 293.499 120.748 292.925 121.002C292.352 121.242 291.732 121.362 291.065 121.362C289.652 121.362 288.532 120.955 287.705 120.142C286.879 119.328 286.465 118.122 286.465 116.522V110.442H289.585V116.062C289.585 117.795 290.312 118.662 291.765 118.662C292.512 118.662 293.112 118.422 293.565 117.942C294.019 117.448 294.245 116.722 294.245 115.762V110.442H297.365ZM307.196 120.682C306.889 120.908 306.509 121.082 306.056 121.202C305.616 121.308 305.149 121.362 304.656 121.362C303.376 121.362 302.383 121.035 301.676 120.382C300.983 119.728 300.636 118.768 300.636 117.502V113.082H298.976V110.682H300.636V108.062H303.756V110.682H306.436V113.082H303.756V117.462C303.756 117.915 303.869 118.268 304.096 118.522C304.336 118.762 304.669 118.882 305.096 118.882C305.589 118.882 306.009 118.748 306.356 118.482L307.196 120.682ZM308.947 110.442H312.067V121.202H308.947V110.442ZM310.507 108.942C309.934 108.942 309.467 108.775 309.107 108.442C308.747 108.108 308.567 107.695 308.567 107.202C308.567 106.708 308.747 106.295 309.107 105.962C309.467 105.628 309.934 105.462 310.507 105.462C311.081 105.462 311.547 105.622 311.907 105.942C312.267 106.262 312.447 106.662 312.447 107.142C312.447 107.662 312.267 108.095 311.907 108.442C311.547 108.775 311.081 108.942 310.507 108.942ZM320.083 121.362C318.95 121.362 317.93 121.128 317.023 120.662C316.13 120.182 315.43 119.522 314.923 118.682C314.416 117.842 314.163 116.888 314.163 115.822C314.163 114.755 314.416 113.802 314.923 112.962C315.43 112.122 316.13 111.468 317.023 111.002C317.93 110.522 318.95 110.282 320.083 110.282C321.216 110.282 322.23 110.522 323.123 111.002C324.016 111.468 324.716 112.122 325.223 112.962C325.73 113.802 325.983 114.755 325.983 115.822C325.983 116.888 325.73 117.842 325.223 118.682C324.716 119.522 324.016 120.182 323.123 120.662C322.23 121.128 321.216 121.362 320.083 121.362ZM320.083 118.802C320.883 118.802 321.536 118.535 322.043 118.002C322.563 117.455 322.823 116.728 322.823 115.822C322.823 114.915 322.563 114.195 322.043 113.662C321.536 113.115 320.883 112.842 320.083 112.842C319.283 112.842 318.623 113.115 318.103 113.662C317.583 114.195 317.323 114.915 317.323 115.822C317.323 116.728 317.583 117.455 318.103 118.002C318.623 118.535 319.283 118.802 320.083 118.802ZM334.608 110.282C335.942 110.282 337.015 110.682 337.828 111.482C338.655 112.282 339.068 113.468 339.068 115.042V121.202H335.948V115.522C335.948 114.668 335.762 114.035 335.388 113.622C335.015 113.195 334.475 112.982 333.768 112.982C332.982 112.982 332.355 113.228 331.888 113.722C331.422 114.202 331.188 114.922 331.188 115.882V121.202H328.068V110.442H331.048V111.702C331.462 111.248 331.975 110.902 332.588 110.662C333.202 110.408 333.875 110.282 334.608 110.282ZM192.036 128.362V143.202H189.056V141.962C188.283 142.895 187.163 143.362 185.696 143.362C184.683 143.362 183.763 143.135 182.936 142.682C182.123 142.228 181.483 141.582 181.016 140.742C180.55 139.902 180.316 138.928 180.316 137.822C180.316 136.715 180.55 135.742 181.016 134.902C181.483 134.062 182.123 133.415 182.936 132.962C183.763 132.508 184.683 132.282 185.696 132.282C187.07 132.282 188.143 132.715 188.916 133.582V128.362H192.036ZM186.236 140.802C187.023 140.802 187.676 140.535 188.196 140.002C188.716 139.455 188.976 138.728 188.976 137.822C188.976 136.915 188.716 136.195 188.196 135.662C187.676 135.115 187.023 134.842 186.236 134.842C185.436 134.842 184.776 135.115 184.256 135.662C183.736 136.195 183.476 136.915 183.476 137.822C183.476 138.728 183.736 139.455 184.256 140.002C184.776 140.535 185.436 140.802 186.236 140.802ZM205.464 137.862C205.464 137.902 205.444 138.182 205.404 138.702H197.264C197.411 139.368 197.757 139.895 198.304 140.282C198.851 140.668 199.531 140.862 200.344 140.862C200.904 140.862 201.397 140.782 201.824 140.622C202.264 140.448 202.671 140.182 203.044 139.822L204.704 141.622C203.691 142.782 202.211 143.362 200.264 143.362C199.051 143.362 197.977 143.128 197.044 142.662C196.111 142.182 195.391 141.522 194.884 140.682C194.377 139.842 194.124 138.888 194.124 137.822C194.124 136.768 194.371 135.822 194.864 134.982C195.371 134.128 196.057 133.468 196.924 133.002C197.804 132.522 198.784 132.282 199.864 132.282C200.917 132.282 201.871 132.508 202.724 132.962C203.577 133.415 204.244 134.068 204.724 134.922C205.217 135.762 205.464 136.742 205.464 137.862ZM199.884 134.642C199.177 134.642 198.584 134.842 198.104 135.242C197.624 135.642 197.331 136.188 197.224 136.882H202.524C202.417 136.202 202.124 135.662 201.644 135.262C201.164 134.848 200.577 134.642 199.884 134.642ZM211.161 143.362C210.268 143.362 209.394 143.255 208.541 143.042C207.688 142.815 207.008 142.535 206.501 142.202L207.541 139.962C208.021 140.268 208.601 140.522 209.281 140.722C209.961 140.908 210.628 141.002 211.281 141.002C212.601 141.002 213.261 140.675 213.261 140.022C213.261 139.715 213.081 139.495 212.721 139.362C212.361 139.228 211.808 139.115 211.061 139.022C210.181 138.888 209.454 138.735 208.881 138.562C208.308 138.388 207.808 138.082 207.381 137.642C206.968 137.202 206.761 136.575 206.761 135.762C206.761 135.082 206.954 134.482 207.341 133.962C207.741 133.428 208.314 133.015 209.061 132.722C209.821 132.428 210.714 132.282 211.741 132.282C212.501 132.282 213.254 132.368 214.001 132.542C214.761 132.702 215.388 132.928 215.881 133.222L214.841 135.442C213.894 134.908 212.861 134.642 211.741 134.642C211.074 134.642 210.574 134.735 210.241 134.922C209.908 135.108 209.741 135.348 209.741 135.642C209.741 135.975 209.921 136.208 210.281 136.342C210.641 136.475 211.214 136.602 212.001 136.722C212.881 136.868 213.601 137.028 214.161 137.202C214.721 137.362 215.208 137.662 215.621 138.102C216.034 138.542 216.241 139.155 216.241 139.942C216.241 140.608 216.041 141.202 215.641 141.722C215.241 142.242 214.654 142.648 213.881 142.942C213.121 143.222 212.214 143.362 211.161 143.362ZM234.37 137.862C234.37 137.902 234.35 138.182 234.31 138.702H226.17C226.317 139.368 226.663 139.895 227.21 140.282C227.757 140.668 228.437 140.862 229.25 140.862C229.81 140.862 230.303 140.782 230.73 140.622C231.17 140.448 231.577 140.182 231.95 139.822L233.61 141.622C232.597 142.782 231.117 143.362 229.17 143.362C227.957 143.362 226.883 143.128 225.95 142.662C225.017 142.182 224.297 141.522 223.79 140.682C223.283 139.842 223.03 138.888 223.03 137.822C223.03 136.768 223.277 135.822 223.77 134.982C224.277 134.128 224.963 133.468 225.83 133.002C226.71 132.522 227.69 132.282 228.77 132.282C229.823 132.282 230.777 132.508 231.63 132.962C232.483 133.415 233.15 134.068 233.63 134.922C234.123 135.762 234.37 136.742 234.37 137.862ZM228.79 134.642C228.083 134.642 227.49 134.842 227.01 135.242C226.53 135.642 226.237 136.188 226.13 136.882H231.43C231.323 136.202 231.03 135.662 230.55 135.262C230.07 134.848 229.483 134.642 228.79 134.642ZM229.59 128.182H232.95L229.33 131.062H226.89L229.59 128.182ZM250.227 132.282C251.574 132.282 252.641 132.682 253.427 133.482C254.227 134.268 254.627 135.455 254.627 137.042V143.202H251.507V137.522C251.507 136.668 251.327 136.035 250.967 135.622C250.621 135.195 250.121 134.982 249.467 134.982C248.734 134.982 248.154 135.222 247.727 135.702C247.301 136.168 247.087 136.868 247.087 137.802V143.202H243.967V137.522C243.967 135.828 243.287 134.982 241.927 134.982C241.207 134.982 240.634 135.222 240.207 135.702C239.781 136.168 239.567 136.868 239.567 137.802V143.202H236.447V132.442H239.427V133.682C239.827 133.228 240.314 132.882 240.887 132.642C241.474 132.402 242.114 132.282 242.807 132.282C243.567 132.282 244.254 132.435 244.867 132.742C245.481 133.035 245.974 133.468 246.347 134.042C246.787 133.482 247.341 133.048 248.007 132.742C248.687 132.435 249.427 132.282 250.227 132.282ZM257.424 132.442H260.544V143.202H257.424V132.442ZM258.984 130.942C258.411 130.942 257.944 130.775 257.584 130.442C257.224 130.108 257.044 129.695 257.044 129.202C257.044 128.708 257.224 128.295 257.584 127.962C257.944 127.628 258.411 127.462 258.984 127.462C259.557 127.462 260.024 127.622 260.384 127.942C260.744 128.262 260.924 128.662 260.924 129.142C260.924 129.662 260.744 130.095 260.384 130.442C260.024 130.775 259.557 130.942 258.984 130.942ZM267.06 143.362C266.166 143.362 265.293 143.255 264.44 143.042C263.586 142.815 262.906 142.535 262.4 142.202L263.44 139.962C263.92 140.268 264.5 140.522 265.18 140.722C265.86 140.908 266.526 141.002 267.18 141.002C268.5 141.002 269.16 140.675 269.16 140.022C269.16 139.715 268.98 139.495 268.62 139.362C268.26 139.228 267.706 139.115 266.96 139.022C266.08 138.888 265.353 138.735 264.78 138.562C264.206 138.388 263.706 138.082 263.28 137.642C262.866 137.202 262.66 136.575 262.66 135.762C262.66 135.082 262.853 134.482 263.24 133.962C263.64 133.428 264.213 133.015 264.96 132.722C265.72 132.428 266.613 132.282 267.64 132.282C268.4 132.282 269.153 132.368 269.9 132.542C270.66 132.702 271.286 132.928 271.78 133.222L270.74 135.442C269.793 134.908 268.76 134.642 267.64 134.642C266.973 134.642 266.473 134.735 266.14 134.922C265.806 135.108 265.64 135.348 265.64 135.642C265.64 135.975 265.82 136.208 266.18 136.342C266.54 136.475 267.113 136.602 267.9 136.722C268.78 136.868 269.5 137.028 270.06 137.202C270.62 137.362 271.106 137.662 271.52 138.102C271.933 138.542 272.14 139.155 272.14 139.942C272.14 140.608 271.94 141.202 271.54 141.722C271.14 142.242 270.553 142.648 269.78 142.942C269.02 143.222 268.113 143.362 267.06 143.362ZM277.685 143.362C276.791 143.362 275.918 143.255 275.065 143.042C274.211 142.815 273.531 142.535 273.025 142.202L274.065 139.962C274.545 140.268 275.125 140.522 275.805 140.722C276.485 140.908 277.151 141.002 277.805 141.002C279.125 141.002 279.785 140.675 279.785 140.022C279.785 139.715 279.605 139.495 279.245 139.362C278.885 139.228 278.331 139.115 277.585 139.022C276.705 138.888 275.978 138.735 275.405 138.562C274.831 138.388 274.331 138.082 273.905 137.642C273.491 137.202 273.285 136.575 273.285 135.762C273.285 135.082 273.478 134.482 273.865 133.962C274.265 133.428 274.838 133.015 275.585 132.722C276.345 132.428 277.238 132.282 278.265 132.282C279.025 132.282 279.778 132.368 280.525 132.542C281.285 132.702 281.911 132.928 282.405 133.222L281.365 135.442C280.418 134.908 279.385 134.642 278.265 134.642C277.598 134.642 277.098 134.735 276.765 134.922C276.431 135.108 276.265 135.348 276.265 135.642C276.265 135.975 276.445 136.208 276.805 136.342C277.165 136.475 277.738 136.602 278.525 136.722C279.405 136.868 280.125 137.028 280.685 137.202C281.245 137.362 281.731 137.662 282.145 138.102C282.558 138.542 282.765 139.155 282.765 139.942C282.765 140.608 282.565 141.202 282.165 141.722C281.765 142.242 281.178 142.648 280.405 142.942C279.645 143.222 278.738 143.362 277.685 143.362ZM284.69 132.442H287.81V143.202H284.69V132.442ZM286.25 130.942C285.676 130.942 285.21 130.775 284.85 130.442C284.49 130.108 284.31 129.695 284.31 129.202C284.31 128.708 284.49 128.295 284.85 127.962C285.21 127.628 285.676 127.462 286.25 127.462C286.823 127.462 287.29 127.622 287.65 127.942C288.01 128.262 288.19 128.662 288.19 129.142C288.19 129.662 288.01 130.095 287.65 130.442C287.29 130.775 286.823 130.942 286.25 130.942ZM295.825 143.362C294.692 143.362 293.672 143.128 292.765 142.662C291.872 142.182 291.172 141.522 290.665 140.682C290.158 139.842 289.905 138.888 289.905 137.822C289.905 136.755 290.158 135.802 290.665 134.962C291.172 134.122 291.872 133.468 292.765 133.002C293.672 132.522 294.692 132.282 295.825 132.282C296.958 132.282 297.972 132.522 298.865 133.002C299.758 133.468 300.458 134.122 300.965 134.962C301.472 135.802 301.725 136.755 301.725 137.822C301.725 138.888 301.472 139.842 300.965 140.682C300.458 141.522 299.758 142.182 298.865 142.662C297.972 143.128 296.958 143.362 295.825 143.362ZM295.825 140.802C296.625 140.802 297.278 140.535 297.785 140.002C298.305 139.455 298.565 138.728 298.565 137.822C298.565 136.915 298.305 136.195 297.785 135.662C297.278 135.115 296.625 134.842 295.825 134.842C295.025 134.842 294.365 135.115 293.845 135.662C293.325 136.195 293.065 136.915 293.065 137.822C293.065 138.728 293.325 139.455 293.845 140.002C294.365 140.535 295.025 140.802 295.825 140.802ZM310.351 132.282C311.684 132.282 312.757 132.682 313.571 133.482C314.397 134.282 314.811 135.468 314.811 137.042V143.202H311.691V137.522C311.691 136.668 311.504 136.035 311.131 135.622C310.757 135.195 310.217 134.982 309.511 134.982C308.724 134.982 308.097 135.228 307.631 135.722C307.164 136.202 306.931 136.922 306.931 137.882V143.202H303.811V132.442H306.791V133.702C307.204 133.248 307.717 132.902 308.331 132.662C308.944 132.408 309.617 132.282 310.351 132.282ZM321.259 143.362C320.365 143.362 319.492 143.255 318.639 143.042C317.785 142.815 317.105 142.535 316.599 142.202L317.639 139.962C318.119 140.268 318.699 140.522 319.379 140.722C320.059 140.908 320.725 141.002 321.379 141.002C322.699 141.002 323.359 140.675 323.359 140.022C323.359 139.715 323.179 139.495 322.819 139.362C322.459 139.228 321.905 139.115 321.159 139.022C320.279 138.888 319.552 138.735 318.979 138.562C318.405 138.388 317.905 138.082 317.479 137.642C317.065 137.202 316.859 136.575 316.859 135.762C316.859 135.082 317.052 134.482 317.439 133.962C317.839 133.428 318.412 133.015 319.159 132.722C319.919 132.428 320.812 132.282 321.839 132.282C322.599 132.282 323.352 132.368 324.099 132.542C324.859 132.702 325.485 132.928 325.979 133.222L324.939 135.442C323.992 134.908 322.959 134.642 321.839 134.642C321.172 134.642 320.672 134.735 320.339 134.922C320.005 135.108 319.839 135.348 319.839 135.642C319.839 135.975 320.019 136.208 320.379 136.342C320.739 136.475 321.312 136.602 322.099 136.722C322.979 136.868 323.699 137.028 324.259 137.202C324.819 137.362 325.305 137.662 325.719 138.102C326.132 138.542 326.339 139.155 326.339 139.942C326.339 140.608 326.139 141.202 325.739 141.722C325.339 142.242 324.752 142.648 323.979 142.942C323.219 143.222 322.312 143.362 321.259 143.362ZM344.888 128.362V143.202H341.908V141.962C341.134 142.895 340.014 143.362 338.548 143.362C337.534 143.362 336.614 143.135 335.788 142.682C334.974 142.228 334.334 141.582 333.868 140.742C333.401 139.902 333.168 138.928 333.168 137.822C333.168 136.715 333.401 135.742 333.868 134.902C334.334 134.062 334.974 133.415 335.788 132.962C336.614 132.508 337.534 132.282 338.548 132.282C339.921 132.282 340.994 132.715 341.768 133.582V128.362H344.888ZM339.088 140.802C339.874 140.802 340.528 140.535 341.048 140.002C341.568 139.455 341.828 138.728 341.828 137.822C341.828 136.915 341.568 136.195 341.048 135.662C340.528 135.115 339.874 134.842 339.088 134.842C338.288 134.842 337.628 135.115 337.108 135.662C336.588 136.195 336.328 136.915 336.328 137.822C336.328 138.728 336.588 139.455 337.108 140.002C337.628 140.535 338.288 140.802 339.088 140.802ZM358.315 137.862C358.315 137.902 358.295 138.182 358.255 138.702H350.115C350.262 139.368 350.609 139.895 351.155 140.282C351.702 140.668 352.382 140.862 353.195 140.862C353.755 140.862 354.249 140.782 354.675 140.622C355.115 140.448 355.522 140.182 355.895 139.822L357.555 141.622C356.542 142.782 355.062 143.362 353.115 143.362C351.902 143.362 350.829 143.128 349.895 142.662C348.962 142.182 348.242 141.522 347.735 140.682C347.229 139.842 346.975 138.888 346.975 137.822C346.975 136.768 347.222 135.822 347.715 134.982C348.222 134.128 348.909 133.468 349.775 133.002C350.655 132.522 351.635 132.282 352.715 132.282C353.769 132.282 354.722 132.508 355.575 132.962C356.429 133.415 357.095 134.068 357.575 134.922C358.069 135.762 358.315 136.742 358.315 137.862ZM352.735 134.642C352.029 134.642 351.435 134.842 350.955 135.242C350.475 135.642 350.182 136.188 350.075 136.882H355.375C355.269 136.202 354.975 135.662 354.495 135.262C354.015 134.848 353.429 134.642 352.735 134.642ZM372.977 143.442C371.55 143.442 370.257 143.135 369.097 142.522C367.95 141.895 367.043 141.035 366.377 139.942C365.723 138.835 365.397 137.588 365.397 136.202C365.397 134.815 365.723 133.575 366.377 132.482C367.043 131.375 367.95 130.515 369.097 129.902C370.257 129.275 371.557 128.962 372.997 128.962C374.21 128.962 375.303 129.175 376.277 129.602C377.263 130.028 378.09 130.642 378.757 131.442L376.677 133.362C375.73 132.268 374.557 131.722 373.157 131.722C372.29 131.722 371.517 131.915 370.837 132.302C370.157 132.675 369.623 133.202 369.237 133.882C368.863 134.562 368.677 135.335 368.677 136.202C368.677 137.068 368.863 137.842 369.237 138.522C369.623 139.202 370.157 139.735 370.837 140.122C371.517 140.495 372.29 140.682 373.157 140.682C374.557 140.682 375.73 140.128 376.677 139.022L378.757 140.942C378.09 141.755 377.263 142.375 376.277 142.802C375.29 143.228 374.19 143.442 372.977 143.442ZM387.432 143.442C385.978 143.442 384.665 143.128 383.492 142.502C382.332 141.875 381.418 141.015 380.752 139.922C380.098 138.815 379.772 137.575 379.772 136.202C379.772 134.828 380.098 133.595 380.752 132.502C381.418 131.395 382.332 130.528 383.492 129.902C384.665 129.275 385.978 128.962 387.432 128.962C388.885 128.962 390.192 129.275 391.352 129.902C392.512 130.528 393.425 131.395 394.092 132.502C394.758 133.595 395.092 134.828 395.092 136.202C395.092 137.575 394.758 138.815 394.092 139.922C393.425 141.015 392.512 141.875 391.352 142.502C390.192 143.128 388.885 143.442 387.432 143.442ZM387.432 140.682C388.258 140.682 389.005 140.495 389.672 140.122C390.338 139.735 390.858 139.202 391.232 138.522C391.618 137.842 391.812 137.068 391.812 136.202C391.812 135.335 391.618 134.562 391.232 133.882C390.858 133.202 390.338 132.675 389.672 132.302C389.005 131.915 388.258 131.722 387.432 131.722C386.605 131.722 385.858 131.915 385.192 132.302C384.525 132.675 383.998 133.202 383.612 133.882C383.238 134.562 383.052 135.335 383.052 136.202C383.052 137.068 383.238 137.842 383.612 138.522C383.998 139.202 384.525 139.735 385.192 140.122C385.858 140.495 386.605 140.682 387.432 140.682ZM406.911 140.562V143.202H396.331V141.102L401.731 136.002C402.305 135.455 402.691 134.988 402.891 134.602C403.091 134.202 403.191 133.808 403.191 133.422C403.191 132.862 402.998 132.435 402.611 132.142C402.238 131.835 401.685 131.682 400.951 131.682C400.338 131.682 399.785 131.802 399.291 132.042C398.798 132.268 398.385 132.615 398.051 133.082L395.691 131.562C396.238 130.748 396.991 130.115 397.951 129.662C398.911 129.195 400.011 128.962 401.251 128.962C402.291 128.962 403.198 129.135 403.971 129.482C404.758 129.815 405.365 130.295 405.791 130.922C406.231 131.535 406.451 132.262 406.451 133.102C406.451 133.862 406.291 134.575 405.971 135.242C405.651 135.908 405.031 136.668 404.111 137.522L400.891 140.562H406.911Z" fill="white"/>
</svg>
