<svg width="1065" height="5850" viewBox="0 0 1065 5850" fill="none" xmlns="http://www.w3.org/2000/svg">
<path d="M600.334 0.5L600.332 285.458C600.332 335.163 560.038 375.457 510.332 375.457H284.866C235.18 375.457 194.894 415.721 194.866 465.407L194.709 744.963L194.559 982.443C194.527 1032.17 234.831 1072.5 284.559 1072.5H843.973C893.689 1072.5 933.988 1112.81 933.973 1162.53L933.556 2575.64C933.541 2625.29 893.321 2665.55 843.67 2665.61L96.0379 2666.57C46.3771 2666.63 6.15271 2706.91 6.15271 2756.57V3571.5C6.15271 3621.21 46.4471 3661.5 96.1527 3661.5H965.723C1015.4 3661.5 1055.68 3701.75 1055.72 3751.43L1056.43 4648.93C1056.47 4698.66 1016.16 4739 966.429 4739H632C582.294 4739 542 4779.29 542 4829L542 5850" stroke="#F2CC44" stroke-opacity="0.7"/>
<rect x="943" y="1332" width="109" height="17" transform="rotate(90 943 1332)" fill="#F2CC44"/>
<rect x="944" y="2343" width="109" height="17" transform="rotate(90 944 2343)" fill="#F2CC44"/>
<rect y="3368" width="109" height="17" transform="rotate(-90 0 3368)" fill="#F2CC44"/>
<rect x="387" y="367" width="109" height="17" fill="#F2CC44"/>
<rect x="1048" y="4341" width="109" height="17" transform="rotate(-90 1048 4341)" fill="#F2CC44"/>
<rect x="531" y="5304" width="109" height="17" transform="rotate(-90 531 5304)" fill="#F2CC44"/>
</svg>
