<svg width="463" height="254" viewBox="0 0 463 254" fill="none" xmlns="http://www.w3.org/2000/svg">
<rect x="239" y="233.001" width="109" height="17" fill="#7FB239"/>
<path d="M14.7099 125.563C15.4178 128.026 16.1983 130.742 14.7099 125.563C13.2215 120.384 16.6451 103.803 9.20193 105.942C2.86984 107.762 13.2215 120.384 14.7099 125.563Z" fill="#77A945" fill-opacity="0.4"/>
<path d="M27.1084 198.195C28.876 200.051 30.825 202.097 27.1084 198.195C23.3918 194.293 18.752 178.011 13.1443 183.352C8.37359 187.896 23.3918 194.293 27.1084 198.195Z" fill="#77A945" fill-opacity="0.4"/>
<path d="M3.63687 164.243C2.85567 166.684 1.99434 169.375 3.63687 164.243C5.2794 159.111 17.3437 147.233 9.96787 144.872C3.693 142.864 5.2794 159.111 3.63687 164.243Z" fill="#77A945" fill-opacity="0.4"/>
<path d="M138.107 3.64719C135.67 2.854 132.983 1.97945 138.107 3.64719C143.231 5.31494 155.05 17.4375 157.446 10.0734C159.485 3.80844 143.231 5.31494 138.107 3.64719Z" fill="#77A945" fill-opacity="0.4"/>
<path d="M154.485 237.473C156.939 236.732 159.644 235.916 154.485 237.473C149.326 239.03 132.701 235.828 134.939 243.242C136.843 249.549 149.326 239.03 154.485 237.473Z" fill="#77A945" fill-opacity="0.4"/>
<path d="M115.318 249.603C117.77 250.352 120.472 251.177 115.318 249.603C110.165 248.029 98.1269 236.124 95.8649 243.531C93.9406 249.832 110.165 248.029 115.318 249.603Z" fill="#77A945" fill-opacity="0.4"/>
<path d="M232.513 237.272C234.966 236.531 237.672 235.715 232.513 237.272C227.354 238.829 210.729 235.627 212.967 243.041C214.871 249.348 227.354 238.829 232.513 237.272Z" fill="#77A945" fill-opacity="0.4"/>
<path d="M193.346 249.402C195.797 250.151 198.5 250.976 193.346 249.402C188.192 247.828 176.155 235.923 173.893 243.33C171.968 249.631 188.192 247.828 193.346 249.402Z" fill="#77A945" fill-opacity="0.4"/>
<path d="M419.485 237.473C421.939 236.732 424.644 235.916 419.485 237.473C414.326 239.03 397.701 235.828 399.939 243.242C401.843 249.549 414.326 239.03 419.485 237.473Z" fill="#77A945" fill-opacity="0.4"/>
<path d="M380.318 249.603C382.77 250.352 385.472 251.177 380.318 249.603C375.165 248.029 363.127 236.124 360.865 243.531C358.941 249.832 375.165 248.029 380.318 249.603Z" fill="#77A945" fill-opacity="0.4"/>
<path d="M458.346 249.402C460.797 250.151 463.5 250.976 458.346 249.402C453.192 247.828 441.155 235.923 438.893 243.33C436.968 249.631 453.192 247.828 458.346 249.402Z" fill="#77A945" fill-opacity="0.4"/>
<path d="M40.8291 235.675C41.3385 238.187 41.9001 240.956 40.8291 235.675C39.7581 230.394 44.4919 214.139 36.902 215.678C30.445 216.987 39.7581 230.394 40.8291 235.675Z" fill="#77A945" fill-opacity="0.4"/>
<path d="M91.5699 233.239C94.0355 232.54 96.7541 231.768 91.5699 233.239C86.3857 234.71 69.8168 231.231 71.9307 238.681C73.7291 245.02 86.3857 234.71 91.5699 233.239Z" fill="#77A945" fill-opacity="0.4"/>
<path d="M28.1123 71.6182C28.7494 74.1007 29.4518 76.8379 28.1123 71.6182C26.7729 66.3985 30.6698 49.9228 23.1685 51.8478C16.7869 53.4854 26.7729 66.3985 28.1123 71.6182Z" fill="#77A945" fill-opacity="0.4"/>
<path d="M56.0445 36.0501C55.1305 38.4445 54.1226 41.0846 56.0445 36.0501C57.9664 31.0156 70.6649 19.8182 63.4297 17.0562C57.2746 14.7065 57.9664 31.0156 56.0445 36.0501Z" fill="#77A945" fill-opacity="0.4"/>
<path d="M5.69442 94.1647C4.84364 96.5824 3.90558 99.248 5.69442 94.1647C7.48326 89.0814 19.8828 77.5539 12.5776 74.9831C6.36279 72.7961 7.48326 89.0814 5.69442 94.1647Z" fill="#77A945" fill-opacity="0.4"/>
<path d="M19.0518 40.5277C16.5952 41.2584 13.8866 42.064 19.0518 40.5277C24.217 38.9915 40.8285 42.2615 38.6207 34.8385C36.7425 28.5235 24.217 38.9915 19.0518 40.5277Z" fill="#77A945" fill-opacity="0.4"/>
<path d="M77.385 3.70671C74.9728 2.84045 72.3132 1.88534 77.385 3.70671C82.4567 5.52807 93.9046 18.0012 96.5221 10.7126C98.7489 4.51193 82.4567 5.52807 77.385 3.70671Z" fill="#77A945" fill-opacity="0.4"/>
<path d="M119.994 28.1647C119.143 30.5824 118.205 33.248 119.994 28.1647C121.783 23.0814 134.183 11.5539 126.877 8.98313C120.663 6.79611 121.783 23.0814 119.994 28.1647Z" fill="#77A945" fill-opacity="0.4"/>
</svg>
