<svg width="599" height="371" viewBox="0 0 599 371" fill="none" xmlns="http://www.w3.org/2000/svg">
<rect x="261" y="349.001" width="109" height="17" fill="#7FB239"/>
<path d="M438.729 353.211C441.204 352.546 443.933 351.812 438.729 353.211C433.525 354.61 417.006 350.9 419.016 358.379C420.726 364.742 433.525 354.61 438.729 353.211Z" fill="#77A945" fill-opacity="0.4"/>
<path d="M516.732 354.024C519.207 353.359 521.936 352.625 516.732 354.024C511.528 355.423 495.009 351.713 497.019 359.192C498.729 365.555 511.528 355.423 516.732 354.024Z" fill="#77A945" fill-opacity="0.4"/>
<path d="M399.21 364.137C401.637 364.961 404.313 365.868 399.21 364.137C394.106 362.406 382.439 350.139 379.951 357.473C377.835 363.712 394.106 362.406 399.21 364.137Z" fill="#77A945" fill-opacity="0.4"/>
<path d="M477.212 364.95C479.639 365.774 482.316 366.681 477.212 364.95C472.109 363.219 460.441 350.952 457.954 358.286C455.837 364.525 472.109 363.219 477.212 364.95Z" fill="#77A945" fill-opacity="0.4"/>
<path d="M594.73 356.211C597.205 355.546 599.934 354.812 594.73 356.211C589.526 357.61 573.007 353.9 575.017 361.379C576.727 367.742 589.526 357.61 594.73 356.211Z" fill="#77A945" fill-opacity="0.4"/>
<path d="M555.21 367.137C557.637 367.961 560.314 368.868 555.21 367.137C550.107 365.406 538.439 353.139 535.952 360.473C533.835 366.712 550.107 365.406 555.21 367.137Z" fill="#77A945" fill-opacity="0.4"/>
<path d="M166.729 353.211C169.204 352.546 171.933 351.812 166.729 353.211C161.525 354.61 145.006 350.9 147.016 358.379C148.726 364.742 161.525 354.61 166.729 353.211Z" fill="#77A945" fill-opacity="0.4"/>
<path d="M47.4346 326.566C49.9146 327.213 52.6489 327.926 47.4346 326.566C42.2203 325.205 29.7027 313.806 27.7476 321.299C26.0843 327.674 42.2203 325.205 47.4346 326.566Z" fill="#77A945" fill-opacity="0.4"/>
<path d="M95.5699 349.239C98.0355 348.54 100.754 347.768 95.5699 349.239C90.3857 350.71 73.8168 347.231 75.9307 354.681C77.7291 361.019 90.3857 350.71 95.5699 349.239Z" fill="#77A945" fill-opacity="0.4"/>
<path d="M244.732 354.024C247.207 353.359 249.936 352.625 244.732 354.024C239.528 355.423 223.009 351.713 225.019 359.192C226.729 365.555 239.528 355.423 244.732 354.024Z" fill="#77A945" fill-opacity="0.4"/>
<path d="M127.21 364.137C129.637 364.961 132.313 365.868 127.21 364.137C122.106 362.406 110.439 350.139 107.951 357.473C105.835 363.712 122.106 362.406 127.21 364.137Z" fill="#77A945" fill-opacity="0.4"/>
<path d="M9.67634 318.201C8.84737 320.626 7.93338 323.3 9.67634 318.201C11.4193 313.101 23.7145 301.463 16.3864 298.958C10.1521 296.827 11.4193 313.101 9.67634 318.201Z" fill="#77A945" fill-opacity="0.4"/>
<path d="M59.2806 358.56C60.7882 360.633 62.4505 362.918 59.2806 358.56C56.1108 354.202 53.6578 337.45 47.3949 342.006C42.0669 345.881 56.1108 354.202 59.2806 358.56Z" fill="#77A945" fill-opacity="0.4"/>
<path d="M205.212 364.95C207.639 365.774 210.316 366.681 205.212 364.95C200.109 363.219 188.441 350.952 185.954 358.286C183.837 364.525 200.109 363.219 205.212 364.95Z" fill="#77A945" fill-opacity="0.4"/>
<path d="M16.8706 133.806C17.5077 136.289 18.2101 139.026 16.8706 133.806C15.5312 128.586 19.4281 112.111 11.9268 114.036C5.54519 115.673 15.5312 128.586 16.8706 133.806Z" fill="#77A945" fill-opacity="0.4"/>
<path d="M28.812 71.6181C29.4491 74.1006 30.1515 76.8378 28.812 71.6181C27.4726 66.3983 31.3695 49.9227 23.8682 51.8476C17.4866 53.4853 27.4726 66.3983 28.812 71.6181Z" fill="#77A945" fill-opacity="0.4"/>
<path d="M56.7442 36.05C55.8302 38.4444 54.8223 41.0845 56.7442 36.05C58.6661 31.0155 71.3646 19.818 64.1295 17.056C57.9743 14.7063 58.6661 31.0155 56.7442 36.05Z" fill="#77A945" fill-opacity="0.4"/>
<path d="M15.1704 211.794C15.8075 214.277 16.5099 217.014 15.1704 211.794C13.831 206.575 17.7279 190.099 10.2266 192.024C3.845 193.662 13.831 206.575 15.1704 211.794Z" fill="#77A945" fill-opacity="0.4"/>
<path d="M6.39413 94.1646C5.54334 96.5822 4.60529 99.2479 6.39413 94.1646C8.18297 89.0813 20.5825 77.5538 13.2773 74.983C7.0625 72.796 8.18297 89.0813 6.39413 94.1646Z" fill="#77A945" fill-opacity="0.4"/>
<path d="M19.752 40.5276C17.2954 41.2582 14.5868 42.0638 19.752 40.5276C24.9172 38.9914 41.5287 42.2614 39.3209 34.8383C37.4427 28.5234 24.9172 38.9914 19.752 40.5276Z" fill="#77A945" fill-opacity="0.4"/>
<path d="M78.0852 3.70658C75.673 2.84033 73.0134 1.88522 78.0852 3.70658C83.1569 5.52795 94.6048 18.0011 97.2223 10.7125C99.449 4.51181 83.1569 5.52795 78.0852 3.70658Z" fill="#77A945" fill-opacity="0.4"/>
<path d="M120.694 28.1646C119.844 30.5822 118.906 33.2479 120.694 28.1646C122.483 23.0813 134.883 11.5538 127.578 8.98301C121.363 6.79598 122.483 23.0813 120.694 28.1646Z" fill="#77A945" fill-opacity="0.4"/>
<path d="M4.69442 172.153C3.84364 174.571 2.90558 177.236 4.69442 172.153C6.48326 167.07 18.8828 155.542 11.5776 152.971C5.36279 150.784 6.48326 167.07 4.69442 172.153Z" fill="#77A945" fill-opacity="0.4"/>
<path d="M15.812 284.618C16.4491 287.101 17.1515 289.838 15.812 284.618C14.4726 279.398 18.3695 262.923 10.8682 264.848C4.4866 266.485 14.4726 279.398 15.812 284.618Z" fill="#77A945" fill-opacity="0.4"/>
<path d="M4.39413 245.165C3.54334 247.582 2.60529 250.248 4.39413 245.165C6.18297 240.081 18.5825 228.554 11.2773 225.983C5.0625 223.796 6.18297 240.081 4.39413 245.165Z" fill="#77A945" fill-opacity="0.4"/>
</svg>
