<svg width="862" height="461" viewBox="0 0 862 461" fill="none" xmlns="http://www.w3.org/2000/svg">
<rect x="25" y="243" width="109" height="17" transform="rotate(90 25 243)" fill="#7FB239"/>
<path d="M709.708 118.06C707.239 118.746 704.516 119.503 709.708 118.06C714.9 116.616 731.45 120.182 729.376 112.721C727.61 106.373 714.9 116.616 709.708 118.06Z" fill="#77A945" fill-opacity="0.4"/>
<path d="M856.563 57.8386C857.697 60.1369 858.948 62.6709 856.563 57.8386C854.178 53.0064 854.6 36.0814 847.655 39.5092C841.747 42.4253 854.178 53.0064 856.563 57.8386Z" fill="#77A945" fill-opacity="0.4"/>
<path d="M802.836 115.781C801.798 118.124 800.653 120.708 802.836 115.781C805.019 110.854 818.286 100.336 811.206 97.1994C805.182 94.5306 805.019 110.854 802.836 115.781Z" fill="#77A945" fill-opacity="0.4"/>
<path d="M631.701 117.922C629.232 118.609 626.509 119.366 631.701 117.922C636.893 116.479 653.444 120.045 651.369 112.584C649.604 106.236 636.893 116.479 631.701 117.922Z" fill="#77A945" fill-opacity="0.4"/>
<path d="M749.131 106.791C746.697 105.989 744.013 105.105 749.131 106.791C754.25 108.478 766.023 120.644 768.447 113.289C770.509 107.032 754.25 108.478 749.131 106.791Z" fill="#77A945" fill-opacity="0.4"/>
<path d="M841.866 19.674C840.785 21.9979 839.594 24.5603 841.866 19.674C844.138 14.7877 857.595 4.51439 850.573 1.24865C844.599 -1.52961 844.138 14.7877 841.866 19.674Z" fill="#77A945" fill-opacity="0.4"/>
<path d="M816.023 68.6542C813.589 67.852 810.905 66.9676 816.023 68.6542C821.141 70.3409 832.915 82.507 835.339 75.1517C837.401 68.8944 821.141 70.3409 816.023 68.6542Z" fill="#77A945" fill-opacity="0.4"/>
<path d="M671.124 106.654C668.689 105.852 666.006 104.968 671.124 106.654C676.242 108.341 688.015 120.507 690.439 113.152C692.501 106.894 676.242 108.341 671.124 106.654Z" fill="#77A945" fill-opacity="0.4"/>
<path d="M553.705 118.411C551.236 119.097 548.513 119.855 553.705 118.411C558.897 116.967 575.447 120.533 573.373 113.072C571.607 106.724 558.897 116.967 553.705 118.411Z" fill="#77A945" fill-opacity="0.4"/>
<path d="M475.698 118.274C473.229 118.961 470.507 119.718 475.698 118.274C480.89 116.83 497.441 120.396 495.366 112.935C493.601 106.588 480.89 116.83 475.698 118.274Z" fill="#77A945" fill-opacity="0.4"/>
<path d="M593.128 107.143C590.693 106.34 588.009 105.456 593.128 107.143C598.246 108.829 610.019 120.995 612.443 113.64C614.505 107.383 598.246 108.829 593.128 107.143Z" fill="#77A945" fill-opacity="0.4"/>
<path d="M515.122 107.006C512.687 106.204 510.004 105.319 515.122 107.006C520.24 108.692 532.013 120.859 534.437 113.503C536.499 107.246 520.24 108.692 515.122 107.006Z" fill="#77A945" fill-opacity="0.4"/>
<path d="M397.719 119.192C395.25 119.878 392.527 120.635 397.719 119.192C402.911 117.748 419.461 121.314 417.386 113.853C415.621 107.505 402.911 117.748 397.719 119.192Z" fill="#77A945" fill-opacity="0.4"/>
<path d="M319.719 119.192C317.25 119.878 314.527 120.635 319.719 119.192C324.911 117.748 341.461 121.314 339.386 113.853C337.621 107.505 324.911 117.748 319.719 119.192Z" fill="#77A945" fill-opacity="0.4"/>
<path d="M437.023 106.654C434.589 105.852 431.905 104.968 437.023 106.654C442.141 108.341 453.915 120.507 456.339 113.152C458.401 106.894 442.141 108.341 437.023 106.654Z" fill="#77A945" fill-opacity="0.4"/>
<path d="M359.023 106.654C356.589 105.852 353.905 104.968 359.023 106.654C364.141 108.341 375.915 120.507 378.339 113.152C380.401 106.894 364.141 108.341 359.023 106.654Z" fill="#77A945" fill-opacity="0.4"/>
<path d="M241.718 119.192C239.249 119.878 236.527 120.635 241.718 119.192C246.91 117.748 263.461 121.314 261.386 113.853C259.621 107.505 246.91 117.748 241.718 119.192Z" fill="#77A945" fill-opacity="0.4"/>
<path d="M163.718 119.192C161.249 119.878 158.527 120.635 163.718 119.192C168.91 117.748 185.461 121.314 183.386 113.853C181.621 107.505 168.91 117.748 163.718 119.192Z" fill="#77A945" fill-opacity="0.4"/>
<path d="M90.1336 128.668C88.5294 130.667 86.7607 132.871 90.1336 128.668C93.5066 124.465 109.027 117.7 102.987 112.853C97.8485 108.729 93.5066 124.465 90.1336 128.668Z" fill="#77A945" fill-opacity="0.4"/>
<path d="M39.6604 156.231C38.8508 158.663 37.9582 161.344 39.6604 156.231C41.3626 151.118 53.5644 139.381 46.2165 136.935C39.9655 134.854 41.3626 151.118 39.6604 156.231Z" fill="#77A945" fill-opacity="0.4"/>
<path d="M24.4851 213.388C25.3419 215.804 26.2865 218.467 24.4851 213.388C22.6836 208.309 25.0897 191.551 17.7908 194.14C11.5815 196.342 22.6836 208.309 24.4851 213.388Z" fill="#77A945" fill-opacity="0.4"/>
<path d="M23.4851 418.388C24.3419 420.804 25.2865 423.467 23.4851 418.388C21.6836 413.309 24.0897 396.551 16.7908 399.14C10.5815 401.342 21.6836 413.309 23.4851 418.388Z" fill="#77A945" fill-opacity="0.4"/>
<path d="M281.023 104.654C278.589 103.852 275.905 102.968 281.023 104.654C286.141 106.341 297.915 118.507 300.339 111.152C302.401 104.894 286.141 106.341 281.023 104.654Z" fill="#77A945" fill-opacity="0.4"/>
<path d="M203.023 105.654C200.589 104.852 197.905 103.968 203.023 105.654C208.141 107.341 219.915 119.507 222.339 112.152C224.401 105.894 208.141 107.341 203.023 105.654Z" fill="#77A945" fill-opacity="0.4"/>
<path d="M125.023 105.654C122.589 104.852 119.905 103.968 125.023 105.654C130.141 107.341 141.915 119.507 144.339 112.152C146.401 105.894 130.141 107.341 125.023 105.654Z" fill="#77A945" fill-opacity="0.4"/>
<path d="M50.7049 124.058C48.2308 124.727 45.503 125.465 50.7049 124.058C55.9068 122.651 72.4316 126.334 70.4095 118.858C68.6893 112.499 55.9068 122.651 50.7049 124.058Z" fill="#77A945" fill-opacity="0.4"/>
<path d="M12.1795 176.033C10.3134 177.79 8.2558 179.727 12.1795 176.033C16.1033 172.339 32.4121 167.795 27.1037 162.156C22.5877 157.359 16.1033 172.339 12.1795 176.033Z" fill="#77A945" fill-opacity="0.4"/>
<path d="M4.17952 377.033C2.31337 378.79 0.255798 380.727 4.17952 377.033C8.10325 373.339 24.4121 368.795 19.1037 363.156C14.5877 358.359 8.10325 373.339 4.17952 377.033Z" fill="#77A945" fill-opacity="0.4"/>
<path d="M9.76518 455.996C8.8239 458.38 7.78608 461.008 9.76518 455.996C11.7443 450.984 24.5694 439.932 17.3662 437.088C11.2382 434.668 11.7443 450.984 9.76518 455.996Z" fill="#77A945" fill-opacity="0.4"/>
</svg>
