<svg width="22" height="352" viewBox="0 0 22 352" fill="none" xmlns="http://www.w3.org/2000/svg">
<rect x="19" y="172.001" width="109" height="17" transform="rotate(90 19 172.001)" fill="#7FB239"/>
<path d="M17.2333 59.6004C17.9405 62.0639 18.7202 64.7801 17.2333 59.6004C15.7464 54.4208 19.1747 37.8413 11.731 39.9781C5.39835 41.796 15.7464 54.4208 17.2333 59.6004Z" fill="#77A945" fill-opacity="0.4"/>
<path d="M17.745 137.606C18.4522 140.069 19.2319 142.786 17.745 137.606C16.2581 132.426 19.6864 115.847 12.2427 117.984C5.91006 119.801 16.2581 132.426 17.745 137.606Z" fill="#77A945" fill-opacity="0.4"/>
<path d="M5.63744 20.2723C4.85553 22.7131 3.99343 25.4043 5.63744 20.2723C7.28145 15.1404 19.3492 3.26595 11.974 0.903321C5.69974 -1.10663 7.28145 15.1404 5.63744 20.2723Z" fill="#77A945" fill-opacity="0.4"/>
<path d="M6.14916 98.2783C5.36725 100.719 4.50514 103.41 6.14916 98.2783C7.79317 93.1463 19.8609 81.2719 12.4857 78.9092C6.21146 76.8993 7.79317 93.1463 6.14916 98.2783Z" fill="#77A945" fill-opacity="0.4"/>
<path d="M15.2333 347.6C15.9405 350.064 16.7202 352.78 15.2333 347.6C13.7464 342.421 17.1747 325.841 9.73096 327.978C3.39835 329.796 13.7464 342.421 15.2333 347.6Z" fill="#77A945" fill-opacity="0.4"/>
<path d="M3.63744 308.272C2.85553 310.713 1.99343 313.404 3.63744 308.272C5.28145 303.14 17.3492 291.266 9.97403 288.903C3.69974 286.893 5.28145 303.14 3.63744 308.272Z" fill="#77A945" fill-opacity="0.4"/>
<path d="M4.63744 172.272C3.85553 174.713 2.99343 177.404 4.63744 172.272C6.28145 167.14 18.3492 155.266 10.974 152.903C4.69974 150.893 6.28145 167.14 4.63744 172.272Z" fill="#77A945" fill-opacity="0.4"/>
</svg>
