<svg width="1209" height="1636" viewBox="0 0 1209 1636" fill="none" xmlns="http://www.w3.org/2000/svg">
<path d="M438.729 353.211C441.204 352.546 443.933 351.812 438.729 353.211C433.525 354.61 417.006 350.9 419.016 358.379C420.726 364.742 433.525 354.61 438.729 353.211Z" fill="#77A945" fill-opacity="0.4"/>
<path d="M516.732 354.024C519.207 353.359 521.936 352.625 516.732 354.024C511.528 355.423 495.009 351.713 497.019 359.192C498.729 365.555 511.528 355.423 516.732 354.024Z" fill="#77A945" fill-opacity="0.4"/>
<path d="M399.21 364.137C401.637 364.961 404.313 365.868 399.21 364.137C394.106 362.406 382.439 350.139 379.951 357.473C377.835 363.712 394.106 362.406 399.21 364.137Z" fill="#77A945" fill-opacity="0.4"/>
<path d="M477.212 364.95C479.639 365.774 482.316 366.681 477.212 364.95C472.109 363.219 460.441 350.952 457.954 358.286C455.837 364.525 472.109 363.219 477.212 364.95Z" fill="#77A945" fill-opacity="0.4"/>
<path d="M594.73 356.211C597.205 355.546 599.934 354.812 594.73 356.211C589.526 357.61 573.007 353.9 575.017 361.379C576.727 367.742 589.526 357.61 594.73 356.211Z" fill="#77A945" fill-opacity="0.4"/>
<path d="M555.21 367.137C557.637 367.961 560.314 368.868 555.21 367.137C550.107 365.406 538.439 353.139 535.952 360.473C533.835 366.712 550.107 365.406 555.21 367.137Z" fill="#77A945" fill-opacity="0.4"/>
<path d="M1055.75 979.133C1053.28 979.829 1050.56 980.596 1055.75 979.133C1060.94 977.67 1077.5 981.175 1075.4 973.721C1073.61 967.38 1060.94 977.67 1055.75 979.133Z" fill="#77A945" fill-opacity="0.4"/>
<path d="M977.744 979.283C975.277 979.979 972.558 980.746 977.744 979.283C982.931 977.82 999.494 981.325 997.392 973.872C995.603 967.531 982.931 977.82 977.744 979.283Z" fill="#77A945" fill-opacity="0.4"/>
<path d="M1095.13 967.719C1092.69 966.926 1090.01 966.051 1095.13 967.719C1100.26 969.387 1112.07 981.51 1114.47 974.145C1116.51 967.88 1100.26 969.387 1095.13 967.719Z" fill="#77A945" fill-opacity="0.4"/>
<path d="M1017.12 967.87C1014.69 967.076 1012 966.202 1017.12 967.87C1022.25 969.537 1034.07 981.66 1036.46 974.296C1038.5 968.031 1022.25 969.537 1017.12 967.87Z" fill="#77A945" fill-opacity="0.4"/>
<path d="M899.726 978.06C897.259 978.756 894.539 979.523 899.726 978.06C904.912 976.598 921.476 980.103 919.373 972.649C917.585 966.308 904.912 976.598 899.726 978.06Z" fill="#77A945" fill-opacity="0.4"/>
<path d="M939.106 966.647C936.669 965.854 933.982 964.979 939.106 966.647C944.231 968.315 956.049 980.437 958.446 973.073C960.485 966.808 944.231 968.315 939.106 966.647Z" fill="#77A945" fill-opacity="0.4"/>
<path d="M1202.61 461.545C1203.34 464.002 1204.14 466.712 1202.61 461.545C1201.08 456.377 1204.38 439.77 1196.95 441.968C1190.63 443.837 1201.08 456.377 1202.61 461.545Z" fill="#77A945" fill-opacity="0.4"/>
<path d="M1203.76 539.542C1204.49 542 1205.29 544.71 1203.76 539.542C1202.23 534.375 1205.53 517.768 1198.1 519.966C1191.78 521.835 1202.23 534.375 1203.76 539.542Z" fill="#77A945" fill-opacity="0.4"/>
<path d="M1191.85 500.31C1191.08 502.758 1190.24 505.456 1191.85 500.31C1193.45 495.165 1205.42 483.193 1198.02 480.89C1191.73 478.932 1193.45 495.165 1191.85 500.31Z" fill="#77A945" fill-opacity="0.4"/>
<path d="M1184.62 431.301C1183.86 433.748 1183.02 436.446 1184.62 431.301C1186.22 426.155 1198.19 414.183 1190.8 411.88C1184.51 409.922 1186.22 426.155 1184.62 431.301Z" fill="#77A945" fill-opacity="0.4"/>
<path d="M1191.62 578.338C1190.86 580.785 1190.02 583.483 1191.62 578.338C1193.22 573.193 1205.19 561.22 1197.8 558.918C1191.51 556.959 1193.22 573.193 1191.62 578.338Z" fill="#77A945" fill-opacity="0.4"/>
<path d="M1202.61 617.544C1203.34 620.002 1204.14 622.712 1202.61 617.544C1201.08 612.377 1204.38 595.77 1196.95 597.968C1190.63 599.837 1201.08 612.377 1202.61 617.544Z" fill="#77A945" fill-opacity="0.4"/>
<path d="M1191.85 656.31C1191.08 658.757 1190.24 661.455 1191.85 656.31C1193.45 651.165 1205.42 639.192 1198.02 636.89C1191.73 634.931 1193.45 651.165 1191.85 656.31Z" fill="#77A945" fill-opacity="0.4"/>
<path d="M1202.61 801.544C1203.34 804.002 1204.14 806.712 1202.61 801.544C1201.08 796.377 1204.38 779.77 1196.95 781.968C1190.63 783.837 1201.08 796.377 1202.61 801.544Z" fill="#77A945" fill-opacity="0.4"/>
<path d="M1203.76 879.542C1204.49 882 1205.29 884.71 1203.76 879.542C1202.23 874.375 1205.53 857.768 1198.1 859.966C1191.78 861.835 1202.23 874.375 1203.76 879.542Z" fill="#77A945" fill-opacity="0.4"/>
<path d="M1140.65 984.244C1139.85 986.678 1138.97 989.362 1140.65 984.244C1142.34 979.125 1154.5 967.348 1147.15 964.926C1140.89 962.866 1142.34 979.125 1140.65 984.244Z" fill="#77A945" fill-opacity="0.4"/>
<path d="M1191.85 840.31C1191.08 842.757 1190.24 845.455 1191.85 840.31C1193.45 835.165 1205.42 823.192 1198.02 820.89C1191.73 818.931 1193.45 835.165 1191.85 840.31Z" fill="#77A945" fill-opacity="0.4"/>
<path d="M1189.62 910.3C1188.86 912.748 1188.02 915.446 1189.62 910.3C1191.22 905.155 1203.19 893.183 1195.8 890.88C1189.51 888.922 1191.22 905.155 1189.62 910.3Z" fill="#77A945" fill-opacity="0.4"/>
<path d="M1151.74 953.438C1149.28 954.157 1146.57 954.95 1151.74 953.438C1156.92 951.927 1173.51 955.275 1171.34 947.842C1169.49 941.518 1156.92 951.927 1151.74 953.438Z" fill="#77A945" fill-opacity="0.4"/>
<path d="M1192.6 945.531C1193.34 947.985 1194.16 950.69 1192.6 945.531C1191.05 940.372 1194.25 923.748 1186.84 925.985C1180.53 927.889 1191.05 940.372 1192.6 945.531Z" fill="#77A945" fill-opacity="0.4"/>
<path d="M821.75 980.133C819.283 980.829 816.564 981.596 821.75 980.133C826.937 978.67 843.5 982.175 841.398 974.721C839.609 968.38 826.937 978.67 821.75 980.133Z" fill="#77A945" fill-opacity="0.4"/>
<path d="M743.744 980.283C741.277 980.979 738.558 981.746 743.744 980.283C748.931 978.82 765.494 982.325 763.392 974.872C761.603 968.531 748.931 978.82 743.744 980.283Z" fill="#77A945" fill-opacity="0.4"/>
<path d="M861.132 968.719C858.695 967.926 856.007 967.051 861.132 968.719C866.256 970.387 878.075 982.51 880.471 975.145C882.51 968.88 866.256 970.387 861.132 968.719Z" fill="#77A945" fill-opacity="0.4"/>
<path d="M783.125 968.87C780.688 968.076 778.001 967.202 783.125 968.87C788.249 970.537 800.068 982.66 802.464 975.296C804.503 969.031 788.249 970.537 783.125 968.87Z" fill="#77A945" fill-opacity="0.4"/>
<path d="M665.726 979.06C663.259 979.756 660.539 980.523 665.726 979.06C670.912 977.598 687.476 981.103 685.373 973.649C683.585 967.308 670.912 977.598 665.726 979.06Z" fill="#77A945" fill-opacity="0.4"/>
<path d="M705.106 967.647C702.669 966.854 699.982 965.979 705.106 967.647C710.231 969.315 722.049 981.437 724.446 974.073C726.485 967.808 710.231 969.315 705.106 967.647Z" fill="#77A945" fill-opacity="0.4"/>
<path d="M660.319 1281.89C660.922 1284.38 661.586 1287.13 660.319 1281.89C659.051 1276.65 663.173 1260.23 655.646 1262.05C649.243 1263.6 659.051 1276.65 660.319 1281.89Z" fill="#77A945" fill-opacity="0.4"/>
<path d="M650.386 1242.11C649.502 1244.51 648.527 1247.17 650.386 1242.11C652.244 1237.05 664.8 1225.69 657.531 1223.02C651.347 1220.75 652.244 1237.05 650.386 1242.11Z" fill="#77A945" fill-opacity="0.4"/>
<path d="M635.721 1631.86C634.837 1634.26 633.862 1636.91 635.721 1631.86C637.579 1626.8 650.135 1615.44 642.866 1612.77C636.682 1610.5 637.579 1626.8 635.721 1631.86Z" fill="#77A945" fill-opacity="0.4"/>
<path d="M587.75 980.133C585.283 980.829 582.564 981.596 587.75 980.133C592.937 978.67 609.5 982.175 607.398 974.721C605.609 968.38 592.937 978.67 587.75 980.133Z" fill="#77A945" fill-opacity="0.4"/>
<path d="M509.744 980.283C507.277 980.979 504.558 981.746 509.744 980.283C514.931 978.82 531.494 982.325 529.392 974.872C527.603 968.531 514.931 978.82 509.744 980.283Z" fill="#77A945" fill-opacity="0.4"/>
<path d="M627.132 968.719C624.695 967.926 622.007 967.051 627.132 968.719C632.256 970.387 644.075 982.51 646.471 975.145C648.51 968.88 632.256 970.387 627.132 968.719Z" fill="#77A945" fill-opacity="0.4"/>
<path d="M549.125 968.87C546.688 968.076 544.001 967.202 549.125 968.87C554.249 970.537 566.068 982.66 568.464 975.296C570.503 969.031 554.249 970.537 549.125 968.87Z" fill="#77A945" fill-opacity="0.4"/>
<path d="M431.725 979.06C429.258 979.756 426.539 980.523 431.725 979.06C436.912 977.598 453.475 981.103 451.373 973.649C449.584 967.308 436.912 977.598 431.725 979.06Z" fill="#77A945" fill-opacity="0.4"/>
<path d="M471.106 967.647C468.669 966.854 465.982 965.979 471.106 967.647C476.231 969.315 488.049 981.437 490.446 974.073C492.485 967.808 476.231 969.315 471.106 967.647Z" fill="#77A945" fill-opacity="0.4"/>
<path d="M353.751 979.133C351.284 979.829 348.564 980.596 353.751 979.133C358.937 977.67 375.5 981.175 373.398 973.721C371.61 967.38 358.937 977.67 353.751 979.133Z" fill="#77A945" fill-opacity="0.4"/>
<path d="M275.744 979.283C273.277 979.979 270.558 980.746 275.744 979.283C280.931 977.82 297.494 981.325 295.392 973.872C293.603 967.531 280.931 977.82 275.744 979.283Z" fill="#77A945" fill-opacity="0.4"/>
<path d="M393.132 967.719C390.695 966.926 388.008 966.051 393.132 967.719C398.257 969.387 410.075 981.51 412.472 974.145C414.511 967.88 398.257 969.387 393.132 967.719Z" fill="#77A945" fill-opacity="0.4"/>
<path d="M315.125 967.87C312.688 967.076 310.001 966.202 315.125 967.87C320.25 969.537 332.068 981.66 334.465 974.296C336.504 968.031 320.25 969.537 315.125 967.87Z" fill="#77A945" fill-opacity="0.4"/>
<path d="M113.71 1088.56C114.418 1091.03 115.198 1093.74 113.71 1088.56C112.222 1083.38 115.645 1066.8 108.202 1068.94C101.87 1070.76 112.222 1083.38 113.71 1088.56Z" fill="#77A945" fill-opacity="0.4"/>
<path d="M126.108 1161.19C127.876 1163.05 129.825 1165.1 126.108 1161.19C122.392 1157.29 117.752 1141.01 112.144 1146.35C107.374 1150.9 122.392 1157.29 126.108 1161.19Z" fill="#77A945" fill-opacity="0.4"/>
<path d="M102.637 1127.24C101.856 1129.68 100.994 1132.38 102.637 1127.24C104.279 1122.11 116.344 1110.23 108.968 1107.87C102.693 1105.86 104.279 1122.11 102.637 1127.24Z" fill="#77A945" fill-opacity="0.4"/>
<path d="M237.107 966.647C234.67 965.854 231.983 964.979 237.107 966.647C242.231 968.315 254.05 980.437 256.446 973.073C258.485 966.808 242.231 968.315 237.107 966.647Z" fill="#77A945" fill-opacity="0.4"/>
<path d="M253.485 1200.47C255.939 1199.73 258.644 1198.92 253.485 1200.47C248.326 1202.03 231.701 1198.83 233.939 1206.24C235.843 1212.55 248.326 1202.03 253.485 1200.47Z" fill="#77A945" fill-opacity="0.4"/>
<path d="M214.318 1212.6C216.77 1213.35 219.472 1214.18 214.318 1212.6C209.165 1211.03 197.127 1199.12 194.865 1206.53C192.941 1212.83 209.165 1211.03 214.318 1212.6Z" fill="#77A945" fill-opacity="0.4"/>
<path d="M331.513 1200.27C333.966 1199.53 336.672 1198.71 331.513 1200.27C326.354 1201.83 309.729 1198.63 311.967 1206.04C313.871 1212.35 326.354 1201.83 331.513 1200.27Z" fill="#77A945" fill-opacity="0.4"/>
<path d="M292.346 1212.4C294.797 1213.15 297.5 1213.98 292.346 1212.4C287.192 1210.83 275.155 1198.92 272.893 1206.33C270.968 1212.63 287.192 1210.83 292.346 1212.4Z" fill="#77A945" fill-opacity="0.4"/>
<path d="M518.485 1200.47C520.939 1199.73 523.644 1198.92 518.485 1200.47C513.326 1202.03 496.701 1198.83 498.939 1206.24C500.843 1212.55 513.326 1202.03 518.485 1200.47Z" fill="#77A945" fill-opacity="0.4"/>
<path d="M479.318 1212.6C481.77 1213.35 484.472 1214.18 479.318 1212.6C474.165 1211.03 462.127 1199.12 459.865 1206.53C457.941 1212.83 474.165 1211.03 479.318 1212.6Z" fill="#77A945" fill-opacity="0.4"/>
<path d="M557.346 1212.4C559.797 1213.15 562.5 1213.98 557.346 1212.4C552.192 1210.83 540.155 1198.92 537.893 1206.33C535.968 1212.63 552.192 1210.83 557.346 1212.4Z" fill="#77A945" fill-opacity="0.4"/>
<path d="M166.729 353.211C169.204 352.546 171.933 351.812 166.729 353.211C161.525 354.61 145.006 350.9 147.016 358.379C148.726 364.742 161.525 354.61 166.729 353.211Z" fill="#77A945" fill-opacity="0.4"/>
<path d="M47.4346 326.566C49.9146 327.213 52.6489 327.926 47.4346 326.566C42.2203 325.205 29.7027 313.806 27.7476 321.299C26.0843 327.674 42.2203 325.205 47.4346 326.566Z" fill="#77A945" fill-opacity="0.4"/>
<path d="M95.5699 349.239C98.0355 348.54 100.754 347.768 95.5699 349.239C90.3857 350.71 73.8168 347.231 75.9307 354.681C77.7291 361.019 90.3857 350.71 95.5699 349.239Z" fill="#77A945" fill-opacity="0.4"/>
<path d="M244.732 354.024C247.207 353.359 249.936 352.625 244.732 354.024C239.528 355.423 223.009 351.713 225.019 359.192C226.729 365.555 239.528 355.423 244.732 354.024Z" fill="#77A945" fill-opacity="0.4"/>
<path d="M127.21 364.137C129.637 364.961 132.313 365.868 127.21 364.137C122.106 362.406 110.439 350.139 107.951 357.473C105.835 363.712 122.106 362.406 127.21 364.137Z" fill="#77A945" fill-opacity="0.4"/>
<path d="M9.67634 318.201C8.84737 320.626 7.93338 323.3 9.67634 318.201C11.4193 313.101 23.7145 301.463 16.3864 298.958C10.1521 296.827 11.4193 313.101 9.67634 318.201Z" fill="#77A945" fill-opacity="0.4"/>
<path d="M59.2806 358.56C60.7882 360.633 62.4505 362.918 59.2806 358.56C56.1108 354.202 53.6578 337.45 47.3949 342.006C42.0669 345.881 56.1108 354.202 59.2806 358.56Z" fill="#77A945" fill-opacity="0.4"/>
<path d="M139.829 1198.67C140.338 1201.19 140.9 1203.96 139.829 1198.67C138.758 1193.39 143.492 1177.14 135.902 1178.68C129.445 1179.99 138.758 1193.39 139.829 1198.67Z" fill="#77A945" fill-opacity="0.4"/>
<path d="M190.57 1196.24C193.036 1195.54 195.754 1194.77 190.57 1196.24C185.386 1197.71 168.817 1194.23 170.931 1201.68C172.729 1208.02 185.386 1197.71 190.57 1196.24Z" fill="#77A945" fill-opacity="0.4"/>
<path d="M205.212 364.95C207.639 365.774 210.316 366.681 205.212 364.95C200.109 363.219 188.441 350.952 185.954 358.286C183.837 364.525 200.109 363.219 205.212 364.95Z" fill="#77A945" fill-opacity="0.4"/>
<path d="M16.8706 133.806C17.5077 136.289 18.2101 139.026 16.8706 133.806C15.5312 128.586 19.4281 112.111 11.9268 114.036C5.54519 115.673 15.5312 128.586 16.8706 133.806Z" fill="#77A945" fill-opacity="0.4"/>
<path d="M28.812 71.6181C29.4491 74.1006 30.1515 76.8378 28.812 71.6181C27.4726 66.3983 31.3695 49.9227 23.8682 51.8476C17.4866 53.4853 27.4726 66.3983 28.812 71.6181Z" fill="#77A945" fill-opacity="0.4"/>
<path d="M56.7442 36.05C55.8302 38.4444 54.8223 41.0845 56.7442 36.05C58.6661 31.0155 71.3646 19.818 64.1295 17.056C57.9743 14.7063 58.6661 31.0155 56.7442 36.05Z" fill="#77A945" fill-opacity="0.4"/>
<path d="M15.1704 211.794C15.8075 214.277 16.5099 217.014 15.1704 211.794C13.831 206.575 17.7279 190.099 10.2266 192.024C3.845 193.662 13.831 206.575 15.1704 211.794Z" fill="#77A945" fill-opacity="0.4"/>
<path d="M6.39413 94.1646C5.54334 96.5822 4.60529 99.2479 6.39413 94.1646C8.18297 89.0813 20.5825 77.5538 13.2773 74.983C7.0625 72.796 8.18297 89.0813 6.39413 94.1646Z" fill="#77A945" fill-opacity="0.4"/>
<path d="M19.752 40.5276C17.2954 41.2582 14.5868 42.0638 19.752 40.5276C24.9172 38.9914 41.5287 42.2614 39.3209 34.8383C37.4427 28.5234 24.9172 38.9914 19.752 40.5276Z" fill="#77A945" fill-opacity="0.4"/>
<path d="M78.0852 3.70658C75.673 2.84033 73.0134 1.88522 78.0852 3.70658C83.1569 5.52795 94.6048 18.0011 97.2223 10.7125C99.449 4.51181 83.1569 5.52795 78.0852 3.70658Z" fill="#77A945" fill-opacity="0.4"/>
<path d="M120.694 28.1646C119.844 30.5822 118.906 33.2479 120.694 28.1646C122.483 23.0813 134.883 11.5538 127.578 8.98301C121.363 6.79598 122.483 23.0813 120.694 28.1646Z" fill="#77A945" fill-opacity="0.4"/>
<path d="M127.112 1034.62C127.749 1037.1 128.452 1039.84 127.112 1034.62C125.773 1029.4 129.67 1012.92 122.168 1014.85C115.787 1016.49 125.773 1029.4 127.112 1034.62Z" fill="#77A945" fill-opacity="0.4"/>
<path d="M155.045 999.05C154.13 1001.44 153.123 1004.08 155.045 999.05C156.966 994.015 169.665 982.818 162.43 980.056C156.275 977.706 156.966 994.015 155.045 999.05Z" fill="#77A945" fill-opacity="0.4"/>
<path d="M104.694 1057.16C103.844 1059.58 102.906 1062.25 104.694 1057.16C106.483 1052.08 118.883 1040.55 111.578 1037.98C105.363 1035.8 106.483 1052.08 104.694 1057.16Z" fill="#77A945" fill-opacity="0.4"/>
<path d="M118.052 1003.53C115.595 1004.26 112.887 1005.06 118.052 1003.53C123.217 1001.99 139.828 1005.26 137.621 997.838C135.743 991.523 123.217 1001.99 118.052 1003.53Z" fill="#77A945" fill-opacity="0.4"/>
<path d="M176.385 966.706C173.973 965.84 171.313 964.885 176.385 966.706C181.457 968.528 192.905 981.001 195.522 973.712C197.749 967.512 181.457 968.528 176.385 966.706Z" fill="#77A945" fill-opacity="0.4"/>
<path d="M218.994 991.164C218.143 993.582 217.205 996.248 218.994 991.164C220.783 986.081 233.183 974.554 225.877 971.983C219.663 969.796 220.783 986.081 218.994 991.164Z" fill="#77A945" fill-opacity="0.4"/>
<path d="M4.69442 172.153C3.84364 174.571 2.90558 177.236 4.69442 172.153C6.48326 167.07 18.8828 155.542 11.5776 152.971C5.36279 150.784 6.48326 167.07 4.69442 172.153Z" fill="#77A945" fill-opacity="0.4"/>
<path d="M15.812 284.618C16.4491 287.101 17.1515 289.838 15.812 284.618C14.4726 279.398 18.3695 262.923 10.8682 264.848C4.4866 266.485 14.4726 279.398 15.812 284.618Z" fill="#77A945" fill-opacity="0.4"/>
<path d="M4.39413 245.165C3.54334 247.582 2.60529 250.248 4.39413 245.165C6.18297 240.081 18.5825 228.554 11.2773 225.983C5.0625 223.796 6.18297 240.081 4.39413 245.165Z" fill="#77A945" fill-opacity="0.4"/>
<rect x="338" y="1196" width="109" height="17" fill="#7FB239"/>
<rect x="1207" y="657.001" width="109" height="17" transform="rotate(90 1207 657.001)" fill="#7FB239"/>
<rect x="261" y="349.001" width="109" height="17" fill="#7FB239"/>
</svg>
