<svg width="795" height="475" viewBox="0 0 795 475" fill="none" xmlns="http://www.w3.org/2000/svg">
<rect x="792" y="297" width="109" height="17" transform="rotate(90 792 297)" fill="#7FB239"/>
<path d="M15.466 59.5488C16.1885 62.0078 16.9853 64.719 15.466 59.5488C13.9467 54.3785 17.2711 37.7779 9.84091 39.9613C3.5198 41.8188 13.9467 54.3785 15.466 59.5488Z" fill="#77A945" fill-opacity="0.4"/>
<path d="M16.466 137.549C17.1885 140.008 17.9853 142.719 16.466 137.549C14.9467 132.379 18.2711 115.778 10.8409 117.961C4.5198 119.819 14.9467 132.379 16.466 137.549Z" fill="#77A945" fill-opacity="0.4"/>
<path d="M48.8232 197.356C51.1744 198.376 53.7667 199.501 48.8232 197.356C43.8798 195.21 33.2617 182.024 30.1788 189.128C27.556 195.172 43.8798 195.21 48.8232 197.356Z" fill="#77A945" fill-opacity="0.4"/>
<path d="M3.62441 20.2939C2.85779 22.7396 2.01255 25.4361 3.62441 20.2939C5.23627 15.1518 17.2295 3.20206 9.83965 0.885639C3.55291 -1.08501 5.23627 15.1518 3.62441 20.2939Z" fill="#77A945" fill-opacity="0.4"/>
<path d="M4.62441 98.2939C3.85779 100.74 3.01255 103.436 4.62441 98.2939C6.23627 93.1518 18.2295 81.2021 10.8397 78.8856C4.55291 76.915 6.23627 93.1518 4.62441 98.2939Z" fill="#77A945" fill-opacity="0.4"/>
<path d="M6.62441 176.294C5.85779 178.74 5.01255 181.436 6.62441 176.294C8.23627 171.152 20.2295 159.202 12.8397 156.886C6.55291 154.915 8.23627 171.152 6.62441 176.294Z" fill="#77A945" fill-opacity="0.4"/>
<path d="M65.6185 223.71C67.4606 225.492 69.4916 227.457 65.6185 223.71C61.7454 219.963 56.4435 203.885 51.0589 209.451C46.4781 214.186 61.7454 219.963 65.6185 223.71Z" fill="#77A945" fill-opacity="0.4"/>
<path d="M147.729 215.211C150.204 214.546 152.933 213.812 147.729 215.211C142.525 216.61 126.006 212.9 128.016 220.379C129.726 226.742 142.525 216.61 147.729 215.211Z" fill="#77A945" fill-opacity="0.4"/>
<path d="M225.732 216.024C228.207 215.359 230.936 214.625 225.732 216.024C220.528 217.423 204.009 213.713 206.019 221.192C207.729 227.555 220.528 217.423 225.732 216.024Z" fill="#77A945" fill-opacity="0.4"/>
<path d="M108.21 226.137C110.637 226.961 113.313 227.868 108.21 226.137C103.106 224.406 91.4387 212.139 88.9512 219.473C86.835 225.712 103.106 224.406 108.21 226.137Z" fill="#77A945" fill-opacity="0.4"/>
<path d="M186.212 226.95C188.639 227.774 191.316 228.681 186.212 226.95C181.109 225.219 169.441 212.952 166.954 220.286C164.837 226.525 181.109 225.219 186.212 226.95Z" fill="#77A945" fill-opacity="0.4"/>
<path d="M303.73 216.211C306.205 215.546 308.934 214.812 303.73 216.211C298.526 217.61 282.007 213.9 284.017 221.379C285.727 227.742 298.526 217.61 303.73 216.211Z" fill="#77A945" fill-opacity="0.4"/>
<path d="M381.732 217.024C384.207 216.359 386.936 215.625 381.732 217.024C376.528 218.423 360.009 214.713 362.019 222.192C363.729 228.555 376.528 218.423 381.732 217.024Z" fill="#77A945" fill-opacity="0.4"/>
<path d="M264.21 227.137C266.637 227.961 269.314 228.868 264.21 227.137C259.107 225.406 247.439 213.139 244.952 220.473C242.835 226.712 259.107 225.406 264.21 227.137Z" fill="#77A945" fill-opacity="0.4"/>
<path d="M342.212 227.95C344.639 228.774 347.316 229.681 342.212 227.95C337.109 226.219 325.441 213.952 322.954 221.286C320.837 227.525 337.109 226.219 342.212 227.95Z" fill="#77A945" fill-opacity="0.4"/>
<path d="M459.73 215.211C462.205 214.546 464.934 213.812 459.73 215.211C454.526 216.61 438.007 212.9 440.017 220.379C441.727 226.742 454.526 216.61 459.73 215.211Z" fill="#77A945" fill-opacity="0.4"/>
<path d="M537.732 216.024C540.207 215.359 542.936 214.625 537.732 216.024C532.528 217.423 516.009 213.713 518.019 221.192C519.729 227.555 532.528 217.423 537.732 216.024Z" fill="#77A945" fill-opacity="0.4"/>
<path d="M420.21 226.137C422.637 226.961 425.314 227.868 420.21 226.137C415.107 224.406 403.439 212.139 400.952 219.473C398.835 225.712 415.107 224.406 420.21 226.137Z" fill="#77A945" fill-opacity="0.4"/>
<path d="M498.212 226.95C500.639 227.774 503.316 228.681 498.212 226.95C493.109 225.219 481.441 212.952 478.954 220.286C476.837 226.525 493.109 225.219 498.212 226.95Z" fill="#77A945" fill-opacity="0.4"/>
<path d="M615.73 215.211C618.205 214.546 620.934 213.812 615.73 215.211C610.526 216.61 594.007 212.9 596.017 220.379C597.727 226.742 610.526 216.61 615.73 215.211Z" fill="#77A945" fill-opacity="0.4"/>
<path d="M693.732 216.024C696.207 215.359 698.936 214.625 693.732 216.024C688.528 217.423 672.009 213.713 674.019 221.192C675.729 227.555 688.528 217.423 693.732 216.024Z" fill="#77A945" fill-opacity="0.4"/>
<path d="M764.564 240.948C767.09 241.383 769.875 241.864 764.564 240.948C759.254 240.032 745.82 229.728 744.503 237.36C743.384 243.853 759.254 240.032 764.564 240.948Z" fill="#77A945" fill-opacity="0.4"/>
<path d="M576.21 226.137C578.637 226.961 581.314 227.868 576.21 226.137C571.107 224.406 559.439 212.139 556.952 219.473C554.835 225.712 571.107 224.406 576.21 226.137Z" fill="#77A945" fill-opacity="0.4"/>
<path d="M654.212 226.95C656.639 227.774 659.316 228.681 654.212 226.95C649.109 225.219 637.441 212.952 634.954 220.286C632.837 226.525 649.109 225.219 654.212 226.95Z" fill="#77A945" fill-opacity="0.4"/>
<path d="M725.078 240.217C726.419 242.401 727.898 244.81 725.078 240.217C722.259 235.624 721.124 218.732 714.524 222.784C708.909 226.231 722.259 235.624 725.078 240.217Z" fill="#77A945" fill-opacity="0.4"/>
<path d="M767.895 281.43C767.845 283.993 767.79 286.818 767.895 281.43C768 276.042 776.16 261.208 768.417 261.058C761.83 260.929 768 276.042 767.895 281.43Z" fill="#77A945" fill-opacity="0.4"/>
<path d="M790.117 470.392C790.883 472.838 791.727 475.535 790.117 470.392C788.508 465.249 791.54 448.593 784.149 450.906C777.862 452.874 788.508 465.249 790.117 470.392Z" fill="#77A945" fill-opacity="0.4"/>
<path d="M777.588 431.351C776.864 433.809 776.067 436.52 777.588 431.351C779.109 426.181 790.891 414.023 783.461 411.836C777.141 409.976 779.109 426.181 777.588 431.351Z" fill="#77A945" fill-opacity="0.4"/>
</svg>
