<svg width="547" height="578" viewBox="0 0 547 578" fill="none" xmlns="http://www.w3.org/2000/svg">
<rect x="545" y="246.001" width="109" height="17" transform="rotate(90 545 246.001)" fill="#7FB239"/>
<path d="M393.75 568.133C391.283 568.829 388.564 569.596 393.75 568.133C398.937 566.67 415.5 570.175 413.398 562.721C411.609 556.38 398.937 566.67 393.75 568.133Z" fill="#77A945" fill-opacity="0.4"/>
<path d="M315.744 568.283C313.277 568.979 310.558 569.746 315.744 568.283C320.931 566.82 337.494 570.325 335.392 562.872C333.603 556.531 320.931 566.82 315.744 568.283Z" fill="#77A945" fill-opacity="0.4"/>
<path d="M433.132 556.719C430.695 555.926 428.007 555.051 433.132 556.719C438.256 558.387 450.075 570.51 452.471 563.145C454.51 556.88 438.256 558.387 433.132 556.719Z" fill="#77A945" fill-opacity="0.4"/>
<path d="M355.125 556.87C352.688 556.076 350.001 555.202 355.125 556.87C360.249 558.537 372.068 570.66 374.464 563.296C376.503 557.031 360.249 558.537 355.125 556.87Z" fill="#77A945" fill-opacity="0.4"/>
<path d="M237.726 567.06C235.259 567.756 232.539 568.523 237.726 567.06C242.912 565.598 259.476 569.103 257.373 561.649C255.585 555.308 242.912 565.598 237.726 567.06Z" fill="#77A945" fill-opacity="0.4"/>
<path d="M277.106 555.647C274.669 554.854 271.982 553.979 277.106 555.647C282.231 557.315 294.049 569.437 296.446 562.073C298.485 555.808 282.231 557.315 277.106 555.647Z" fill="#77A945" fill-opacity="0.4"/>
<path d="M540.614 50.5443C541.341 53.0019 542.143 55.7116 540.614 50.5443C539.084 45.3769 542.377 28.77 534.951 30.9675C528.634 32.8371 539.084 45.3769 540.614 50.5443Z" fill="#77A945" fill-opacity="0.4"/>
<path d="M541.762 128.542C542.489 131 543.291 133.71 541.762 128.542C540.233 123.375 543.526 106.768 536.1 108.966C529.782 110.835 540.233 123.375 541.762 128.542Z" fill="#77A945" fill-opacity="0.4"/>
<path d="M529.846 89.3102C529.084 91.7573 528.243 94.4554 529.846 89.3102C531.448 84.165 543.418 72.1925 536.024 69.8901C529.733 67.9315 531.448 84.165 529.846 89.3102Z" fill="#77A945" fill-opacity="0.4"/>
<path d="M522.621 20.3003C521.859 22.7474 521.019 25.4456 522.621 20.3003C524.223 15.1551 536.193 3.18258 528.799 0.880247C522.509 -1.07841 524.223 15.1551 522.621 20.3003Z" fill="#77A945" fill-opacity="0.4"/>
<path d="M529.621 167.338C528.859 169.785 528.019 172.483 529.621 167.338C531.223 162.193 543.193 150.22 535.799 147.918C529.509 145.959 531.223 162.193 529.621 167.338Z" fill="#77A945" fill-opacity="0.4"/>
<path d="M540.614 206.544C541.341 209.002 542.143 211.712 540.614 206.544C539.084 201.377 542.377 184.77 534.951 186.968C528.634 188.837 539.084 201.377 540.614 206.544Z" fill="#77A945" fill-opacity="0.4"/>
<path d="M529.846 245.31C529.084 247.757 528.243 250.455 529.846 245.31C531.448 240.165 543.418 228.192 536.024 225.89C529.733 223.931 531.448 240.165 529.846 245.31Z" fill="#77A945" fill-opacity="0.4"/>
<path d="M540.614 390.544C541.341 393.002 542.143 395.712 540.614 390.544C539.084 385.377 542.377 368.77 534.951 370.968C528.634 372.837 539.084 385.377 540.614 390.544Z" fill="#77A945" fill-opacity="0.4"/>
<path d="M541.762 468.542C542.489 471 543.291 473.71 541.762 468.542C540.233 463.375 543.526 446.768 536.1 448.966C529.782 450.835 540.233 463.375 541.762 468.542Z" fill="#77A945" fill-opacity="0.4"/>
<path d="M478.654 573.244C477.852 575.678 476.969 578.362 478.654 573.244C480.339 568.125 492.501 556.348 485.145 553.926C478.887 551.866 480.339 568.125 478.654 573.244Z" fill="#77A945" fill-opacity="0.4"/>
<path d="M529.846 429.31C529.084 431.757 528.243 434.455 529.846 429.31C531.448 424.165 543.418 412.192 536.024 409.89C529.733 407.931 531.448 424.165 529.846 429.31Z" fill="#77A945" fill-opacity="0.4"/>
<path d="M527.621 499.3C526.859 501.748 526.019 504.446 527.621 499.3C529.223 494.155 541.193 482.183 533.799 479.88C527.509 477.922 529.223 494.155 527.621 499.3Z" fill="#77A945" fill-opacity="0.4"/>
<path d="M489.743 542.438C487.283 543.157 484.57 543.95 489.743 542.438C494.915 540.927 511.511 544.275 509.338 536.842C507.49 530.518 494.915 540.927 489.743 542.438Z" fill="#77A945" fill-opacity="0.4"/>
<path d="M530.603 534.531C531.344 536.985 532.16 539.69 530.603 534.531C529.046 529.372 532.249 512.748 524.835 514.985C518.528 516.889 529.046 529.372 530.603 534.531Z" fill="#77A945" fill-opacity="0.4"/>
<path d="M159.75 569.133C157.283 569.829 154.564 570.596 159.75 569.133C164.937 567.67 181.5 571.175 179.398 563.721C177.609 557.38 164.937 567.67 159.75 569.133Z" fill="#77A945" fill-opacity="0.4"/>
<path d="M81.7442 569.283C79.2774 569.979 76.5577 570.746 81.7442 569.283C86.9307 567.82 103.494 571.325 101.392 563.872C99.6032 557.531 86.9307 567.82 81.7442 569.283Z" fill="#77A945" fill-opacity="0.4"/>
<path d="M199.132 557.719C196.695 556.926 194.007 556.051 199.132 557.719C204.256 559.387 216.075 571.51 218.471 564.145C220.51 557.88 204.256 559.387 199.132 557.719Z" fill="#77A945" fill-opacity="0.4"/>
<path d="M121.125 557.87C118.688 557.076 116.001 556.202 121.125 557.87C126.249 559.537 138.068 571.66 140.464 564.296C142.503 558.031 126.249 559.537 121.125 557.87Z" fill="#77A945" fill-opacity="0.4"/>
<path d="M3.72562 568.06C1.25889 568.756 -1.46086 569.523 3.72562 568.06C8.91211 566.598 25.4756 570.103 23.3732 562.649C21.5846 556.308 8.91211 566.598 3.72562 568.06Z" fill="#77A945" fill-opacity="0.4"/>
<path d="M43.1064 556.647C40.6692 555.854 37.9821 554.979 43.1064 556.647C48.2307 558.315 60.0491 570.437 62.4459 563.073C64.4848 556.808 48.2307 558.315 43.1064 556.647Z" fill="#77A945" fill-opacity="0.4"/>
</svg>
