<svg width="348" height="422" viewBox="0 0 348 422" fill="none" xmlns="http://www.w3.org/2000/svg">
<rect x="226" y="197" width="109" height="17" transform="rotate(-180 226 197)" fill="#7FB239"/>
<path d="M342.443 59.7521C344.115 61.6947 345.958 63.8365 342.443 59.7521C338.928 55.6676 335.115 39.1724 329.245 44.2242C324.251 48.5219 338.928 55.6676 342.443 59.7521Z" fill="#77A945" fill-opacity="0.4"/>
<path d="M333.331 144.417C334.168 146.839 335.09 149.511 333.331 144.417C331.573 139.323 334.12 122.585 326.799 125.113C320.572 127.263 331.573 139.323 333.331 144.417Z" fill="#77A945" fill-opacity="0.4"/>
<path d="M253.178 200.339C251.354 202.141 249.344 204.127 253.178 200.339C257.011 196.552 273.206 191.616 267.763 186.106C263.132 181.42 257.011 196.552 253.178 200.339Z" fill="#77A945" fill-opacity="0.4"/>
<path d="M62.1776 208.339C60.3543 210.141 58.344 212.127 62.1776 208.339C66.0111 204.552 82.2056 199.616 76.7628 194.106C72.1324 189.42 66.0111 204.552 62.1776 208.339Z" fill="#77A945" fill-opacity="0.4"/>
<path d="M18.8517 262.393C18.8384 264.956 18.8238 267.782 18.8517 262.393C18.8797 257.005 26.8273 242.056 19.083 242.016C12.4947 241.981 18.8797 257.005 18.8517 262.393Z" fill="#77A945" fill-opacity="0.4"/>
<path d="M15.466 339.549C16.1885 342.008 16.9853 344.719 15.466 339.549C13.9467 334.379 17.2711 317.778 9.84091 319.961C3.5198 321.819 13.9467 334.379 15.466 339.549Z" fill="#77A945" fill-opacity="0.4"/>
<path d="M16.466 417.549C17.1885 420.008 17.9853 422.719 16.466 417.549C14.9467 412.379 18.2711 395.778 10.8409 397.961C4.5198 399.819 14.9467 412.379 16.466 417.549Z" fill="#77A945" fill-opacity="0.4"/>
<path d="M319.295 101.039C317.865 103.166 316.288 105.511 319.295 101.039C322.303 96.5677 337.199 88.5221 330.773 84.1997C325.307 80.5226 322.303 96.5677 319.295 101.039Z" fill="#77A945" fill-opacity="0.4"/>
<path d="M319.067 18.492C317.636 20.6186 316.059 22.9634 319.067 18.492C322.074 14.0206 336.971 5.97496 330.545 1.65261C325.078 -2.02454 322.074 14.0206 319.067 18.492Z" fill="#77A945" fill-opacity="0.4"/>
<path d="M291.015 166.645C288.722 167.79 286.194 169.053 291.015 166.645C295.836 164.236 312.762 164.577 309.301 157.649C306.357 151.755 295.836 164.236 291.015 166.645Z" fill="#77A945" fill-opacity="0.4"/>
<path d="M19.5085 219.184C17.0486 219.904 14.3364 220.697 19.5085 219.184C24.6805 217.671 41.2772 221.015 39.1027 213.582C37.2528 207.259 24.6805 217.671 19.5085 219.184Z" fill="#77A945" fill-opacity="0.4"/>
<path d="M3.62441 300.294C2.85779 302.74 2.01255 305.436 3.62441 300.294C5.23627 295.152 17.2295 283.202 9.83965 280.886C3.55291 278.915 5.23627 295.152 3.62441 300.294Z" fill="#77A945" fill-opacity="0.4"/>
<path d="M4.62441 378.294C3.85779 380.74 3.01255 383.436 4.62441 378.294C6.23627 373.152 18.2295 361.202 10.8397 358.886C4.55291 356.915 6.23627 373.152 4.62441 378.294Z" fill="#77A945" fill-opacity="0.4"/>
</svg>
