<svg width="339" height="303" viewBox="0 0 339 303" fill="none" xmlns="http://www.w3.org/2000/svg">
<rect x="23" y="128" width="109" height="17" transform="rotate(90 23 128)" fill="#7FB239"/>
<path d="M315.466 51.4843C314.876 53.9785 314.226 56.7285 315.466 51.4843C316.707 46.2402 327.816 33.4643 320.28 31.6817C313.868 30.1651 316.707 46.2402 315.466 51.4843Z" fill="#77A945" fill-opacity="0.4"/>
<path d="M185.709 69.3367C183.235 70.0065 180.507 70.7449 185.709 69.3367C190.91 67.9285 207.436 71.6076 205.412 64.1324C203.69 57.7729 190.91 67.9285 185.709 69.3367Z" fill="#77A945" fill-opacity="0.4"/>
<path d="M107.705 68.6663C105.231 69.3361 102.504 70.0745 107.705 68.6663C112.907 67.2581 129.433 70.9372 127.409 63.4619C125.687 57.1025 112.907 67.2581 107.705 68.6663Z" fill="#77A945" fill-opacity="0.4"/>
<path d="M46.3635 100.548C45.8805 103.065 45.3479 105.84 46.3635 100.548C47.379 95.2558 57.9328 82.0176 50.3272 80.5581C43.8568 79.3165 47.379 95.2558 46.3635 100.548Z" fill="#77A945" fill-opacity="0.4"/>
<path d="M18.9085 270.609C19.5581 273.089 20.2744 275.822 18.9085 270.609C17.5427 265.396 21.3562 248.901 13.8647 250.864C7.49148 252.534 17.5427 265.396 18.9085 270.609Z" fill="#77A945" fill-opacity="0.4"/>
<path d="M225.208 58.3383C222.78 57.5195 220.102 56.6167 225.208 58.3383C230.315 60.0599 242.005 72.3062 244.479 64.9677C246.584 58.7246 230.315 60.0599 225.208 58.3383Z" fill="#77A945" fill-opacity="0.4"/>
<path d="M147.205 57.6679C144.776 56.8491 142.098 55.9463 147.205 57.6679C152.311 59.3895 164.001 71.6358 166.476 64.2973C168.58 58.0542 152.311 59.3895 147.205 57.6679Z" fill="#77A945" fill-opacity="0.4"/>
<path d="M14.177 114.398C12.229 116.064 10.0812 117.9 14.177 114.398C18.2728 110.896 34.7803 107.137 29.7475 101.25C25.466 96.243 18.2728 110.896 14.177 114.398Z" fill="#77A945" fill-opacity="0.4"/>
<path d="M3.8507 298.73C2.79204 301.065 1.6248 303.638 3.8507 298.73C6.07659 293.823 19.4354 283.422 12.3826 280.223C6.38248 277.502 6.07659 293.823 3.8507 298.73Z" fill="#77A945" fill-opacity="0.4"/>
<path d="M57.2362 65.9786C54.6761 65.8565 51.8534 65.7218 57.2362 65.9786C62.6189 66.2354 77.2168 74.8107 77.5858 67.0751C77.8998 60.4942 62.6189 66.2354 57.2362 65.9786Z" fill="#77A945" fill-opacity="0.4"/>
<path d="M322.163 17.0174C320.444 18.9184 318.549 21.0144 322.163 17.0174C325.777 13.0203 341.668 7.18022 335.924 1.98605C331.037 -2.43279 325.777 13.0203 322.163 17.0174Z" fill="#77A945" fill-opacity="0.4"/>
<path d="M273.401 54.3543C270.858 54.6738 268.054 55.0262 273.401 54.3543C278.748 53.6824 294.602 59.6219 293.636 51.9379C292.815 45.401 278.748 53.6824 273.401 54.3543Z" fill="#77A945" fill-opacity="0.4"/>
</svg>
