<svg width="178" height="178" viewBox="0 0 178 178" fill="none" xmlns="http://www.w3.org/2000/svg">
<rect width="178" height="178" rx="89" fill="#0C0B3C"/>
<path d="M51.9322 72.692V74H45.6322V65.6H51.7642V66.908H47.1922V69.092H51.2482V70.376H47.1922V72.692H51.9322ZM61.1353 65.6V74H59.8513L55.2193 68.312V74H53.6713V65.6H54.9553L59.5873 71.288V65.6H61.1353ZM69.1221 69.704H70.5981V73.052C70.1661 73.396 69.6621 73.66 69.0861 73.844C68.5101 74.028 67.9181 74.12 67.3101 74.12C66.4541 74.12 65.6821 73.936 64.9941 73.568C64.3061 73.192 63.7661 72.676 63.3741 72.02C62.9821 71.364 62.7861 70.624 62.7861 69.8C62.7861 68.976 62.9821 68.236 63.3741 67.58C63.7661 66.924 64.3061 66.412 64.9941 66.044C65.6901 65.668 66.4701 65.48 67.3341 65.48C68.0381 65.48 68.6781 65.596 69.2541 65.828C69.8301 66.06 70.3141 66.4 70.7061 66.848L69.7221 67.808C69.0821 67.168 68.3101 66.848 67.4061 66.848C66.8141 66.848 66.2861 66.972 65.8221 67.22C65.3661 67.468 65.0061 67.816 64.7421 68.264C64.4861 68.712 64.3581 69.224 64.3581 69.8C64.3581 70.36 64.4861 70.864 64.7421 71.312C65.0061 71.76 65.3661 72.112 65.8221 72.368C66.2861 72.624 66.8101 72.752 67.3941 72.752C68.0501 72.752 68.6261 72.608 69.1221 72.32V69.704ZM78.1036 72.056H73.9036L73.0756 74H71.4676L75.2476 65.6H76.7836L80.5756 74H78.9436L78.1036 72.056ZM77.5876 70.832L76.0036 67.16L74.4316 70.832H77.5876ZM87.2627 69.704H88.7387V73.052C88.3067 73.396 87.8027 73.66 87.2267 73.844C86.6507 74.028 86.0587 74.12 85.4507 74.12C84.5947 74.12 83.8227 73.936 83.1347 73.568C82.4467 73.192 81.9067 72.676 81.5147 72.02C81.1227 71.364 80.9267 70.624 80.9267 69.8C80.9267 68.976 81.1227 68.236 81.5147 67.58C81.9067 66.924 82.4467 66.412 83.1347 66.044C83.8307 65.668 84.6107 65.48 85.4747 65.48C86.1787 65.48 86.8187 65.596 87.3947 65.828C87.9707 66.06 88.4547 66.4 88.8467 66.848L87.8627 67.808C87.2227 67.168 86.4507 66.848 85.5467 66.848C84.9547 66.848 84.4267 66.972 83.9627 67.22C83.5067 67.468 83.1467 67.816 82.8827 68.264C82.6267 68.712 82.4987 69.224 82.4987 69.8C82.4987 70.36 82.6267 70.864 82.8827 71.312C83.1467 71.76 83.5067 72.112 83.9627 72.368C84.4267 72.624 84.9507 72.752 85.5347 72.752C86.1907 72.752 86.7667 72.608 87.2627 72.32V69.704ZM97.0963 72.692V74H90.7963V65.6H96.9283V66.908H92.3563V69.092H96.4123V70.376H92.3563V72.692H97.0963ZM106.551 74L106.539 68.432L103.779 73.04H103.083L100.323 68.504V74H98.8353V65.6H100.119L103.455 71.168L106.731 65.6H108.015L108.027 74H106.551ZM116.596 72.692V74H110.296V65.6H116.428V66.908H111.856V69.092H115.912V70.376H111.856V72.692H116.596ZM125.799 65.6V74H124.515L119.883 68.312V74H118.335V65.6H119.619L124.251 71.288V65.6H125.799ZM129.754 66.92H126.97V65.6H134.098V66.92H131.314V74H129.754V66.92ZM66.5132 87.12C65.6572 87.12 64.8852 86.936 64.1972 86.568C63.5092 86.192 62.9692 85.676 62.5772 85.02C62.1852 84.356 61.9892 83.616 61.9892 82.8C61.9892 81.984 62.1852 81.248 62.5772 80.592C62.9692 79.928 63.5092 79.412 64.1972 79.044C64.8852 78.668 65.6572 78.48 66.5132 78.48C67.3692 78.48 68.1412 78.668 68.8292 79.044C69.5172 79.412 70.0572 79.924 70.4492 80.58C70.8412 81.236 71.0372 81.976 71.0372 82.8C71.0372 83.624 70.8412 84.364 70.4492 85.02C70.0572 85.676 69.5172 86.192 68.8292 86.568C68.1412 86.936 67.3692 87.12 66.5132 87.12ZM66.5132 85.752C67.0732 85.752 67.5772 85.628 68.0252 85.38C68.4732 85.124 68.8252 84.772 69.0812 84.324C69.3372 83.868 69.4652 83.36 69.4652 82.8C69.4652 82.24 69.3372 81.736 69.0812 81.288C68.8252 80.832 68.4732 80.48 68.0252 80.232C67.5772 79.976 67.0732 79.848 66.5132 79.848C65.9532 79.848 65.4492 79.976 65.0012 80.232C64.5532 80.48 64.2012 80.832 63.9452 81.288C63.6892 81.736 63.5612 82.24 63.5612 82.8C63.5612 83.36 63.6892 83.868 63.9452 84.324C64.2012 84.772 64.5532 85.124 65.0012 85.38C65.4492 85.628 65.9532 85.752 66.5132 85.752ZM78.1868 87L76.4708 84.54C76.3988 84.548 76.2908 84.552 76.1468 84.552H74.2508V87H72.6908V78.6H76.1468C76.8748 78.6 77.5068 78.72 78.0428 78.96C78.5868 79.2 79.0028 79.544 79.2908 79.992C79.5788 80.44 79.7228 80.972 79.7228 81.588C79.7228 82.22 79.5668 82.764 79.2548 83.22C78.9508 83.676 78.5108 84.016 77.9348 84.24L79.8668 87H78.1868ZM78.1508 81.588C78.1508 81.052 77.9748 80.64 77.6228 80.352C77.2708 80.064 76.7548 79.92 76.0748 79.92H74.2508V83.268H76.0748C76.7548 83.268 77.2708 83.124 77.6228 82.836C77.9748 82.54 78.1508 82.124 78.1508 81.588ZM81.4681 78.6H83.0281V87H81.4681V78.6ZM91.6002 85.692V87H85.3002V78.6H91.4322V79.908H86.8602V82.092H90.9162V83.376H86.8602V85.692H91.6002ZM100.803 78.6V87H99.5192L94.8872 81.312V87H93.3392V78.6H94.6232L99.2552 84.288V78.6H100.803ZM104.758 79.92H101.974V78.6H109.102V79.92H106.318V87H104.758V79.92ZM116.573 85.692V87H110.273V78.6H116.405V79.908H111.833V82.092H115.889V83.376H111.833V85.692H116.573ZM113.969 76.272H115.733L113.645 77.916H112.349L113.969 76.272ZM33.8373 91.6H37.5093C38.4053 91.6 39.2013 91.776 39.8973 92.128C40.5933 92.472 41.1333 92.964 41.5173 93.604C41.9013 94.236 42.0933 94.968 42.0933 95.8C42.0933 96.632 41.9013 97.368 41.5173 98.008C41.1333 98.64 40.5933 99.132 39.8973 99.484C39.2013 99.828 38.4053 100 37.5093 100H33.8373V91.6ZM37.4373 98.68C38.0533 98.68 38.5933 98.564 39.0573 98.332C39.5293 98.092 39.8893 97.756 40.1373 97.324C40.3933 96.884 40.5213 96.376 40.5213 95.8C40.5213 95.224 40.3933 94.72 40.1373 94.288C39.8893 93.848 39.5293 93.512 39.0573 93.28C38.5933 93.04 38.0533 92.92 37.4373 92.92H35.3973V98.68H37.4373ZM50.0513 98.692V100H43.7513V91.6H49.8833V92.908H45.3113V95.092H49.3673V96.376H45.3113V98.692H50.0513ZM47.4473 89.272H49.2113L47.1233 90.916H45.8273L47.4473 89.272ZM59.3532 91.6L55.6932 100H54.1572L50.4852 91.6H52.1772L54.9732 98.08L57.7932 91.6H59.3532ZM66.5396 98.692V100H60.2396V91.6H66.3716V92.908H61.7996V95.092H65.8556V96.376H61.7996V98.692H66.5396ZM68.2787 91.6H69.8387V98.68H74.2307V100H68.2787V91.6ZM79.2339 100.12C78.3779 100.12 77.6059 99.936 76.9179 99.568C76.2299 99.192 75.6899 98.676 75.2979 98.02C74.9059 97.356 74.7099 96.616 74.7099 95.8C74.7099 94.984 74.9059 94.248 75.2979 93.592C75.6899 92.928 76.2299 92.412 76.9179 92.044C77.6059 91.668 78.3779 91.48 79.2339 91.48C80.0899 91.48 80.8619 91.668 81.5499 92.044C82.2379 92.412 82.7779 92.924 83.1699 93.58C83.5619 94.236 83.7579 94.976 83.7579 95.8C83.7579 96.624 83.5619 97.364 83.1699 98.02C82.7779 98.676 82.2379 99.192 81.5499 99.568C80.8619 99.936 80.0899 100.12 79.2339 100.12ZM79.2339 98.752C79.7939 98.752 80.2979 98.628 80.7459 98.38C81.1939 98.124 81.5459 97.772 81.8019 97.324C82.0579 96.868 82.1859 96.36 82.1859 95.8C82.1859 95.24 82.0579 94.736 81.8019 94.288C81.5459 93.832 81.1939 93.48 80.7459 93.232C80.2979 92.976 79.7939 92.848 79.2339 92.848C78.6739 92.848 78.1699 92.976 77.7219 93.232C77.2739 93.48 76.9219 93.832 76.6659 94.288C76.4099 94.736 76.2819 95.24 76.2819 95.8C76.2819 96.36 76.4099 96.868 76.6659 97.324C76.9219 97.772 77.2739 98.124 77.7219 98.38C78.1699 98.628 78.6739 98.752 79.2339 98.752ZM88.8675 91.6C89.5955 91.6 90.2275 91.72 90.7635 91.96C91.3075 92.2 91.7235 92.544 92.0115 92.992C92.2995 93.44 92.4435 93.972 92.4435 94.588C92.4435 95.196 92.2995 95.728 92.0115 96.184C91.7235 96.632 91.3075 96.976 90.7635 97.216C90.2275 97.456 89.5955 97.576 88.8675 97.576H86.9715V100H85.4115V91.6H88.8675ZM88.7955 96.256C89.4755 96.256 89.9915 96.112 90.3435 95.824C90.6955 95.536 90.8715 95.124 90.8715 94.588C90.8715 94.052 90.6955 93.64 90.3435 93.352C89.9915 93.064 89.4755 92.92 88.7955 92.92H86.9715V96.256H88.7955ZM97.4573 91.6C98.1853 91.6 98.8173 91.72 99.3533 91.96C99.8973 92.2 100.313 92.544 100.601 92.992C100.889 93.44 101.033 93.972 101.033 94.588C101.033 95.196 100.889 95.728 100.601 96.184C100.313 96.632 99.8973 96.976 99.3533 97.216C98.8173 97.456 98.1853 97.576 97.4573 97.576H95.5613V100H94.0013V91.6H97.4573ZM97.3853 96.256C98.0653 96.256 98.5813 96.112 98.9333 95.824C99.2853 95.536 99.4613 95.124 99.4613 94.588C99.4613 94.052 99.2853 93.64 98.9333 93.352C98.5813 93.064 98.0653 92.92 97.3853 92.92H95.5613V96.256H97.3853ZM108.891 98.692V100H102.591V91.6H108.723V92.908H104.151V95.092H108.207V96.376H104.151V98.692H108.891ZM118.346 100L118.334 94.432L115.574 99.04H114.878L112.118 94.504V100H110.63V91.6H111.914L115.25 97.168L118.526 91.6H119.81L119.822 100H118.346ZM128.391 98.692V100H122.091V91.6H128.223V92.908H123.651V95.092H127.707V96.376H123.651V98.692H128.391ZM137.594 91.6V100H136.31L131.678 94.312V100H130.13V91.6H131.414L136.046 97.288V91.6H137.594ZM141.549 92.92H138.765V91.6H145.893V92.92H143.109V100H141.549V92.92ZM59.7006 104.6H63.3726C64.2686 104.6 65.0646 104.776 65.7606 105.128C66.4566 105.472 66.9966 105.964 67.3806 106.604C67.7646 107.236 67.9566 107.968 67.9566 108.8C67.9566 109.632 67.7646 110.368 67.3806 111.008C66.9966 111.64 66.4566 112.132 65.7606 112.484C65.0646 112.828 64.2686 113 63.3726 113H59.7006V104.6ZM63.3006 111.68C63.9166 111.68 64.4566 111.564 64.9206 111.332C65.3926 111.092 65.7526 110.756 66.0006 110.324C66.2566 109.884 66.3846 109.376 66.3846 108.8C66.3846 108.224 66.2566 107.72 66.0006 107.288C65.7526 106.848 65.3926 106.512 64.9206 106.28C64.4566 106.04 63.9166 105.92 63.3006 105.92H61.2606V111.68H63.3006ZM73.2266 113.12C72.0666 113.12 71.1626 112.796 70.5146 112.148C69.8666 111.492 69.5426 110.556 69.5426 109.34V104.6H71.1026V109.28C71.1026 110.928 71.8146 111.752 73.2386 111.752C74.6546 111.752 75.3626 110.928 75.3626 109.28V104.6H76.8986V109.34C76.8986 110.556 76.5746 111.492 75.9266 112.148C75.2866 112.796 74.3866 113.12 73.2266 113.12ZM84.5794 113L82.8634 110.54C82.7914 110.548 82.6834 110.552 82.5394 110.552H80.6434V113H79.0834V104.6H82.5394C83.2674 104.6 83.8994 104.72 84.4354 104.96C84.9794 105.2 85.3954 105.544 85.6834 105.992C85.9714 106.44 86.1154 106.972 86.1154 107.588C86.1154 108.22 85.9594 108.764 85.6474 109.22C85.3434 109.676 84.9034 110.016 84.3274 110.24L86.2594 113H84.5794ZM84.5434 107.588C84.5434 107.052 84.3674 106.64 84.0154 106.352C83.6634 106.064 83.1474 105.92 82.4674 105.92H80.6434V109.268H82.4674C83.1474 109.268 83.6634 109.124 84.0154 108.836C84.3674 108.54 84.5434 108.124 84.5434 107.588ZM93.3087 111.056H89.1087L88.2807 113H86.6727L90.4527 104.6H91.9887L95.7807 113H94.1487L93.3087 111.056ZM92.7927 109.832L91.2087 106.16L89.6367 109.832H92.7927ZM102.801 108.632C103.265 108.784 103.633 109.04 103.905 109.4C104.177 109.752 104.313 110.192 104.313 110.72C104.313 111.448 104.033 112.012 103.473 112.412C102.913 112.804 102.097 113 101.025 113H96.849V104.6H100.785C101.777 104.6 102.541 104.796 103.077 105.188C103.613 105.572 103.881 106.104 103.881 106.784C103.881 107.2 103.785 107.568 103.593 107.888C103.401 108.208 103.137 108.456 102.801 108.632ZM98.409 105.824V108.14H100.617C101.161 108.14 101.577 108.044 101.865 107.852C102.161 107.652 102.309 107.364 102.309 106.988C102.309 106.604 102.161 106.316 101.865 106.124C101.577 105.924 101.161 105.824 100.617 105.824H98.409ZM100.929 111.776C102.137 111.776 102.741 111.372 102.741 110.564C102.741 109.756 102.137 109.352 100.929 109.352H98.409V111.776H100.929ZM105.978 104.6H107.538V111.68H111.93V113H105.978V104.6ZM119.461 111.692V113H113.161V104.6H119.293V105.908H114.721V108.092H118.777V109.376H114.721V111.692H119.461Z" fill="#7FB239"/>
</svg>
