<svg width="1209" height="6363" viewBox="0 0 1209 6363" fill="none" xmlns="http://www.w3.org/2000/svg">
<rect x="519" y="197" width="109" height="17" transform="rotate(-180 519 197)" fill="#7FB239"/>
<rect x="1087" y="2299" width="109" height="17" transform="rotate(90 1087 2299)" fill="#7FB239"/>
<rect x="314" y="1326" width="109" height="17" transform="rotate(90 314 1326)" fill="#7FB239"/>
<rect x="253" y="3393" width="109" height="17" transform="rotate(90 253 3393)" fill="#7FB239"/>
<rect x="622" y="4420" width="109" height="17" transform="rotate(90 622 4420)" fill="#7FB239"/>
<rect x="1207" y="5803" width="109" height="17" transform="rotate(90 1207 5803)" fill="#7FB239"/>
<rect x="261" y="5495" width="109" height="17" fill="#7FB239"/>
<rect x="338" y="6342" width="109" height="17" fill="#7FB239"/>
<path d="M635.443 59.7521C637.115 61.6947 638.958 63.8365 635.443 59.7521C631.928 55.6676 628.115 39.1724 622.245 44.2242C617.251 48.5219 631.928 55.6676 635.443 59.7521Z" fill="#77A945" fill-opacity="0.4"/>
<path d="M626.331 144.417C627.168 146.839 628.09 149.511 626.331 144.417C624.573 139.323 627.12 122.585 619.799 125.113C613.572 127.263 624.573 139.323 626.331 144.417Z" fill="#77A945" fill-opacity="0.4"/>
<path d="M546.178 200.339C544.354 202.141 542.344 204.127 546.178 200.339C550.011 196.552 566.206 191.616 560.763 186.106C556.132 181.42 550.011 196.552 546.178 200.339Z" fill="#77A945" fill-opacity="0.4"/>
<path d="M355.178 208.339C353.354 210.141 351.344 212.127 355.178 208.339C359.011 204.552 375.206 199.616 369.763 194.106C365.132 189.42 359.011 204.552 355.178 208.339Z" fill="#77A945" fill-opacity="0.4"/>
<path d="M311.852 262.393C311.838 264.956 311.824 267.782 311.852 262.393C311.88 257.005 319.827 242.056 312.083 242.016C305.495 241.981 311.88 257.005 311.852 262.393Z" fill="#77A945" fill-opacity="0.4"/>
<path d="M308.466 339.549C309.189 342.008 309.985 344.719 308.466 339.549C306.947 334.379 310.271 317.778 302.841 319.961C296.52 321.819 306.947 334.379 308.466 339.549Z" fill="#77A945" fill-opacity="0.4"/>
<path d="M309.466 417.549C310.189 420.008 310.985 422.719 309.466 417.549C307.947 412.379 311.271 395.778 303.841 397.961C297.52 399.819 307.947 412.379 309.466 417.549Z" fill="#77A945" fill-opacity="0.4"/>
<path d="M612.295 101.039C610.865 103.166 609.288 105.511 612.295 101.039C615.303 96.5677 630.199 88.5221 623.773 84.1997C618.307 80.5226 615.303 96.5677 612.295 101.039Z" fill="#77A945" fill-opacity="0.4"/>
<path d="M612.067 18.492C610.636 20.6186 609.059 22.9634 612.067 18.492C615.074 14.0206 629.971 5.97496 623.545 1.65261C618.078 -2.02454 615.074 14.0206 612.067 18.492Z" fill="#77A945" fill-opacity="0.4"/>
<path d="M584.015 166.645C581.722 167.79 579.194 169.053 584.015 166.645C588.836 164.236 605.762 164.577 602.301 157.649C599.357 151.755 588.836 164.236 584.015 166.645Z" fill="#77A945" fill-opacity="0.4"/>
<path d="M312.508 219.184C310.049 219.904 307.336 220.697 312.508 219.184C317.681 217.671 334.277 221.015 332.103 213.582C330.253 207.259 317.681 217.671 312.508 219.184Z" fill="#77A945" fill-opacity="0.4"/>
<path d="M296.624 300.294C295.858 302.74 295.013 305.436 296.624 300.294C298.236 295.152 310.229 283.202 302.84 280.886C296.553 278.915 298.236 295.152 296.624 300.294Z" fill="#77A945" fill-opacity="0.4"/>
<path d="M297.624 378.294C296.858 380.74 296.013 383.436 297.624 378.294C299.236 373.152 311.229 361.202 303.84 358.886C297.553 356.915 299.236 373.152 297.624 378.294Z" fill="#77A945" fill-opacity="0.4"/>
<path d="M637.466 1091.55C638.189 1094.01 638.985 1096.72 637.466 1091.55C635.947 1086.38 639.271 1069.78 631.841 1071.96C625.52 1073.82 635.947 1086.38 637.466 1091.55Z" fill="#77A945" fill-opacity="0.4"/>
<path d="M638.466 1169.55C639.189 1172.01 639.985 1174.72 638.466 1169.55C636.947 1164.38 640.271 1147.78 632.841 1149.96C626.52 1151.82 636.947 1164.38 638.466 1169.55Z" fill="#77A945" fill-opacity="0.4"/>
<path d="M606.466 1249.48C605.876 1251.98 605.226 1254.73 606.466 1249.48C607.707 1244.24 618.816 1231.46 611.28 1229.68C604.868 1228.17 607.707 1244.24 606.466 1249.48Z" fill="#77A945" fill-opacity="0.4"/>
<path d="M625.624 1052.29C624.858 1054.74 624.013 1057.44 625.624 1052.29C627.236 1047.15 639.229 1035.2 631.84 1032.89C625.553 1030.91 627.236 1047.15 625.624 1052.29Z" fill="#77A945" fill-opacity="0.4"/>
<path d="M626.624 1130.29C625.858 1132.74 625.013 1135.44 626.624 1130.29C628.236 1125.15 640.229 1113.2 632.84 1110.89C626.553 1108.91 628.236 1125.15 626.624 1130.29Z" fill="#77A945" fill-opacity="0.4"/>
<path d="M310.466 2061.55C311.189 2064.01 311.985 2066.72 310.466 2061.55C308.947 2056.38 312.271 2039.78 304.841 2041.96C298.52 2043.82 308.947 2056.38 310.466 2061.55Z" fill="#77A945" fill-opacity="0.4"/>
<path d="M311.466 2139.55C312.189 2142.01 312.985 2144.72 311.466 2139.55C309.947 2134.38 313.271 2117.78 305.841 2119.96C299.52 2121.82 309.947 2134.38 311.466 2139.55Z" fill="#77A945" fill-opacity="0.4"/>
<path d="M343.823 2199.36C346.174 2200.38 348.767 2201.5 343.823 2199.36C338.88 2197.21 328.262 2184.02 325.179 2191.13C322.556 2197.17 338.88 2197.21 343.823 2199.36Z" fill="#77A945" fill-opacity="0.4"/>
<path d="M298.624 2022.29C297.858 2024.74 297.013 2027.44 298.624 2022.29C300.236 2017.15 312.229 2005.2 304.84 2002.89C298.553 2000.91 300.236 2017.15 298.624 2022.29Z" fill="#77A945" fill-opacity="0.4"/>
<path d="M299.624 2100.29C298.858 2102.74 298.013 2105.44 299.624 2100.29C301.236 2095.15 313.229 2083.2 305.84 2080.89C299.553 2078.91 301.236 2095.15 299.624 2100.29Z" fill="#77A945" fill-opacity="0.4"/>
<path d="M301.624 2178.29C300.858 2180.74 300.013 2183.44 301.624 2178.29C303.236 2173.15 315.229 2161.2 307.84 2158.89C301.553 2156.91 303.236 2173.15 301.624 2178.29Z" fill="#77A945" fill-opacity="0.4"/>
<path d="M360.618 2225.71C362.461 2227.49 364.492 2229.46 360.618 2225.71C356.745 2221.96 351.444 2205.88 346.059 2211.45C341.478 2216.19 356.745 2221.96 360.618 2225.71Z" fill="#77A945" fill-opacity="0.4"/>
<path d="M476.709 1267.34C474.235 1268.01 471.507 1268.74 476.709 1267.34C481.91 1265.93 498.436 1269.61 496.412 1262.13C494.69 1255.77 481.91 1265.93 476.709 1267.34Z" fill="#77A945" fill-opacity="0.4"/>
<path d="M398.705 1266.67C396.231 1267.34 393.504 1268.07 398.705 1266.67C403.907 1265.26 420.433 1268.94 418.409 1261.46C416.687 1255.1 403.907 1265.26 398.705 1266.67Z" fill="#77A945" fill-opacity="0.4"/>
<path d="M337.363 1298.55C336.88 1301.07 336.348 1303.84 337.363 1298.55C338.379 1293.26 348.933 1280.02 341.327 1278.56C334.857 1277.32 338.379 1293.26 337.363 1298.55Z" fill="#77A945" fill-opacity="0.4"/>
<path d="M337.363 1298.55C336.88 1301.07 336.348 1303.84 337.363 1298.55C338.379 1293.26 348.933 1280.02 341.327 1278.56C334.857 1277.32 338.379 1293.26 337.363 1298.55Z" fill="#77A945" fill-opacity="0.4"/>
<path d="M309.909 1468.61C310.558 1471.09 311.274 1473.82 309.909 1468.61C308.543 1463.4 312.356 1446.9 304.865 1448.86C298.491 1450.53 308.543 1463.4 309.909 1468.61Z" fill="#77A945" fill-opacity="0.4"/>
<path d="M516.208 1256.34C513.78 1255.52 511.102 1254.62 516.208 1256.34C521.315 1258.06 533.005 1270.31 535.479 1262.97C537.584 1256.72 521.315 1258.06 516.208 1256.34Z" fill="#77A945" fill-opacity="0.4"/>
<path d="M438.205 1255.67C435.776 1254.85 433.098 1253.95 438.205 1255.67C443.311 1257.39 455.001 1269.64 457.476 1262.3C459.58 1256.05 443.311 1257.39 438.205 1255.67Z" fill="#77A945" fill-opacity="0.4"/>
<path d="M442.729 2217.21C445.204 2216.55 447.933 2215.81 442.729 2217.21C437.525 2218.61 421.006 2214.9 423.016 2222.38C424.726 2228.74 437.525 2218.61 442.729 2217.21Z" fill="#77A945" fill-opacity="0.4"/>
<path d="M520.732 2218.02C523.207 2217.36 525.936 2216.63 520.732 2218.02C515.528 2219.42 499.009 2215.71 501.019 2223.19C502.729 2229.55 515.528 2219.42 520.732 2218.02Z" fill="#77A945" fill-opacity="0.4"/>
<path d="M403.21 2228.14C405.637 2228.96 408.313 2229.87 403.21 2228.14C398.106 2226.41 386.439 2214.14 383.951 2221.47C381.835 2227.71 398.106 2226.41 403.21 2228.14Z" fill="#77A945" fill-opacity="0.4"/>
<path d="M481.212 2228.95C483.639 2229.77 486.316 2230.68 481.212 2228.95C476.109 2227.22 464.441 2214.95 461.954 2222.29C459.837 2228.52 476.109 2227.22 481.212 2228.95Z" fill="#77A945" fill-opacity="0.4"/>
<path d="M598.73 2218.21C601.205 2217.55 603.934 2216.81 598.73 2218.21C593.526 2219.61 577.007 2215.9 579.017 2223.38C580.727 2229.74 593.526 2219.61 598.73 2218.21Z" fill="#77A945" fill-opacity="0.4"/>
<path d="M676.732 2219.02C679.207 2218.36 681.936 2217.63 676.732 2219.02C671.528 2220.42 655.009 2216.71 657.019 2224.19C658.729 2230.55 671.528 2220.42 676.732 2219.02Z" fill="#77A945" fill-opacity="0.4"/>
<path d="M559.21 2229.14C561.637 2229.96 564.314 2230.87 559.21 2229.14C554.107 2227.41 542.439 2215.14 539.952 2222.47C537.835 2228.71 554.107 2227.41 559.21 2229.14Z" fill="#77A945" fill-opacity="0.4"/>
<path d="M637.212 2229.95C639.639 2230.77 642.316 2231.68 637.212 2229.95C632.109 2228.22 620.441 2215.95 617.954 2223.29C615.837 2229.52 632.109 2228.22 637.212 2229.95Z" fill="#77A945" fill-opacity="0.4"/>
<path d="M754.73 2217.21C757.205 2216.55 759.934 2215.81 754.73 2217.21C749.526 2218.61 733.007 2214.9 735.017 2222.38C736.727 2228.74 749.526 2218.61 754.73 2217.21Z" fill="#77A945" fill-opacity="0.4"/>
<path d="M832.732 2218.02C835.207 2217.36 837.936 2216.63 832.732 2218.02C827.528 2219.42 811.009 2215.71 813.019 2223.19C814.729 2229.55 827.528 2219.42 832.732 2218.02Z" fill="#77A945" fill-opacity="0.4"/>
<path d="M715.21 2228.14C717.637 2228.96 720.314 2229.87 715.21 2228.14C710.107 2226.41 698.439 2214.14 695.952 2221.47C693.835 2227.71 710.107 2226.41 715.21 2228.14Z" fill="#77A945" fill-opacity="0.4"/>
<path d="M793.212 2228.95C795.639 2229.77 798.316 2230.68 793.212 2228.95C788.109 2227.22 776.441 2214.95 773.954 2222.29C771.837 2228.52 788.109 2227.22 793.212 2228.95Z" fill="#77A945" fill-opacity="0.4"/>
<path d="M438.729 5499.21C441.204 5498.55 443.933 5497.81 438.729 5499.21C433.525 5500.61 417.006 5496.9 419.016 5504.38C420.726 5510.74 433.525 5500.61 438.729 5499.21Z" fill="#77A945" fill-opacity="0.4"/>
<path d="M516.732 5500.02C519.207 5499.36 521.936 5498.63 516.732 5500.02C511.528 5501.42 495.009 5497.71 497.019 5505.19C498.729 5511.55 511.528 5501.42 516.732 5500.02Z" fill="#77A945" fill-opacity="0.4"/>
<path d="M399.21 5510.14C401.637 5510.96 404.313 5511.87 399.21 5510.14C394.106 5508.41 382.439 5496.14 379.951 5503.47C377.835 5509.71 394.106 5508.41 399.21 5510.14Z" fill="#77A945" fill-opacity="0.4"/>
<path d="M477.212 5510.95C479.639 5511.77 482.316 5512.68 477.212 5510.95C472.109 5509.22 460.441 5496.95 457.954 5504.29C455.837 5510.52 472.109 5509.22 477.212 5510.95Z" fill="#77A945" fill-opacity="0.4"/>
<path d="M594.73 5502.21C597.205 5501.55 599.934 5500.81 594.73 5502.21C589.526 5503.61 573.007 5499.9 575.017 5507.38C576.727 5513.74 589.526 5503.61 594.73 5502.21Z" fill="#77A945" fill-opacity="0.4"/>
<path d="M555.21 5513.14C557.637 5513.96 560.314 5514.87 555.21 5513.14C550.107 5511.41 538.439 5499.14 535.952 5506.47C533.835 5512.71 550.107 5511.41 555.21 5513.14Z" fill="#77A945" fill-opacity="0.4"/>
<path d="M1055.75 6125.13C1053.28 6125.83 1050.56 6126.6 1055.75 6125.13C1060.94 6123.67 1077.5 6127.17 1075.4 6119.72C1073.61 6113.38 1060.94 6123.67 1055.75 6125.13Z" fill="#77A945" fill-opacity="0.4"/>
<path d="M977.744 6125.28C975.277 6125.98 972.558 6126.75 977.744 6125.28C982.931 6123.82 999.494 6127.33 997.392 6119.87C995.603 6113.53 982.931 6123.82 977.744 6125.28Z" fill="#77A945" fill-opacity="0.4"/>
<path d="M1095.13 6113.72C1092.69 6112.93 1090.01 6112.05 1095.13 6113.72C1100.26 6115.39 1112.07 6127.51 1114.47 6120.15C1116.51 6113.88 1100.26 6115.39 1095.13 6113.72Z" fill="#77A945" fill-opacity="0.4"/>
<path d="M1017.12 6113.87C1014.69 6113.08 1012 6112.2 1017.12 6113.87C1022.25 6115.54 1034.07 6127.66 1036.46 6120.3C1038.5 6114.03 1022.25 6115.54 1017.12 6113.87Z" fill="#77A945" fill-opacity="0.4"/>
<path d="M899.726 6124.06C897.259 6124.76 894.539 6125.52 899.726 6124.06C904.912 6122.6 921.476 6126.1 919.373 6118.65C917.585 6112.31 904.912 6122.6 899.726 6124.06Z" fill="#77A945" fill-opacity="0.4"/>
<path d="M939.106 6112.65C936.669 6111.85 933.982 6110.98 939.106 6112.65C944.231 6114.31 956.049 6126.44 958.446 6119.07C960.485 6112.81 944.231 6114.31 939.106 6112.65Z" fill="#77A945" fill-opacity="0.4"/>
<path d="M1202.61 5607.54C1203.34 5610 1204.14 5612.71 1202.61 5607.54C1201.08 5602.38 1204.38 5585.77 1196.95 5587.97C1190.63 5589.84 1201.08 5602.38 1202.61 5607.54Z" fill="#77A945" fill-opacity="0.4"/>
<path d="M1203.76 5685.54C1204.49 5688 1205.29 5690.71 1203.76 5685.54C1202.23 5680.37 1205.53 5663.77 1198.1 5665.97C1191.78 5667.84 1202.23 5680.37 1203.76 5685.54Z" fill="#77A945" fill-opacity="0.4"/>
<path d="M1191.85 5646.31C1191.08 5648.76 1190.24 5651.46 1191.85 5646.31C1193.45 5641.17 1205.42 5629.19 1198.02 5626.89C1191.73 5624.93 1193.45 5641.17 1191.85 5646.31Z" fill="#77A945" fill-opacity="0.4"/>
<path d="M1184.62 5577.3C1183.86 5579.75 1183.02 5582.45 1184.62 5577.3C1186.22 5572.16 1198.19 5560.18 1190.8 5557.88C1184.51 5555.92 1186.22 5572.16 1184.62 5577.3Z" fill="#77A945" fill-opacity="0.4"/>
<path d="M1191.62 5724.34C1190.86 5726.79 1190.02 5729.48 1191.62 5724.34C1193.22 5719.19 1205.19 5707.22 1197.8 5704.92C1191.51 5702.96 1193.22 5719.19 1191.62 5724.34Z" fill="#77A945" fill-opacity="0.4"/>
<path d="M1202.61 5763.54C1203.34 5766 1204.14 5768.71 1202.61 5763.54C1201.08 5758.38 1204.38 5741.77 1196.95 5743.97C1190.63 5745.84 1201.08 5758.38 1202.61 5763.54Z" fill="#77A945" fill-opacity="0.4"/>
<path d="M1191.85 5802.31C1191.08 5804.76 1190.24 5807.46 1191.85 5802.31C1193.45 5797.17 1205.42 5785.19 1198.02 5782.89C1191.73 5780.93 1193.45 5797.17 1191.85 5802.31Z" fill="#77A945" fill-opacity="0.4"/>
<path d="M1202.61 5947.54C1203.34 5950 1204.14 5952.71 1202.61 5947.54C1201.08 5942.38 1204.38 5925.77 1196.95 5927.97C1190.63 5929.84 1201.08 5942.38 1202.61 5947.54Z" fill="#77A945" fill-opacity="0.4"/>
<path d="M1203.76 6025.54C1204.49 6028 1205.29 6030.71 1203.76 6025.54C1202.23 6020.37 1205.53 6003.77 1198.1 6005.97C1191.78 6007.84 1202.23 6020.37 1203.76 6025.54Z" fill="#77A945" fill-opacity="0.4"/>
<path d="M1140.65 6130.24C1139.85 6132.68 1138.97 6135.36 1140.65 6130.24C1142.34 6125.13 1154.5 6113.35 1147.15 6110.93C1140.89 6108.87 1142.34 6125.13 1140.65 6130.24Z" fill="#77A945" fill-opacity="0.4"/>
<path d="M1191.85 5986.31C1191.08 5988.76 1190.24 5991.46 1191.85 5986.31C1193.45 5981.17 1205.42 5969.19 1198.02 5966.89C1191.73 5964.93 1193.45 5981.17 1191.85 5986.31Z" fill="#77A945" fill-opacity="0.4"/>
<path d="M1189.62 6056.3C1188.86 6058.75 1188.02 6061.45 1189.62 6056.3C1191.22 6051.16 1203.19 6039.18 1195.8 6036.88C1189.51 6034.92 1191.22 6051.16 1189.62 6056.3Z" fill="#77A945" fill-opacity="0.4"/>
<path d="M1151.74 6099.44C1149.28 6100.16 1146.57 6100.95 1151.74 6099.44C1156.92 6097.93 1173.51 6101.28 1171.34 6093.84C1169.49 6087.52 1156.92 6097.93 1151.74 6099.44Z" fill="#77A945" fill-opacity="0.4"/>
<path d="M1192.6 6091.53C1193.34 6093.98 1194.16 6096.69 1192.6 6091.53C1191.05 6086.37 1194.25 6069.75 1186.84 6071.99C1180.53 6073.89 1191.05 6086.37 1192.6 6091.53Z" fill="#77A945" fill-opacity="0.4"/>
<path d="M821.75 6126.13C819.283 6126.83 816.564 6127.6 821.75 6126.13C826.937 6124.67 843.5 6128.17 841.398 6120.72C839.609 6114.38 826.937 6124.67 821.75 6126.13Z" fill="#77A945" fill-opacity="0.4"/>
<path d="M743.744 6126.28C741.277 6126.98 738.558 6127.75 743.744 6126.28C748.931 6124.82 765.494 6128.33 763.392 6120.87C761.603 6114.53 748.931 6124.82 743.744 6126.28Z" fill="#77A945" fill-opacity="0.4"/>
<path d="M861.132 6114.72C858.695 6113.93 856.007 6113.05 861.132 6114.72C866.256 6116.39 878.075 6128.51 880.471 6121.15C882.51 6114.88 866.256 6116.39 861.132 6114.72Z" fill="#77A945" fill-opacity="0.4"/>
<path d="M783.125 6114.87C780.688 6114.08 778.001 6113.2 783.125 6114.87C788.249 6116.54 800.068 6128.66 802.464 6121.3C804.503 6115.03 788.249 6116.54 783.125 6114.87Z" fill="#77A945" fill-opacity="0.4"/>
<path d="M665.726 6125.06C663.259 6125.76 660.539 6126.52 665.726 6125.06C670.912 6123.6 687.476 6127.1 685.373 6119.65C683.585 6113.31 670.912 6123.6 665.726 6125.06Z" fill="#77A945" fill-opacity="0.4"/>
<path d="M705.106 6113.65C702.669 6112.85 699.982 6111.98 705.106 6113.65C710.231 6115.31 722.049 6127.44 724.446 6120.07C726.485 6113.81 710.231 6115.31 705.106 6113.65Z" fill="#77A945" fill-opacity="0.4"/>
<path d="M587.75 6126.13C585.283 6126.83 582.564 6127.6 587.75 6126.13C592.937 6124.67 609.5 6128.17 607.398 6120.72C605.609 6114.38 592.937 6124.67 587.75 6126.13Z" fill="#77A945" fill-opacity="0.4"/>
<path d="M509.744 6126.28C507.277 6126.98 504.558 6127.75 509.744 6126.28C514.931 6124.82 531.494 6128.33 529.392 6120.87C527.603 6114.53 514.931 6124.82 509.744 6126.28Z" fill="#77A945" fill-opacity="0.4"/>
<path d="M627.132 6114.72C624.695 6113.93 622.007 6113.05 627.132 6114.72C632.256 6116.39 644.075 6128.51 646.471 6121.15C648.51 6114.88 632.256 6116.39 627.132 6114.72Z" fill="#77A945" fill-opacity="0.4"/>
<path d="M549.125 6114.87C546.688 6114.08 544.001 6113.2 549.125 6114.87C554.249 6116.54 566.068 6128.66 568.464 6121.3C570.503 6115.03 554.249 6116.54 549.125 6114.87Z" fill="#77A945" fill-opacity="0.4"/>
<path d="M431.725 6125.06C429.258 6125.76 426.539 6126.52 431.725 6125.06C436.912 6123.6 453.475 6127.1 451.373 6119.65C449.584 6113.31 436.912 6123.6 431.725 6125.06Z" fill="#77A945" fill-opacity="0.4"/>
<path d="M471.106 6113.65C468.669 6112.85 465.982 6111.98 471.106 6113.65C476.231 6115.31 488.049 6127.44 490.446 6120.07C492.485 6113.81 476.231 6115.31 471.106 6113.65Z" fill="#77A945" fill-opacity="0.4"/>
<path d="M353.751 6125.13C351.284 6125.83 348.564 6126.6 353.751 6125.13C358.937 6123.67 375.5 6127.17 373.398 6119.72C371.61 6113.38 358.937 6123.67 353.751 6125.13Z" fill="#77A945" fill-opacity="0.4"/>
<path d="M275.744 6125.28C273.277 6125.98 270.558 6126.75 275.744 6125.28C280.931 6123.82 297.494 6127.33 295.392 6119.87C293.603 6113.53 280.931 6123.82 275.744 6125.28Z" fill="#77A945" fill-opacity="0.4"/>
<path d="M393.132 6113.72C390.695 6112.93 388.008 6112.05 393.132 6113.72C398.257 6115.39 410.075 6127.51 412.472 6120.15C414.511 6113.88 398.257 6115.39 393.132 6113.72Z" fill="#77A945" fill-opacity="0.4"/>
<path d="M315.125 6113.87C312.688 6113.08 310.001 6112.2 315.125 6113.87C320.25 6115.54 332.068 6127.66 334.465 6120.3C336.504 6114.03 320.25 6115.54 315.125 6113.87Z" fill="#77A945" fill-opacity="0.4"/>
<path d="M113.71 6234.56C114.418 6237.03 115.198 6239.74 113.71 6234.56C112.222 6229.38 115.645 6212.8 108.202 6214.94C101.87 6216.76 112.222 6229.38 113.71 6234.56Z" fill="#77A945" fill-opacity="0.4"/>
<path d="M126.108 6307.19C127.876 6309.05 129.825 6311.1 126.108 6307.19C122.392 6303.29 117.752 6287.01 112.144 6292.35C107.374 6296.9 122.392 6303.29 126.108 6307.19Z" fill="#77A945" fill-opacity="0.4"/>
<path d="M102.637 6273.24C101.856 6275.68 100.994 6278.38 102.637 6273.24C104.279 6268.11 116.344 6256.23 108.968 6253.87C102.693 6251.86 104.279 6268.11 102.637 6273.24Z" fill="#77A945" fill-opacity="0.4"/>
<path d="M237.107 6112.65C234.67 6111.85 231.983 6110.98 237.107 6112.65C242.231 6114.31 254.05 6126.44 256.446 6119.07C258.485 6112.81 242.231 6114.31 237.107 6112.65Z" fill="#77A945" fill-opacity="0.4"/>
<path d="M253.485 6346.47C255.939 6345.73 258.644 6344.92 253.485 6346.47C248.326 6348.03 231.701 6344.83 233.939 6352.24C235.843 6358.55 248.326 6348.03 253.485 6346.47Z" fill="#77A945" fill-opacity="0.4"/>
<path d="M214.318 6358.6C216.77 6359.35 219.472 6360.18 214.318 6358.6C209.165 6357.03 197.127 6345.12 194.865 6352.53C192.941 6358.83 209.165 6357.03 214.318 6358.6Z" fill="#77A945" fill-opacity="0.4"/>
<path d="M331.513 6346.27C333.966 6345.53 336.672 6344.71 331.513 6346.27C326.354 6347.83 309.729 6344.63 311.967 6352.04C313.871 6358.35 326.354 6347.83 331.513 6346.27Z" fill="#77A945" fill-opacity="0.4"/>
<path d="M292.346 6358.4C294.797 6359.15 297.5 6359.98 292.346 6358.4C287.192 6356.83 275.155 6344.92 272.893 6352.33C270.968 6358.63 287.192 6356.83 292.346 6358.4Z" fill="#77A945" fill-opacity="0.4"/>
<path d="M518.485 6346.47C520.939 6345.73 523.644 6344.92 518.485 6346.47C513.326 6348.03 496.701 6344.83 498.939 6352.24C500.843 6358.55 513.326 6348.03 518.485 6346.47Z" fill="#77A945" fill-opacity="0.4"/>
<path d="M479.318 6358.6C481.77 6359.35 484.472 6360.18 479.318 6358.6C474.165 6357.03 462.127 6345.12 459.865 6352.53C457.941 6358.83 474.165 6357.03 479.318 6358.6Z" fill="#77A945" fill-opacity="0.4"/>
<path d="M557.346 6358.4C559.797 6359.15 562.5 6359.98 557.346 6358.4C552.192 6356.83 540.155 6344.92 537.893 6352.33C535.968 6358.63 552.192 6356.83 557.346 6358.4Z" fill="#77A945" fill-opacity="0.4"/>
<path d="M166.729 5499.21C169.204 5498.55 171.933 5497.81 166.729 5499.21C161.525 5500.61 145.006 5496.9 147.016 5504.38C148.726 5510.74 161.525 5500.61 166.729 5499.21Z" fill="#77A945" fill-opacity="0.4"/>
<path d="M47.4346 5472.57C49.9146 5473.21 52.6489 5473.93 47.4346 5472.57C42.2203 5471.21 29.7027 5459.81 27.7476 5467.3C26.0843 5473.67 42.2203 5471.21 47.4346 5472.57Z" fill="#77A945" fill-opacity="0.4"/>
<path d="M95.5699 5495.24C98.0355 5494.54 100.754 5493.77 95.5699 5495.24C90.3857 5496.71 73.8168 5493.23 75.9307 5500.68C77.7291 5507.02 90.3857 5496.71 95.5699 5495.24Z" fill="#77A945" fill-opacity="0.4"/>
<path d="M244.732 5500.02C247.207 5499.36 249.936 5498.63 244.732 5500.02C239.528 5501.42 223.009 5497.71 225.019 5505.19C226.729 5511.55 239.528 5501.42 244.732 5500.02Z" fill="#77A945" fill-opacity="0.4"/>
<path d="M127.21 5510.14C129.637 5510.96 132.313 5511.87 127.21 5510.14C122.106 5508.41 110.439 5496.14 107.951 5503.47C105.835 5509.71 122.106 5508.41 127.21 5510.14Z" fill="#77A945" fill-opacity="0.4"/>
<path d="M9.67634 5464.2C8.84737 5466.63 7.93338 5469.3 9.67634 5464.2C11.4193 5459.1 23.7145 5447.46 16.3864 5444.96C10.1521 5442.83 11.4193 5459.1 9.67634 5464.2Z" fill="#77A945" fill-opacity="0.4"/>
<path d="M59.2806 5504.56C60.7882 5506.63 62.4505 5508.92 59.2806 5504.56C56.1108 5500.2 53.6578 5483.45 47.3949 5488.01C42.0669 5491.88 56.1108 5500.2 59.2806 5504.56Z" fill="#77A945" fill-opacity="0.4"/>
<path d="M139.829 6344.67C140.338 6347.19 140.9 6349.96 139.829 6344.67C138.758 6339.39 143.492 6323.14 135.902 6324.68C129.445 6325.99 138.758 6339.39 139.829 6344.67Z" fill="#77A945" fill-opacity="0.4"/>
<path d="M190.57 6342.24C193.036 6341.54 195.754 6340.77 190.57 6342.24C185.386 6343.71 168.817 6340.23 170.931 6347.68C172.729 6354.02 185.386 6343.71 190.57 6342.24Z" fill="#77A945" fill-opacity="0.4"/>
<path d="M205.212 5510.95C207.639 5511.77 210.316 5512.68 205.212 5510.95C200.109 5509.22 188.441 5496.95 185.954 5504.29C183.837 5510.52 200.109 5509.22 205.212 5510.95Z" fill="#77A945" fill-opacity="0.4"/>
<path d="M16.8706 5279.81C17.5077 5282.29 18.2101 5285.03 16.8706 5279.81C15.5312 5274.59 19.4281 5258.11 11.9268 5260.04C5.54519 5261.67 15.5312 5274.59 16.8706 5279.81Z" fill="#77A945" fill-opacity="0.4"/>
<path d="M28.812 5217.62C29.4491 5220.1 30.1515 5222.84 28.812 5217.62C27.4726 5212.4 31.3695 5195.92 23.8682 5197.85C17.4866 5199.49 27.4726 5212.4 28.812 5217.62Z" fill="#77A945" fill-opacity="0.4"/>
<path d="M56.7442 5182.05C55.8302 5184.44 54.8223 5187.08 56.7442 5182.05C58.6661 5177.02 71.3646 5165.82 64.1295 5163.06C57.9743 5160.71 58.6661 5177.02 56.7442 5182.05Z" fill="#77A945" fill-opacity="0.4"/>
<path d="M15.1704 5357.79C15.8075 5360.28 16.5099 5363.01 15.1704 5357.79C13.831 5352.57 17.7279 5336.1 10.2266 5338.02C3.845 5339.66 13.831 5352.57 15.1704 5357.79Z" fill="#77A945" fill-opacity="0.4"/>
<path d="M6.39413 5240.16C5.54334 5242.58 4.60529 5245.25 6.39413 5240.16C8.18297 5235.08 20.5825 5223.55 13.2773 5220.98C7.0625 5218.8 8.18297 5235.08 6.39413 5240.16Z" fill="#77A945" fill-opacity="0.4"/>
<path d="M19.752 5186.53C17.2954 5187.26 14.5868 5188.06 19.752 5186.53C24.9172 5184.99 41.5287 5188.26 39.3209 5180.84C37.4427 5174.52 24.9172 5184.99 19.752 5186.53Z" fill="#77A945" fill-opacity="0.4"/>
<path d="M78.0852 5149.71C75.673 5148.84 73.0134 5147.89 78.0852 5149.71C83.1569 5151.53 94.6048 5164 97.2223 5156.71C99.449 5150.51 83.1569 5151.53 78.0852 5149.71Z" fill="#77A945" fill-opacity="0.4"/>
<path d="M120.694 5174.16C119.844 5176.58 118.906 5179.25 120.694 5174.16C122.483 5169.08 134.883 5157.55 127.578 5154.98C121.363 5152.8 122.483 5169.08 120.694 5174.16Z" fill="#77A945" fill-opacity="0.4"/>
<path d="M127.112 6180.62C127.749 6183.1 128.452 6185.84 127.112 6180.62C125.773 6175.4 129.67 6158.92 122.168 6160.85C115.787 6162.49 125.773 6175.4 127.112 6180.62Z" fill="#77A945" fill-opacity="0.4"/>
<path d="M155.045 6145.05C154.13 6147.44 153.123 6150.08 155.045 6145.05C156.966 6140.02 169.665 6128.82 162.43 6126.06C156.275 6123.71 156.966 6140.02 155.045 6145.05Z" fill="#77A945" fill-opacity="0.4"/>
<path d="M104.694 6203.16C103.844 6205.58 102.906 6208.25 104.694 6203.16C106.483 6198.08 118.883 6186.55 111.578 6183.98C105.363 6181.8 106.483 6198.08 104.694 6203.16Z" fill="#77A945" fill-opacity="0.4"/>
<path d="M118.052 6149.53C115.595 6150.26 112.887 6151.06 118.052 6149.53C123.217 6147.99 139.828 6151.26 137.621 6143.84C135.743 6137.52 123.217 6147.99 118.052 6149.53Z" fill="#77A945" fill-opacity="0.4"/>
<path d="M176.385 6112.71C173.973 6111.84 171.313 6110.89 176.385 6112.71C181.457 6114.53 192.905 6127 195.522 6119.71C197.749 6113.51 181.457 6114.53 176.385 6112.71Z" fill="#77A945" fill-opacity="0.4"/>
<path d="M218.994 6137.16C218.143 6139.58 217.205 6142.25 218.994 6137.16C220.783 6132.08 233.183 6120.55 225.877 6117.98C219.663 6115.8 220.783 6132.08 218.994 6137.16Z" fill="#77A945" fill-opacity="0.4"/>
<path d="M4.69442 5318.15C3.84364 5320.57 2.90558 5323.24 4.69442 5318.15C6.48326 5313.07 18.8828 5301.54 11.5776 5298.97C5.36279 5296.78 6.48326 5313.07 4.69442 5318.15Z" fill="#77A945" fill-opacity="0.4"/>
<path d="M15.812 5430.62C16.4491 5433.1 17.1515 5435.84 15.812 5430.62C14.4726 5425.4 18.3695 5408.92 10.8682 5410.85C4.4866 5412.49 14.4726 5425.4 15.812 5430.62Z" fill="#77A945" fill-opacity="0.4"/>
<path d="M4.39413 5391.16C3.54334 5393.58 2.60529 5396.25 4.39413 5391.16C6.18297 5386.08 18.5825 5374.55 11.2773 5371.98C5.0625 5369.8 6.18297 5386.08 4.39413 5391.16Z" fill="#77A945" fill-opacity="0.4"/>
<path d="M910.73 2217.21C913.205 2216.55 915.934 2215.81 910.73 2217.21C905.526 2218.61 889.007 2214.9 891.017 2222.38C892.727 2228.74 905.526 2218.61 910.73 2217.21Z" fill="#77A945" fill-opacity="0.4"/>
<path d="M988.732 2218.02C991.207 2217.36 993.936 2216.63 988.732 2218.02C983.528 2219.42 967.009 2215.71 969.019 2223.19C970.729 2229.55 983.528 2219.42 988.732 2218.02Z" fill="#77A945" fill-opacity="0.4"/>
<path d="M1059.56 2242.95C1062.09 2243.38 1064.87 2243.86 1059.56 2242.95C1054.25 2242.03 1040.82 2231.73 1039.5 2239.36C1038.38 2245.85 1054.25 2242.03 1059.56 2242.95Z" fill="#77A945" fill-opacity="0.4"/>
<path d="M871.21 2228.14C873.637 2228.96 876.314 2229.87 871.21 2228.14C866.107 2226.41 854.439 2214.14 851.952 2221.47C849.835 2227.71 866.107 2226.41 871.21 2228.14Z" fill="#77A945" fill-opacity="0.4"/>
<path d="M949.212 2228.95C951.639 2229.77 954.316 2230.68 949.212 2228.95C944.109 2227.22 932.441 2214.95 929.954 2222.29C927.837 2228.52 944.109 2227.22 949.212 2228.95Z" fill="#77A945" fill-opacity="0.4"/>
<path d="M937.708 3268.06C935.239 3268.75 932.516 3269.5 937.708 3268.06C942.9 3266.62 959.45 3270.18 957.376 3262.72C955.61 3256.37 942.9 3266.62 937.708 3268.06Z" fill="#77A945" fill-opacity="0.4"/>
<path d="M1084.56 3207.84C1085.7 3210.14 1086.95 3212.67 1084.56 3207.84C1082.18 3203.01 1082.6 3186.08 1075.66 3189.51C1069.75 3192.43 1082.18 3203.01 1084.56 3207.84Z" fill="#77A945" fill-opacity="0.4"/>
<path d="M1030.84 3265.78C1029.8 3268.12 1028.65 3270.71 1030.84 3265.78C1033.02 3260.85 1046.29 3250.34 1039.21 3247.2C1033.18 3244.53 1033.02 3260.85 1030.84 3265.78Z" fill="#77A945" fill-opacity="0.4"/>
<path d="M859.701 3267.92C857.232 3268.61 854.509 3269.37 859.701 3267.92C864.893 3266.48 881.444 3270.04 879.369 3262.58C877.604 3256.24 864.893 3266.48 859.701 3267.92Z" fill="#77A945" fill-opacity="0.4"/>
<path d="M977.131 3256.79C974.697 3255.99 972.013 3255.1 977.131 3256.79C982.25 3258.48 994.023 3270.64 996.447 3263.29C998.509 3257.03 982.25 3258.48 977.131 3256.79Z" fill="#77A945" fill-opacity="0.4"/>
<path d="M1069.87 3169.67C1068.79 3172 1067.59 3174.56 1069.87 3169.67C1072.14 3164.79 1085.6 3154.51 1078.57 3151.25C1072.6 3148.47 1072.14 3164.79 1069.87 3169.67Z" fill="#77A945" fill-opacity="0.4"/>
<path d="M1044.02 3218.65C1041.59 3217.85 1038.9 3216.97 1044.02 3218.65C1049.14 3220.34 1060.91 3232.51 1063.34 3225.15C1065.4 3218.89 1049.14 3220.34 1044.02 3218.65Z" fill="#77A945" fill-opacity="0.4"/>
<path d="M899.124 3256.65C896.689 3255.85 894.006 3254.97 899.124 3256.65C904.242 3258.34 916.015 3270.51 918.439 3263.15C920.501 3256.89 904.242 3258.34 899.124 3256.65Z" fill="#77A945" fill-opacity="0.4"/>
<path d="M781.705 3268.41C779.236 3269.1 776.513 3269.85 781.705 3268.41C786.897 3266.97 803.447 3270.53 801.373 3263.07C799.607 3256.72 786.897 3266.97 781.705 3268.41Z" fill="#77A945" fill-opacity="0.4"/>
<path d="M703.698 3268.27C701.229 3268.96 698.507 3269.72 703.698 3268.27C708.89 3266.83 725.441 3270.4 723.366 3262.94C721.601 3256.59 708.89 3266.83 703.698 3268.27Z" fill="#77A945" fill-opacity="0.4"/>
<path d="M821.128 3257.14C818.693 3256.34 816.009 3255.46 821.128 3257.14C826.246 3258.83 838.019 3271 840.443 3263.64C842.505 3257.38 826.246 3258.83 821.128 3257.14Z" fill="#77A945" fill-opacity="0.4"/>
<path d="M620.233 4307.6C620.94 4310.06 621.72 4312.78 620.233 4307.6C618.746 4302.42 622.175 4285.84 614.731 4287.98C608.398 4289.8 618.746 4302.42 620.233 4307.6Z" fill="#77A945" fill-opacity="0.4"/>
<path d="M620.745 4385.61C621.452 4388.07 622.232 4390.79 620.745 4385.61C619.258 4380.43 622.686 4363.85 615.243 4365.98C608.91 4367.8 619.258 4380.43 620.745 4385.61Z" fill="#77A945" fill-opacity="0.4"/>
<path d="M608.637 4268.27C607.856 4270.71 606.993 4273.4 608.637 4268.27C610.281 4263.14 622.349 4251.27 614.974 4248.9C608.7 4246.89 610.281 4263.14 608.637 4268.27Z" fill="#77A945" fill-opacity="0.4"/>
<path d="M609.149 4346.28C608.367 4348.72 607.505 4351.41 609.149 4346.28C610.793 4341.15 622.861 4329.27 615.486 4326.91C609.211 4324.9 610.793 4341.15 609.149 4346.28Z" fill="#77A945" fill-opacity="0.4"/>
<path d="M618.233 4595.6C618.94 4598.06 619.72 4600.78 618.233 4595.6C616.746 4590.42 620.175 4573.84 612.731 4575.98C606.398 4577.8 616.746 4590.42 618.233 4595.6Z" fill="#77A945" fill-opacity="0.4"/>
<path d="M606.637 4556.27C605.856 4558.71 604.993 4561.4 606.637 4556.27C608.281 4551.14 620.349 4539.27 612.974 4536.9C606.7 4534.89 608.281 4551.14 606.637 4556.27Z" fill="#77A945" fill-opacity="0.4"/>
<path d="M616.233 4770.6C616.94 4773.06 617.72 4775.78 616.233 4770.6C614.746 4765.42 618.175 4748.84 610.731 4750.98C604.398 4752.8 614.746 4765.42 616.233 4770.6Z" fill="#77A945" fill-opacity="0.4"/>
<path d="M604.637 4731.27C603.856 4733.71 602.993 4736.4 604.637 4731.27C606.281 4726.14 618.349 4714.27 610.974 4711.9C604.7 4709.89 606.281 4726.14 604.637 4731.27Z" fill="#77A945" fill-opacity="0.4"/>
<path d="M607.637 4420.27C606.856 4422.71 605.993 4425.4 607.637 4420.27C609.281 4415.14 621.349 4403.27 613.974 4400.9C607.7 4398.89 609.281 4415.14 607.637 4420.27Z" fill="#77A945" fill-opacity="0.4"/>
<path d="M743.122 3257.01C740.687 3256.2 738.004 3255.32 743.122 3257.01C748.24 3258.69 760.013 3270.86 762.437 3263.5C764.499 3257.25 748.24 3258.69 743.122 3257.01Z" fill="#77A945" fill-opacity="0.4"/>
<path d="M625.719 3269.19C623.25 3269.88 620.527 3270.64 625.719 3269.19C630.911 3267.75 647.461 3271.31 645.386 3263.85C643.621 3257.51 630.911 3267.75 625.719 3269.19Z" fill="#77A945" fill-opacity="0.4"/>
<path d="M547.719 3269.19C545.25 3269.88 542.527 3270.64 547.719 3269.19C552.911 3267.75 569.461 3271.31 567.386 3263.85C565.621 3257.51 552.911 3267.75 547.719 3269.19Z" fill="#77A945" fill-opacity="0.4"/>
<path d="M665.023 3256.65C662.589 3255.85 659.905 3254.97 665.023 3256.65C670.141 3258.34 681.915 3270.51 684.339 3263.15C686.401 3256.89 670.141 3258.34 665.023 3256.65Z" fill="#77A945" fill-opacity="0.4"/>
<path d="M587.023 3256.65C584.589 3255.85 581.905 3254.97 587.023 3256.65C592.141 3258.34 603.915 3270.51 606.339 3263.15C608.401 3256.89 592.141 3258.34 587.023 3256.65Z" fill="#77A945" fill-opacity="0.4"/>
<path d="M469.718 3269.19C467.249 3269.88 464.527 3270.64 469.718 3269.19C474.91 3267.75 491.461 3271.31 489.386 3263.85C487.621 3257.51 474.91 3267.75 469.718 3269.19Z" fill="#77A945" fill-opacity="0.4"/>
<path d="M391.718 3269.19C389.249 3269.88 386.527 3270.64 391.718 3269.19C396.91 3267.75 413.461 3271.31 411.386 3263.85C409.621 3257.51 396.91 3267.75 391.718 3269.19Z" fill="#77A945" fill-opacity="0.4"/>
<path d="M318.134 3278.67C316.529 3280.67 314.761 3282.87 318.134 3278.67C321.507 3274.47 337.027 3267.7 330.987 3262.85C325.849 3258.73 321.507 3274.47 318.134 3278.67Z" fill="#77A945" fill-opacity="0.4"/>
<path d="M267.66 3306.23C266.851 3308.66 265.958 3311.34 267.66 3306.23C269.363 3301.12 281.564 3289.38 274.217 3286.94C267.965 3284.85 269.363 3301.12 267.66 3306.23Z" fill="#77A945" fill-opacity="0.4"/>
<path d="M252.485 3363.39C253.342 3365.8 254.287 3368.47 252.485 3363.39C250.684 3358.31 253.09 3341.55 245.791 3344.14C239.582 3346.34 250.684 3358.31 252.485 3363.39Z" fill="#77A945" fill-opacity="0.4"/>
<path d="M251.485 3568.39C252.342 3570.8 253.287 3573.47 251.485 3568.39C249.684 3563.31 252.09 3546.55 244.791 3549.14C238.582 3551.34 249.684 3563.31 251.485 3568.39Z" fill="#77A945" fill-opacity="0.4"/>
<path d="M509.023 3254.65C506.589 3253.85 503.905 3252.97 509.023 3254.65C514.141 3256.34 525.915 3268.51 528.339 3261.15C530.401 3254.89 514.141 3256.34 509.023 3254.65Z" fill="#77A945" fill-opacity="0.4"/>
<path d="M431.023 3255.65C428.589 3254.85 425.905 3253.97 431.023 3255.65C436.141 3257.34 447.915 3269.51 450.339 3262.15C452.401 3255.89 436.141 3257.34 431.023 3255.65Z" fill="#77A945" fill-opacity="0.4"/>
<path d="M353.023 3255.65C350.589 3254.85 347.905 3253.97 353.023 3255.65C358.141 3257.34 369.915 3269.51 372.339 3262.15C374.401 3255.89 358.141 3257.34 353.023 3255.65Z" fill="#77A945" fill-opacity="0.4"/>
<path d="M278.705 3274.06C276.231 3274.73 273.503 3275.47 278.705 3274.06C283.907 3272.65 300.432 3276.33 298.41 3268.86C296.689 3262.5 283.907 3272.65 278.705 3274.06Z" fill="#77A945" fill-opacity="0.4"/>
<path d="M240.18 3326.03C238.313 3327.79 236.256 3329.73 240.18 3326.03C244.103 3322.34 260.412 3317.79 255.104 3312.16C250.588 3307.36 244.103 3322.34 240.18 3326.03Z" fill="#77A945" fill-opacity="0.4"/>
<path d="M232.18 3527.03C230.313 3528.79 228.256 3530.73 232.18 3527.03C236.103 3523.34 252.412 3518.79 247.104 3513.16C242.588 3508.36 236.103 3523.34 232.18 3527.03Z" fill="#77A945" fill-opacity="0.4"/>
<path d="M237.765 3606C236.824 3608.38 235.786 3611.01 237.765 3606C239.744 3600.98 252.569 3589.93 245.366 3587.09C239.238 3584.67 239.744 3600.98 237.765 3606Z" fill="#77A945" fill-opacity="0.4"/>
<path d="M1020.08 2242.22C1021.42 2244.4 1022.9 2246.81 1020.08 2242.22C1017.26 2237.62 1016.12 2220.73 1009.52 2224.78C1003.91 2228.23 1017.26 2237.62 1020.08 2242.22Z" fill="#77A945" fill-opacity="0.4"/>
<path d="M1062.89 2283.43C1062.84 2285.99 1062.79 2288.82 1062.89 2283.43C1063 2278.04 1071.16 2263.21 1063.42 2263.06C1056.83 2262.93 1063 2278.04 1062.89 2283.43Z" fill="#77A945" fill-opacity="0.4"/>
<path d="M1085.12 2472.39C1085.88 2474.84 1086.73 2477.53 1085.12 2472.39C1083.51 2467.25 1086.54 2450.59 1079.15 2452.91C1072.86 2454.87 1083.51 2467.25 1085.12 2472.39Z" fill="#77A945" fill-opacity="0.4"/>
<path d="M1072.59 2433.35C1071.86 2435.81 1071.07 2438.52 1072.59 2433.35C1074.11 2428.18 1085.89 2416.02 1078.46 2413.84C1072.14 2411.98 1074.11 2428.18 1072.59 2433.35Z" fill="#77A945" fill-opacity="0.4"/>
<path d="M305.177 1312.4C303.229 1314.06 301.081 1315.9 305.177 1312.4C309.273 1308.9 325.78 1305.14 320.748 1299.25C316.466 1294.24 309.273 1308.9 305.177 1312.4Z" fill="#77A945" fill-opacity="0.4"/>
<path d="M294.851 1496.73C293.792 1499.06 292.625 1501.64 294.851 1496.73C297.077 1491.82 310.435 1481.42 303.383 1478.22C297.382 1475.5 297.077 1491.82 294.851 1496.73Z" fill="#77A945" fill-opacity="0.4"/>
<path d="M348.236 1263.98C345.676 1263.86 342.853 1263.72 348.236 1263.98C353.619 1264.24 368.217 1272.81 368.586 1265.08C368.9 1258.49 353.619 1264.24 348.236 1263.98Z" fill="#77A945" fill-opacity="0.4"/>
<path d="M613.163 1215.02C611.444 1216.92 609.549 1219.01 613.163 1215.02C616.777 1211.02 632.668 1205.18 626.924 1199.99C622.037 1195.57 616.777 1211.02 613.163 1215.02Z" fill="#77A945" fill-opacity="0.4"/>
<path d="M564.401 1252.35C561.858 1252.67 559.054 1253.03 564.401 1252.35C569.748 1251.68 585.602 1257.62 584.636 1249.94C583.815 1243.4 569.748 1251.68 564.401 1252.35Z" fill="#77A945" fill-opacity="0.4"/>
</svg>
